<?xml version="1.0" encoding="UTF-8"?>
<svg width="18px" height="18px" viewBox="0 0 18 18" version="1.1" xmlns="http://www.w3.org/2000/svg" xmlns:xlink="http://www.w3.org/1999/xlink">
    <!-- Generator: Sketch 60.1 (88133) - https://sketch.com -->
    <title>ic_add</title>
    <desc>Created with Sketch.</desc>
    <g id="2.0" stroke="none" stroke-width="1" fill="none" fill-rule="evenodd">
        <g id="logo切图" transform="translate(-242.000000, -157.000000)" fill-rule="nonzero">
            <g id="ic_add" transform="translate(241.000000, 156.000000)">
                <rect id="矩形" fill="#000000" opacity="0" x="0" y="0" width="20" height="20"></rect>
                <path d="M13.8891667,1.66666666 L6.11083334,1.66666666 C3.275,1.66666666 1.66666666,3.27416666 1.66666666,6.11083334 L1.66666666,13.8891667 C1.66666666,16.7183333 3.26666666,18.3333333 6.11083334,18.3333333 L13.8891667,18.3333333 C16.725,18.3333333 18.3333333,16.7183333 18.3333333,13.8891667 L18.3333333,6.11083334 C18.3333333,3.275 16.7258333,1.66666666 13.8891667,1.66666666 Z" id="路径" fill="#FFD400" opacity="0.200000003"></path>
                <path d="M12.7666667,10.59 L10.625,10.59 L10.625,12.7141667 C10.625,13.0558333 10.345,13.3333423 10,13.3333423 C9.83497932,13.3342195 9.67637751,13.2694571 9.55914278,13.1533165 C9.44190804,13.037176 9.37566125,12.8791884 9.375,12.7141667 L9.375,10.59 L7.23333334,10.59 C6.91263579,10.5587644 6.66771654,10.2897134 6.66666666,9.9675 C6.66666666,9.64666666 6.91083332,9.37833334 7.23333334,9.345 L9.36833334,9.345 L9.36833334,7.22833334 C9.40292139,6.90776933 9.67424526,6.66523313 9.99666666,6.66666034 C10.32,6.66666034 10.5916667,6.90833332 10.625,7.22833334 L10.625,9.345 L12.7666667,9.345 C13.0891667,9.37833334 13.3333333,9.64666666 13.3333333,9.9675 C13.3322835,10.2897134 13.0873642,10.5587644 12.7666667,10.59 L12.7666667,10.59 Z" id="路径" fill="#FFD400"></path>
            </g>
        </g>
    </g>
</svg>