<?xml version="1.0" encoding="UTF-8"?>
<svg width="184px" height="51px" viewBox="0 0 184 51" version="1.1" xmlns="http://www.w3.org/2000/svg" xmlns:xlink="http://www.w3.org/1999/xlink">
    <title>灵踪</title>
    <defs>
        <rect id="path-1" x="0" y="0" width="184" height="50"></rect>
        <polygon id="path-3" points="1.3424937e-15 0 35.2442653 0 35.2442653 40 1.3424937e-15 40"></polygon>
    </defs>
    <g id="首页" stroke="none" stroke-width="1" fill="none" fill-rule="evenodd">
        <g id="鼠标经过" transform="translate(-714.000000, -1135.000000)">
            <g id="编组-32" transform="translate(0.000000, 878.000000)">
                <g id="编组-9备份" transform="translate(420.000000, 130.000000)">
                    <g id="编组-15" transform="translate(264.000000, 0.000000)">
                        <g id="编组-13" transform="translate(0.000000, 120.000000)">
                            <g id="编组-12" transform="translate(30.000000, 7.879050)">
                                <mask id="mask-2" fill="white">
                                    <use xlink:href="#path-1"></use>
                                </mask>
                                <g id="矩形"></g>
                                <g id="编组" mask="url(#mask-2)">
                                    <g transform="translate(30.000000, 5.000000)">
                                        <path d="M103.993563,14.0294621 L106.187788,9.20153698 L109.067759,9.20153698 L118.94197,9.20153698 L121.136392,14.0294621 L118.295731,14.0294621 L116.963157,11.101535 L108.186255,11.101535 L106.834224,14.0294621 L103.993563,14.0294621 Z M120.822903,25.3176163 L104.346164,25.3176163 L104.346164,23.104719 L111.222872,23.104719 L111.222872,21.1154897 L105.071021,21.1154897 L105.071021,18.9023959 L111.222872,18.9023959 L111.222872,17.2036597 L104.620344,17.2036597 L104.620344,14.9907624 L120.529069,14.9907624 L120.529069,17.2036597 L113.946196,17.2036597 L113.946196,18.9023959 L120.098243,18.9023959 L120.098243,21.1154897 L113.946196,21.1154897 L113.946196,23.104719 L120.822903,23.104719 L120.822903,25.3176163 Z M96.293333,15.1920242 L96.293333,13.7837811 L97.3513333,13.7837811 L97.3513333,13.3590479 C97.3513333,13.1654514 97.2923699,13.001533 97.1750327,12.867293 C97.0573024,12.7330529 96.9138247,12.6660312 96.7440101,12.6660312 L85.4196916,12.6660312 L85.4196916,13.7837811 L86.4973464,13.7837811 L86.4973464,15.1920242 L96.293333,15.1920242 Z M96.293333,17.4047249 L86.4973464,17.4047249 L86.4973464,18.924802 C87.3200827,19.3123882 88.1331883,19.6771753 88.9364667,20.0199493 C89.739745,20.3627233 90.5528506,20.6832878 91.3757835,20.9810531 C92.1987163,20.6832878 93.0183079,20.3627233 93.8343617,20.0199493 C94.6508085,19.6771753 95.4705967,19.3123882 96.293333,18.924802 L96.293333,17.4047249 Z M99.0166569,14.5660292 L99.0166569,15.1920242 L100.074657,15.1920242 L100.074657,17.4047249 L99.0166569,17.4047249 L99.0166569,17.5835807 L99.0166569,20.1317833 C98.3863379,20.5193695 97.756412,20.8804222 97.126093,21.2159241 C96.495774,21.5514259 95.8524831,21.867863 95.1962202,22.1658248 C96.0059845,22.3745553 96.8157489,22.5532145 97.6255132,22.7023919 C98.4354741,22.8515694 99.2517244,22.9632068 100.074657,23.0376973 L100.074657,25.3176163 C97.044527,25.0642701 94.1511918,24.4980247 91.3952414,23.6188801 C89.9978083,24.0658228 88.5773794,24.4308064 87.1339548,24.7140274 C85.6905302,24.9972484 84.218017,25.1985102 82.7160221,25.3176163 L82.7160221,23.0376973 C83.5389549,22.9632068 84.351864,22.8515694 85.1551424,22.7023919 C85.9584207,22.5532145 86.7715263,22.3745553 87.5944592,22.1658248 C86.928369,21.867863 86.2817368,21.5514259 85.6547591,21.2159241 C85.0277814,20.8804222 84.4010002,20.5193695 83.7740224,20.1317833 L83.7740224,17.4047249 L82.7160221,17.4047249 L82.7160221,15.1920242 L83.7740224,15.1920242 L83.7740224,14.5660292 L82.7160221,14.5660292 L82.7160221,10.4533305 L89.9649853,10.4533305 L89.4751958,9.20153698 L92.4532418,9.20153698 L92.9233768,10.4533305 L97.9195442,10.4533305 C98.2068926,10.4533305 98.481269,10.5166179 98.742477,10.6431927 C99.0034884,10.769964 99.23207,10.9450854 99.4280251,11.1683602 C99.6239802,11.3920281 99.7808229,11.652843 99.8981601,11.9510014 C100.01589,12.2487667 100.074657,12.5691346 100.074657,12.9119086 L100.074657,14.5660292 L99.0166569,14.5660292 Z M64.1423473,13.8059907 L65.0957858,13.8059907 C65.265797,13.8059907 65.412616,13.7389689 65.5301497,13.6049254 C65.6510247,13.4708819 65.7095951,13.2994949 65.7095951,13.0907644 L65.7095951,11.5036656 L64.1423473,11.5036656 L64.1423473,13.8059907 Z M67.6886041,24.6245995 L61.575866,25.3176163 L61.575866,23.3505965 L61.9282708,23.3059809 L61.9282708,16.2873681 L63.8876253,16.2873681 L63.8876253,23.0825095 L64.29919,23.0376973 L64.29919,15.5941548 L61.8109335,15.5941548 L61.8109335,9.64847973 L68.0412054,9.64847973 L68.0412054,13.1355766 C68.0412054,13.6721437 67.9040171,14.1524991 67.6296407,14.5772323 C67.3554608,15.0017689 67.0026629,15.2961929 66.5718369,15.4601112 L66.5718369,17.538965 L67.8649047,17.538965 L67.8649047,19.7518623 L66.5718369,19.7518623 L66.5718369,22.7696103 L67.6886041,22.6351736 L67.6886041,24.6245995 Z M76.7204247,9.98378506 C77.0077731,9.98378506 77.2821496,10.0470725 77.5433575,10.1738438 C77.804762,10.3006152 78.033147,10.4757366 78.2289056,10.6992079 C78.4250573,10.9224828 78.5783622,11.1834942 78.6894099,11.481456 C78.8006543,11.7794178 78.8558833,12.0925136 78.8558833,12.4201537 L78.8558833,13.381454 L76.6614613,13.381454 L76.6614613,12.3083197 C76.6614613,12.1149197 76.6028909,11.9510014 76.4853572,11.8167613 C76.36802,11.6827178 76.2176632,11.6154995 76.0348766,11.6154995 L70.5882287,11.6154995 L70.5882287,13.381454 L68.3938066,13.381454 L68.3938066,9.98378506 L72.2142434,9.98378506 L71.920409,9.22394308 L74.859146,9.22394308 L75.1529804,9.98378506 L76.7204247,9.98378506 Z M78.8558833,24.6916213 L77.8568464,20.3552546 L75.6427699,20.3552546 L76.6225454,24.6916213 L78.8558833,24.6916213 Z M70.4704984,24.6916213 L71.4697319,20.3552546 L69.236394,20.3552546 L68.3938066,24.6916213 L70.4704984,24.6916213 Z M78.8558833,19.3719413 L74.8984549,19.3719413 L74.8984549,23.2387626 C74.8984549,23.5219835 74.8495153,23.7902671 74.751636,24.0434167 C74.6535602,24.2967629 74.5228579,24.5164999 74.3595292,24.7028243 C74.1963971,24.8891488 74.000442,25.0383262 73.7716639,25.1499636 C73.5432789,25.2616011 73.3048701,25.3176163 73.0566341,25.3176163 L70.6273411,25.3176163 L71.3521981,23.7753297 L71.6069201,23.7753297 C71.7767348,23.7753297 71.9237502,23.7083079 72.04777,23.5740679 C72.1715931,23.4400244 72.2338978,23.2761061 72.2338978,23.0825095 L72.2338978,19.3719413 L68.3938066,19.3719413 L68.3938066,17.3377032 L78.8558833,17.3377032 L78.8558833,19.3719413 Z M68.7855203,16.1977437 L78.4639731,16.1977437 L78.4639731,14.1859117 L68.7855203,14.1859117 L68.7855203,16.1977437 Z M40.43571,25.3176163 L45.0004616,25.3176163 L49.3499968,21.6518603 L53.3074252,25.3176163 L57.6375025,25.3176163 L53.190088,21.1825114 L55.9916368,21.1825114 L57.5588846,18.4778592 L54.5419228,18.4778592 L53.0527032,21.0484679 L52.6611861,20.6907565 L50.5058764,20.6907565 L50.8388232,20.3776607 L50.8388232,17.7846459 L56.9908703,17.7846459 L56.9908703,16.0190845 L56.9908703,15.5721417 L56.9908703,11.6603117 C56.9908703,11.3175377 56.9354446,10.9969732 56.8242003,10.6992079 C56.7133491,10.4010495 56.5600442,10.1402347 56.3638925,9.9167633 C56.1679374,9.69329193 55.9395524,9.51836711 55.6781479,9.3913992 C55.41694,9.26482439 55.1360775,9.20153698 54.8357571,9.20153698 L41.0821456,9.20153698 L41.0821456,11.4144342 L53.660223,11.4144342 C53.8298411,11.4144342 53.9735154,11.481456 54.0914422,11.6154995 C54.2087794,11.7497396 54.2675463,11.9136579 54.2675463,12.107451 L54.2675463,12.6436251 L41.0821456,12.6436251 L41.0821456,14.3649639 L54.2675463,14.3649639 L54.2675463,15.5721417 L41.0821456,15.5721417 L41.0821456,17.7846459 L47.312614,17.7846459 L47.312614,19.4165569 L40.43571,25.3176163 Z M45.059032,21.1825114 L42.0422667,21.1825114 L40.4942803,18.4778592 L43.5114387,18.4778592 L45.059032,21.1825114 Z" id="Fill-1" fill="#00494E"></path>
                                        <path d="M112.815041,31.7852945 L112.815041,32.8316987 L109.314973,32.8316987 L109.314973,35.2501818 L108.074972,35.2501818 L108.074972,32.1897836 C108.080868,31.3102459 108.162827,30.7327974 108.321242,30.4572417 C108.520539,30.0702451 108.809459,29.7946894 109.187415,29.6305745 C109.565567,29.4662631 110.097614,29.3843039 110.783751,29.3843039 L112.815041,29.3843039 L112.815041,30.4309047 L110.941773,30.4309047 C110.361377,30.4425008 109.989121,30.489475 109.825006,30.5716307 C109.496776,30.7064604 109.326569,31.005405 109.314973,31.4684644 L109.314973,31.7852945 L112.815041,31.7852945 Z M103.501965,30.3342047 C102.927268,30.3342047 102.516883,30.5215118 102.270612,30.8969123 C102.071316,31.190157 101.971668,31.662061 101.971668,32.3130172 C101.971668,32.9987618 102.094901,33.502899 102.341172,33.825429 C102.587246,34.1420625 102.977191,34.3004776 103.51081,34.3004776 C104.02674,34.3004776 104.406268,34.1393109 104.64959,33.8165844 C104.892912,33.4940545 105.014574,32.9958136 105.014574,32.3216651 C105.014574,31.706087 104.914925,31.2369347 104.715629,30.9144048 C104.486851,30.5335011 104.082362,30.3399045 103.501965,30.3342047 L103.501965,30.3342047 Z M103.493121,29.3491224 C104.079414,29.3491224 104.595344,29.4487706 105.040911,29.6482635 C105.562737,29.8886377 105.929096,30.2901787 106.140185,30.8530828 C106.3043,31.2925569 106.386456,31.8084868 106.386456,32.4008727 C106.386456,32.9987618 106.286808,33.5176399 106.087511,33.957507 C105.835344,34.4791368 105.448544,34.8456927 104.926522,35.0567818 C104.539721,35.209104 104.093958,35.2853633 103.589821,35.2853633 C102.927268,35.2853633 102.352965,35.1623263 101.866123,34.9160557 C101.455738,34.710863 101.142052,34.3883331 100.925067,33.9486625 C100.708278,33.5089919 100.599786,32.9753729 100.599786,32.3478056 C100.599786,31.2280902 100.878289,30.4309047 101.435297,29.9558561 C101.904253,29.5572633 102.590391,29.3550188 103.493121,29.3491224 L103.493121,29.3491224 Z M96.2730495,30.3342047 C95.6985493,30.3342047 95.2879673,30.5215118 95.0416967,30.8969123 C94.8424004,31.190157 94.7427522,31.662061 94.7427522,32.3130172 C94.7427522,32.9987618 94.8659857,33.502899 95.1122563,33.825429 C95.3583303,34.1420625 95.7482751,34.3004776 96.2816975,34.3004776 C96.797824,34.3004776 97.1773519,34.1393109 97.4206743,33.8165844 C97.6639967,33.4940545 97.7854613,32.9958136 97.7854613,32.3216651 C97.7854613,31.706087 97.6860097,31.2369347 97.4867133,30.9144048 C97.2579353,30.5335011 96.8534462,30.3399045 96.2730495,30.3342047 L96.2730495,30.3342047 Z M96.264205,29.3491224 C96.8503015,29.3491224 97.366428,29.4487706 97.8119949,29.6482635 C98.3338212,29.8886377 98.7003771,30.2901787 98.9112696,30.8530828 C99.0753845,31.2925569 99.1575402,31.8084868 99.1575402,32.4008727 C99.1575402,32.9987618 99.057892,33.5176399 98.8585956,33.957507 C98.6064287,34.4791368 98.2196287,34.8456927 97.6976058,35.0567818 C97.3108058,35.209104 96.8652389,35.2853633 96.360905,35.2853633 C95.6985493,35.2853633 95.1238524,35.1623263 94.6374042,34.9160557 C94.2268222,34.710863 93.9131368,34.3883331 93.6961514,33.9486625 C93.4793626,33.5089919 93.3706733,32.9753729 93.3706733,32.3478056 C93.3706733,31.2280902 93.6493738,30.4309047 94.2063816,29.9558561 C94.6753373,29.5572633 95.361475,29.3550188 96.264205,29.3491224 L96.264205,29.3491224 Z M87.7775996,31.978498 L89.527634,31.978498 C89.8208787,31.978498 90.0290196,31.9346685 90.1522531,31.8466165 C90.3395603,31.7176831 90.4335087,31.4920498 90.4335087,31.1695198 C90.4335087,30.812005 90.2927826,30.5834234 90.0115271,30.4835787 C89.9116824,30.4483972 89.7505157,30.4309047 89.527634,30.4309047 L87.7775996,30.4309047 L87.7775996,31.978498 Z M87.7775996,33.0252953 L87.7775996,35.2501818 L86.5289508,35.2501818 L86.5289508,29.3843039 L89.3957524,29.3843039 C90.2165233,29.3843039 90.7882719,29.4896519 91.1108019,29.7009375 C91.3334871,29.841467 91.5050706,30.0277914 91.6251595,30.2591246 C91.7454448,30.4910474 91.8055875,30.7445901 91.8055875,31.0197527 C91.8055875,31.5769571 91.6648615,32.0079797 91.3832129,32.3130172 C91.2075019,32.4946245 90.9759722,32.6324024 90.6886238,32.7261542 C90.9172053,32.8083099 91.0901647,32.8947896 91.2075019,32.9855933 C91.3246425,33.0763969 91.4301871,33.2098508 91.5239389,33.3857584 C91.5943019,33.5264844 91.6456001,33.6613141 91.67803,33.7902474 C91.7102633,33.9191808 91.735028,34.1098292 91.752717,34.3617996 C91.7878985,34.7839777 91.8348727,35.0801706 91.893443,35.2501818 L90.4950272,35.2501818 C90.4539493,35.1151556 90.4101199,34.8366517 90.3633422,34.4146701 C90.3338605,34.0744511 90.2737178,33.8136363 90.1829141,33.6320289 C90.0921105,33.4504216 89.9557084,33.3065508 89.7741011,33.2012029 C89.545323,33.0779693 89.2139485,33.019399 88.7801743,33.0252953 L87.7775996,33.0252953 Z M80.874162,32.1546021 L82.5715224,32.1546021 C82.8763633,32.1546021 83.0904005,32.1076279 83.2134375,32.0136795 C83.3952414,31.8672537 83.4860451,31.6121386 83.4860451,31.2487274 C83.4860451,30.8558344 83.3482672,30.6036675 83.0727115,30.4924232 C82.9730633,30.4513453 82.8146482,30.4309047 82.5978594,30.4309047 L80.874162,30.4309047 L80.874162,32.1546021 Z M80.874162,33.2012029 L80.874162,35.2501818 L79.6255132,35.2501818 L79.6255132,29.3843039 L82.5538334,29.3843039 C83.0874523,29.3843039 83.4685526,29.4224336 83.6971341,29.4984964 C84.0841307,29.6276263 84.3889716,29.8945341 84.6116568,30.2990232 C84.7757717,30.6036675 84.8579274,30.935042 84.8579274,31.2925569 C84.8579274,31.591698 84.803681,31.8745258 84.6951883,32.1414336 C84.5866956,32.4079483 84.4359458,32.626506 84.2423493,32.7965172 C84.0664417,32.9488394 83.8803138,33.0543839 83.6839656,33.1131508 C83.4874209,33.1719177 83.2193339,33.2012029 82.8791149,33.2012029 L80.874162,33.2012029 Z M74.5949505,32.6819316 L72.422738,29.3843039 L73.8826724,29.3843039 L75.2280211,31.6795535 L76.6439295,29.3843039 L78.1302008,29.3843039 L75.8437958,32.7261542 L75.8437958,35.2501818 L74.5949505,35.2501818 L74.5949505,32.6819316 Z M67.0932308,31.978498 L68.8432652,31.978498 C69.1367065,31.978498 69.3446508,31.9346685 69.4678844,31.8466165 C69.655388,31.7176831 69.7491399,31.4920498 69.7491399,31.1695198 C69.7491399,30.812005 69.6084138,30.5834234 69.3271583,30.4835787 C69.2273136,30.4483972 69.0663434,30.4309047 68.8432652,30.4309047 L67.0932308,30.4309047 L67.0932308,31.978498 Z M67.0932308,33.0252953 L67.0932308,35.2501818 L65.8447786,35.2501818 L65.8447786,29.3843039 L68.7113836,29.3843039 C69.5321545,29.3843039 70.1039031,29.4896519 70.4264331,29.7009375 C70.6491183,29.841467 70.8207018,30.0277914 70.9407907,30.2591246 C71.061076,30.4910474 71.1212187,30.7445901 71.1212187,31.0197527 C71.1212187,31.5769571 70.9804927,32.0079797 70.6990406,32.3130172 C70.5231331,32.4946245 70.2916034,32.6324024 70.004255,32.7261542 C70.233033,32.8083099 70.4059924,32.8947896 70.5231331,32.9855933 C70.6402737,33.0763969 70.7458183,33.2098508 70.8397667,33.3857584 C70.9099331,33.5264844 70.9612313,33.6613141 70.9936612,33.7902474 C71.0258945,33.9191808 71.0506592,34.1098292 71.0683482,34.3617996 C71.1035297,34.7839777 71.1505039,35.0801706 71.2090742,35.2501818 L69.8106584,35.2501818 C69.7697771,35.1151556 69.7259476,34.8366517 69.6789734,34.4146701 C69.6496882,34.0744511 69.5895455,33.8136363 69.4985453,33.6320289 C69.4077417,33.4504216 69.2715362,33.3065508 69.0895357,33.2012029 C68.8609542,33.0779693 68.5295797,33.019399 68.0958055,33.0252953 L67.0932308,33.0252953 Z M62.5290687,35.2501818 L63.7777175,35.2501818 L63.7777175,29.3843039 L62.5290687,29.3843039 L62.5290687,35.2501818 Z M57.8768547,30.8000157 L57.0413429,32.8491912 L58.7123664,32.8491912 L57.8768547,30.8000157 Z M54.7284044,35.2501818 L57.155732,29.3843039 L58.5893293,29.3843039 L61.0166569,35.2501818 L59.5567226,35.2501818 L58.9849739,33.895792 L56.7598909,33.895792 L56.1883388,35.2501818 L54.7284044,35.2501818 Z M53.4972481,31.7852945 L53.4972481,32.8316987 L49.9971793,32.8316987 L49.9971793,35.2501818 L48.7571786,35.2501818 L48.7571786,32.1897836 C48.7630749,31.3102459 48.8450341,30.7327974 49.0034491,30.4572417 C49.2027455,30.0702451 49.4914697,29.7946894 49.8696218,29.6305745 C50.2479704,29.4662631 50.7798205,29.3843039 51.4659582,29.3843039 L53.4972481,29.3843039 L53.4972481,30.4309047 L51.6239802,30.4309047 C51.0435836,30.4425008 50.6713278,30.489475 50.507213,30.5716307 C50.1787867,30.7064604 50.008972,31.005405 49.9971793,31.4684644 L49.9971793,31.7852945 L53.4972481,31.7852945 Z" id="Fill-3" fill="#00494E"></path>
                                        <g id="编组" stroke-width="1" fill="none" transform="translate(-0.000000, 0.000000)">
                                            <mask id="mask-4" fill="white">
                                                <use xlink:href="#path-3"></use>
                                            </mask>
                                            <g id="Clip-6"></g>
                                            <path d="M9.71533418,31.8370251 C9.68526284,32.0034985 9.69312463,32.0115568 9.83424375,32.1045225 C11.8321211,33.4247135 14.3899544,34.8942786 17.6221327,37.1417677 C26.9371742,30.6656184 30.6520664,30.6447847 31.5003535,22.0632481 L32.811307,10.6988345 L32.815631,10.6612944 L32.8172033,10.6489121 C32.8457023,10.4006761 32.8722359,10.1658051 32.897566,9.94233377 C32.9062381,9.01798384 32.5750602,8.26855874 31.8480412,7.72314707 C31.3205151,8.41105368 30.6068611,8.89317793 29.488325,9.57813636 C27.3514906,10.8863382 24.6309182,11.7871027 21.418984,12.3899055 C18.961192,12.851196 17.6590831,14.0467776 17.3375359,15.6028224 C17.2974407,15.7985809 17.2758208,15.862458 17.5323117,15.8608856 C18.3912122,15.8551858 20.7432632,14.2576702 20.7432632,14.2576702 L19.0394168,16.1572751 C18.3731301,16.070992 17.4452424,16.0513375 17.2070302,16.3707227 C16.332013,17.5488119 16.0104658,18.5885336 16.5757285,19.4063563 C17.089693,17.9605731 18.5759643,17.540557 20.5807207,17.6681145 C22.4101592,17.9430806 23.9620765,17.5790798 25.253572,16.6124727 C24.3714792,23.1365789 13.6780693,17.5034101 10.1699422,29.9490163 C10.1634562,29.967688 10.1575599,29.9859667 10.1534324,30.0030661 L10.1463568,30.0295996 C10.1174647,30.134358 10.0897519,30.2434403 10.0618426,30.3509503 C9.91679254,30.8910552 9.84721571,31.109613 9.71533418,31.8370251 L9.71533418,31.8370251 Z M6.25595015,29.1457379 L6.25929141,29.1492757 L6.26086377,29.1512412 L6.26223959,29.1528135 L6.26381194,29.1549755 L6.32533045,29.2263213 L6.42320973,29.3373691 L6.50674125,29.4295485 L6.57042174,29.4983392 L6.57042174,29.4987323 C6.81944393,29.7648539 7.08635169,30.0211482 7.37134157,30.2725289 C8.10209493,26.3312172 9.50444167,21.5296291 11.5339627,17.4607598 C13.5807797,13.3572987 16.268529,9.99363195 19.5559364,8.9896814 C20.6113817,8.66754457 21.6121875,8.49026121 22.5795807,8.31907074 C24.5471902,7.97118654 26.3748597,7.64747735 28.1756027,6.17594685 L18.5421586,2.51235284 C17.9254012,2.2780715 17.3188641,2.2780715 16.7021067,2.51235284 C12.6002179,4.07232847 8.49793604,5.63230409 4.39604725,7.19208318 C2.9638257,7.72747106 2.33055854,8.67442363 2.34687175,9.95510918 C2.81248625,13.991352 3.27829729,18.0272018 3.74371524,22.0632481 C4.03184984,24.977417 4.65116232,26.9041451 5.70739377,28.4316909 L5.7083765,28.4334598 L5.70975231,28.4352287 L5.71093158,28.4369976 L5.71230739,28.4387665 L5.71348666,28.4403388 L5.71466593,28.4421077 L5.77972224,28.5348769 L5.78109805,28.5366458 L5.78208078,28.5386112 L5.78345659,28.539987 L5.78463586,28.5419525 L5.78601167,28.5435248 L5.85067489,28.6327561 L5.85185416,28.634525 L5.85322997,28.636294 L5.85440924,28.6380629 L5.85578506,28.6398318 L5.85716087,28.6416007 L5.85834014,28.643173 L5.85971595,28.6451385 L5.9231999,28.7306354 L5.92457572,28.7324043 L5.92575498,28.7337801 L5.9271308,28.7357456 L5.92831007,28.7375145 L5.92968588,28.7392834 L5.93106169,28.7410523 L5.93224096,28.7424281 L5.93361677,28.7443936 L6.01144849,28.8456141 L6.01282431,28.847383 L6.01420012,28.8491519 L6.01557593,28.8507243 L6.01695175,28.8526897 L6.01832756,28.8544586 L6.01950683,28.856031 L6.02225845,28.8593722 L6.02363427,28.8611411 L6.09203184,28.9470312 L6.09340765,28.9488001 L6.09615928,28.9523379 L6.09753509,28.9539103 L6.0989109,28.9556792 L6.16593266,29.0380314 L6.16750502,29.0399969 L6.16907738,29.0417658 L6.17064973,29.0437312 L6.171829,29.0453036 L6.17359791,29.047269 L6.17477717,29.0490379 L6.17654608,29.0510034 L6.17792189,29.0525757 L6.17949425,29.0545412 L6.25300198,29.1422001 L6.25457434,29.1437725 L6.25595015,29.1457379 Z M19.4631673,0.352129562 C23.5347882,1.90109869 27.6052298,3.45439179 31.6794058,4.99746457 C33.8972167,5.83710372 35.2749953,7.58104522 35.2437447,9.98557362 L35.2423689,10.1052694 L35.2286108,10.2241789 C34.763979,14.2515773 34.2547316,18.2742585 33.8345189,22.3063739 C33.534002,25.1936162 32.8840285,27.9495666 31.0677586,30.2825527 C29.721034,32.012343 27.9238288,33.2721948 26.0998936,34.4493013 C23.7093199,35.9921775 21.3042019,37.4399261 18.9617816,39.0684958 L17.6221327,40.0001179 L16.2824837,39.0684958 C13.9400634,37.4399261 11.5349454,35.9921775 9.1443717,34.4493013 C7.32043648,33.2721948 5.52303481,32.012343 4.17650677,30.2825527 C2.36023679,27.9495666 1.71026333,25.1936162 1.40974642,22.3063739 C0.989533754,18.2742585 0.480286324,14.2515773 0.0156545503,10.2241789 L0.00189641821,10.1052694 L0.000520605011,9.98557362 C-0.0307300092,7.58104522 1.34704864,5.83730026 3.56485953,4.99746457 C7.63883897,3.45439179 11.7094771,1.90109869 15.7810981,0.352129562 C17.0148094,-0.11741583 18.2294559,-0.11741583 19.4631673,0.352129562 L19.4631673,0.352129562 Z" id="Fill-5" fill="#00494E" mask="url(#mask-4)"></path>
                                        </g>
                                    </g>
                                </g>
                            </g>
                        </g>
                    </g>
                </g>
            </g>
        </g>
    </g>
</svg>