<?xml version="1.0" encoding="UTF-8"?>
<svg width="185px" height="50px" viewBox="0 0 185 50" version="1.1" xmlns="http://www.w3.org/2000/svg" xmlns:xlink="http://www.w3.org/1999/xlink">
    <title>CERTIK(横)</title>
    <defs>
        <rect id="path-1" x="0" y="0" width="184" height="50"></rect>
        <filter color-interpolation-filters="auto" id="filter-3">
            <feColorMatrix in="SourceGraphic" type="matrix" values="0 0 0 0 0.419608 0 0 0 0 0.450980 0 0 0 0 0.792157 0 0 0 1.000000 0"></feColorMatrix>
        </filter>
        <polygon id="path-4" points="0 -3.9636998e-15 36.5341329 -3.9636998e-15 36.5341329 34.805215 0 34.805215"></polygon>
        <polygon id="path-6" points="0 40 167.701276 40 167.701276 0 0 0"></polygon>
    </defs>
    <g id="首页" stroke="none" stroke-width="1" fill="none" fill-rule="evenodd">
        <g id="鼠标经过" transform="translate(-1021.000000, -1136.000000)">
            <g id="编组-32" transform="translate(0.000000, 878.000000)">
                <g id="编组-9备份" transform="translate(420.000000, 130.000000)">
                    <g id="编组-15" transform="translate(264.000000, 0.000000)">
                        <g id="编组-13" transform="translate(0.000000, 120.000000)">
                            <g id="CERTIK" transform="translate(306.000000, 0.000000)">
                                <g id="编组-8" transform="translate(31.662371, 8.000000)">
                                    <mask id="mask-2" fill="white">
                                        <use xlink:href="#path-1"></use>
                                    </mask>
                                    <g id="矩形"></g>
                                    <g filter="url(#filter-3)" id="编组">
                                        <g mask="url(#mask-2)">
                                            <g transform="translate(7.696611, 4.879050)">
                                                <g id="编组" stroke="none" stroke-width="1" fill="none" fill-rule="evenodd" transform="translate(0.000000, 5.194785)">
                                                    <mask id="mask-5" fill="white">
                                                        <use xlink:href="#path-4"></use>
                                                    </mask>
                                                    <g id="Clip-2"></g>
                                                    <path d="M34.4964786,0.928748943 L34.7069242,2.201603 L34.7069242,2.20188192 C34.7194756,2.27621425 34.9375915,3.63246556 34.9373126,5.7773648 C34.9375915,7.81752936 34.7401158,10.5714517 33.987867,13.6200536 C33.2728541,16.5183173 31.9701555,19.9713541 29.6127188,23.3630283 C27.2540269,26.7551209 23.8445018,30.0912899 18.8746949,32.7717167 L18.2670665,33.0995878 L17.6592985,32.7717167 C12.6896311,30.0912899 9.28010599,26.7551209 6.92127467,23.3630283 C4.56397741,19.9713541 3.26127885,16.5183173 2.54612649,13.6200536 C1.79401715,10.5717306 1.59668085,7.81780828 1.59682031,5.77778318 C1.59654138,3.63260502 1.81479674,2.27593533 1.8272087,2.20216084 L1.8272087,2.20146354 L2.03765428,0.928748943 C2.10961579,0.493772302 1.81507566,0.0827828314 1.38009902,0.0108213225 C0.945122376,-0.0610007262 0.534272366,0.233399943 0.462310857,0.668376584 L0.251865281,1.94123064 L0.252004742,1.94053334 C0.227878112,2.08654826 0,3.52396545 0,5.77778318 C0,7.92017213 0.205982846,10.8000271 0.995885921,14.0024537 C1.74827418,17.0509162 3.11986612,20.6906902 5.61020849,24.2742618 C8.09929573,27.8576939 11.7106199,31.379903 16.9014713,34.1771974 L17.8881528,34.7093779 C18.1253748,34.837263 18.4087581,34.837263 18.6461195,34.7092384 L19.6326616,34.1771974 C24.8233735,31.379903 28.4348372,27.8576939 30.9239244,24.2742618 C33.4142668,20.6906902 34.7858587,17.0509162 35.5381075,14.0024537 C36.3280106,10.7997482 36.5341329,7.91989321 36.5341329,5.7773648 C36.5341329,3.52396545 36.3062548,2.08626934 36.2822676,1.94081226 L36.2822676,1.94123064 L36.0719615,0.668376584 C36,0.233399943 35.5890105,-0.0611401865 35.1540339,0.0108213225 C34.7190572,0.0827828314 34.4246566,0.493772302 34.4966181,0.928748943 L34.4964786,0.928748943 Z" id="Fill-1" fill="#000000" mask="url(#mask-5)"></path>
                                                </g>
                                                <path d="M6.39849383,5.25639774 L18.2671222,1.6333589 L30.399749,5.33700579 C30.8214769,5.46572763 31.2676103,5.22822676 31.3963322,4.80649885 C31.5251935,4.38477094 31.2876926,3.93863747 30.8658253,3.80977617 L18.5001604,0.0350045325 C18.3475908,-0.011575204 18.1865142,-0.011575204 18.0340841,0.0350045325 L5.93227808,3.72930758 C5.51055017,3.85802943 5.2730493,4.30416289 5.40191061,4.7258908 C5.53049299,5.14761872 5.97676592,5.38511959 6.39849383,5.25639774" id="Fill-3" stroke="none" fill="#000000" fill-rule="evenodd"></path>
                                                <path d="M0.539390559,6.35736699 L17.5564744,39.565372 C17.6924482,39.8306255 17.9621644,39.9971411 18.2600516,39.9996834 C18.5580782,40.0023011 18.8305836,39.8405272 18.9711596,39.577784 L29.3465867,20.1714664 L29.3619273,20.1412035 L36.0035841,6.33951607 C36.1947842,5.94219371 36.0277108,5.46523952 35.6303884,5.27390001 C35.233066,5.08269995 34.7561118,5.24991284 34.5647723,5.64709574 L27.9306464,19.4333031 L18.2820863,37.4798829 L1.96035144,5.62924482 C1.75938916,5.23680357 1.27825117,5.08186319 0.885809916,5.28282547 C0.493508124,5.4839272 0.338428283,5.9650652 0.539390559,6.35736699" id="Fill-5" stroke="none" fill="#000000" fill-rule="evenodd"></path>
                                                <path d="M8.68338331,21.1479255 L27.6047974,21.1479255 C28.0456314,21.1479255 28.4030681,20.7904888 28.4030681,20.3493759 C28.4030681,19.9085419 28.0456314,19.5511052 27.6047974,19.5511052 L8.68338331,19.5511052 C8.24240987,19.5511052 7.88497315,19.9085419 7.88497315,20.3493759 C7.88497315,20.7904888 8.24240987,21.1479255 8.68338331,21.1479255" id="Fill-7" stroke="none" fill="#000000" fill-rule="evenodd"></path>
                                                <path d="M61.4575274,14.2575832 L49.1493201,14.2575832 C48.9295307,14.2575832 48.7409804,14.3366571 48.5832508,14.4941078 C48.4253818,14.6519768 48.3465867,14.8409455 48.3465867,15.0603166 L48.3465867,24.9398229 C48.3465867,25.1591939 48.4253818,25.3480232 48.5832508,25.5054738 C48.7409804,25.6633429 48.9295307,25.7425563 49.1493201,25.7425563 L61.4575274,25.7425563 L61.4575274,27.4095251 L49.1493201,27.4095251 C48.4630361,27.4095251 47.8802315,27.169514 47.3997908,26.6893522 C46.9192107,26.2089115 46.6796179,25.626107 46.6796179,24.9398229 L46.6796179,15.0603166 C46.6796179,14.3743114 46.9192107,13.7910885 47.3997908,13.3107873 C47.8802315,12.8306255 48.4630361,12.5906143 49.1493201,12.5906143 L61.4575274,12.5906143 L61.4575274,14.2575832 Z" id="Fill-9" stroke="none" fill="#000000" fill-rule="evenodd"></path>
                                                <polygon id="Fill-11" stroke="none" fill="#000000" fill-rule="evenodd" points="84.5710341 12.5905864 84.5710341 14.2575553 72.715515 14.2575553 72.715515 19.1562374 82.2449759 19.1562374 82.2449759 20.8438463 72.715515 20.8438463 72.715515 25.7425284 84.5710341 25.7425284 84.5710341 27.4094972 71.0485461 27.4094972 71.0485461 12.5905864"></polygon>
                                                <path d="M96.6317551,20.2056202 L106.510843,20.2056202 C106.730354,20.2056202 106.915696,20.1305906 107.066871,19.9795551 C107.217628,19.8283802 107.293076,19.6433164 107.293076,19.423527 L107.293076,15.0807336 C107.293076,14.8613625 107.217628,14.6729517 107.066871,14.5146642 C106.915696,14.3570741 106.730354,14.2780001 106.510843,14.2780001 L96.6317551,14.2780001 C96.4119657,14.2780001 96.222997,14.3570741 96.0655463,14.5146642 C95.9078167,14.6729517 95.8290217,14.8613625 95.8290217,15.0807336 L95.8290217,19.423527 C95.8290217,19.6433164 95.9078167,19.8283802 96.0655463,19.9795551 C96.222997,20.1305906 96.4119657,20.2056202 96.6317551,20.2056202 M108.980964,15.0807336 L108.980964,19.423527 C108.980964,20.11009 108.740534,20.693034 108.260372,21.1731957 C107.779932,21.6536364 107.197127,21.8936476 106.510843,21.8936476 L104.247124,21.8936476 L108.898403,27.4094415 L106.696325,27.4094415 L102.065267,21.8936476 L96.6317551,21.8936476 C96.5081933,21.8936476 96.240569,21.8663134 95.8290217,21.8110871 L95.8290217,27.4094415 L94.1616345,27.4094415 L94.1616345,12.6110313 L106.510843,12.6110313 C107.197127,12.6110313 107.779932,12.8510425 108.260372,13.3313437 C108.740534,13.8119239 108.980964,14.3948679 108.980964,15.0807336" id="Fill-13" stroke="none" fill="#000000" fill-rule="evenodd"></path>
                                                <polygon id="Fill-15" stroke="none" fill="#000000" fill-rule="evenodd" points="117.83163 12.5905864 132.650959 12.5905864 132.650959 14.2575553 126.084889 14.2575553 126.084889 27.4094972 124.417502 27.4094972 124.417502 14.2575553 117.83163 14.2575553"></polygon>
                                                <mask id="mask-7" fill="white">
                                                    <use xlink:href="#path-6"></use>
                                                </mask>
                                                <g id="Clip-18" stroke="none" fill="none"></g>
                                                <polygon id="Fill-17" stroke="none" fill="#000000" fill-rule="evenodd" mask="url(#mask-7)" points="141.624294 27.4095251 143.291681 27.4095251 143.291681 12.5906143 141.624294 12.5906143"></polygon>
                                                <polygon id="Fill-19" stroke="none" fill="#000000" fill-rule="evenodd" mask="url(#mask-7)" points="165.539837 12.5905864 167.680413 12.5905864 161.485587 19.9999721 167.701192 27.4094972 165.539837 27.4094972 160.024182 20.8438463 155.249062 20.8438463 155.249062 27.4094972 153.561453 27.4094972 153.561453 12.5905864 155.249062 12.5905864 155.249062 19.1562374 160.024182 19.1562374"></polygon>
                                            </g>
                                        </g>
                                    </g>
                                </g>
                            </g>
                        </g>
                    </g>
                </g>
            </g>
        </g>
    </g>
</svg>