<?xml version="1.0" encoding="UTF-8"?>
<svg width="24px" height="23px" viewBox="0 0 24 23" version="1.1" xmlns="http://www.w3.org/2000/svg" xmlns:xlink="http://www.w3.org/1999/xlink">
    <title>链接</title>
    <g id="首页" stroke="none" stroke-width="1" fill="none" fill-rule="evenodd">
        <g id="不同链链接状态" transform="translate(-214.000000, -123.000000)" fill-rule="nonzero">
            <g id="编组-22" transform="translate(186.000000, 115.000000)">
                <g id="链接" transform="translate(28.571429, 8.000000)">
                    <rect id="矩形" fill="#000000" opacity="0" x="0" y="0" width="22.8571429" height="22.8571429"></rect>
                    <path d="M10.2509714,14.1037714 C9.99497143,14.1037714 9.75177143,14.0013714 9.57257143,13.8221714 L9.04777143,13.2973714 C8.29257143,12.5421714 7.87017143,11.5309714 7.87017143,10.4557714 C7.87017143,9.38057143 8.29257143,8.38217143 9.04777143,7.61417143 L13.2973714,3.36457143 C14.0525714,2.60937143 15.0637714,2.18697143 16.1389714,2.18697143 C17.2141714,2.18697143 18.2125714,2.60937143 18.9805714,3.36457143 L19.5053714,3.88937143 C20.2605714,4.64457143 20.6829714,5.65577143 20.6829714,6.73097143 C20.6829714,7.80617143 20.2605714,8.80457143 19.5053714,9.57257143 L17.8669714,11.2109714 C17.6877714,11.3901714 17.4445714,11.4925714 17.1885714,11.4925714 C16.9325714,11.4925714 16.6765714,11.3901714 16.4973714,11.2109714 C16.1261714,10.8269714 16.1261714,10.2125714 16.4973714,9.84137143 L18.1357714,8.20297143 C18.5325714,7.80617143 18.7373714,7.29417143 18.7373714,6.74377143 C18.7373714,6.19337143 18.5197714,5.66857143 18.1357714,5.28457143 L17.6109714,4.75977143 C17.2141714,4.36297143 16.7021714,4.15817143 16.1517714,4.15817143 C15.6013714,4.15817143 15.0765714,4.37577143 14.6925714,4.75977143 L10.4173714,8.98377143 C10.0205714,9.38057143 9.81577143,9.89257143 9.81577143,10.4429714 C9.81577143,10.9933714 10.0333714,11.5181714 10.4173714,11.9021714 L10.9421714,12.4269714 C11.3261714,12.8109714 11.3261714,13.4253714 10.9421714,13.7965714 C10.7757714,13.9629714 10.5325714,14.0653714 10.2893714,14.0781714 L10.2509714,14.1037714 L10.2509714,14.1037714 Z" id="路径" fill="#333333"></path>
                    <path d="M6.73097143,20.6573714 C5.65577143,20.6573714 4.65737143,20.2349714 3.88937143,19.4797714 L3.36457143,18.9549714 C2.60937143,18.1997714 2.18697143,17.1885714 2.18697143,16.1133714 C2.18697143,15.0381714 2.60937143,14.0397714 3.36457143,13.2717714 L5.23337143,11.4285714 C5.41257143,11.2493714 5.66857143,11.1469714 5.91177143,11.1469714 C6.16777143,11.1469714 6.42377143,11.2493714 6.60297143,11.4285714 C6.78217143,11.6077714 6.88457143,11.8637714 6.88457143,12.1197714 C6.88457143,12.3757714 6.78217143,12.6189714 6.60297143,12.8109714 L4.74697143,14.6669714 C3.94057143,15.4733714 3.94057143,16.7917714 4.74697143,17.5981714 L5.27177143,18.1229714 C5.65577143,18.5069714 6.18057143,18.7245714 6.73097143,18.7245714 L6.74377143,18.7245714 C7.28137143,18.7245714 7.81897143,18.5069714 8.20297143,18.1229714 L12.4525714,13.8733714 C13.2589714,13.0669714 13.2589714,11.7485714 12.4525714,10.9421714 L11.9277714,10.4173714 C11.5565714,10.0333714 11.5565714,9.41897143 11.9277714,9.04777143 C12.1069714,8.86857143 12.3629714,8.76617143 12.6061714,8.76617143 C12.8621714,8.76617143 13.1053714,8.86857143 13.2973714,9.04777143 L13.8221714,9.57257143 C15.3837714,11.1341714 15.3837714,13.6813714 13.8221714,15.2429714 L9.57257143,19.4925714 C8.80457143,20.2477714 7.80617143,20.6573714 6.73097143,20.6573714 Z" id="路径" fill="#333333"></path>
                </g>
            </g>
        </g>
    </g>
</svg>