<?xml version="1.0" encoding="UTF-8"?>
<svg width="20px" height="20px" viewBox="0 0 20 20" version="1.1" xmlns="http://www.w3.org/2000/svg" xmlns:xlink="http://www.w3.org/1999/xlink">
    <title>Discord icon</title>
    <defs>
        <filter color-interpolation-filters="auto" id="filter-1">
            <feColorMatrix in="SourceGraphic" type="matrix" values="0 0 0 0 0.411765 0 0 0 0 0.411765 0 0 0 0 0.411765 0 0 0 1.000000 0"></feColorMatrix>
        </filter>
    </defs>
    <g id="首页" stroke="none" stroke-width="1" fill="none" fill-rule="evenodd">
        <g id="英文-跨链Curve" transform="translate(-556.000000, -3572.000000)">
            <g id="Discord" transform="translate(0.000000, 3478.000000)" filter="url(#filter-1)">
                <g transform="translate(556.000000, 94.002356)" id="Discord-icon" fill="#8491B3" fill-rule="nonzero">
                    <path d="M9.94974874,5.32907052e-15 C15.4472362,5.32907052e-15 19.8994975,4.45226131 19.8994975,9.94974874 C19.8994975,15.4472362 15.4472362,19.8994975 9.94974874,19.8994975 C4.45226131,19.8994975 5.32907052e-15,15.4472362 5.32907052e-15,9.94974874 C5.32907052e-15,4.45226131 4.45226131,5.32907052e-15 9.94974874,5.32907052e-15 Z M12.1992653,5.13162386 L12.0908332,5.13160555 C12.0317916,5.13280689 12,5.13567839 12,5.13567839 L11.8592965,5.27638191 C13.7688442,5.76884422 14.7638191,6.69346734 14.7638191,6.69346734 C13.2060302,5.76884422 11.2261307,5.6281407 10.4422111,5.6281407 L10.0201005,5.6281407 C9.16582915,5.6281407 7.18592965,5.83919598 5.69849246,6.69346734 C5.69849246,6.69346734 6.69346734,5.76884422 8.60301508,5.27638191 L8.46231156,5.13567839 L8.43730209,5.13506771 C8.23152801,5.13225938 6.78913084,5.1546622 5.34673367,6.27135678 C5.34673367,6.27135678 3.64824121,9.31658291 3.78894472,12.6432161 C3.78894472,12.6432161 4.85427136,14.2713568 7.18592965,14.2713568 L7.88944724,13.3467337 C7.88944724,13.3467337 6.54271357,12.9246231 5.9798995,12.0703518 C5.9798995,12.0703518 7.6080402,13.2060302 10.0904523,13.2763819 L10.5125628,13.2763819 C12.9949749,13.1356784 14.6231156,12.0703518 14.6231156,12.0703518 C14.0603015,12.9246231 12.7135678,13.3467337 12.7135678,13.3467337 L13.4170854,14.2713568 C15.7487437,14.201005 16.8140704,12.6432161 16.8140704,12.6432161 C16.8140704,9.31658291 15.1155779,6.27135678 15.1155779,6.27135678 C13.8916009,5.26848528 12.6676238,5.14044713 12.1992653,5.13162386 Z M8.18090452,9.24623116 C8.81407035,9.24623116 9.31658291,9.80904523 9.31658291,10.4522613 C9.31658291,11.0954774 8.81407035,11.6582915 8.18090452,11.6582915 C7.54773869,11.6582915 7.04522613,11.0954774 7.04522613,10.4522613 C7.04522613,9.81909548 7.53768844,9.24623116 8.18090452,9.24623116 Z M12.2110553,9.24623116 C12.8442211,9.24623116 13.3467337,9.80904523 13.3467337,10.4522613 C13.4170854,11.0854271 12.8542714,11.6582915 12.2110553,11.6582915 C11.5778894,11.6582915 11.0753769,11.0954774 11.0753769,10.4522613 C11.0753769,9.81909548 11.5678392,9.24623116 12.2110553,9.24623116 Z" id="形状结合"></path>
                </g>
            </g>
        </g>
    </g>
</svg>