<?xml version="1.0" encoding="UTF-8"?>
<svg width="20px" height="20px" viewBox="0 0 20 20" version="1.1" xmlns="http://www.w3.org/2000/svg" xmlns:xlink="http://www.w3.org/1999/xlink">
    <!-- Generator: Sketch 60.1 (88133) - https://sketch.com -->
    <title>dis</title>
    <desc>Created with Sketch.</desc>
    <g id="2.0" stroke="none" stroke-width="1" fill="none" fill-rule="evenodd">
        <g id="弹窗" transform="translate(-274.000000, -422.000000)">
            <g id="矩形备份-8" transform="translate(134.000000, 192.000000)">
                <g id="编组-17" transform="translate(120.000000, 220.000000)">
                    <g id="编组-12" transform="translate(20.000000, 10.000000)">
                        <g id="dis" transform="translate(0.000000, 1.000000)">
                            <rect id="矩形" fill="#000000" fill-rule="nonzero" opacity="0" x="1.11111111" y="1.11111111" width="17.7777778" height="17.7777778"></rect>
                            <path d="M10.1952,12.0807111 C9.99608889,12.0807111 9.80693333,12.0010667 9.66755556,11.8616889 L9.25937778,11.4535111 C8.672,10.8661333 8.34346667,10.0796444 8.34346667,9.24337778 C8.34346667,8.40711111 8.672,7.63057778 9.25937778,7.03324444 L12.5646222,3.728 C13.152,3.14062222 13.9384889,2.81208889 14.7747556,2.81208889 C15.6110222,2.81208889 16.3875556,3.14062222 16.9848889,3.728 L17.3930667,4.13617778 C17.9804444,4.72355556 18.3089778,5.51004444 18.3089778,6.34631111 C18.3089778,7.18257778 17.9804444,7.95911111 17.3930667,8.55644444 L16.1187556,9.83075556 C15.9793778,9.97013333 15.7902222,10.0497778 15.5911111,10.0497778 C15.392,10.0497778 15.1928889,9.97013333 15.0535111,9.83075556 C14.7648,9.53208889 14.7648,9.05422222 15.0535111,8.76551111 L16.3278222,7.4912 C16.6364444,7.18257778 16.7957333,6.78435556 16.7957333,6.35626667 C16.7957333,5.92817778 16.6264889,5.52 16.3278222,5.22133333 L15.9196444,4.81315556 C15.6110222,4.50453333 15.2128,4.34524444 14.7847111,4.34524444 C14.3566222,4.34524444 13.9484444,4.51448889 13.6497778,4.81315556 L10.3246222,8.09848889 C10.016,8.40711111 9.85671111,8.80533333 9.85671111,9.23342222 C9.85671111,9.66151111 10.0259556,10.0696889 10.3246222,10.3683556 L10.7328,10.7765333 C11.0314667,11.0752 11.0314667,11.5530667 10.7328,11.8417778 C10.6033778,11.9712 10.4142222,12.0508444 10.2250667,12.0608 L10.1952,12.0807111 L10.1952,12.0807111 Z" id="路径" fill="#FFD400" fill-rule="nonzero" transform="translate(13.326222, 7.446400) rotate(20.000000) translate(-13.326222, -7.446400) "></path>
                            <path d="M6.34631111,17.1779556 C5.51004444,17.1779556 4.73351111,16.8494222 4.13617778,16.2620444 L3.728,15.8538667 C3.14062222,15.2664889 2.81208889,14.48 2.81208889,13.6437333 C2.81208889,12.8074667 3.14062222,12.0309333 3.728,11.4336 L5.18151111,10 C5.32088889,9.86062222 5.52,9.78097778 5.70915556,9.78097778 C5.90826667,9.78097778 6.10737778,9.86062222 6.24675556,10 C6.38613333,10.1393778 6.46577778,10.3384889 6.46577778,10.5376 C6.46577778,10.7367111 6.38613333,10.9258667 6.24675556,11.0752 L4.8032,12.5187556 C4.176,13.1459556 4.176,14.1713778 4.8032,14.7985778 L5.21137778,15.2067556 C5.51004444,15.5054222 5.91822222,15.6746667 6.34631111,15.6746667 L6.35626667,15.6746667 C6.7744,15.6746667 7.19253333,15.5054222 7.4912,15.2067556 L10.7964444,11.9015111 C11.4236444,11.2743111 11.4236444,10.2488889 10.7964444,9.62168889 L10.3882667,9.21351111 C10.0995556,8.91484444 10.0995556,8.43697778 10.3882667,8.14826667 C10.5276444,8.00888889 10.7267556,7.92924444 10.9159111,7.92924444 C11.1150222,7.92924444 11.3041778,8.00888889 11.4535111,8.14826667 L11.8616889,8.55644444 C13.0762667,9.77102222 13.0762667,11.7521778 11.8616889,12.9667556 L8.55644444,16.272 C7.95911111,16.8593778 7.18257778,17.1779556 6.34631111,17.1779556 Z" id="路径" fill="#FFD400" fill-rule="nonzero"></path>
                            <path d="M5.31081085,7.36430603 C5.36213095,7.6465666 5.17395724,7.91172046 4.89169667,7.96304057 L1.7184036,8.52756171 C1.69274355,8.53611506 1.65853015,8.53611506 1.62431675,8.53611506 C1.37626958,8.53611506 1.16243582,8.35649469 1.11966906,8.10844753 C1.06834896,7.82618696 1.25652267,7.56103309 1.53878324,7.50971299 L4.71207631,6.94519185 C4.98578353,6.89387174 5.25949074,7.08204546 5.31081085,7.36430603 Z M3.59158738,3.11329079 L5.84111858,5.42269544 C6.03784565,5.62797586 6.03784565,5.95300318 5.83256523,6.15828359 C5.72137168,6.25237045 5.59307142,6.30369055 5.46477116,6.30369055 C5.32791755,6.30369055 5.19106394,6.25237045 5.09697708,6.14973024 L2.84744588,3.84032559 C2.65071882,3.63504517 2.65071882,3.31001785 2.85599923,3.10473744 C3.06127965,2.90801037 3.38630697,2.90801037 3.59158738,3.11329079 Z M7.42348844,1.82173485 L7.77417582,5.02924132 C7.80838922,5.31150189 7.6031088,5.5681024 7.31229488,5.60231581 C7.29518818,5.59376246 7.27808148,5.59376246 7.25242143,5.59376246 C6.99582091,5.59376246 6.76488045,5.39703539 6.7392204,5.13188152 L6.38853302,1.93292841 C6.35431962,1.65066784 6.55960003,1.39406732 6.85041395,1.35985392 C7.13267452,1.32564052 7.38927504,1.53092093 7.42348844,1.82173485 Z" id="路径-2" stroke="#FFD400" stroke-width="0.2" fill="#FFD400" transform="translate(4.444566, 4.946123) rotate(5.000000) translate(-4.444566, -4.946123) "></path>
                        </g>
                    </g>
                </g>
            </g>
        </g>
    </g>
</svg>