<?xml version="1.0" encoding="UTF-8"?>
<svg width="30px" height="30px" viewBox="0 0 30 30" version="1.1" xmlns="http://www.w3.org/2000/svg" xmlns:xlink="http://www.w3.org/1999/xlink">
    <title>email</title>
    <g id="首页" stroke="none" stroke-width="1" fill="none" fill-rule="evenodd">
        <g id="选择语言" transform="translate(-166.000000, -762.000000)">
            <g id="编组-32" transform="translate(0.000000, 44.000000)">
                <g id="编组-27" transform="translate(0.000000, 698.000000)">
                    <g id="编组-13" transform="translate(16.000000, 20.000000)">
                        <g id="email" transform="translate(150.000000, 0.000000)">
                            <rect id="矩形" x="0" y="0" width="30" height="30"></rect>
                            <path d="M26,20.7390438 C26,21.1992032 25.8685259,21.6593625 25.6384462,22.0537849 L18.6922311,14.2968127 L25.561753,8.31474104 C25.8356574,8.75298805 25.9890438,9.25697211 25.9890438,9.77191235 L25.9890438,20.7390438 L26,20.7390438 L26,20.7390438 Z M15,15.7101594 L24.5537849,7.33964143 C24.1484064,7.10956175 23.6992032,7 23.2390438,7 L6.73904382,7 C6.27888446,7 5.8187251,7.12051793 5.41334661,7.33964143 L15,15.7101594 Z M17.6404382,15.1952191 L15.4272908,17.1454183 C15.1752988,17.3864542 14.7808765,17.3864542 14.5288845,17.1454183 L12.3157371,15.1952191 L5.32569721,23.061753 C5.76394422,23.3356574 6.26792829,23.4890438 6.78286853,23.4890438 L23.2828685,23.4890438 C23.7978088,23.4890438 24.3017928,23.3466135 24.7400398,23.061753 L17.6952191,15.1952191 L17.6404382,15.1952191 L17.6404382,15.1952191 Z M4.42729084,8.31474104 C4.15338645,8.74203187 4.01095618,9.23505976 4,9.75 L4,20.75 C4,21.2101594 4.1314741,21.6703187 4.36155378,22.064741 L11.3077689,14.2968127 L4.42729084,8.32569721 L4.42729084,8.31474104 Z" id="形状" fill="#989CA3" fill-rule="nonzero"></path>
                        </g>
                    </g>
                </g>
            </g>
        </g>
    </g>
</svg>