<?xml version="1.0" encoding="UTF-8"?>
<svg width="21px" height="20px" viewBox="0 0 21 20" version="1.1" xmlns="http://www.w3.org/2000/svg" xmlns:xlink="http://www.w3.org/1999/xlink">
    <title>email</title>
    <defs>
        <filter color-interpolation-filters="auto" id="filter-1">
            <feColorMatrix in="SourceGraphic" type="matrix" values="0 0 0 0 0.411765 0 0 0 0 0.411765 0 0 0 0 0.411765 0 0 0 1.000000 0"></feColorMatrix>
        </filter>
    </defs>
    <g id="首页" stroke="none" stroke-width="1" fill="none" fill-rule="evenodd">
        <g id="英文-跨链Curve" transform="translate(-635.000000, -3572.000000)">
            <g id="email" transform="translate(0.000000, 3478.000000)" filter="url(#filter-1)">
                <g transform="translate(635.899497, 94.000000)">
                    <rect id="矩形" x="0" y="0" width="20" height="20"></rect>
                    <path d="M10,0 C15.5228475,0 20,4.4771525 20,10 C20,15.5228475 15.5228475,20 10,20 C4.4771525,20 0,15.5228475 0,10 C0,4.4771525 4.4771525,0 10,0 Z M11.4701195,9.80345286 L11.440239,9.80345286 L10.2330677,10.8671979 C10.0956175,10.998672 9.88047809,10.998672 9.74302789,10.8671979 L8.53585657,9.80345286 L4.72310757,14.0942895 C4.96215139,14.2436919 5.23705179,14.3273572 5.51792829,14.3273572 L14.5179283,14.3273572 C14.7988048,14.3273572 15.0737052,14.249668 15.312749,14.0942895 L11.4701195,9.80345286 Z M4.23306773,6.05046481 C4.08366534,6.28353254 4.0059761,6.55245684 4,6.83333333 L4,12.8333333 C4,13.0843293 4.07171315,13.3353254 4.19721116,13.5504648 L7.98605578,9.31341301 L4.23306773,6.0564409 L4.23306773,6.05046481 Z M15.7609562,6.05046481 L12.0139442,9.31341301 L15.8027888,13.5444887 C15.9282869,13.3293493 16,13.0783533 16,12.8273572 L16,12.8273572 L15.9940239,12.8273572 L15.9940239,6.84528552 C15.9940239,6.56440903 15.9103586,6.28950863 15.7609562,6.05046481 L15.7609562,6.05046481 Z M14.4940239,5.33333333 L5.4940239,5.33333333 C5.24302789,5.33333333 4.99203187,5.39907039 4.77091633,5.5185923 L10,10.0843293 L15.2111554,5.5185923 C14.9900398,5.39309429 14.7450199,5.33333333 14.4940239,5.33333333 Z" id="形状结合" fill="#D8D8D8"></path>
                </g>
            </g>
        </g>
    </g>
</svg>