<?xml version="1.0" encoding="UTF-8"?>
<svg width="28px" height="28px" viewBox="0 0 28 28" version="1.1" xmlns="http://www.w3.org/2000/svg" xmlns:xlink="http://www.w3.org/1999/xlink">
    <title>EOS</title>
    <g id="页面-1" stroke="none" stroke-width="1" fill="none" fill-rule="evenodd">
        <g id="GameFi" transform="translate(-1914.000000, -547.000000)" fill-rule="nonzero">
            <g id="EOS" transform="translate(1914.000000, 547.000000)">
                <path d="M14,0 C21.7348416,0 28,6.26515837 28,14 C28,21.7348416 21.7348416,28 14,28 C6.26515837,28 0,21.7348416 0,14 C0,6.26515837 6.26515837,0 14,0 Z" id="路径" fill="#FFFFFF"></path>
                <path d="M10.0416667,14.8745421 L6.4757326,21.1199634 L13.4061355,25.25 L10.0416667,14.8745421 Z M6.375,19.8305861 L9.73946886,13.9478022 L8.53067766,10.220696 L6.375,19.8305861 Z M16.7907509,13.9880952 L13.6881868,8.48809524 L10.5251832,14.0283883 L13.6881868,23.779304 L16.7907509,13.9880952 Z M18.7449634,10.2408425 L17.5764652,13.9075092 L20.9207875,19.8104396 L18.7449634,10.2408425 Z M17.2742674,14.8543956 L13.9702381,25.2298535 L20.8200549,21.1199634 L17.2742674,14.8543956 Z M18.3017399,9.31410256 L14.0508242,3.27014652 L14.0508242,7.68223443 L17.0929487,13.0613553 L18.3017399,9.31410256 Z M13.3255495,7.66208791 L13.3255495,3.25 L8.99404762,9.29395604 L10.2229853,13.1016484 L13.3255495,7.66208791 Z" id="形状" fill="#8C3EB3"></path>
            </g>
        </g>
    </g>
</svg>