<?xml version="1.0" encoding="UTF-8"?>
<svg width="28px" height="28px" viewBox="0 0 28 28" version="1.1" xmlns="http://www.w3.org/2000/svg" xmlns:xlink="http://www.w3.org/1999/xlink">
    <title>heco</title>
    <g id="页面-1" stroke="none" stroke-width="1" fill="none" fill-rule="evenodd">
        <g id="GameFi" transform="translate(-1818.000000, -507.000000)">
            <g id="heco" transform="translate(1818.000000, 507.000000)">
                <circle id="椭圆形" fill="#FFFFFF" cx="14" cy="14" r="14"></circle>
                <g id="编组-57" transform="translate(7.700000, 4.200000)">
                    <path d="M8.33,6.0318535 C8.33,3.21807783 6.96900111,0.797542474 5.93434191,0.00942301591 C5.92941878,0.0077707628 5.85563731,-0.035187592 5.86219178,0.0771647905 C5.86219178,0.0788172698 5.86055316,0.0788172698 5.86055316,0.080469749 C5.77528682,5.51469986 3.0205604,6.9868463 1.50545869,8.97120101 C-1.99042514,13.5495939 1.26113725,18.569075 4.57173354,19.4959561 C6.42461612,20.0147683 4.14376318,18.5773676 3.8502541,15.5404846 C3.49443388,11.87088 8.33,9.07033469 8.33,6.0318535 Z" id="路径" fill="#1D2243" fill-rule="nonzero"></path>
                    <path d="M10.3180892,7.85369594 C10.2962793,7.83873431 10.2661326,7.82883545 10.2443228,7.8635948 C10.1856669,8.54926094 9.47673518,10.0165593 8.57843737,11.3629555 C5.53157912,15.9305619 7.26785897,18.1332474 8.24496254,19.3156701 C8.81142313,20.0029986 8.24496254,19.3156701 9.66111401,18.613531 C9.77172641,18.5588228 12.4264242,17.0881997 12.7130042,13.7378509 C12.9928848,10.4935181 11.0203217,8.44823211 10.3180892,7.85369594 Z" id="路径" fill="#32A7DD"></path>
                </g>
            </g>
        </g>
    </g>
</svg>