<?xml version="1.0" encoding="UTF-8"?>
<svg width="16px" height="16px" viewBox="0 0 16 16" version="1.1" xmlns="http://www.w3.org/2000/svg" xmlns:xlink="http://www.w3.org/1999/xlink">
    <!-- Generator: Sketch 60.1 (88133) - https://sketch.com -->
    <title>ic_next_pre</title>
    <desc>Created with Sketch.</desc>
    <g id="2.0" stroke="none" stroke-width="1" fill="none" fill-rule="evenodd">
        <g id="logo切图" transform="translate(-455.000000, -60.000000)" fill-rule="nonzero">
            <g id="ic_next_pre" transform="translate(455.000000, 60.000000)">
                <rect id="矩形" fill="#000000" opacity="0" x="0" y="0" width="16" height="16"></rect>
                <rect id="矩形" fill="#09FAD9" opacity="0.100000001" x="0" y="0" width="16" height="16" rx="4"></rect>
                <path d="M13.4191918,4.35101008 L11.7398989,4.35101008 L11.7398989,2.67171717 C11.7398989,2.30073802 11.4391609,2 11.0681817,2 L2.67171717,2 C2.30073802,2 2,2.30073802 2,2.67171717 L2,11.0681817 C2,11.4391609 2.30073802,11.7398989 2.67171717,11.7398989 L4.35101008,11.7398989 L4.35101008,13.4191918 C4.35101008,13.790171 4.65174811,14.090909 5.02272726,14.090909 L13.4191918,14.090909 C13.790171,14.090909 14.090909,13.790171 14.090909,13.4191918 L14.090909,5.02272726 C14.090909,4.65174811 13.790171,4.35101008 13.4191918,4.35101008 Z M3.00757575,10.7323232 L3.00757575,3.00757575 L10.7323232,3.00757575 L10.7323232,10.7323232 L3.00757575,10.7323232 Z M13.0833332,13.0833332 L5.35858584,13.0833332 L5.35858584,11.7398989 L11.0681817,11.7398989 C11.4391609,11.7398989 11.7398989,11.4391609 11.7398989,11.0681817 L11.7398989,5.35858584 L13.0833332,5.35858584 L13.0833332,13.0833332 Z" id="形状" fill="#09FAD9"></path>
            </g>
        </g>
    </g>
</svg>