<?xml version="1.0" encoding="UTF-8"?>
<svg width="16px" height="16px" viewBox="0 0 16 16" version="1.1" xmlns="http://www.w3.org/2000/svg" xmlns:xlink="http://www.w3.org/1999/xlink">
    <!-- Generator: Sketch 60.1 (88133) - https://sketch.com -->
    <title>ic_ending</title>
    <desc>Created with Sketch.</desc>
    <g id="2.0" stroke="none" stroke-width="1" fill="none" fill-rule="evenodd">
        <g id="pool" transform="translate(-1210.000000, -352.000000)" fill-rule="nonzero">
            <g id="编组-23" transform="translate(1210.000000, 350.000000)">
                <g id="ic_ending" transform="translate(0.000000, 2.000000)">
                    <rect id="矩形" fill="#000000" opacity="0" x="0" y="0" width="16" height="16"></rect>
                    <path d="M7.99913514,0 C3.58054055,0.0004324375 0,3.58227027 0,8 C0,12.4181622 3.58183784,16 8,16 C12.4181622,16 16,12.4181622 16,8 L16,8.00086486 C16,3.5827027 12.4181622,0.000864859375 8,0.000864859375 L7.99913514,0 Z M7.99913514,14.9344865 C4.16864866,14.867027 1.11913514,11.7076757 1.18659459,7.87805405 C1.25189189,4.14313514 4.26378378,1.13124325 7.99913514,1.06551352 C11.8287568,1.13297297 14.8791351,4.29232433 14.8116757,8.12194595 C14.7459459,11.8568649 11.734054,14.8687568 7.99913514,14.9344865 Z M11.4668108,8.53275675 L7.9987027,8.53275675 L7.9987027,5.06594595 C7.99800039,4.91938716 7.87974282,4.80055178 7.73318919,4.79913514 L7.19913514,4.79913514 C7.0524125,4.80031673 6.9338944,4.91922025 6.93318919,5.06594595 L6.93318919,9.33232433 C6.93365828,9.47921876 7.05224473,9.59838368 7.19913514,9.59956756 L11.4655135,9.59956756 C11.6132484,9.59956756 11.7331451,9.48005848 11.7336231,9.33232433 L11.7336231,8.8 C11.7338551,8.72894074 11.7056411,8.66074339 11.6552727,8.61061864 C11.6049042,8.56049389 11.5365708,8.53261108 11.4655135,8.53318919 L11.4668108,8.53318919 L11.4668108,8.53275675 Z" id="形状" fill="#FFD400"></path>
                </g>
            </g>
        </g>
    </g>
</svg>