<?xml version="1.0" encoding="UTF-8"?>
<svg width="10px" height="10px" viewBox="0 0 10 10" version="1.1" xmlns="http://www.w3.org/2000/svg" xmlns:xlink="http://www.w3.org/1999/xlink">
    <!-- Generator: Sketch 60.1 (88133) - https://sketch.com -->
    <title>ic_question</title>
    <desc>Created with Sketch.</desc>
    <g id="2.0" stroke="none" stroke-width="1" fill="none" fill-rule="evenodd">
        <g id="logo切图" transform="translate(-551.000000, -148.000000)" fill-rule="nonzero">
            <g id="ic_question" transform="translate(551.000000, 148.000000)">
                <rect id="矩形" fill="#000000" opacity="0" x="0" y="0" width="10" height="10"></rect>
                <path d="M5,9.35 C2.59755,9.35 0.65,7.40245 0.65,5 C0.65,2.59755 2.59755,0.65 5,0.65 C7.40245,0.65 9.35,2.59755 9.35,5 C9.35,7.40245 7.40245,9.35 5,9.35 Z M5,1.27145 C2.9408,1.27145 1.27145,2.9408 1.27145,5 C1.27145,7.0592 2.9408,8.7286 5,8.7286 C7.0592,8.7286 8.7286,7.05915 8.7286,5 C8.7286,2.9408 7.0592,1.27145 5,1.27145 Z M6.11215,4.9107 C6.02035,5.0039 5.85545,5.1609 5.61765,5.38175 C5.552,5.4439 5.4992,5.49855 5.45955,5.5458 C5.42,5.59275 5.3904,5.6359 5.3711,5.67505 C5.35230678,5.71262226 5.33728337,5.75196452 5.32625,5.7925 C5.3157,5.83165 5.29975,5.9004 5.2784,5.99885 C5.2417,6.20745 5.1266,6.31185 4.9333,6.31185 C4.83285,6.31185 4.7481,6.2776 4.67955,6.2095 C4.611,6.1414 4.5766,6.0398 4.5766,5.9054 C4.5766,5.73675 4.60165,5.59095 4.652,5.4675 C4.70235,5.34405 4.76905,5.2357 4.8521,5.1423 C4.9352,5.04915 5.0474,4.93825 5.18855,4.8098 C5.3122,4.6973 5.4017,4.6126 5.4567,4.55545 C5.51172828,4.49846863 5.55857584,4.43412056 5.5959,4.36425 C5.6336,4.29405 5.65245,4.2178 5.65245,4.13555 C5.65245,3.975 5.5949,3.83955 5.47995,3.72915 C5.36495,3.61895 5.21645,3.56365 5.03485,3.56365 C4.8221,3.56365 4.6655,3.61935 4.56505,3.7306 C4.4646,3.84205 4.37945,4.0061 4.30985,4.2228 C4.2442,4.44965 4.1195,4.5629 3.93575,4.5629 C3.8274,4.5629 3.73605,4.52335 3.6617,4.44405 C3.5873,4.3649 3.55,4.27895 3.55,4.18675 C3.55,3.996 3.60905,3.80295 3.7269,3.6074 C3.84475,3.41165 4.0169,3.24965 4.2431,3.12125 C4.46925,2.9928 4.7332,2.9286 5.03475,2.9286 C5.31495,2.9286 5.5626,2.98225 5.77725,3.08955 C5.9918,3.19685 6.1575,3.3429 6.27455,3.52765 C6.39155,3.7122 6.45005,3.91295 6.45005,4.1296 C6.45005,4.3001 6.41665,4.44965 6.34995,4.5781 C6.28325,4.7065 6.2039,4.8173 6.11215,4.9107 L6.11215,4.9107 Z M4.9652,6.58565 C5.087,6.58565 5.18955,6.62895 5.2726,6.71515 C5.35565,6.8016 5.39725,6.90785 5.39725,7.0342 C5.39725,7.17465 5.35375,7.28505 5.2668,7.36535 C5.1798,7.44555 5.07935,7.4857 4.9652,7.4857 C4.8473,7.4857 4.74435,7.44615 4.65635,7.36685 C4.5683,7.2875 4.5244,7.17665 4.5244,7.0342 C4.5244,6.9079 4.56685,6.8016 4.652,6.71515 C4.73715,6.62895 4.84155,6.58565 4.9652,6.58565 L4.9652,6.58565 Z" id="形状" fill="#666666"></path>
            </g>
        </g>
    </g>
</svg>