<?xml version="1.0" encoding="UTF-8"?>
<svg width="14px" height="15px" viewBox="0 0 14 15" version="1.1" xmlns="http://www.w3.org/2000/svg" xmlns:xlink="http://www.w3.org/1999/xlink">
    <!-- Generator: Sketch 60.1 (88133) - https://sketch.com -->
    <title>ic_success</title>
    <desc>Created with Sketch.</desc>
    <g id="页面-1" stroke="none" stroke-width="1" fill="none" fill-rule="evenodd">
        <g id="申领记录-success" transform="translate(-836.000000, -398.000000)" fill-rule="nonzero">
            <g id="编组-4" transform="translate(345.000000, 115.000000)">
                <g id="编组-18备份" transform="translate(26.000000, 149.000000)">
                    <g id="编组-21" transform="translate(20.000000, 129.000000)">
                        <g id="ic_success" transform="translate(444.000000, 4.000000)">
                            <rect id="矩形" fill="#000000" opacity="0" x="0" y="0" width="16" height="16"></rect>
                            <path d="M8,1.05 C4.15,1.05 1,4.2 1,8.05 C1,11.9 4.15,15.05 8,15.05 C11.85,15.05 15,11.9 15,8.05 C15,4.2 11.85,1.05 8,1.05 Z M11.6,6.35 L7.2,10.45 L7.05,10.55 C6.95,10.6 6.9,10.6 6.85,10.6 C6.8,10.6 6.7,10.55 6.65,10.55 L6.5,10.45 L4.4,8.35 C4.2,8.15 4.2,7.85 4.4,7.65 C4.6,7.45 4.9,7.45 5.1,7.65 L6.85,9.4 L10.9,5.65 C11.1,5.5 11.4,5.5 11.6,5.7 C11.8,5.9 11.8,6.2 11.6,6.35 L11.6,6.35 Z" id="形状" fill="#09FAD9"></path>
                        </g>
                    </g>
                </g>
            </g>
        </g>
    </g>
</svg>