<?xml version="1.0" encoding="UTF-8"?>
<svg width="16px" height="16px" viewBox="0 0 16 16" version="1.1" xmlns="http://www.w3.org/2000/svg" xmlns:xlink="http://www.w3.org/1999/xlink">
    <!-- Generator: Sketch 60.1 (88133) - https://sketch.com -->
    <title>ic_next_nor</title>
    <desc>Created with Sketch.</desc>
    <g id="2.0" stroke="none" stroke-width="1" fill="none" fill-rule="evenodd">
        <g id="logo切图" transform="translate(-483.000000, -100.000000)" fill-rule="nonzero" stroke="#979797">
            <g id="ic_next_nor" transform="translate(483.000000, 100.000000)">
                <g id="编组-23">
                    <g id="ic_next_nor">
                        <g id="跳转备份">
                            <path d="M2.43333333,12.6 L2.33333333,12.6 C2.2,12.5666667 2.1,12.4 2.1,12.2666667 C2.1,12.2 2.53333333,6.6 8.66666667,6.06666667 L8.66666667,2.76666667 C8.66666667,2.63333334 8.73333334,2.5 8.86666667,2.46666667 C9,2.4 9.13333334,2.43333334 9.23333333,2.53333333 L14,7.26666667 C14.1333333,7.4 14.1333333,7.6 14,7.73333333 L9.23333333,12.5 C9.13333333,12.6 9,12.6333333 8.86666667,12.5666667 C8.73333334,12.5 8.66666667,12.4 8.66666667,12.2666667 L8.66666667,9.03333333 C7.56666667,9.16666666 4.13333334,9.83333333 2.7,12.4 C2.66666667,12.5333333 2.53333333,12.6 2.43333333,12.6 Z" id="形状"></path>
                        </g>
                    </g>
                </g>
            </g>
        </g>
    </g>
</svg>