<?xml version="1.0" encoding="UTF-8"?>
<svg width="18px" height="18px" viewBox="0 0 18 18" version="1.1" xmlns="http://www.w3.org/2000/svg" xmlns:xlink="http://www.w3.org/1999/xlink">
    <!-- Generator: Sketch 60.1 (88133) - https://sketch.com -->
    <title>ic_set</title>
    <desc>Created with Sketch.</desc>
    <g id="2.0" stroke="none" stroke-width="1" fill="none" fill-rule="evenodd">
        <g id="logo切图" transform="translate(-472.000000, -196.000000)" fill-rule="nonzero">
            <g id="编组-5" transform="translate(455.000000, 182.000000)">
                <g id="ic_set" transform="translate(16.000000, 14.000000)">
                    <rect id="矩形" fill="#000000" opacity="0" x="0" y="0" width="18" height="18"></rect>
                    <path d="M9.63856551,17.9996986 C9.0388393,17.9993496 8.44061246,17.9397928 7.85258893,17.8218946 L7.51506256,17.7535857 L7.41139375,17.4241961 C7.16161957,16.6148314 6.61492931,15.9299076 5.8810733,15.5069258 C5.14992116,15.0849524 4.28682286,14.9533541 3.46313886,15.1382586 L3.12902794,15.2117911 L2.90210173,14.9556327 C2.10044934,14.0554348 1.49030732,13.0015624 1.10879198,11.8581251 L1,11.5320505 L1.23184847,11.2788053 C1.80547801,10.6583903 2.12386422,9.84436198 2.12338017,8.99939727 C2.12377849,8.15376443 1.80531965,7.33907225 1.23154711,6.71787975 L1,6.46543815 L1.10889244,6.13916266 C1.49058836,4.99606392 2.1007936,3.94254221 2.90240309,3.04265958 L3.12953021,2.78630027 L3.4641434,2.86003371 C3.70523367,2.91417856 3.95275301,2.94170303 4.19987053,2.94170303 C4.79010494,2.94145291 5.3698829,2.7858985 5.88097284,2.49066333 C6.61481069,2.06767428 7.16168325,1.38298023 7.41199647,0.573794828 L7.51506256,0.245409798 L7.85289029,0.17710089 C8.44080206,0.0594411342 9.03889517,0 9.63846506,0 C10.2366703,0 10.8375878,0.059569386 11.4242407,0.17710089 L11.7617671,0.245409798 L11.8651346,0.574297099 C12.3042202,1.99030058 13.594254,2.94150213 15.0753519,2.94150213 C15.3222685,2.94150213 15.5705915,2.9138772 15.813289,2.85953144 L16.1472995,2.78589845 L16.3743261,3.04245867 C17.1760452,3.94271508 17.7863148,4.9966059 18.1680377,6.14006675 L18.2772315,6.4655386 L18.0448807,6.71818111 C17.4709461,7.33911134 17.1524534,8.15374673 17.1530477,8.99929682 C17.1530477,9.84311274 17.46978,10.6533769 18.0451821,11.280513 L18.2774324,11.5334569 L18.1686404,11.859431 C17.7867121,13.0024134 17.1763404,14.0557909 16.3746275,14.9555322 L16.1475004,15.211992 L15.8138917,15.1382586 C15.5724764,15.084243 15.3258503,15.0569562 15.078466,15.0568906 C14.4879422,15.057096 13.9078382,15.2124624 13.3962586,15.507428 C12.6621955,15.9308466 12.1151217,16.6158729 11.8645318,17.4254015 L11.7618676,17.7534852 L11.4240398,17.8221959 C10.862473,17.9350523 10.2914972,17.994585 9.71872803,18 L9.63856551,18 L9.63856551,17.9996986 Z M4.20077461,13.8929269 C4.99491936,13.8932331 5.77505539,14.1021146 6.46310538,14.4986662 C7.31093947,14.9877781 7.98739857,15.7536415 8.36771846,16.6554195 L8.46515911,16.8864643 L8.5776679,16.7634079 L8.59846193,16.7661201 C9.32411611,16.8625719 10.0596606,16.857602 10.7839452,16.7513533 L10.8734499,16.7381938 L10.9088098,16.6548168 C11.2895315,15.7534406 11.9659906,14.9876776 12.8135234,14.4986662 C13.6638414,14.0089158 14.6499487,13.8078456 15.6241336,13.9255745 L15.7132365,13.9364236 L15.7691896,13.8663065 C16.2499673,13.2648056 16.6385609,12.5951096 16.9222037,11.8792205 L16.9554541,11.7952407 L16.9011083,11.723215 C15.6911366,10.119362 15.6911366,7.87903073 16.9011083,6.2752782 L16.9554541,6.20315203 L16.9222037,6.11927271 C16.6387786,5.40320974 16.2504261,4.7332839 15.7698927,4.13148349 L15.7138393,4.0613664 L15.6248368,4.07211501 C14.6504202,4.18951107 13.6641728,3.98850506 12.8134229,3.49912382 C11.9659906,3.01031331 11.289632,2.24475126 10.9087094,1.34337504 L10.8735504,1.2601989 L10.7842465,1.24693893 C10.4048064,1.19071051 10.0217474,1.16235643 9.6381637,1.16235643 C9.25583472,1.16235643 8.87029121,1.19078499 8.49218131,1.24693893 L8.40287746,1.2601989 L8.36771846,1.34347549 C7.98709721,2.24485172 7.31073856,3.01041376 6.46310538,3.49922427 C5.77422745,3.89582953 4.99335307,4.10476469 4.19846417,4.10516447 C4.01674238,4.10516447 3.83321242,4.0941145 3.65279654,4.07221546 L3.5638945,4.06146686 L3.50794147,4.13148349 C3.02704314,4.73319553 2.6384422,5.40317496 2.35492728,6.11937317 L2.32167692,6.20325249 L2.37602268,6.27537866 C3.58579353,7.87893027 3.58579353,10.1187593 2.37602268,11.7223109 L2.32167692,11.7942362 L2.35492728,11.8782159 C2.63838127,12.5947525 3.02698313,13.2650721 3.50794147,13.8671102 L3.56399495,13.9372272 L3.6530979,13.9263782 C3.83480508,13.9040833 4.01770478,13.892912 4.20077461,13.8929269 Z M9.63856551,12.5521637 C7.67920485,12.5521637 6.08509593,10.9580548 6.08509593,8.99869409 C6.08509593,7.03933343 7.67920485,5.44532497 9.63856551,5.44532497 C11.5979262,5.44532497 13.1919346,7.03933343 13.1919346,8.99869409 C13.1919346,10.9580548 11.5979262,12.5520632 9.63856551,12.5521637 L9.63856551,12.5521637 Z M9.6383646,6.60948958 C8.32241358,6.61089594 7.2506669,7.68264262 7.24926054,8.99859364 C7.24926054,10.3161519 8.32110768,11.3879991 9.63856551,11.3879991 C10.9559229,11.3879991 12.0276696,10.3162524 12.0276696,8.99879455 C12.0276696,7.68133671 10.9559229,6.60959003 9.63856551,6.60959003 L9.63856551,6.56940832 L9.6383646,6.60948958 L9.6383646,6.60948958 Z" id="形状" fill="#FFD400"></path>
                </g>
            </g>
        </g>
    </g>
</svg>