<?xml version="1.0" encoding="UTF-8"?>
<svg width="46px" height="46px" viewBox="0 0 46 46" version="1.1" xmlns="http://www.w3.org/2000/svg" xmlns:xlink="http://www.w3.org/1999/xlink">
    <title>教程</title>
    <g id="页面-1" stroke="none" stroke-width="1" fill="none" fill-rule="evenodd">
        <g id="GameFi" transform="translate(-472.000000, -760.000000)">
            <g id="教程" transform="translate(472.000000, 760.000000)">
                <circle id="椭圆形" fill="#8364E1" cx="23" cy="23" r="23"></circle>
                <path d="M23.5789474,28.6434056 L23.5789474,16 C23.5789474,14.8954305 24.4743779,14 25.5789474,14 L33.1578947,14 C34.2624642,14 35.1578947,14.8954305 35.1578947,16 L35.1578947,31.6842105 C35.1578947,32.78878 34.2624642,33.6842105 33.1578947,33.6842105 L27.4399526,33.6842105 C27.0288325,33.6842105 26.6277004,33.810907 26.291166,34.0470516 L23.5079801,36 L23.5079801,36 L20.6284877,34.0328002 C20.2960747,33.8057036 19.9028647,33.6842105 19.5002839,33.6842105 L14,33.6842105 C12.8954305,33.6842105 12,32.78878 12,31.6842105 L12,16 C12,14.8954305 12.8954305,14 14,14 L18.9740755,14 L18.9740755,14 M16.8486842,25 L19.0986842,25 M16.8486842,20.3684211 L19.0986842,20.3684211" id="路径-2" stroke="#FFFFFF" stroke-width="3" stroke-linecap="round" stroke-linejoin="round"></path>
            </g>
        </g>
    </g>
</svg>