<?xml version="1.0" encoding="UTF-8"?>
<svg width="30px" height="30px" viewBox="0 0 30 30" version="1.1" xmlns="http://www.w3.org/2000/svg" xmlns:xlink="http://www.w3.org/1999/xlink">
    <title>Language</title>
    <defs>
        <filter color-interpolation-filters="auto" id="filter-1">
            <feColorMatrix in="SourceGraphic" type="matrix" values="0 0 0 0 0.406703 0 0 0 0 0.378072 0 0 0 0 0.234916 0 0 0 1.000000 0"></feColorMatrix>
        </filter>
    </defs>
    <g id="首页" stroke="none" stroke-width="1" fill="none" fill-rule="evenodd">
        <g id="选择语言" transform="translate(-245.000000, -762.000000)">
            <g id="编组-32" transform="translate(0.000000, 44.000000)">
                <g id="Language" transform="translate(0.000000, 698.000000)" filter="url(#filter-1)">
                    <g transform="translate(245.000000, 20.000000)">
                        <path d="M24.6029143,4.07786287e-07 L5.39708571,4.07786287e-07 C2.42223859,-0.00114384898 0.00784548948,2.40596381 0,5.38080082 L0,24.4477722 C0.00784548948,27.4226092 2.42223859,29.8297169 5.39708571,29.8285727 L24.6029143,29.8285727 C27.5777224,29.8296226 29.9920603,27.42257 30,24.4477722 L30,5.38080082 C29.9920603,2.40600306 27.5777224,-0.00104952577 24.6029143,4.07786287e-07 Z M27.5485714,24.4477722 C27.5442235,26.0708934 26.2268983,27.3842309 24.6037714,27.3836581 L5.39708571,27.3836581 C3.77398673,27.3842307 2.45671069,26.0708658 2.45245714,24.4477722 L2.45245714,5.38080082 C2.45671069,3.75770731 3.77398673,2.44434237 5.39708571,2.44491436 L24.6029143,2.44491436 C26.2264147,2.44377494 27.5443171,3.75730559 27.5485714,5.38080082 L27.5485714,24.4477722 Z M12.5504571,10.880058 C13.2256016,10.880058 13.7729143,10.3327453 13.7729143,9.65760082 C13.7729143,8.98245638 13.2256016,8.43514272 12.5504571,8.43514272 L6.99617143,8.43514272 C5.93678691,8.43410035 5.07674449,9.29130435 5.07428571,10.3506865 L5.07428571,19.478058 C5.07683867,20.5371722 5.9365401,21.394189 6.99565714,21.3934299 L12.5499429,21.3934299 C13.2250873,21.3934299 13.7724,20.8461167 13.7724,20.1709722 C13.7724,19.4958278 13.2250873,18.9485151 12.5499429,18.9485151 L7.52708571,18.9485151 L7.52708571,16.1370865 L12.5499429,16.1370865 C12.9866847,16.1370865 13.3902509,15.9040875 13.6086218,15.525858 C13.8269928,15.1476284 13.8269928,14.6816304 13.6086218,14.3034008 C13.3902509,13.9251712 12.9866847,13.6921722 12.5499429,13.6921722 L7.52708571,13.6921722 L7.52708571,10.8807437 L12.5499429,10.8807437 L12.5504571,10.880058 Z M24.0161143,8.55737224 C23.6913983,8.55687174 23.379783,8.68538487 23.1498204,8.91464014 C22.9198579,9.14389541 22.7903855,9.45511335 22.7898857,9.77982939 L22.7898857,16.2745722 L18.7270286,9.27822939 L18.7133143,9.25525796 C18.362243,8.68075359 17.6723076,8.40932284 17.0238947,8.59061542 C16.3754818,8.771908 15.9263702,9.36180987 15.9241714,10.0350865 L15.9241714,20.0487437 C15.9433829,20.7118643 16.4864868,21.2394617 17.1498857,21.2394617 C17.8132846,21.2394617 18.3563885,20.7118643 18.3756,20.0487437 L18.3756,13.5538294 L22.44,20.5503437 L22.4533714,20.5728008 C22.7226521,21.0209074 23.2072079,21.294858 23.73,21.294858 C23.8700621,21.2946807 24.009451,21.2754765 24.1443429,21.2377722 C24.795774,21.061461 25.2467482,20.4685147 25.2427129,19.793658 L25.2427129,9.77982939 C25.242186,9.45505385 25.1126665,9.14378387 24.8826298,8.91451874 C24.6525931,8.68525361 24.3408897,8.5567807 24.0161143,8.55737224 Z" id="形状" fill="#9C9159" fill-rule="nonzero"></path>
                    </g>
                </g>
            </g>
        </g>
    </g>
</svg>