<?xml version="1.0" encoding="UTF-8"?>
<svg width="91px" height="26px" viewBox="0 0 91 26" version="1.1" xmlns="http://www.w3.org/2000/svg" xmlns:xlink="http://www.w3.org/1999/xlink">
    <title>LOGO</title>
    <defs>
        <polygon id="path-1" points="0 0 12.891976 0 12.891976 14.0053365 0 14.0053365"></polygon>
        <polygon id="path-3" points="-1.6848506e-15 0 13.8133446 0 13.8133446 12.7411557 -1.6848506e-15 12.7411557"></polygon>
    </defs>
    <g id="首页" stroke="none" stroke-width="1" fill="none" fill-rule="evenodd">
        <g id="英文-跨链Curve" transform="translate(-50.000000, -20.000000)">
            <g id="LOGO" transform="translate(50.000000, 20.000000)">
                <g id="编组-39">
                    <g id="编组" transform="translate(0.000000, 4.536270)">
                        <mask id="mask-2" fill="white">
                            <use xlink:href="#path-1"></use>
                        </mask>
                        <g id="Clip-2"></g>
                        <path d="M11.3143184,12.5645195 L11.3072048,12.5610813 C11.1258067,12.4696709 10.9515223,12.3642703 10.7665674,12.2538902 C10.7226999,12.2278068 10.6788324,12.2017234 10.6361505,12.1757586 L9.95324021,11.7677908 L9.70781931,11.621961 C9.56554632,11.5377828 9.4185309,11.4501664 9.27625792,11.3612458 C9.01898094,11.1976318 8.81031389,11.0611683 8.61705975,10.931937 C8.17127107,10.6344679 7.73733846,10.3308337 7.32593241,10.0285036 C6.42368456,9.37167662 5.62695585,8.72670576 4.89306436,8.05683712 C4.04179767,7.2803823 3.3529593,6.5441196 2.78623857,5.80904251 C2.45426828,5.37499135 2.18869204,4.96714212 1.97291134,4.56522094 C1.72986166,4.10757617 1.57573259,3.678386 1.51408097,3.28713529 C1.44768691,2.88639971 1.49985367,2.53901651 1.66821003,2.27936831 C1.83300957,2.01972011 2.13771088,1.80275381 2.54911693,1.65336717 L2.55385937,1.65218157 C2.91546987,1.51465101 3.36244416,1.42335918 3.91968002,1.37474925 C4.44727568,1.3249537 4.97724255,1.33680978 5.42421684,1.3534083 C6.50193471,1.40201823 7.5986223,1.56088973 8.54118083,1.70671954 C8.70360915,1.73161732 8.85773822,1.63084062 8.90160572,1.47315473 L8.92294667,1.39265193 C8.96681418,1.23366187 8.88263599,1.06767672 8.72969253,1.00839631 C7.66738758,0.58987661 6.59559775,0.294660166 5.54396327,0.132231841 C4.59666231,-0.00885553629 3.34584565,-0.121488316 2.07487365,0.259091919 L2.06657439,0.261463136 C1.72630483,0.372910307 1.432274,0.513997684 1.16551215,0.691838916 C0.851325975,0.904062786 0.584564128,1.17319585 0.394866814,1.47196912 C0.200427068,1.77904164 0.0700101648,2.14183776 0.02021462,2.52716043 C-0.018910451,2.85201708 -0.0011263278,3.18872981 0.0723813812,3.55508274 L0.0735669895,3.55982518 C0.190942202,4.10757617 0.412650938,4.64347108 0.770704617,5.24457444 C1.04102329,5.7010336 1.36706555,6.15512155 1.76542991,6.62936483 C2.40921516,7.40001017 3.17748928,8.16010359 4.11411977,8.95090427 C4.90729166,9.61828313 5.75974397,10.2561403 6.72364344,10.9022968 C7.16350409,11.1928894 7.62470568,11.4832448 8.09539214,11.764234 C8.30287358,11.8887229 8.52458231,12.0180727 8.79490098,12.1720832 L8.79845781,12.1744544 C8.95258688,12.2599368 9.11027277,12.3428108 9.26203062,12.4235507 C9.34502319,12.4674182 9.42683016,12.5111672 9.51100834,12.5550347 L10.2188164,12.9321766 C10.2662408,12.9570744 10.3124795,12.9819722 10.3587182,13.0067514 C10.5484155,13.1075281 10.7440409,13.2130472 10.9491511,13.3031534 L12.3991499,13.9753933 C12.5603927,14.0500866 12.7512756,13.9801357 12.8259689,13.8200786 L12.8615371,13.7453853 C12.9338592,13.5900706 12.8733932,13.4051158 12.7216354,13.3244944 L11.3143184,12.5645195 Z" id="Fill-1" fill="#FFD400" mask="url(#mask-2)"></path>
                    </g>
                    <path d="M26.3241302,18.4607648 L26.3241302,18.4417951 L26.321759,18.4228254 C26.3170166,18.3837003 26.3134598,18.3456423 26.3110885,18.3065172 C26.3004181,18.1867708 26.2897476,18.0634675 26.2577362,17.9366074 C26.1427322,17.3842326 25.9269515,16.8507089 25.5783827,16.2601574 C25.308064,15.7990744 24.9867642,15.3472391 24.5955135,14.8790424 C23.9647699,14.1190675 23.204795,13.3626495 22.2693502,12.5647352 C21.4370532,11.8664119 20.5680024,11.2130233 19.6835386,10.6215233 C18.810931,10.0417609 17.8837854,9.48452505 16.9269996,8.96155327 L16.8001395,8.89409217 C16.378063,8.66882661 15.9405735,8.43514323 15.4959704,8.22659474 L14.0364867,7.58031971 C13.8776152,7.51048738 13.6926604,7.57794849 13.6167814,7.73338173 L13.5800276,7.80795648 C13.5017774,7.96813215 13.5681715,8.1625719 13.7294142,8.23963643 C15.5196826,9.10394482 17.3182503,10.1970756 19.0776928,11.4905741 C19.9040618,12.0915589 20.7162034,12.7520613 21.4868487,13.4539413 C22.3345586,14.2351386 23.0162833,14.9691486 23.5699624,15.6934367 C23.8900766,16.1144462 24.1603952,16.5305946 24.3702479,16.9313302 C24.6061839,17.378186 24.754385,17.8039379 24.8124798,18.1963742 L24.8160366,18.2189007 C24.8267071,18.2675107 24.8290783,18.3232343 24.8326351,18.3884427 C24.8338207,18.4157117 24.8350063,18.4429807 24.8373775,18.4726209 C24.8385631,18.4843584 24.8385631,18.4975187 24.8373775,18.5092562 C24.8361919,18.5271589 24.8361919,18.544943 24.8350063,18.5626086 C24.8326351,18.627817 24.8290783,18.6906542 24.8195934,18.7357074 L24.814851,18.7571669 L24.8124798,18.7785078 C24.8089229,18.8223753 24.7923244,18.8744235 24.7733547,18.9350081 C24.7697979,18.9468642 24.7650554,18.9599059 24.7614986,18.971762 C24.7579418,18.9848036 24.7531994,18.9977268 24.7472713,19.0097014 L24.7022182,19.1068027 L24.6974758,19.1162876 C24.6951045,19.1222156 24.6844341,19.1377471 24.6773204,19.1496032 C24.6702068,19.1613407 24.6607219,19.175568 24.6524227,19.1909809 C24.6464946,19.2004658 24.6405666,19.2112548 24.6346385,19.2194355 C24.4627253,19.4637894 24.1568384,19.6747091 23.7703301,19.8147294 L23.7655877,19.815915 C23.4027916,19.9534456 22.9712302,20.041062 22.4080663,20.0909761 C21.8840275,20.1394675 21.3576174,20.1299826 20.9142,20.1145697 C19.8435958,20.0684495 18.7552074,19.9118307 17.8185769,19.7696763 C17.6561486,19.7447785 17.5020195,19.8455552 17.4593376,20.0044267 L17.4379967,20.0849295 C17.3953148,20.2439196 17.4783074,20.4087191 17.6312508,20.4690666 C18.6852565,20.8840294 19.7499327,21.1756891 20.7956391,21.3370503 C21.259212,21.4058156 21.7951069,21.4673487 22.3724981,21.4673487 C22.9641166,21.4673487 23.5996026,21.4022588 24.2410166,21.2125615 L24.2493159,21.2100717 C24.5872142,21.0999287 24.8800594,20.9612125 25.1444501,20.7869281 C25.4515226,20.582885 25.7170988,20.3186129 25.9139098,20.0222108 C26.0158721,19.8680818 26.0846374,19.7115815 26.1569595,19.5372971 C26.1605163,19.5301834 26.1628875,19.5217656 26.1652587,19.5147705 L26.1818572,19.4637894 C26.2269104,19.3167739 26.2778915,19.1506702 26.2956756,18.9765044 C26.321759,18.8259321 26.321759,18.6824736 26.3205734,18.5556135 C26.3241302,18.5224164 26.3241302,18.4915906 26.3241302,18.4607648" id="Fill-3" fill="#FFD400"></path>
                    <g id="编组" transform="translate(4.895402, 13.258844)">
                        <mask id="mask-4" fill="white">
                            <use xlink:href="#path-3"></use>
                        </mask>
                        <g id="Clip-6"></g>
                        <path d="M13.5515588,0.0302856804 C13.405729,-0.0372939876 13.2326302,0.011315949 13.1448951,0.145289677 C12.8650916,0.571990072 12.5995154,1.00959806 12.343424,1.43286019 L12.2924428,1.51703838 L12.288886,1.52415203 C12.1774388,1.71847321 12.0517644,1.91528417 11.9296467,2.10510005 L11.8762944,2.18797406 C11.8205708,2.27570907 11.7648472,2.36356264 11.7103092,2.45129765 C11.626131,2.58527137 11.5395816,2.72398753 11.4518466,2.85428588 L11.3463275,3.0167142 C11.0973498,3.39859861 10.8388872,3.79459175 10.5733109,4.17517198 C10.2152573,4.69921081 9.93545372,5.09401835 9.66513505,5.45681446 L9.66276383,5.46037128 C9.33435036,5.91445923 9.00119445,6.34957744 8.7190197,6.71474477 C8.43684494,7.08109771 8.10013221,7.51028788 7.73970732,7.92276098 L7.73022245,7.93343145 C7.09829327,8.72435069 6.37862909,9.46535582 5.59138524,10.1362915 C5.16575189,10.4872315 4.76738753,10.7707105 4.37495122,11.0030897 C3.90189354,11.280522 3.48100262,11.4536208 3.09093752,11.5306853 L2.94866454,11.5578357 C2.93562285,11.5603255 2.92376677,11.5615111 2.91072508,11.5626967 L2.7696377,11.5721816 L2.74948236,11.5744343 C2.6973156,11.5816665 2.63684958,11.576924 2.56571309,11.570996 C2.54081531,11.5685062 2.51473193,11.5674392 2.48983416,11.565068 C2.47797808,11.5637638 2.46493639,11.5626967 2.45308031,11.5603255 C2.25271252,11.5259429 2.0914698,11.4678481 1.95986729,11.3859226 C1.66346524,11.1985965 1.4121163,10.8476564 1.2532448,10.3960583 C1.11097181,10.0048076 1.0220512,9.53649231 0.980554909,8.96858598 C0.949729096,8.49315709 0.955657137,7.97729895 0.998339032,7.43678017 C1.07303235,6.50003112 1.24375993,5.48882588 1.51882104,4.34471396 C1.55913172,4.17517198 1.45835502,4.0044444 1.29118426,3.95820568 L1.2105629,3.93556056 C1.04220654,3.88944041 0.867922129,3.98535611 0.816940976,4.15264543 C0.462444121,5.31442291 0.228879304,6.3578767 0.103204834,7.34311712 C0.0261402999,7.93355001 -0.00705672996,8.47892979 0.00124252751,9.01126787 C0.0178410425,9.68694599 0.0960911843,10.2336299 0.249034643,10.732771 C0.464815338,11.4262332 0.843024357,11.976474 1.34335102,12.3226716 C1.61129848,12.5052553 1.93378391,12.633301 2.30369367,12.7032518 L2.33096266,12.7068087 C2.36297408,12.7102469 2.3949855,12.7138038 2.42699693,12.7174791 C2.52065997,12.7281496 2.62380789,12.7411913 2.73169824,12.7411913 C2.76252405,12.7411913 2.79334986,12.7398871 2.82417568,12.7376345 C2.84314541,12.7364489 2.86330075,12.7364489 2.88227048,12.7364489 C2.93088042,12.7352633 2.98186157,12.7339591 3.03284272,12.7317064 C3.04232759,12.7317064 3.05181245,12.7305208 3.06129732,12.7292167 L3.28893409,12.6973238 L3.29367653,12.6961382 C3.83075705,12.6106558 4.36783757,12.4174017 4.98435384,12.0891068 C5.44674104,11.8400105 5.91387067,11.5354278 6.41182612,11.1560331 C6.8860694,10.7861234 7.30103228,10.4315079 7.67687008,10.0747584 C7.86182496,9.90284525 8.04322302,9.72381841 8.21750743,9.55190522 L8.27085979,9.49973846 L8.83402369,8.89863509 C9.52167646,8.17529552 10.1702041,7.35011221 10.8744554,6.3009675 C12.0944463,4.46090356 13.0761299,2.49753637 13.7946084,0.462914116 C13.850332,0.306532393 13.7780099,0.134619203 13.6274377,0.0633641494 L13.5515588,0.0302856804 Z" id="Fill-5" fill="#FFD400" mask="url(#mask-4)"></path>
                    </g>
                    <path d="M21.4252208,3.59081922 C21.4026943,2.94466274 21.3114024,2.38861249 21.1430461,1.88947143 C21.0339701,1.57647087 20.8928827,1.29429611 20.725712,1.05480325 C20.528901,0.770257284 20.2763665,0.528393209 19.9941917,0.357665627 L19.9882637,0.354108802 C19.6598502,0.164411488 19.3361792,0.0529643166 19.0231786,0.0221385031 C18.6912083,-0.0158009596 18.3687229,-0.00513048572 18.0652071,0.055335533 C17.5435395,0.146627365 17.0183151,0.34225272 16.4124693,0.668294978 C15.9512677,0.919643918 15.4924373,1.2207884 15.0087092,1.59306938 C13.3061758,2.92924983 11.8253511,4.53812018 10.6053603,6.37344169 C9.37351336,8.22891854 8.40012902,10.1626455 7.71129065,12.1212703 C7.65675267,12.276585 7.72788916,12.4484982 7.8772758,12.5196346 L7.95196912,12.5552029 C8.09661332,12.6239682 8.27089772,12.5753582 8.35863273,12.4413845 C8.63725066,12.019308 8.90045568,11.5877466 9.15536145,11.1704125 L9.20397139,11.0921624 C9.40552478,10.7625633 9.61893426,10.4317786 9.82523009,10.1116644 C9.89755219,9.99903159 9.96987429,9.88758442 10.0421964,9.77495164 C10.137045,9.63267866 10.2318937,9.49159128 10.3255568,9.34931829 C10.5152541,9.06358672 10.7108794,8.76837027 10.9100616,8.48619552 L10.9124328,8.48263869 C11.2479599,7.99416811 11.5325059,7.59343253 11.8134951,7.21996595 C12.4181552,6.39359703 13.0571981,5.57315614 13.7104682,4.78354108 C14.0033134,4.43615787 14.3530678,4.02830865 14.7265344,3.64535719 C15.1106715,3.25292088 15.472282,2.91502254 15.8291501,2.61269244 C16.2417417,2.26886606 16.634178,1.98669131 17.0278,1.75312649 C17.4973008,1.47450856 17.9122637,1.29903855 18.2952151,1.21723158 L18.2999576,1.21604597 C18.7267765,1.11764049 19.1263265,1.15676556 19.4250998,1.32393632 L19.4286566,1.32630753 C19.8021232,1.52904654 20.0262031,1.94400941 20.1483208,2.25700998 C20.3024498,2.64826069 20.4008553,3.10353424 20.4459084,3.64891402 C20.4850335,4.11722926 20.4862191,4.60925667 20.4494653,5.15582205 C20.4186394,5.63362216 20.359359,6.13157761 20.2692528,6.68169982 C20.1910027,7.17135601 20.0890404,7.68235315 19.9669227,8.20283515 C19.926612,8.37237713 20.02976,8.54310471 20.1981163,8.58815782 L20.2787377,8.60949877 C20.447094,8.65455188 20.6213785,8.55733201 20.671174,8.39016125 C21.0150004,7.23300764 21.2355235,6.2027141 21.3469707,5.23762902 C21.4169216,4.64838174 21.4418193,4.11011561 21.4252208,3.59081922" id="Fill-7" fill="#FFD400"></path>
                </g>
                <path d="M17.4332305,12.2469685 C19.0093781,12.2469685 20.2869895,13.5245799 20.2869895,15.1006089 C20.2869895,16.6767564 19.0093781,17.9544864 17.4332305,17.9544864 C15.8572016,17.9544864 14.5794716,16.6767564 14.5794716,15.1006089 C14.5794716,13.5245799 15.8572016,12.2469685 17.4332305,12.2469685" id="Fill-9" fill="#FFD400"></path>
                <g id="编组-38" transform="translate(34.990797, 3.217305)" fill="#FFD400">
                    <polygon id="Fill-11" points="21.3326722 19.1607091 21.3326722 0.470662747 35.8421455 0.470662747 35.8421455 4.34297772 26.1343855 4.34297772 26.1343855 7.99927488 34.7644277 7.99927488 34.7644277 11.7767412 26.1343855 11.7767412 26.1343855 19.1630804 21.3326722 19.1630804"></polygon>
                    <polygon id="Fill-13" points="37.4841418 19.1607091 47.5475842 4.37617475 38.5749013 4.37617475 38.5310338 0.470662747 55.3512575 0.470662747 45.315084 15.2043345 54.5403015 15.2043345 54.5248886 19.1618947 37.4841418 19.1618947"></polygon>
                    <path d="M4.50768242,9.78363895 C4.50768242,11.3807718 4.97362644,12.7168337 5.9067001,13.7945515 C6.83977377,14.8722694 7.98981373,15.4105355 9.3580056,15.4105355 C10.7344967,15.4105355 11.8869079,14.8746406 12.8151206,13.8017837 C13.7434518,12.7288083 14.2082102,11.3902566 14.2082102,9.78494312 C14.2082102,8.17121179 13.7434518,6.82554647 12.8151206,5.74901421 C11.8869079,4.67260052 10.7344967,4.13303022 9.3580056,4.13303022 C7.98981373,4.13303022 6.83977377,4.67129635 5.9067001,5.74901421 C4.97481205,6.82447942 4.50768242,8.17014474 4.50768242,9.78363895 M0,9.78363895 C0,8.42374633 0.234750426,7.15040312 0.703065669,5.96254225 C1.17138091,4.77562987 1.86140489,3.71332491 2.7731376,2.77550882 C3.63388916,1.88037462 4.63454249,1.19390747 5.77391198,0.71622592 C6.91328147,0.239492858 8.10837455,0 9.3580056,0 C10.6076367,0 11.8039153,0.240678467 12.9479087,0.7220354 C14.0921392,1.20339233 15.1069013,1.89697314 15.9938548,2.80052515 C16.888989,3.70502566 17.5659712,4.74966505 18.0259872,5.93634031 C18.4858847,7.12325269 18.7160112,8.40596221 18.7160112,9.78245334 C18.7160112,10.9314263 18.5559541,12.0127009 18.2346543,13.026396 C17.9133545,14.0399724 17.4367399,14.9647468 16.8036252,15.8019048 C15.908491,16.993441 14.8094322,17.9180969 13.5052631,18.577295 C12.2010941,19.2364932 10.8185564,19.5662109 9.3580056,19.5662109 C8.11667381,19.5662109 6.92869438,19.3254138 5.79288172,18.8440569 C4.65706905,18.3627 3.65048768,17.6704233 2.7731376,16.7658043 C1.86140489,15.8278696 1.17138091,14.7704256 0.703065669,13.5918125 C0.234750426,12.4134365 0,11.1436501 0,9.78363895" id="Fill-15"></path>
                </g>
            </g>
        </g>
    </g>
</svg>