<?xml version="1.0" encoding="UTF-8"?>
<svg width="21px" height="20px" viewBox="0 0 21 20" version="1.1" xmlns="http://www.w3.org/2000/svg" xmlns:xlink="http://www.w3.org/1999/xlink">
    <title>Medium icon</title>
    <defs>
        <filter color-interpolation-filters="auto" id="filter-1">
            <feColorMatrix in="SourceGraphic" type="matrix" values="0 0 0 0 0.411765 0 0 0 0 0.411765 0 0 0 0 0.411765 0 0 0 1.000000 0"></feColorMatrix>
        </filter>
    </defs>
    <g id="首页" stroke="none" stroke-width="1" fill="none" fill-rule="evenodd">
        <g id="英文-跨链Curve" transform="translate(-595.000000, -3572.000000)">
            <g id="Medium-icon" transform="translate(0.000000, 3478.000000)" filter="url(#filter-1)">
                <g transform="translate(595.899497, 94.000000)">
                    <path d="M10,0 C15.5228475,0 20,4.4771525 20,10 C20,15.5228475 15.5228475,20 10,20 C4.4771525,20 0,15.5228475 0,10 C0.00214617533,4.47804172 4.47804172,0.00214617533 10,0 Z M5.19388889,7.04 L5.19388889,12.6072222 C5.22821577,12.8081222 5.1648889,13.0133673 5.02333334,13.16 L3.7,14.765 L3.7,14.9766667 L7.45277777,14.9766667 L7.45277777,14.765 L6.12944445,13.16 C5.98722941,13.0133853 5.92007407,12.8096672 5.94722223,12.6072222 L5.94722223,7.79222223 L9.24111111,14.9761111 L9.62333334,14.9761111 L12.4527778,7.79222223 L12.4527778,13.5183333 C12.4527778,13.6711111 12.4527778,13.7005556 12.3527778,13.8005555 L11.3333333,14.7883333 L11.3333333,15 L16.2777778,15 L16.2777778,14.7883333 L15.2955555,13.8244445 C15.2090852,13.7582263 15.1663257,13.6496172 15.1844445,13.5422222 L15.1844445,6.45777777 C15.1663257,6.35038276 15.2090852,6.24177374 15.2955555,6.17555555 L16.3,5.21166666 L16.3,5 L12.8177778,5 L10.3333333,11.1905555 L7.51166666,5 L3.85888889,5 L3.85888889,5.21166666 L5.03555555,6.62833334 C5.15110768,6.73238568 5.21012576,6.88529615 5.19444445,7.04 L5.19388889,7.04 Z" fill="#8491B3" fill-rule="nonzero"></path>
                </g>
            </g>
        </g>
    </g>
</svg>