<?xml version="1.0" encoding="UTF-8"?>
<svg width="36px" height="36px" viewBox="0 0 36 36" version="1.1" xmlns="http://www.w3.org/2000/svg" xmlns:xlink="http://www.w3.org/1999/xlink">
    <title>home</title>
    <g id="首页" stroke="none" stroke-width="1" fill="none" fill-rule="evenodd">
        <g id="选择语言" transform="translate(-70.000000, -398.000000)">
            <g id="home" transform="translate(70.000000, 398.000000)">
                <rect id="矩形" x="0" y="0" width="36" height="36"></rect>
                <path d="M15.3861256,4.40216462 L6.65352291,9.08076566 C4.86580195,10.0385595 3.75,11.9022177 3.75,13.9303487 L3.75,26.7360084 C3.75,29.7745397 6.21321631,32.237756 9.25174762,32.237756 L26.7482524,32.237756 C29.7867837,32.237756 32.25,29.7745397 32.25,26.7360084 L32.25,13.9339598 C32.25,11.9035244 31.1316849,10.0381397 29.3408146,9.08134735 L20.5769125,4.39913513 C18.9548863,3.53254958 17.0071392,3.53368634 15.3861256,4.40216462 Z" id="路径" fill="#C6A500" fill-rule="nonzero"></path>
                <path d="M13.5,21.7849223 C13.976173,23.759267 15.7541506,25.226049 17.8747134,25.226049 C20.0077603,25.226049 21.7941763,23.7419459 22.2577012,21.75" id="路径" stroke="#FFFFFF" stroke-width="2" stroke-linecap="round" stroke-linejoin="round"></path>
            </g>
        </g>
    </g>
</svg>