<?xml version="1.0" encoding="UTF-8"?>
<svg width="36px" height="36px" viewBox="0 0 36 36" version="1.1" xmlns="http://www.w3.org/2000/svg" xmlns:xlink="http://www.w3.org/1999/xlink">
    <title>home1</title>
    <g id="首页" stroke="none" stroke-width="1" fill="none" fill-rule="evenodd">
        <g id="选择语言" transform="translate(-23.000000, -398.000000)">
            <g id="home1" transform="translate(23.000000, 398.000000)">
                <rect id="矩形" x="0" y="0" width="36" height="36"></rect>
                <path d="M13.5,21.7849223 C13.976173,23.759267 15.7541506,25.226049 17.8747134,25.226049 C20.0077603,25.226049 21.7941763,23.7419459 22.2577012,21.75" id="路径" stroke="#FFD400" stroke-width="2" stroke-linecap="round" stroke-linejoin="round"></path>
                <path d="M15.85838,5.2836269 C17.1847575,4.5730036 18.7784813,4.57207346 20.1056873,5.28114805 L20.1056873,5.28114805 L28.8695894,9.96336027 C29.6022699,10.354803 30.1973725,10.9321072 30.6093051,11.6192236 C31.0212376,12.30634 31.25,13.1032685 31.25,13.9339598 L31.25,13.9339598 L31.25,26.7360084 C31.25,27.9791317 30.7461247,29.1045686 29.9314687,29.9192247 C29.1168126,30.7338807 27.9913757,31.237756 26.7482524,31.237756 L26.7482524,31.237756 L9.25174762,31.237756 C8.00862434,31.237756 6.88318743,30.7338807 6.06853135,29.9192247 C5.25387527,29.1045686 4.75,27.9791317 4.75,26.7360084 L4.75,26.7360084 L4.75,13.9303487 C4.75,13.1006001 4.97824833,12.3044962 5.38934466,11.6178662 C5.80044099,10.9312363 6.39438533,10.3540804 7.12577735,9.96222794 L7.12577735,9.96222794 Z" id="路径" stroke="#FFFFFF" stroke-width="2" fill-rule="nonzero"></path>
            </g>
        </g>
    </g>
</svg>