<?xml version="1.0" encoding="UTF-8"?>
<svg width="36px" height="36px" viewBox="0 0 36 36" version="1.1" xmlns="http://www.w3.org/2000/svg" xmlns:xlink="http://www.w3.org/1999/xlink">
    <title>vote</title>
    <g id="首页" stroke="none" stroke-width="1" fill="none" fill-rule="evenodd">
        <g id="选择语言" transform="translate(-71.000000, -628.000000)">
            <g id="vote" transform="translate(71.000000, 628.000000)">
                <rect id="矩形" x="0" y="0" width="36" height="36"></rect>
                <g id="编组-52" transform="translate(3.000096, 6.000000)">
                    <path d="M25.4995842,0 L5,0 C2.23857625,0 0,2.23857625 0,5 L0,8.34674346 C0,8.86423763 0.394887168,9.29623778 0.910292272,9.34268989 C2.69293204,9.50335453 4.07136917,11.003774 4.07136917,12.8069706 C4.07136917,14.6101672 2.69293204,16.1105867 0.910292272,16.2712513 C0.394893206,16.3177029 0,16.7496938 0,17.2671819 L0,18.985361 C0,21.7468173 2.23857625,23.9853935 5,23.9853935 L25.4995842,23.9853935 C28.2610079,23.9853935 30.4995842,21.7468173 30.4995842,18.9853935 L30.4995842,17.2671819 C30.4995842,16.7496938 30.104691,16.3177029 29.5892919,16.2712513 C27.8066521,16.1105867 26.428215,14.6101672 26.428215,12.8069706 C26.428215,11.003774 27.8066521,9.50335453 29.5892919,9.34268989 C30.104697,9.29623778 30.4995842,8.86423763 30.4995842,8.34674346 L30.4995842,5.00001668 C30.4995842,2.23857625 28.2610079,0 25.4995842,0 Z" id="路径" fill="#C6A500" fill-rule="nonzero"></path>
                    <g id="编组-6" transform="translate(9.999904, 5.500000)" stroke="#FFFFFF" stroke-linecap="round" stroke-width="2">
                        <line x1="0.5" y1="0" x2="0.5" y2="2" id="直线-10"></line>
                        <line x1="0.5" y1="5.6" x2="0.5" y2="7.6" id="直线-10备份"></line>
                        <line x1="0.5" y1="11.2" x2="0.5" y2="13.2" id="直线-10备份-2"></line>
                    </g>
                </g>
            </g>
        </g>
    </g>
</svg>