<?xml version="1.0" encoding="UTF-8"?>
<svg width="36px" height="36px" viewBox="0 0 36 36" version="1.1" xmlns="http://www.w3.org/2000/svg" xmlns:xlink="http://www.w3.org/1999/xlink">
    <title>pool1</title>
    <defs>
        <rect id="path-1" x="0" y="0" width="36" height="36"></rect>
    </defs>
    <g id="首页" stroke="none" stroke-width="1" fill="none" fill-rule="evenodd">
        <g id="选择语言" transform="translate(-23.000000, -521.000000)">
            <g id="pool1" transform="translate(23.000000, 521.000000)">
                <mask id="mask-2" fill="white">
                    <use xlink:href="#path-1"></use>
                </mask>
                <g id="蒙版"></g>
                <g id="编组-47" mask="url(#mask-2)" stroke-width="2">
                    <g transform="translate(17.032609, 18.500000) rotate(45.000000) translate(-17.032609, -18.500000) translate(6.250000, 2.500000)">
                        <path d="M16.9391149,1 C17.71197,1 18.4118826,1.31131621 18.9184348,1.815335 C19.4231678,2.31754375 19.735786,3.01121848 19.735786,3.77768338 C19.735786,4.54414828 19.4231678,5.23782301 18.9184348,5.74003176 C18.4118826,6.24405055 17.71197,6.55536676 16.9391149,6.55536676 L16.9391149,6.55536676 L13.8296343,6.55536676 L13.8296343,12.7067753 L17.4180602,12.7067753 C18.2857588,12.7067753 19.070753,13.0636805 19.6391896,13.6390072 C20.2119606,14.2187209 20.5652174,15.0198653 20.5652174,15.9042013 L20.5652174,15.9042013 L20.5652174,21.2173913 C20.5652174,23.9187841 19.4702616,26.3644363 17.6999576,28.1347403 C15.9296537,29.9050442 13.4840015,31 10.7826087,31 C8.0812159,31 5.63556372,29.9050442 3.86525975,28.1347403 C2.09495577,26.3644363 1,23.9187841 1,21.2173913 L1,21.2173913 L1,15.9042013 C1,15.0198653 1.35325679,14.2187209 1.92602779,13.6390072 C2.49446437,13.0636805 3.27945855,12.7067753 4.14715719,12.7067753 L4.14715719,12.7067753 L7.78198427,12.7067753 L7.78198427,6.55536676 L4.62610254,6.55536676 C3.85324739,6.55536676 3.15333476,6.24405055 2.64678262,5.74003176 C2.14204963,5.23782301 1.82943144,4.54414828 1.82943144,3.77768338 C1.82943144,3.01121848 2.14204963,2.31754375 2.64678262,1.815335 C3.15333476,1.31131621 3.85324739,1 4.62610254,1 L4.62610254,1 Z" id="路径" stroke="#FFFFFF"></path>
                        <line x1="10.7826087" y1="18.7826087" x2="10.8324931" y2="25.0680579" id="直线-9" stroke="#FFD400" stroke-linecap="round"></line>
                    </g>
                </g>
            </g>
        </g>
    </g>
</svg>