<?xml version="1.0" encoding="UTF-8"?>
<svg width="36px" height="36px" viewBox="0 0 36 36" version="1.1" xmlns="http://www.w3.org/2000/svg" xmlns:xlink="http://www.w3.org/1999/xlink">
    <title>pool</title>
    <defs>
        <rect id="path-1" x="0" y="0" width="36" height="36"></rect>
    </defs>
    <g id="首页" stroke="none" stroke-width="1" fill="none" fill-rule="evenodd">
        <g id="选择语言" transform="translate(-70.000000, -521.000000)">
            <g id="pool" transform="translate(70.000000, 521.000000)">
                <mask id="mask-2" fill="white">
                    <use xlink:href="#path-1"></use>
                </mask>
                <g id="蒙版"></g>
                <g id="编组-47" mask="url(#mask-2)">
                    <g transform="translate(17.032609, 18.500000) rotate(45.000000) translate(-17.032609, -18.500000) translate(6.250000, 2.500000)">
                        <path d="M0,21.2173913 L0,15.9042013 L0,15.9042013 C0,13.5860269 1.85674552,11.7067753 4.14715719,11.7067753 L6.78198427,11.7067753 L6.78198427,7.55536676 L4.62610254,7.55536676 C2.52925899,7.55536676 0.829431438,5.8640403 0.829431438,3.77768338 C0.829431438,1.69132646 2.52925899,0 4.62610254,0 L16.9391149,0 C19.0359584,0 20.735786,1.69132646 20.735786,3.77768338 C20.735786,5.8640403 19.0359584,7.55536676 16.9391149,7.55536676 L14.8296343,7.55536676 L14.8296343,11.7067753 L17.4180602,11.7067753 C19.7084719,11.7067753 21.5652174,13.5860269 21.5652174,15.9042013 L21.5652174,21.2173913 C21.5652174,27.1724617 16.737679,32 10.7826087,32 C4.82753835,32 7.29285784e-16,27.1724617 0,21.2173913 Z" id="路径" stroke="none" fill="#C6A500" fill-rule="nonzero"></path>
                        <line x1="10.7826087" y1="18.7826087" x2="10.8324931" y2="25.0680579" id="直线-9" stroke="#FFFFFF" stroke-width="2" fill="none" stroke-linecap="round"></line>
                    </g>
                </g>
            </g>
        </g>
    </g>
</svg>