<?xml version="1.0" encoding="UTF-8"?>
<svg width="36px" height="36px" viewBox="0 0 36 36" version="1.1" xmlns="http://www.w3.org/2000/svg" xmlns:xlink="http://www.w3.org/1999/xlink">
    <title>vote1</title>
    <g id="首页" stroke="none" stroke-width="1" fill="none" fill-rule="evenodd">
        <g id="选择语言" transform="translate(-24.000000, -628.000000)">
            <g id="vote1" transform="translate(24.000000, 628.000000)">
                <rect id="矩形" x="0" y="0" width="36" height="36"></rect>
                <g id="编组-52" transform="translate(4.000000, 7.000000)" stroke-width="2">
                    <path d="M24.4996798,0 C26.7088188,-4.05812251e-16 28.4996798,1.790861 28.4996798,4 L28.4996239,7.34672678 C26.2170375,7.55245031 24.4283106,9.47082068 24.4283106,11.8069706 C24.4283106,14.1431205 26.2170375,16.0614909 28.4996239,16.2672144 L28.4996798,17.9853935 C28.4996798,20.1945325 26.7088188,21.9853935 24.4996798,21.9853935 L4.00009558,21.9853935 C1.79095658,21.9853935 9.55771632e-05,20.1945325 9.55771632e-05,17.9853935 L0.000151389998,16.2672144 C2.28273786,16.0614909 4.07146475,14.1431205 4.07146475,11.8069706 C4.07146475,9.47082068 2.28273786,7.55245031 0.000151389998,7.34672678 L9.55771632e-05,4 C9.55771632e-05,1.790861 1.79095658,-4.82366169e-16 4.00009558,0 L24.4996798,0 Z" id="形状结合" stroke="#FFFFFF" stroke-linejoin="round"></path>
                    <g id="编组-6" transform="translate(9.000000, 4.500000)" stroke="#FFD400" stroke-linecap="round">
                        <line x1="0.5" y1="0" x2="0.5" y2="2" id="直线-10"></line>
                        <line x1="0.5" y1="5.6" x2="0.5" y2="7.6" id="直线-10备份"></line>
                        <line x1="0.5" y1="11.2" x2="0.5" y2="13.2" id="直线-10备份-2"></line>
                    </g>
                </g>
            </g>
        </g>
    </g>
</svg>