<?xml version="1.0" encoding="UTF-8"?>
<svg width="36px" height="36px" viewBox="0 0 36 36" version="1.1" xmlns="http://www.w3.org/2000/svg" xmlns:xlink="http://www.w3.org/1999/xlink">
    <title>charts</title>
    <g id="首页" stroke="none" stroke-width="1" fill="none" fill-rule="evenodd">
        <g id="选择语言" transform="translate(-72.000000, -674.000000)">
            <g id="charts" transform="translate(72.000000, 674.000000)">
                <rect id="矩形" x="0" y="0" width="36" height="36"></rect>
                <path d="M14.5,3.8660254 L7.50961894,7.90192379 C5.34381141,9.15235335 4.00961894,11.4632425 4.00961894,13.9641016 L4.00961894,22.0358984 C4.00961894,24.5367575 5.34381141,26.8476466 7.50961894,28.0980762 L14.5,32.1339746 C16.6658075,33.3844042 19.3341925,33.3844042 21.5,32.1339746 L28.4903811,28.0980762 C30.6561886,26.8476466 31.9903811,24.5367575 31.9903811,22.0358984 L31.9903811,13.9641016 C31.9903811,11.4632425 30.6561886,9.15235335 28.4903811,7.90192379 L21.5,3.8660254 C19.3341925,2.61559584 16.6658075,2.61559584 14.5,3.8660254 Z" id="路径" fill="#C6A500" fill-rule="nonzero"></path>
                <g id="编组" transform="translate(10.500000, 13.000000)" stroke="#FFFFFF" stroke-linecap="round" stroke-linejoin="round" stroke-width="2">
                    <g id="编组-8">
                        <polyline id="路径-2" points="0 9 5.07962543 3.68584668 8.31370803 6.97612281 14.1176471 0.9"></polyline>
                        <polyline id="路径-3" points="11.4705882 0 15 0 15 3.6"></polyline>
                    </g>
                </g>
            </g>
        </g>
    </g>
</svg>