<?xml version="1.0" encoding="UTF-8"?>
<svg width="36px" height="36px" viewBox="0 0 36 36" version="1.1" xmlns="http://www.w3.org/2000/svg" xmlns:xlink="http://www.w3.org/1999/xlink">
    <title>about1</title>
    <defs>
        <rect id="path-1" x="0" y="0" width="36" height="36"></rect>
    </defs>
    <g id="首页" stroke="none" stroke-width="1" fill="none" fill-rule="evenodd">
        <g id="选择语言" transform="translate(-22.000000, -628.000000)">
            <g id="about1" transform="translate(22.000000, 628.000000)">
                <mask id="mask-2" fill="white">
                    <use xlink:href="#path-1"></use>
                </mask>
                <g id="蒙版"></g>
                <g id="编组-35" mask="url(#mask-2)">
                    <g transform="translate(-35.000000, -60.000000)">
                        <path d="M53.2519064,65 C56.9048674,65 60.2164144,66.486491 62.6149816,68.8857 C65.0139711,71.2853314 66.5,74.5983122 66.5,78.2519064 C66.5,81.6704428 65.6603668,84.4099581 62.8696498,87.2990907 C62.616196,87.5614826 62.363418,87.8077482 62.1114047,88.038727 C62.3741297,88.265634 62.6486222,88.5028314 62.934882,88.7503194 C64.2387688,89.8776039 65.2961146,90.7941684 66.1069289,91.4999866 L66.1069289,91.4999866 L66.1069307,91.5 L53.2519064,91.5 C49.5965395,91.5 46.2834842,90.0149835 43.8842703,87.6164115 C41.4854787,85.2182616 40,81.9066398 40,78.2519064 C40,74.5972712 41.4863177,71.2848774 43.8853736,68.8858215 C46.2850195,66.4861756 49.5981402,65 53.2519064,65 Z" id="路径" stroke="#FFFFFF" stroke-width="2" fill="none"></path>
                        <g id="编组" stroke="none" stroke-width="1" fill="none" fill-rule="evenodd"></g>
                        <line x1="53" y1="76.5" x2="53" y2="85.5" id="直线" stroke="#FFD400" stroke-width="2" fill="none" stroke-linecap="round"></line>
                        <circle id="椭圆形" stroke="none" fill="#FFFFFF" fill-rule="evenodd" cx="53" cy="72" r="1"></circle>
                    </g>
                </g>
            </g>
        </g>
    </g>
</svg>