<?xml version="1.0" encoding="UTF-8"?>
<svg width="28px" height="28px" viewBox="0 0 28 28" version="1.1" xmlns="http://www.w3.org/2000/svg" xmlns:xlink="http://www.w3.org/1999/xlink">
    <title>Others</title>
    <g id="页面-1" stroke="none" stroke-width="1" fill="none" fill-rule="evenodd">
        <g id="GameFi" transform="translate(-1998.000000, -546.000000)" fill-rule="nonzero">
            <g id="Others" transform="translate(1998.000000, 546.000000)">
                <path d="M14.0004974,0 C6.26814452,0 0,6.26764716 0,13.9997513 C0,21.7314825 6.26814452,27.9995026 14.0004974,27.9995026 C21.7321042,27.9995026 28,21.7314825 28,13.9997513 C28,6.26764716 21.7321042,0 14.0004974,0 Z" id="路径" fill="#FFFFFF"></path>
                <g id="编组" transform="translate(6.000445, 6.555642)">
                    <path d="M9.3989327,1.99983984 C9.3989327,3.10434852 10.2943508,4 11.3994091,4 C12.5035146,4 13.3989327,3.10434852 13.3989327,1.99983984 C13.3989327,0.895010813 12.5035146,0 11.3994091,0 C10.2940331,0 9.3989327,0.895010813 9.3989327,1.99983984 Z" id="路径" fill="#B7D7FF"></path>
                    <path d="M10.3989327,12.3889161 C10.3989327,13.7699524 11.5182053,14.8887159 12.8995283,14.8887159 C14.2796601,14.8887159 15.3989327,13.7699524 15.3989327,12.3889161 C15.3989327,11.0074794 14.2796601,9.88871587 12.8995283,9.88871587 C11.5178083,9.88871587 10.3989327,11.0074794 10.3989327,12.3889161 Z" id="路径" fill="#78B4FF"></path>
                    <path d="M4.08316663,11.9442189 C6.33800318,11.9442189 8.16588844,10.131194 8.16588844,7.89327623 C8.16390738,6.44230677 7.38508895,5.10358941 6.12497228,4.38512875 C4.85989722,3.66138113 3.30643605,3.66138113 2.04136099,4.38512875 C0.781207912,5.10361167 0.00225731965,6.4422645 0,7.89327623 C-0.000444668501,10.1298593 1.82788533,11.9442189 4.08316663,11.9442189 Z" id="路径" fill="#177EFF"></path>
                </g>
            </g>
        </g>
    </g>
</svg>