<?xml version="1.0" encoding="UTF-8"?>
<svg width="34px" height="34px" viewBox="0 0 34 34" version="1.1" xmlns="http://www.w3.org/2000/svg" xmlns:xlink="http://www.w3.org/1999/xlink">
    <!-- Generator: Sketch 60.1 (88133) - https://sketch.com -->
    <title>ic_add备份</title>
    <desc>Created with Sketch.</desc>
    <g id="2.0" stroke="none" stroke-width="1" fill="none" fill-rule="evenodd">
        <g id="pool" transform="translate(-836.000000, -618.000000)" fill-rule="nonzero">
            <g id="编组-19备份" transform="translate(160.000000, 489.000000)">
                <g id="编组-19备份-3" transform="translate(388.000000, 116.000000)">
                    <g id="ic_add备份" transform="translate(285.000000, 10.000000)">
                        <rect id="矩形" fill="#000000" opacity="0" x="0" y="0" width="40" height="40"></rect>
                        <path d="M27.7783333,3.33333332 L12.2216667,3.33333332 C6.55,3.33333332 3.33333332,6.54833332 3.33333332,12.2216667 L3.33333332,27.7783333 C3.33333332,33.4366667 6.53333332,36.6666667 12.2216667,36.6666667 L27.7783333,36.6666667 C33.45,36.6666667 36.6666667,33.4366667 36.6666667,27.7783333 L36.6666667,12.2216667 C36.6666667,6.55 33.4516667,3.33333332 27.7783333,3.33333332 Z" id="路径" fill="#FFD400" opacity="0.200000003"></path>
                        <path d="M21.25,21.18 L18.75,21.18 L14.4666667,21.18 C13.8252716,21.1175288 13.3354331,20.5794268 13.3333333,19.935 C13.3333333,19.2933333 13.8216666,18.7566667 14.4666667,18.69 L18.7366667,18.69 L21.25,18.69 L25.5333333,18.69 C26.1783333,18.7566667 26.6666667,19.2933333 26.6666667,19.935 C26.6645669,20.5794268 26.1747284,21.1175288 25.5333333,21.18 L21.25,21.18 Z" id="路径" fill="#FFD400"></path>
                    </g>
                </g>
            </g>
        </g>
    </g>
</svg>