<?xml version="1.0" encoding="UTF-8"?>
<svg width="154px" height="35px" viewBox="0 0 154 35" version="1.1" xmlns="http://www.w3.org/2000/svg" xmlns:xlink="http://www.w3.org/1999/xlink">
    <title>Debank</title>
    <defs>
        <rect id="path-1" x="0" y="0" width="153" height="34"></rect>
        <filter color-interpolation-filters="auto" id="filter-3">
            <feColorMatrix in="SourceGraphic" type="matrix" values="0 0 0 0 0.380392 0 0 0 0 0.380392 0 0 0 0 0.380392 0 0 0 1.000000 0"></feColorMatrix>
        </filter>
    </defs>
    <g id="首页" stroke="none" stroke-width="1" fill="none" fill-rule="evenodd">
        <g id="中文-跨链Curve" transform="translate(-1342.000000, -3149.000000)">
            <g id="编组-32" transform="translate(0.000000, 2600.000000)">
                <g id="编组-9" transform="translate(420.000000, 120.000000)">
                    <g id="编组-16" transform="translate(0.000000, 286.120950)">
                        <g id="编组-14" transform="translate(0.000000, 130.000000)">
                            <g id="Debank" transform="translate(918.504673, 0.000000)">
                                <g transform="translate(4.000000, 13.000000)">
                                    <mask id="mask-2" fill="white">
                                        <use xlink:href="#path-1"></use>
                                    </mask>
                                    <g id="矩形"></g>
                                    <g filter="url(#filter-3)" id="debank-logo(1)">
                                        <g mask="url(#mask-2)">
                                            <g transform="translate(26.216782, 3.649258)">
                                                <g id="Group" stroke-width="1" fill="none" fill-rule="evenodd">
                                                    <path d="M22.5943359,18.4125886 C22.5943359,22.770728 19.0927029,26.303698 14.7732196,26.303698 L3.28777941e-13,26.303698 L3.28777941e-13,21.0429584 L14.7732196,21.0429584 C16.2130474,21.0429584 17.3802584,19.8653018 17.3802584,18.4125886 C17.3802584,16.9598755 16.2130474,15.7822188 14.7732196,15.7822188 L9.55914212,15.7822188 L9.55914212,10.5214792 L14.7732196,10.5214792 C16.2130474,10.5214792 17.3802584,9.34382254 17.3802584,7.89110942 C17.3802584,6.43839627 16.2130474,5.26073959 14.7732196,5.26073959 L3.28777941e-13,5.26073959 L3.28777941e-13,1.00802978e-11 L14.7732196,1.00802978e-11 C19.0927029,1.00802978e-11 22.5943359,3.53297003 22.5943359,7.89110942 C22.5943359,9.91216572 21.8412835,11.7557632 20.602836,13.151849 C21.8412835,14.5479349 22.5943359,16.3915323 22.5943359,18.4125886 Z" id="Path" fill="#FE815F" fill-rule="nonzero" opacity="0.800000012"></path>
                                                    <path d="M0,21.0429584 L12.6886706,21.0429584 C9.99342567,24.2374023 5.70227215,26.303698 0.869012919,26.303698 C0.577289808,26.303698 0.287541596,26.2961706 0,26.2813216 L0,21.0429584 L0,21.0429584 Z M15.3467146,15.7822188 L10.428155,15.7822188 L10.428155,10.5214792 L15.3467146,10.5214792 C15.5405034,11.3713778 15.6422325,12.2510372 15.6422325,13.151849 C15.6422325,14.0526608 15.5405034,14.9323202 15.3467146,15.7822188 Z M12.6886706,5.26073959 L9.19264664e-13,5.26073959 L9.19264664e-13,0.0223763836 C0.287541596,0.00752755554 0.577289808,0 0.869012919,0 C5.70227215,0 9.99342567,2.06629567 12.6886706,5.26073959 L12.6886706,5.26073959 Z" id="Shape" fill="#000000" fill-rule="nonzero" opacity="0.119999997"></path>
                                                    <path d="M3.00063711e-13,1.00920601e-11 C7.19913875,1.00920601e-11 13.0351938,5.88828336 13.0351938,13.151849 C13.0351938,20.4154147 7.19913875,26.303698 3.00063711e-13,26.303698 L3.00063711e-13,21.0429584 C4.31948324,21.0429584 7.82111627,17.5099884 7.82111627,13.151849 C7.82111627,8.79370963 4.31948324,5.26073959 3.00063711e-13,5.26073959 L3.00063711e-13,1.00920601e-11 Z" id="Path" fill="#FF6238" fill-rule="nonzero"></path>
                                                </g>
                                                <path d="M45.4565541,8.22264034 C45.4565541,9.30691505 45.252926,10.2425251 44.8456641,11.0294987 C44.4384019,11.8164723 43.9012962,12.4635297 43.2343306,12.9706905 C42.5673651,13.4778512 41.8148269,13.8509294 40.9766931,14.0899362 C40.1385595,14.328943 39.288634,14.4484446 38.4268908,14.4484446 L33.7522533,14.4484446 L33.7522533,2.06678895 L38.2852352,2.06678895 C39.1705876,2.06678895 40.0441223,2.16880251 40.9058653,2.3728327 C41.7676083,2.57686289 42.5349024,2.91496498 43.2077701,3.38714911 C43.8806381,3.85933327 44.4236459,4.49181735 44.8368106,5.28462035 C45.2499749,6.07742337 45.4565541,7.05675355 45.4565541,8.22264034 Z M42.3047153,8.22264034 C42.3047153,7.52310828 42.1896212,6.9430883 41.9594295,6.48256303 C41.7292377,6.02203774 41.4223204,5.65478892 41.0386676,5.38080553 C40.6550149,5.10682214 40.2182476,4.91153903 39.7283525,4.79495036 C39.2384574,4.67836167 38.7338141,4.62006822 38.2144074,4.62006822 L36.7093158,4.62006822 L36.7093158,11.8601889 L38.1435795,11.8601889 C38.6865957,11.8601889 39.2089458,11.7989807 39.7106454,11.6765626 C40.2123451,11.5541445 40.6550149,11.3530321 41.0386676,11.0732193 C41.4223204,10.7934064 41.7292377,10.4203283 41.9594295,9.95397353 C42.1896212,9.48761883 42.3047153,8.91051353 42.3047153,8.22264034 Z M53.3715652,9.09705106 C53.3715652,8.6423552 53.2269601,8.251789 52.9377448,7.9253407 C52.6485296,7.5988924 52.2147136,7.43567069 51.6362832,7.43567069 C51.3529704,7.43567069 51.0932709,7.47939081 50.857177,7.56683232 C50.621083,7.65427382 50.4145038,7.77377541 50.2374334,7.9253407 C50.060363,8.07690598 49.9187086,8.25470105 49.8124663,8.45873123 C49.7062239,8.66276141 49.6472015,8.87553256 49.6353966,9.09705106 L53.3715652,9.09705106 Z M56.0453164,10.1988085 L56.0453164,10.5485728 C56.0453164,10.6651615 56.0394139,10.7759191 56.0276094,10.8808489 L49.6353966,10.8808489 C49.6590061,11.1256851 49.7327844,11.3472003 49.8567338,11.545401 C49.9806829,11.7436018 50.140044,11.9155675 50.3348217,12.0613033 C50.5295992,12.2070392 50.7479827,12.3207115 50.9899791,12.4023235 C51.2319754,12.4839356 51.4828217,12.524741 51.742525,12.524741 C52.2029082,12.524741 52.5924575,12.4402155 52.9111843,12.2711619 C53.2299111,12.1021083 53.4896106,11.8835078 53.6902905,11.6153539 L55.7088841,12.8745053 C55.2957197,13.4691076 54.7497605,13.9267113 54.0709904,14.2473301 C53.39222,14.5679474 52.6042683,14.728256 51.707111,14.728256 C51.0460479,14.728256 50.4204083,14.6262424 49.8301733,14.4222123 C49.2399382,14.2181821 48.7234904,13.9208854 48.2808141,13.5303133 C47.8381379,13.1397413 47.4899046,12.6588202 47.2361037,12.0875357 C46.9823025,11.5162512 46.8554039,10.8633644 46.8554039,10.1288557 C46.8554039,9.41766475 46.9793514,8.77352197 47.2272502,8.19640801 C47.4751487,7.61929407 47.8115777,7.12962896 48.2365469,6.72739804 C48.6615161,6.32516709 49.1632083,6.01329705 49.7416385,5.79177857 C50.3200686,5.57026008 50.9457084,5.4595025 51.6185761,5.4595025 C52.2678347,5.4595025 52.8639631,5.5673454 53.4069793,5.78303446 C53.9499954,5.9987235 54.4162741,6.31059355 54.805829,6.71865393 C55.1953842,7.12671428 55.4993507,7.62220872 55.7177376,8.20515212 C55.9361245,8.78809551 56.0453164,9.45264101 56.0453164,10.1988085 Z M67.7850309,10.8458725 C67.7850309,11.5220868 67.649279,12.0904481 67.3777708,12.5509734 C67.1062628,13.0114986 66.7462247,13.3816621 66.2976463,13.6614749 C65.8490677,13.9412878 65.3385222,14.1424002 64.7659942,14.2648183 C64.1934662,14.3872365 63.6061913,14.4484446 63.0041516,14.4484446 L58.0107889,14.4484446 L58.0107889,2.06678895 L63.0041516,2.06678895 C63.4881443,2.06678895 63.9839343,2.11633839 64.4915362,2.21543877 C64.9991383,2.31453914 65.4595148,2.48359019 65.8726792,2.72259698 C66.2858438,2.96160378 66.6222725,3.28513249 66.8819759,3.69319286 C67.1416795,4.10125324 67.2715292,4.62006508 67.2715292,5.24964393 C67.2715292,5.93751713 67.0826568,6.50587839 66.7049064,6.95474482 C66.3271559,7.40361122 65.8313661,7.72713995 65.2175216,7.9253407 L65.2175216,7.96031711 C65.5716627,8.01861146 65.9051403,8.12645436 66.217965,8.28384908 C66.5307894,8.4412438 66.8022935,8.64235627 67.0324852,8.88719247 C67.2626767,9.13202869 67.4456468,9.41766666 67.581401,9.74411497 C67.717155,10.0705633 67.7850309,10.4378121 67.7850309,10.8458725 Z M64.3498806,5.65187286 C64.3498806,5.23215362 64.1875684,4.92611293 63.8629391,4.73374162 C63.5383101,4.54137028 63.0572758,4.44518607 62.4198221,4.44518607 L60.9324373,4.44518607 L60.9324373,6.99846534 L62.5614777,6.99846534 C63.1281033,6.99846534 63.5678217,6.88479309 63.8806462,6.65744516 C64.1934708,6.43009725 64.3498806,6.09490983 64.3498806,5.65187286 Z M64.7571407,10.566061 C64.7571407,10.0530708 64.5623661,9.69748073 64.1728109,9.49927996 C63.783256,9.30107922 63.263857,9.20198032 62.6145985,9.20198032 L60.9324373,9.20198032 L60.9324373,12.035071 L62.6323055,12.035071 C62.8683995,12.035071 63.1133433,12.0146683 63.3671444,11.9738623 C63.6209454,11.9330562 63.8511335,11.8601894 64.0577158,11.7552596 C64.2642981,11.6503298 64.4325125,11.5016815 64.5623643,11.3093101 C64.6922158,11.1169388 64.7571407,10.8691916 64.7571407,10.566061 Z M74.832401,10.6535021 L74.4605549,10.6535021 C74.1418281,10.6535021 73.8201548,10.6680755 73.4955255,10.6972226 C73.1708963,10.7263698 72.8816854,10.7817486 72.6278845,10.8633607 C72.3740836,10.9449728 72.1645533,11.0644744 71.9992874,11.2218691 C71.8340216,11.3792638 71.75139,11.5862056 71.75139,11.8427007 C71.75139,12.0059248 71.7897546,12.1458291 71.8664853,12.2624178 C71.9432158,12.3790065 72.0406031,12.472276 72.1586501,12.5422292 C72.276697,12.6121824 72.412449,12.6617319 72.5659102,12.6908791 C72.7193712,12.7200262 72.8669277,12.7345996 73.0085841,12.7345996 C73.5988191,12.7345996 74.0503422,12.5742926 74.3631666,12.2536737 C74.6759912,11.9330548 74.832401,11.4987685 74.832401,10.9508017 L74.832401,10.6535021 Z M69.502606,6.92851249 C70.0220129,6.43884004 70.6269946,6.07159121 71.3175696,5.82675499 C72.0081443,5.58191876 72.7134646,5.4595025 73.4335512,5.4595025 C74.1772473,5.4595025 74.8058381,5.54985736 75.3193424,5.73056983 C75.832847,5.91128228 76.2489562,6.19109089 76.5676833,6.57000411 C76.8864101,6.9489173 77.1195494,7.4269237 77.2671082,8.00403766 C77.4146667,8.58115162 77.4884451,9.26609982 77.4884451,10.0589028 L77.4884451,14.4484446 L74.832401,14.4484446 L74.832401,13.5215692 L74.7792802,13.5215692 C74.5549909,13.8829941 74.2156108,14.1628028 73.76113,14.3610035 C73.306649,14.5592043 72.8138103,14.6583032 72.2825987,14.6583032 C71.9284578,14.6583032 71.5625175,14.6116684 71.1847672,14.5183974 C70.8070169,14.4251265 70.4617347,14.2735635 70.14891,14.0637039 C69.8360856,13.8538442 69.5793372,13.5740356 69.3786573,13.2242696 C69.1779775,12.8745036 69.0776391,12.4431319 69.0776391,11.9301418 C69.0776391,11.3005629 69.2517556,10.7934097 69.5999943,10.4086671 C69.948233,10.0239245 70.3968049,9.72662782 70.9457233,9.51676818 C71.4946418,9.30690857 72.1055259,9.16700424 72.7783936,9.09705106 C73.4512616,9.02709784 74.1064125,8.99212176 74.7438662,8.99212176 L74.7438662,8.85221605 C74.7438662,8.42083795 74.5904075,8.10313857 74.2834852,7.89910837 C73.9765633,7.69507819 73.5988184,7.59306462 73.15024,7.59306462 C72.7370754,7.59306462 72.3386729,7.68050483 71.9550202,7.85538784 C71.5713674,8.03027086 71.2437917,8.24012733 70.9722838,8.48496356 L69.502606,6.92851249 Z M85.4388703,14.4484446 L85.4388703,9.69165033 C85.4388703,9.4468141 85.4182124,9.21364026 85.376896,8.99212176 C85.3355795,8.77060326 85.2677036,8.57532018 85.1732658,8.40626659 C85.0788283,8.23721301 84.9460274,8.10313803 84.7748592,8.00403766 C84.6036912,7.90493729 84.3882584,7.85538784 84.1285551,7.85538784 C83.8688517,7.85538784 83.6416147,7.90493729 83.4468372,8.00403766 C83.2520598,8.10313803 83.0897476,8.24012766 82.9598958,8.4150107 C82.8300442,8.58989372 82.7326569,8.79100616 82.667731,9.01835409 C82.6028051,9.245702 82.5703427,9.48179054 82.5703427,9.72662675 L82.5703427,14.4484446 L79.6486943,14.4484446 L79.6486943,5.73931391 L82.4641008,5.73931391 L82.4641008,6.94600071 L82.4995149,6.94600071 C82.6057572,6.75945883 82.7444602,6.57583441 82.9156285,6.39512196 C83.0867965,6.21440951 83.2874733,6.05993181 83.517665,5.93168428 C83.7478568,5.80343672 83.9987028,5.6985085 84.270211,5.61689642 C84.5417189,5.53528435 84.8309298,5.49447894 85.137852,5.49447894 C85.7280868,5.49447894 86.229779,5.59940716 86.6429436,5.80926679 C87.056108,6.0191264 87.3895858,6.29019101 87.6433867,6.62246874 C87.8971879,6.95474648 88.080158,7.33656866 88.1923025,7.76794677 C88.3044473,8.19932488 88.3605186,8.63069651 88.3605186,9.06207462 L88.3605186,14.4484446 L85.4388703,14.4484446 Z M100.029405,14.4484446 L96.4348927,14.4484446 L93.5486581,10.2687614 L93.495537,10.2687614 L93.495537,14.4484446 L90.5738886,14.4484446 L90.5738886,1.22735467 L93.495537,1.22735467 L93.495537,9.27193318 L93.5486581,9.27193318 L96.3640646,5.73931391 L99.8877497,5.73931391 L96.4880134,9.67416211 L100.029405,14.4484446 Z" id="DeBank" fill="#19233C" fill-rule="nonzero"></path>
                                                <path d="M37.1246111,24.4243579 L37.1246111,21.7329444 L39.4129967,18.21745 L38.1569656,18.21745 L36.6084338,20.8299621 L35.0771083,18.21745 L33.7522533,18.21745 L36.040639,21.7329444 L36.040639,24.4243579 L37.1246111,24.4243579 Z M41.0733665,24.5470933 C41.383073,24.5470933 41.6755734,24.4915701 41.950868,24.3805238 C42.2261624,24.2694774 42.4641775,24.1160581 42.6649131,23.9202658 C42.8656487,23.7244735 43.0248032,23.4892305 43.142377,23.2145368 C43.2599505,22.9398432 43.3187374,22.6359268 43.3187374,22.3027877 C43.3187374,21.9696486 43.2599505,21.6671933 43.142377,21.3954219 C43.0248032,21.1236505 42.8656487,20.8913298 42.6649131,20.6984598 C42.4641775,20.5055898 42.2261624,20.3565538 41.950868,20.251352 C41.6755734,20.1461502 41.383073,20.0935493 41.0733665,20.0935493 C40.7636604,20.0935493 40.47116,20.1461502 40.1958654,20.251352 C39.920571,20.3565538 39.6825558,20.5055898 39.4818202,20.6984598 C39.2810846,20.8913298 39.1219302,21.1236505 39.0043564,21.3954219 C38.8867828,21.6671933 38.8279959,21.9696486 38.8279959,22.3027877 C38.8279959,22.6359268 38.8867828,22.9398432 39.0043564,23.2145368 C39.1219302,23.4892305 39.2810846,23.7244735 39.4818202,23.9202658 C39.6825558,24.1160581 39.920571,24.2694774 40.1958654,24.3805238 C40.47116,24.4915701 40.7636604,24.5470933 41.0733665,24.5470933 Z M41.0733665,23.6704114 C40.8668957,23.6704114 40.6891014,23.6294996 40.5399835,23.547676 C40.3908657,23.4658523 40.2675566,23.3606505 40.1700566,23.2320705 C40.0725565,23.1034905 39.9994314,22.9573768 39.9506814,22.7937295 C39.9019311,22.6300822 39.8775562,22.466435 39.8775562,22.3027877 C39.8775562,22.1391404 39.9019311,21.9769542 39.9506814,21.8162292 C39.9994314,21.6555042 40.0725565,21.5108517 40.1700566,21.3822717 C40.2675566,21.2536917 40.3908657,21.149951 40.5399835,21.0710496 C40.6891014,20.9921482 40.8668957,20.9526975 41.0733665,20.9526975 C41.2798377,20.9526975 41.457632,20.9921482 41.6067498,21.0710496 C41.7558676,21.149951 41.8791767,21.2536917 41.9766768,21.3822717 C42.0741768,21.5108517 42.147302,21.6555042 42.196052,21.8162292 C42.244802,21.9769542 42.2691772,22.1391404 42.2691772,22.3027877 C42.2691772,22.466435 42.244802,22.6300822 42.196052,22.7937295 C42.147302,22.9573768 42.0741768,23.1034905 41.9766768,23.2320705 C41.8791767,23.3606505 41.7558676,23.4658523 41.6067498,23.547676 C41.457632,23.6294996 41.2798377,23.6704114 41.0733665,23.6704114 Z M45.8049909,24.5470933 C46.1146974,24.5470933 46.3828226,24.4667308 46.609367,24.3060058 C46.8359116,24.1452808 46.995066,23.9597165 47.0868311,23.7493128 L47.1040369,23.7493128 L47.1040369,24.4243579 L48.0847736,24.4243579 L48.0847736,20.2162847 L47.0524191,20.2162847 L47.0524191,22.530725 C47.0524191,22.6709941 47.0323456,22.809802 46.9921985,22.9471489 C46.9520513,23.0844957 46.8932646,23.20577 46.8158381,23.3109719 C46.7384113,23.4161737 46.6380435,23.5023807 46.5147347,23.569593 C46.3914256,23.6368053 46.2494769,23.6704114 46.0888883,23.6704114 C45.9225648,23.6704114 45.7892188,23.6353441 45.688851,23.5652096 C45.5884832,23.4950751 45.5096228,23.4059457 45.4522698,23.2978216 C45.3949167,23.1896975 45.3576375,23.0684232 45.3404315,22.9339986 C45.3232257,22.7995741 45.3146227,22.6709941 45.3146227,22.5482586 L45.3146227,20.2162847 L44.2822682,20.2162847 L44.2822682,22.8463304 C44.2822682,23.0625786 44.3109447,23.2729823 44.3682977,23.4775414 C44.4256507,23.6821005 44.5159819,23.8632814 44.6392907,24.0210842 C44.7625998,24.1788869 44.9203206,24.3060058 45.1124532,24.4024408 C45.3045858,24.4988758 45.5354318,24.5470933 45.8049909,24.5470933 Z M50.3559532,24.4243579 L50.3559532,22.1712854 C50.3559532,22.0953063 50.3702915,21.9930267 50.398968,21.8644467 C50.4276445,21.7358667 50.4821298,21.610209 50.5624241,21.4874735 C50.6427184,21.364738 50.7545567,21.2595362 50.8979393,21.171868 C51.0413218,21.0841998 51.2305869,21.0403657 51.4657343,21.0403657 C51.5116166,21.0403657 51.558933,21.043288 51.607683,21.0491325 C51.656433,21.0549771 51.7152199,21.0666662 51.7840435,21.0841998 L51.7840435,20.1198497 C51.7496317,20.1081606 51.7094844,20.100855 51.6636022,20.0979327 C51.6177196,20.0950104 51.5747049,20.0935493 51.5345578,20.0935493 C51.2592635,20.0935493 51.0183806,20.1695284 50.8119097,20.3214866 C50.6054389,20.4734448 50.4448505,20.6721593 50.3301445,20.9176303 L50.3129385,20.9176303 L50.3129385,20.2162847 L49.3235987,20.2162847 L49.3235987,24.4243579 L50.3559532,24.4243579 Z M56.8167713,24.4243579 C57.212507,24.4243579 57.6111104,24.3644513 58.0125816,24.2446381 C58.4140528,24.1248249 58.7753768,23.9392606 59.0965537,23.6879451 C59.4177306,23.4366296 59.678687,23.1151796 59.8794226,22.723595 C60.0801582,22.3320104 60.180526,21.8644467 60.180526,21.3209039 C60.180526,20.7364493 60.0801582,20.2469686 59.8794226,19.8524617 C59.678687,19.4579549 59.4177306,19.1394271 59.0965537,18.8968785 C58.7753768,18.6543298 58.4140528,18.4804546 58.0125816,18.3752527 C57.6111104,18.2700509 57.212507,18.21745 56.8167713,18.21745 L54.6574299,18.21745 L54.6574299,24.4243579 L56.8167713,24.4243579 Z M55.741402,23.4600078 L55.741402,19.1642664 L56.6447122,19.1642664 C56.9257418,19.1642664 57.2067717,19.1934892 57.4878016,19.2519346 C57.7688312,19.3103801 58.0226185,19.4185042 58.2491629,19.5763069 C58.4757072,19.7341097 58.6606707,19.9532801 58.8040533,20.2338184 C58.9474358,20.5143566 59.0191271,20.8767184 59.0191271,21.3209039 C59.0191271,21.7417113 58.9474358,22.0894617 58.8040533,22.3641554 C58.6606707,22.6388491 58.4757072,22.8565584 58.2491629,23.0172834 C58.0226185,23.1780084 57.7688312,23.2919771 57.4878016,23.3591894 C57.2067717,23.4264016 56.9257418,23.4600078 56.6447122,23.4600078 L55.741402,23.4600078 Z M63.1571477,24.5470933 C63.9314136,24.5470933 64.5221497,24.2665551 64.9293561,23.7054787 L64.2411198,23.1444023 C64.1264137,23.3138941 63.9801636,23.4468575 63.8023693,23.5432926 C63.624575,23.6397276 63.4066333,23.6879451 63.1485447,23.6879451 C62.9994269,23.6879451 62.8560443,23.6616446 62.718397,23.6090437 C62.5807499,23.5564428 62.4574409,23.4848471 62.3484701,23.3942566 C62.2394993,23.3036662 62.1520361,23.1955421 62.0860801,23.0698843 C62.020124,22.9442266 61.9814109,22.8054186 61.9699401,22.6534604 L65.1100182,22.6534604 C65.1157535,22.606704 65.118621,22.5599477 65.118621,22.5131913 L65.118621,22.3729222 C65.118621,21.9930267 65.0684371,21.6613487 64.9680693,21.3778882 C64.8677017,21.0944278 64.7286205,20.8577237 64.5508262,20.6677759 C64.3730318,20.4778282 64.1622594,20.3346368 63.918509,20.2382018 C63.6747586,20.1417668 63.4095011,20.0935493 63.122736,20.0935493 C62.8130295,20.0935493 62.5248305,20.1476113 62.2581391,20.2557354 C61.9914475,20.3638595 61.7606015,20.5158177 61.5656014,20.71161 C61.3706011,20.9074023 61.2171819,21.1441064 61.1053433,21.4217223 C60.993505,21.6993383 60.9375859,22.0076381 60.9375859,22.3466218 C60.9375859,22.69145 60.993505,22.9997498 61.1053433,23.2715212 C61.2171819,23.5432926 61.3720349,23.772691 61.5699028,23.9597165 C61.7677706,24.1467419 62.0014844,24.2913944 62.2710435,24.393674 C62.5406027,24.4959536 62.8359708,24.5470933 63.1571477,24.5470933 Z M61.9699401,21.899514 C61.9928814,21.6014421 62.1118888,21.3574324 62.3269627,21.1674846 C62.5420365,20.9775368 62.8044265,20.882563 63.114133,20.882563 C63.2804568,20.882563 63.425273,20.9103246 63.548582,20.9658478 C63.6718911,21.0213709 63.7736928,21.0958889 63.8539868,21.1894016 C63.9342811,21.2829144 63.993068,21.3910385 64.0303475,21.513774 C64.0676271,21.6365094 64.0862667,21.7650894 64.0862667,21.899514 L61.9699401,21.899514 Z M67.2521535,24.4243579 L67.2521535,21.8118458 L69.9362749,21.8118458 L69.9362749,20.882563 L67.2521535,20.882563 L67.2521535,19.1818001 L70.099731,19.1818001 L70.099731,18.21745 L66.1681812,18.21745 L66.1681812,24.4243579 L67.2521535,24.4243579 Z M71.4159829,19.4185042 C71.6052477,19.4185042 71.7644025,19.3585976 71.8934468,19.2387844 C72.0224911,19.1189712 72.0870132,18.9684741 72.0870132,18.7872932 C72.0870132,18.6061123 72.0224911,18.4556152 71.8934468,18.335802 C71.7644025,18.2159889 71.6052477,18.1560822 71.4159829,18.1560822 C71.2267178,18.1560822 71.0704308,18.2189111 70.9471218,18.3445689 C70.823813,18.4702266 70.7621583,18.6178014 70.7621583,18.7872932 C70.7621583,18.9567851 70.823813,19.1043599 70.9471218,19.2300176 C71.0704308,19.3556753 71.2267178,19.4185042 71.4159829,19.4185042 Z M71.9407629,24.4243579 L71.9407629,20.2162847 L70.9084086,20.2162847 L70.9084086,24.4243579 L71.9407629,24.4243579 Z M77.5068737,24.4243579 L78.934964,19.769177 L78.95217,19.769177 L80.3802602,24.4243579 L81.4298205,24.4243579 L83.2106319,18.21745 L82.057836,18.21745 L80.8534227,22.7761959 L80.8362167,22.7761959 L79.5199647,18.21745 L78.4015809,18.21745 L77.0595203,22.7761959 L77.0423142,22.7761959 L75.8637096,18.21745 L74.676502,18.21745 L76.4573135,24.4243579 L77.5068737,24.4243579 Z M84.8279869,24.5295597 C85.1204873,24.5295597 85.3814437,24.4696531 85.6108558,24.3498399 C85.840268,24.2300267 86.0065915,24.0766074 86.1098271,23.8895819 L86.1356358,23.8895819 L86.1356358,24.4243579 L87.0991666,24.4243579 L87.0991666,21.8644467 C87.0991666,21.6540431 87.0719239,21.4436394 87.0174387,21.2332357 C86.9629531,21.0228321 86.866887,20.8328843 86.7292396,20.6633925 C86.5915923,20.4939007 86.4037614,20.3565538 86.1657462,20.251352 C85.9277311,20.1461502 85.6251941,20.0935493 85.2581347,20.0935493 C84.942693,20.0935493 84.631553,20.1490725 84.3247143,20.2601188 C84.0178757,20.3711652 83.7468826,20.5377348 83.5117353,20.7598275 L84.0451183,21.3998053 C84.1770301,21.2653807 84.3433539,21.1514121 84.5440895,21.0578994 C84.7448251,20.9643866 84.9541638,20.9176303 85.1721051,20.9176303 C85.4301937,20.9176303 85.6524367,20.9804591 85.8388341,21.1061169 C86.0252314,21.2317746 86.1184301,21.4261058 86.1184301,21.6891103 L86.1184301,21.7943121 C85.7972532,21.7943121 85.4689071,21.8103847 85.133392,21.8425297 C84.7978768,21.8746747 84.4924718,21.9404258 84.2171774,22.0397831 C83.9418827,22.1391404 83.7167722,22.2823318 83.5418454,22.4693572 C83.3669188,22.6563827 83.2794554,22.9076982 83.2794554,23.2233037 C83.2794554,23.4687746 83.3296393,23.6747948 83.4300071,23.8413644 C83.5303749,24.007934 83.6565515,24.1423585 83.808537,24.2446381 C83.9605226,24.3469176 84.1268462,24.4199745 84.3075083,24.4638086 C84.4881704,24.5076427 84.6616634,24.5295597 84.8279869,24.5295597 Z M85.0344578,23.7317792 C84.9484282,23.7317792 84.8623987,23.7230124 84.7763694,23.7054787 C84.6903399,23.6879451 84.6129131,23.6587223 84.5440895,23.6178105 C84.475266,23.5768987 84.4193466,23.5228367 84.3763321,23.4556244 C84.3333173,23.3884121 84.3118099,23.3051273 84.3118099,23.20577 C84.3118099,23.0479673 84.3634274,22.9237707 84.466663,22.8331802 C84.5698983,22.7425898 84.6989426,22.6724552 84.853796,22.6227766 C85.008649,22.5730979 85.1778404,22.5409529 85.3613702,22.5263416 C85.5448998,22.5117302 85.7198264,22.5044245 85.8861502,22.5044245 L86.1184301,22.5044245 L86.1184301,22.6534604 C86.1184301,22.9865996 86.026665,23.2496041 85.8431354,23.4424741 C85.6596059,23.6353441 85.3900467,23.7317792 85.0344578,23.7317792 Z M89.3531405,24.4243579 L89.3531405,17.7966427 L88.3207859,17.7966427 L88.3207859,24.4243579 L89.3531405,24.4243579 Z M91.6587319,24.4243579 L91.6587319,17.7966427 L90.6263776,17.7966427 L90.6263776,24.4243579 L91.6587319,24.4243579 Z M94.8934423,24.5470933 C95.6677082,24.5470933 96.2584442,24.2665551 96.6656507,23.7054787 L95.9774146,23.1444023 C95.8627085,23.3138941 95.7164582,23.4468575 95.5386639,23.5432926 C95.3608695,23.6397276 95.1429279,23.6879451 94.8848393,23.6879451 C94.7357214,23.6879451 94.5923389,23.6616446 94.4546918,23.6090437 C94.3170445,23.5564428 94.1937354,23.4848471 94.0847646,23.3942566 C93.9757941,23.3036662 93.8883306,23.1955421 93.8223746,23.0698843 C93.7564186,22.9442266 93.7177054,22.8054186 93.7062347,22.6534604 L96.8463128,22.6534604 C96.852048,22.606704 96.8549158,22.5599477 96.8549158,22.5131913 L96.8549158,22.3729222 C96.8549158,21.9930267 96.8047319,21.6613487 96.7043641,21.3778882 C96.6039963,21.0944278 96.4649151,20.8577237 96.2871207,20.6677759 C96.1093264,20.4778282 95.8985542,20.3346368 95.6548038,20.2382018 C95.4110534,20.1417668 95.1457957,20.0935493 94.8590305,20.0935493 C94.5493241,20.0935493 94.2611253,20.1476113 93.9944337,20.2557354 C93.7277421,20.3638595 93.4968963,20.5158177 93.301896,20.71161 C93.1068956,20.9074023 92.9534764,21.1441064 92.8416379,21.4217223 C92.7297996,21.6993383 92.6738804,22.0076381 92.6738804,22.3466218 C92.6738804,22.69145 92.7297996,22.9997498 92.8416379,23.2715212 C92.9534764,23.5432926 93.1083295,23.772691 93.3061973,23.9597165 C93.5040655,24.1467419 93.7377789,24.2913944 94.0073381,24.393674 C94.2768975,24.4959536 94.5722654,24.5470933 94.8934423,24.5470933 Z M93.7062347,21.899514 C93.7291759,21.6014421 93.8481836,21.3574324 94.0632572,21.1674846 C94.2783311,20.9775368 94.5407214,20.882563 94.8504275,20.882563 C95.0167513,20.882563 95.1615678,20.9103246 95.2848766,20.9658478 C95.4081857,21.0213709 95.5099873,21.0958889 95.5902816,21.1894016 C95.6705757,21.2829144 95.7293626,21.3910385 95.7666421,21.513774 C95.8039216,21.6365094 95.8225612,21.7650894 95.8225612,21.899514 L93.7062347,21.899514 Z M99.3239633,24.5120261 C99.4386693,24.5120261 99.5591106,24.5017981 99.6852872,24.4813422 C99.811464,24.4608863 99.9204348,24.4331247 100.0122,24.3980574 L99.9777876,23.5739764 C99.9146993,23.6031992 99.843008,23.6251162 99.762714,23.6397276 C99.6824197,23.6543389 99.6078607,23.6616446 99.5390371,23.6616446 C99.309625,23.6616446 99.1619411,23.6002769 99.095985,23.4775414 C99.030029,23.354806 98.9970511,23.1999255 98.9970511,23.0129 L98.9970511,21.0578994 L100.029405,21.0578994 L100.029405,20.2162847 L98.9970511,20.2162847 L98.9970511,18.9976969 L97.9819026,18.9976969 L97.9819026,20.2162847 L97.2592545,20.2162847 L97.2592545,21.0578994 L97.9819026,21.0578994 L97.9819026,23.0216668 C97.9819026,23.2262259 98.0005422,23.4176348 98.0378217,23.5958935 C98.0751013,23.7741521 98.1439248,23.9319549 98.2442926,24.0693017 C98.3446604,24.2066485 98.4808738,24.3147726 98.6529329,24.393674 C98.824992,24.4725754 99.0486689,24.5120261 99.3239633,24.5120261 Z" id="YourDeFiWallet" fill="#19233C" fill-rule="nonzero" opacity="0.600000024"></path>
                                            </g>
                                        </g>
                                    </g>
                                </g>
                            </g>
                        </g>
                    </g>
                </g>
            </g>
        </g>
    </g>
</svg>