<?xml version="1.0" encoding="UTF-8"?>
<svg width="153px" height="35px" viewBox="0 0 153 35" version="1.1" xmlns="http://www.w3.org/2000/svg" xmlns:xlink="http://www.w3.org/1999/xlink">
    <title>coinmarketcap</title>
    <defs>
        <rect id="path-1" x="0" y="0" width="153" height="34"></rect>
    </defs>
    <g id="首页" stroke="none" stroke-width="1" fill="none" fill-rule="evenodd">
        <g id="鼠标经过" transform="translate(-424.000000, -1427.000000)">
            <g id="编组-32" transform="translate(0.000000, 878.000000)">
                <g id="编组-9备份" transform="translate(420.000000, 130.000000)">
                    <g id="编组-16" transform="translate(0.000000, 286.000000)">
                        <g id="编组-14" transform="translate(0.000000, 120.000000)">
                            <g id="coinmarketcap" transform="translate(0.000000, 0.005129)">
                                <g transform="translate(4.000000, 13.000000)">
                                    <mask id="mask-2" fill="white">
                                        <use xlink:href="#path-1"></use>
                                    </mask>
                                    <g id="矩形"></g>
                                    <path d="M29.8086575,18.7726822 C29.4109315,19.0266529 28.9425603,19.0581183 28.5865537,18.8552788 C28.1343141,18.597375 27.8856658,17.9933517 27.8856658,17.1533379 L27.8856658,14.6400391 C27.8856658,13.4263737 27.4106195,12.5627609 26.6162798,12.3295798 C25.27013,11.9334529 24.2577363,13.5971859 23.8772542,14.2219988 L21.5031354,18.1102231 L21.5031354,13.3578241 C21.4764349,12.2644015 21.1248784,11.6103707 20.4573661,11.41315 C20.0156954,11.2827934 19.3548582,11.3350484 18.7129339,12.3273323 L13.3939731,20.9544705 C12.6818912,19.5889791 12.3106832,18.0685022 12.3125957,16.5251537 C12.3125957,11.3283058 16.4356043,7.10070468 21.5031354,7.10070468 C26.5706665,7.10070468 30.6931114,11.3283058 30.6931114,16.5251537 C30.6931114,16.5341438 30.6953364,16.5420101 30.6958927,16.5504384 C30.6958927,16.5594285 30.6942239,16.5672948 30.6947802,16.5762849 C30.7426185,17.5826158 30.4199876,18.3832979 29.8086575,18.7732441 L29.8086575,18.7726822 Z M32.7838411,16.5470173 L32.7838411,16.5464541 L32.7838411,16.5205487 L32.7832825,16.4946433 C32.7547919,10.1511954 27.7063661,5.00164926 21.5032323,5.00164926 C15.283898,5.00164926 10.2231821,10.1804798 10.2231821,16.5464541 C10.2231821,22.9118653 15.283898,28.0912589 21.503791,28.0912589 C24.3578805,28.0912589 27.0818071,26.9975999 29.172795,25.0124566 C29.5884228,24.6182437 29.6130029,23.9542767 29.2275416,23.5296531 C29.0442674,23.325914 28.7873503,23.2051286 28.5147246,23.1945336 C28.242099,23.1839387 27.9767202,23.2844264 27.7784306,23.473337 C26.0835628,25.0912857 23.8379862,25.992796 21.503791,25.9923571 C18.7787471,25.9923571 16.3268781,24.776492 14.6358761,22.8482281 L19.4530251,15.0506979 L19.4530251,18.6453559 C19.4530251,20.3720082 20.1172475,20.930101 20.6742112,21.0934177 C21.2317335,21.2567345 22.0836588,21.1452285 22.9780408,19.6810094 L25.6276683,15.3508628 C25.7125815,15.2111989 25.790791,15.0906824 25.8622969,14.9864975 L25.8622969,17.1760683 C25.8622969,18.7900884 26.5036151,20.0808539 27.6214529,20.7166629 C28.6292387,21.289961 29.8962332,21.2381501 30.9285991,20.5815042 C32.1799518,19.7846311 32.8542297,18.3164698 32.7838411,16.5470173 L32.7838411,16.5470173 Z M48.5901888,12.6406486 C48.8644926,12.8099059 49.102034,13.1862883 49.102034,13.5253767 C49.102034,14.0710163 48.6450495,14.5225604 48.1332043,14.5225604 C48.0053843,14.5225604 47.8775644,14.4852664 47.7678429,14.4473987 C47.1643745,13.9958546 46.3968894,13.694634 45.5926419,13.694634 C43.6923102,13.694634 42.3762175,15.2753251 42.3762175,17.2323986 C42.3762175,19.1900458 43.6923102,20.7518031 45.5926419,20.7518031 C46.5428077,20.7518031 47.3838175,20.3564868 48.0234827,19.7546193 C48.1887388,19.6341127 48.386678,19.5683813 48.5901888,19.5664282 C49.102034,19.5664282 49.5041578,19.9801045 49.5041578,20.507384 C49.5041578,20.8458987 49.3028131,21.1471193 49.0471733,21.3163766 C48.1332043,22.107009 46.8906362,22.6337148 45.6113058,22.6337148 C42.6872836,22.6337148 40.310738,20.1872295 40.310738,17.1761707 C40.310738,14.1651119 42.6867181,11.7186266 45.6113058,11.7186266 C46.7079555,11.7186266 47.7491789,12.0571412 48.5901888,12.6406486 L48.5901888,12.6406486 Z M53.7565064,14.6573042 C55.7560605,14.6573042 57.4439295,16.3346131 57.4439295,18.3985178 C57.4439295,20.4629843 55.7560605,22.2139037 53.7565064,22.2139037 C51.6649795,22.2139037 49.9220405,20.4629843 49.9220405,18.3985178 C49.9220405,16.3346131 51.6649795,14.6573042 53.7565064,14.6573042 Z M53.737522,20.5346594 C54.610114,20.5346594 55.3545159,19.7052765 55.3545159,18.5808896 C55.3545159,17.4570645 54.610114,16.7563596 53.737522,16.7563596 C52.7929637,16.7563596 52.0114541,17.4385214 52.0114541,18.5808896 C52.0114541,19.7052765 52.7929637,20.5346594 53.737522,20.5346594 Z M58.6975776,21.1368579 L58.6975776,15.73435 C58.6975776,15.1485984 59.1598575,14.6573042 59.7331304,14.6573042 C60.3064032,14.6573042 60.7869912,15.1485984 60.7869912,15.73435 L60.7869912,21.1368579 C60.7869912,21.7226096 60.3064032,22.2139037 59.7331304,22.2139037 C59.1598575,22.2139037 58.6975776,21.7226096 58.6975776,21.1368579 L58.6975776,21.1368579 Z M58.6975776,12.9972568 C58.6975776,12.2910434 59.2478307,11.7186266 59.9321198,11.7186266 C60.6346331,11.7186266 61.2048739,12.2910434 61.2048739,12.9972568 C61.2048739,13.6836915 60.6346331,14.2374931 59.9321198,14.2374931 C59.2478307,14.2374931 58.6975776,13.6836915 58.6975776,12.9972568 Z M64.8971221,18.2581229 L64.8971221,21.1501548 C64.8971221,21.7286749 64.4324622,22.2139037 63.8776362,22.2139037 C63.3239165,22.2139037 62.8764048,21.7286749 62.8764048,21.1501548 L62.8764048,15.5714457 C62.8764048,15.123761 63.2343036,14.7505956 63.6635608,14.7505956 C64.0922648,14.7505956 64.4324622,15.123761 64.4324622,15.5714457 C65.2544676,14.7881396 65.9691587,14.6573042 66.6484472,14.6573042 C68.6686113,14.6573042 69.5625283,16.2244852 69.5625283,17.9970209 L69.5625283,21.1501548 C69.5625283,21.7286749 69.0978685,22.2139037 68.5435956,22.2139037 C67.9893228,22.2139037 67.5423643,21.7286749 67.5423643,21.1501548 L67.5423643,18.2581229 C67.5423643,17.3439814 67.43505,16.5788785 66.166086,16.5788785 C65.2721689,16.5788785 64.8965689,17.3439814 64.8965689,18.2581229 L64.8971221,18.2581229 Z M76.2671244,19.3870127 C76.028402,19.3870127 75.8635698,19.2760327 75.734546,19.1278716 L73.3098079,16.5229405 L73.3098079,21.160439 C73.3098079,21.7333661 72.8323629,22.2139037 72.2628393,22.2139037 C71.6933158,22.2139037 71.2340592,21.7333661 71.2340592,21.160439 L71.2340592,11.9778314 C71.2948981,11.8193355 71.4494941,11.7156826 71.6205623,11.7186266 C71.8035828,11.7186266 71.9502266,11.8668515 72.061062,11.9778314 L75.9181349,16.2829533 C76.028402,16.4125239 76.1750458,16.4863227 76.2489361,16.4863227 C76.322258,16.4863227 76.4689017,16.4125239 76.5791688,16.2835167 L80.4368101,11.9778314 C80.5470771,11.8668515 80.6937209,11.7186266 80.8773099,11.7186266 C81.0608988,11.7186266 81.208111,11.8296704 81.2632445,11.9778314 L81.2632445,21.160439 C81.2632445,21.7333661 80.803988,22.2139037 80.2344644,22.2139037 C79.6649408,22.2139037 79.1874959,21.7333661 79.1874959,21.160439 L79.1874959,16.5229405 L76.7633261,19.1278716 C76.6343023,19.2760327 76.4689017,19.3870127 76.2671244,19.3870127 L76.2671244,19.3870127 Z M86.241854,20.5346594 C87.1684207,20.5346594 87.949368,19.7133383 87.949368,18.5998806 C87.949368,17.4869793 87.1504291,16.7563596 86.241854,16.7563596 C85.3332788,16.7563596 84.6063063,17.5047857 84.6063063,18.5998806 C84.6063063,19.6766125 85.3332788,20.5346594 86.241854,20.5346594 Z M88.4434531,21.3109103 L88.4059827,21.0709737 C88.0028926,21.8632703 86.7181137,22.2139037 85.8926306,22.2139037 C83.9475788,22.2139037 82.5168927,20.4629843 82.5168927,18.3985178 C82.5168927,16.3346131 83.9844814,14.6573042 86.0027707,14.6573042 C86.3513585,14.6573042 87.507262,14.7494579 88.4059827,15.8002343 L88.4428853,15.5602976 C88.4428853,15.1180725 88.7914731,14.7494579 89.2320336,14.7494579 C89.6720264,14.7494579 90.0387816,15.1180725 90.0387816,15.5602976 L90.0387816,21.3109103 C90.0387816,21.7531355 89.6720264,22.1217501 89.2314659,22.1217501 C88.7914731,22.1217501 88.4423176,21.7531355 88.4423176,21.3109103 L88.4434531,21.3109103 Z M95.4088272,16.5788785 L95.197904,16.5788785 C93.94708,16.6539667 93.7007304,17.4002975 93.7007304,18.2581229 L93.7007304,21.1501548 C93.7007304,21.7286749 93.2429125,22.2139037 92.6968011,22.2139037 C92.1506897,22.2139037 91.7103125,21.7286749 91.7103125,21.1501548 L91.7103125,15.5714457 C91.7103125,15.123761 92.0623963,14.7505956 92.4853328,14.7505956 C92.9082694,14.7505956 93.2429125,15.123761 93.2429125,15.5714457 C93.9825064,14.8438869 94.5814849,14.6948483 95.197904,14.6573042 L95.3913866,14.6573042 C95.8671902,14.6573042 96.3070224,15.0862169 96.3070224,15.6277618 C96.3070224,16.1311938 95.8846309,16.5788785 95.4088272,16.5788785 L95.4088272,16.5788785 Z M103.267091,20.6804553 C103.357121,20.8280539 103.411029,20.9942433 103.411029,21.1790232 C103.411029,21.7147725 102.925864,22.2139037 102.405131,22.2139037 C102.04612,22.2139037 101.740461,21.9367338 101.507048,21.6409732 L99.172922,18.8878642 L99.172922,21.1604326 C99.172922,21.7333631 98.705541,22.2139037 98.1486852,22.2139037 C97.5918293,22.2139037 97.1427878,21.7333631 97.1427878,21.1604326 L97.1427878,12.7720978 C97.1427878,12.1986039 97.5918293,11.7186266 98.1486852,11.7186266 C98.705541,11.7186266 99.1723663,12.1986039 99.1723663,12.7720978 L99.1723663,18.0011457 L101.507048,15.3770447 C101.740461,15.0998748 102.027781,14.8227048 102.387348,14.8227048 C102.890296,14.8227048 103.357121,15.3032454 103.357121,15.8389947 C103.357121,16.005184 103.320998,16.1713733 103.230967,16.3195353 L101.38145,18.3701423 L103.267091,20.679892 L103.267091,20.6804553 Z M107.372306,16.7563596 C106.815817,16.7563596 105.918325,17.0763996 105.918325,18.0157929 L108.843504,18.0157929 C108.843504,17.0562828 107.910468,16.7563596 107.371751,16.7563596 L107.372306,16.7563596 Z M110.125154,19.0621364 L105.9216,19.0621364 C105.9216,20.2972201 107.1145,20.4815275 107.646761,20.4815275 C108.033033,20.4815275 108.583472,20.4079169 109.005531,20.2230477 C109.13391,20.131456 109.354313,20.0572835 109.537792,20.0572835 C109.996775,20.0572835 110.381911,20.4450031 110.381911,20.9057714 C110.381911,21.2187567 110.180254,21.4952176 109.923497,21.6424387 C109.281034,22.103207 108.454525,22.2139037 107.665506,22.2139037 C105.572818,22.2139037 103.828911,21.0900787 103.828911,18.4906714 C103.828911,16.4453098 104.893433,14.6573042 107.371826,14.6573042 C109.37249,14.6573042 110.895994,15.9474554 110.932918,18.2512967 C110.932918,18.6935218 110.565959,19.0621364 110.125154,19.0621364 L110.125154,19.0621364 Z M115.869089,22.2139037 L115.301897,22.2139037 C113.728251,22.2139037 112.814065,21.5359965 112.814065,19.1002211 L112.814065,16.5907358 L112.283667,16.5907358 C111.789497,16.5907358 111.3508,16.1512688 111.3508,15.6570778 C111.3508,15.1254734 111.789497,14.7044338 112.283667,14.7044338 L112.814065,14.7044338 L112.814065,12.7628495 C112.814065,12.1949486 113.271441,11.7186266 113.838633,11.7186266 C114.405259,11.7186266 114.881315,12.1949486 114.881315,12.7628495 L114.881315,14.7044338 L115.740594,14.7044338 C116.234764,14.7044338 116.674026,15.1254734 116.674026,15.6570778 C116.674026,16.1512688 116.234764,16.5907358 115.740594,16.5907358 L114.881315,16.5907358 L114.881315,18.6970506 C114.881315,20.0891616 114.954337,20.3823257 115.576436,20.3823257 L115.869089,20.3823257 C116.362693,20.3823257 116.783276,20.7854962 116.783276,21.2981147 C116.783276,21.7928642 116.362693,22.2139037 115.869089,22.2139037 Z M125.899001,12.6406486 C126.172756,12.8099059 126.410878,13.1862883 126.410878,13.5253767 C126.410878,14.0710163 125.953865,14.5225604 125.441989,14.5225604 C125.314161,14.5225604 125.185767,14.4852664 125.076605,14.4473987 C124.473099,13.9958546 123.705567,13.694634 122.90127,13.694634 C121.000821,13.694634 119.684082,15.2753251 119.684082,17.2323986 C119.684082,19.1900458 121.000256,20.7518031 122.90127,20.7518031 C123.851494,20.7518031 124.692556,20.3564868 125.33226,19.7546193 C125.497527,19.6341127 125.695478,19.5683813 125.899001,19.5664282 C126.410878,19.5664282 126.812461,19.9801045 126.812461,20.507384 C126.812461,20.8458987 126.61167,21.1471193 126.356014,21.3163766 C125.441989,22.107009 124.198779,22.6337148 122.919369,22.6337148 C119.995167,22.6337148 117.619041,20.1872295 117.619041,17.1761707 C117.619041,14.1651119 119.994602,11.7186266 122.919369,11.7186266 C124.016652,11.7186266 125.05794,12.0571412 125.899001,12.6406486 L125.899001,12.6406486 Z M130.955305,20.5346594 C131.881872,20.5346594 132.662819,19.7133383 132.662819,18.5998806 C132.662819,17.4869793 131.863318,16.7563596 130.954743,16.7563596 C130.04673,16.7563596 129.319757,17.5047857 129.319757,18.5998806 C129.319757,19.6766125 130.04673,20.5346594 130.954743,20.5346594 L130.955305,20.5346594 Z M133.155889,21.3109103 L133.119557,21.0709737 C132.71593,21.8632703 131.431815,22.2139037 130.605827,22.2139037 C128.661489,22.2139037 127.230344,20.4629843 127.230344,18.3985178 C127.230344,16.3346131 128.698389,14.6573042 130.715959,14.6573042 C131.06452,14.6573042 132.220336,14.7494579 133.119557,15.8002343 L133.155889,15.5602976 C133.155889,15.1180725 133.504451,14.7494579 133.944978,14.7494579 C134.384937,14.7494579 134.752233,15.1180725 134.752233,15.5602976 L134.752233,21.3109103 C134.752233,21.7531355 134.384937,22.1217501 133.944978,22.1217501 C133.504451,22.1217501 133.155889,21.7531355 133.155889,21.3109103 Z M140.221253,20.5346594 C141.129829,20.5346594 141.856239,19.6766125 141.856239,18.5998806 C141.856239,17.5047857 141.129829,16.7563596 140.221253,16.7563596 C139.312678,16.7563596 138.513177,17.4864229 138.513177,18.5998806 C138.513177,19.7133383 139.294687,20.5346594 140.221253,20.5346594 Z M138.496966,21.9465694 L138.496966,24.5335861 C138.496966,25.0985412 138.020107,25.5723924 137.451282,25.5723924 C136.883024,25.5723924 136.423763,25.0985412 136.423763,24.5335861 L136.423763,15.9698221 C136.423763,15.5326347 136.791059,15.1682192 137.231586,15.1682192 C137.671546,15.1682192 138.020675,15.5326347 138.020675,16.0425941 C138.790462,15.259323 139.744748,15.0771153 140.460037,15.0771153 C142.478174,15.0771153 143.945652,16.7353169 143.945652,18.7757103 C143.945652,20.8166592 142.515074,22.5476328 140.570169,22.5476328 C139.965012,22.5476328 139.065792,22.365425 138.496966,21.9465694 L138.496966,21.9465694 Z" id="形状" fill="#FFFFFF" mask="url(#mask-2)"></path>
                                </g>
                            </g>
                        </g>
                    </g>
                </g>
            </g>
        </g>
    </g>
</svg>