<?xml version="1.0" encoding="UTF-8"?>
<svg width="154px" height="35px" viewBox="0 0 154 35" version="1.1" xmlns="http://www.w3.org/2000/svg" xmlns:xlink="http://www.w3.org/1999/xlink">
    <title>DefiBox</title>
    <defs>
        <rect id="path-1" x="0" y="0" width="153" height="34"></rect>
        <filter color-interpolation-filters="auto" id="filter-3">
            <feColorMatrix in="SourceGraphic" type="matrix" values="0 0 0 0 0.380392 0 0 0 0 0.380392 0 0 0 0 0.380392 0 0 0 1.000000 0"></feColorMatrix>
        </filter>
    </defs>
    <g id="首页" stroke="none" stroke-width="1" fill="none" fill-rule="evenodd">
        <g id="中文-跨链Curve" transform="translate(-1154.000000, -3149.000000)">
            <g id="编组-32" transform="translate(0.000000, 2600.000000)">
                <g id="编组-9" transform="translate(420.000000, 120.000000)">
                    <g id="编组-16" transform="translate(0.000000, 286.120950)">
                        <g id="编组-14" transform="translate(0.000000, 130.000000)">
                            <g id="DefiBox" transform="translate(730.885102, 0.279555)">
                                <g transform="translate(4.000000, 13.000000)">
                                    <mask id="mask-2" fill="white">
                                        <use xlink:href="#path-1"></use>
                                    </mask>
                                    <g id="矩形"></g>
                                    <g filter="url(#filter-3)">
                                        <g mask="url(#mask-2)">
                                            <g transform="translate(26.893575, 5.645372)">
                                                <path d="M20.3939807,10.1970032 C20.3939807,4.56536847 15.828649,0 10.1970143,0 L0.601695149,0 C0.26938873,0 0,0.269388693 0,0.601695113 L0,19.7922966 C0,20.1245902 0.26938873,20.3940064 0.601695149,20.3940064 L4.65131182,20.3940064 C4.98360537,20.3940064 5.25298487,20.1245902 5.25298487,19.7922966 L5.25298487,5.83236403 C5.25298487,5.50007048 5.52236437,5.23069098 5.85469469,5.23069098 L12.7057074,5.23069098 C13.0906193,5.23069098 13.1323536,5.6104918 12.805355,5.81346407 L8.08779412,8.74207446 C7.91100233,8.85183392 7.80344909,9.04517236 7.80344909,9.25329248 L7.80344909,21.487446 C7.80344909,21.9228436 8.25156921,22.2140647 8.64946104,22.0373096 L13.8441171,19.7291987 C13.8441171,6.76916194 13.8441539,5.49194423 13.8441539,19.7223962 C17.6744833,18.254892 20.3939807,14.5435514 20.3939807,10.1970032 Z M10.1969775,12.2739758 L10.1969775,13.127636 C10.1969775,13.4857423 10.5940604,13.7011797 10.8942534,13.505966 L13.2575199,11.9691865 C13.5135885,11.8026904 13.6680607,11.5179776 13.6680607,11.2125632 L13.6680607,10.4428865 C13.6680607,10.0899648 13.2811632,9.87360809 12.9804921,10.0584158 L10.6268963,11.5050712 C10.3597598,11.6692876 10.1969775,11.9603983 10.1969775,12.2739758 Z" id="形状" fill="#13C09D" fill-rule="evenodd"></path>
                                                <path d="M64.9920625,4.89071243 L64.9920625,17.1453102 C64.9920625,17.3148951 65.1295836,17.4523793 65.2990949,17.4524161 C65.85065,17.4526 66.402205,17.4531883 66.9537601,17.4538869 L66.956334,17.4538869 C67.5417178,17.4546223 68.1267339,17.4553945 68.7124854,17.4553945 C69.9251712,17.4553945 70.8617117,17.4523793 71.7497154,17.446349 C72.8009794,17.4388111 73.7183993,17.2345519 74.5534537,16.8222828 C75.5859648,16.3120208 76.2463601,15.4392401 76.4136651,14.3637077 C76.5794993,13.3002359 76.2235625,12.1666432 75.507644,11.4770155 C75.3039363,11.2808825 75.0682384,11.1103417 74.8398946,10.9452428 L74.8299666,10.9381094 L74.8045951,10.9197978 C74.7064183,10.8486839 74.6056676,10.7756948 74.5089616,10.7014555 L74.5001367,10.6946898 L74.4968274,10.6833645 C74.4916795,10.6630305 74.4894733,10.6532128 74.5843408,10.599712 C74.9093906,10.4180665 75.1932576,10.1829202 75.4293232,9.90026658 C75.9341799,9.29579899 76.1617883,8.37249579 76.0238995,7.4914417 C75.8852754,6.6058281 75.3899789,5.85288188 74.6288329,5.37126398 C73.8360644,4.86931209 72.8991562,4.60853685 71.8438474,4.59721158 C70.5958621,4.58364333 69.3416259,4.58213574 68.388171,4.58213574 C67.9237616,4.58213574 67.4604554,4.58213574 66.996046,4.58290792 C66.6621713,4.58290792 66.3279289,4.58309177 65.9940543,4.58327562 C65.7624011,4.58338594 65.530748,4.58353302 65.2990949,4.58360656 C65.1295836,4.58364333 64.9920625,4.72112762 64.9920625,4.89071243 Z M68.6474019,7.32281293 C68.4778906,7.32318063 68.3407373,7.46059139 68.3407373,7.62999234 L68.3407373,9.18181094 C68.3407373,9.35135897 68.4782583,9.4888065 68.6477696,9.48888004 L69.9446595,9.48950513 C70.4223061,9.48950513 71.0532852,9.48873296 71.6886766,9.4842102 C71.8114895,9.4834748 71.9515845,9.45030795 72.1188896,9.38323885 C72.5156415,9.22420714 72.7189815,8.90386395 72.7241293,8.43055615 C72.7303803,7.93386242 72.5329236,7.60447372 72.1372747,7.45147235 C71.939818,7.37462234 71.7059587,7.33090241 71.4783503,7.32862264 C71.0760828,7.32259231 70.6333679,7.32034932 70.0869607,7.32034932 C69.7299207,7.32034932 69.3728807,7.32115827 69.0158407,7.32200398 C68.8930278,7.32229815 68.7702148,7.32255554 68.6474019,7.32281293 Z M71.6405075,14.6320208 C71.168744,14.6342638 70.6657258,14.635036 70.0108461,14.635036 L68.6477696,14.6344109 C68.4782583,14.6343374 68.3407373,14.4968898 68.3407373,14.3273418 L68.3407373,12.4314999 C68.3407373,12.2619151 68.4782583,12.1244308 68.6477696,12.1243941 C68.7643316,12.1243573 68.8805259,12.1243205 68.9970878,12.1242837 C69.8523659,12.1239528 70.707644,12.1236586 71.5629221,12.1282182 C71.7714099,12.1289536 71.9681312,12.1493243 72.146835,12.1885215 C72.7686215,12.3234319 73.1138949,12.7779133 73.0944067,13.4351463 C73.07786,13.9974016 72.6789018,14.4692018 72.1258759,14.5830427 C71.9707051,14.6146652 71.8070771,14.6312487 71.6405075,14.6320208 Z" id="形状" fill="#16221F" fill-rule="evenodd"></path>
                                                <path d="M77.4280821,12.9438211 C77.4244817,12.3251969 77.5531779,11.7131914 77.8054224,11.150789 C78.0565638,10.6007048 78.4154424,10.1090486 78.859628,9.70615597 C79.3302884,9.28421633 79.8744894,8.9564823 80.4635502,8.73994178 C81.1143852,8.49806649 81.8023582,8.37848935 82.4947437,8.38690976 C83.1816136,8.37885706 83.8648065,8.49523518 84.5119645,8.73063888 C85.1039669,8.94335529 85.6511096,9.26796384 86.1250792,9.68755018 C86.5769867,10.0917297 86.9380714,10.5908503 87.184065,11.150789 C87.4388834,11.7352168 87.5675796,12.3689903 87.560961,13.0088678 C87.5668442,13.6496277 87.4348387,14.283916 87.1748724,14.8669465 C86.9233633,15.4235391 86.5633817,15.9215566 86.1162544,16.3301486 C85.6408139,16.7463888 85.0892588,17.0621725 84.493947,17.259188 C83.8342872,17.4885981 83.141534,17.603248 82.4447361,17.5982841 C81.7626463,17.6036525 81.0846012,17.4889291 80.4407526,17.259188 C79.8531626,17.0527961 79.3122709,16.727305 78.8504355,16.3022767 C78.4051467,15.8843818 78.0492098,15.3766937 77.8054224,14.8112027 C77.5557518,14.2217006 77.4274234,13.5861253 77.4280821,12.9438211 Z M80.5727581,12.9763628 C80.5683457,13.2508166 80.6209273,13.523101 80.7271935,13.7753087 C80.8264735,14.0096093 80.9665684,14.2236127 81.1404921,14.4070599 C81.3122096,14.5867565 81.5177558,14.7289842 81.7449965,14.8251387 C81.9825329,14.9263306 82.2373513,14.9784342 82.4947437,14.9784342 C82.7521361,14.9784342 83.0069545,14.9263306 83.2444909,14.8251387 C83.4732024,14.729499 83.6802194,14.5872713 83.8534077,14.4070599 C84.0243898,14.2222154 84.1626463,14.0084694 84.2622939,13.7753087 C84.3681925,13.5295358 84.4226126,13.2636127 84.4211708,12.9949318 C84.4222449,12.7307737 84.3678248,12.4694837 84.2622939,12.2284909 C84.1626463,11.9953302 84.0243898,11.7815842 83.8534077,11.5967397 C83.6802194,11.4165283 83.4732024,11.2742638 83.2444909,11.1786609 C83.0069545,11.077469 82.7521361,11.0253654 82.4947437,11.0253654 C82.2373513,11.0253654 81.9825329,11.077469 81.7449965,11.1786609 C81.5177558,11.2748154 81.3122096,11.4170431 81.1404921,11.5967397 C80.9676716,11.7775762 80.8279443,11.9883438 80.7271935,12.219188 C80.6227658,12.4572392 80.5701842,12.715514 80.5727581,12.9763628 Z" id="形状" fill="#16221F" fill-rule="nonzero"></path>
                                                <path d="M88.4581572,17.4444737 C88.3364474,17.4444737 88.2629067,17.3095266 88.329461,17.2073786 L91.122536,12.9019029 L88.5541278,8.62966753 C88.4927213,8.52733568 88.566262,8.3970216 88.6857656,8.3970216 L91.9932576,8.3970216 C92.050987,8.3970216 92.1035686,8.42934273 92.1300432,8.48067412 L93.3482446,10.8639068 L94.6223368,8.47677647 C94.6488114,8.42676881 94.7010253,8.39551402 94.7576516,8.39551402 L97.9574065,8.39551402 C98.0761747,8.39551402 98.1500831,8.52461468 98.0897797,8.6269833 L95.5724823,12.9019029 L98.3434951,17.2009805 C98.409314,17.3031653 98.3357733,17.437708 98.2144312,17.437708 L94.861344,17.437708 C94.8058208,17.437708 94.7543423,17.4075563 94.7271323,17.3589459 L93.3239761,14.8419427 L91.8847851,17.3669619 C91.857575,17.4149104 91.806832,17.4444737 91.7516765,17.4444737 L88.4581572,17.4444737 Z" id="路径" fill="#16221F" fill-rule="nonzero"></path>
                                                <path d="M31.6521759,4.55955876 C32.89972,4.57250192 34.0430936,4.86063429 35.0519247,5.41557224 C36.4119492,6.16362801 37.3293691,7.3001624 37.7794381,8.79175119 C38.2570848,10.3745304 38.2372288,11.9459108 37.722444,13.4625402 C37.0756538,15.3669128 35.7102608,16.6334304 33.6629619,17.2271978 C32.9536988,17.4324498 32.1820733,17.5327961 31.3039976,17.5327961 L31.2994381,17.5327961 L26.1480975,17.5327961 C25.9785127,17.5327961 25.8410284,17.3953118 25.8410284,17.225727 L25.8410284,4.86092845 C25.8410284,4.68987284 25.9796893,4.55121189 26.1507449,4.55113835 C26.5605136,4.55091773 26.9702822,4.55029263 27.3800509,4.54970431 C28.8041293,4.5476084 30.228171,4.54551249 31.6521759,4.55955876 Z M31.9076195,14.5253501 C31.3306193,14.5823441 30.1613961,14.5876758 30.1613961,14.5876758 C30.0547253,14.5881538 29.9480546,14.5873449 29.8413838,14.5865359 C29.7784698,14.5860947 29.7155557,14.5856167 29.6526049,14.585396 C29.4804094,14.5848077 29.3388436,14.4460732 29.3388436,14.2738777 L29.3388436,7.81024054 C29.3388436,7.64065574 29.4762911,7.50313467 29.6458759,7.50269343 C29.7181297,7.50250958 29.7903834,7.50228895 29.8626371,7.50206833 C30.4120963,7.5003769 30.9617025,7.49868546 31.510794,7.51379807 C33.0760705,7.5571503 34.2012061,8.49372759 34.5205197,10.0202482 C34.7539011,11.1385445 34.6452079,12.1085828 34.1882997,12.9858863 C33.7162053,13.8920913 32.9278493,14.4250038 31.9076195,14.5253501 Z" id="形状" fill="#16221F" fill-rule="evenodd"></path>
                                                <path d="M50.2181082,17.4432603 C50.0485969,17.4432235 49.9110759,17.3057392 49.9110759,17.1361912 L49.9110759,4.90185384 C49.9110759,4.73226904 50.0485969,4.59478474 50.2181082,4.59478474 L59.0121024,4.59478474 C58.9940849,6.19944232 57.6824869,7.49956795 56.0741523,7.49956795 L53.3623399,7.49956795 L53.3623399,10.1571442 L58.6396189,10.1571442 C58.6216014,11.7354006 57.3320656,13.0144201 55.7491025,13.0144201 L53.3502056,13.0144201 L53.3502056,17.1368163 C53.3502056,17.3064011 53.2126846,17.4438486 53.0431733,17.4438486 L50.2181082,17.4432603 Z" id="路径" fill="#16221F" fill-rule="nonzero"></path>
                                                <path d="M44.3727275,17.6544324 C44.1826248,17.6544324 43.9866389,17.6476298 43.7902853,17.6340616 C42.8246962,17.5685001 42.0157488,17.349165 41.3185832,16.9655401 C40.0647146,16.2744048 39.334088,15.1709637 39.1472947,13.6861774 C39.0259525,12.7206986 39.130748,11.8237598 39.4576363,11.0203279 C39.9422694,9.83172667 40.7835747,9.00943159 41.9580193,8.57532097 C42.7033541,8.29946989 43.4479535,8.16003677 44.1708583,8.16003677 C45.0632744,8.16003677 45.9395116,8.37256933 46.7749337,8.79164088 C48.036524,9.42398039 48.7653121,10.5160962 48.9425452,12.0370645 C48.9995392,12.5322507 48.9771093,13.0711567 48.8723138,13.6854052 C48.8679014,13.7140493 48.8601796,13.741958 48.8513547,13.7758603 C48.8451038,13.798474 48.8248801,13.814322 48.8013471,13.814322 L42.5871598,13.814322 C42.5489187,13.814322 42.512516,13.8331485 42.4900861,13.8648077 C42.4680239,13.896467 42.4621407,13.9363996 42.4750103,13.9725816 C42.5805412,14.2740616 42.7695407,14.5137307 43.0537754,14.7051938 C43.4622939,14.9810449 43.9483978,15.1151831 44.5400325,15.1151831 C44.6514466,15.1151831 44.7705825,15.1106603 44.8941309,15.1008794 C45.6276991,15.045871 46.2947131,14.8250283 46.8786261,14.4444186 C46.8863478,14.4398958 46.8944373,14.4368806 46.9028945,14.4368806 C46.9179703,14.4368806 46.9323107,14.4436464 46.9422387,14.4549349 L48.4774004,16.18167 C48.486593,16.1922231 48.4917408,16.2057913 48.49027,16.2201318 C48.4895346,16.2337 48.4825482,16.2464961 48.4722525,16.2555416 C48.1376424,16.5389306 47.7743515,16.7763567 47.3617883,16.9813513 C46.4535609,17.4343251 45.4754699,17.6544324 44.3727275,17.6544324 Z M44.2168212,10.6698698 C44.1127612,10.6698698 44.0035533,10.6759001 43.883682,10.6879608 C43.0839271,10.767826 42.5397261,11.2894132 42.4643469,12.0506328 C42.4614053,12.0837996 42.471701,12.1169664 42.4944986,12.1418232 C42.5169285,12.1667167 42.5496541,12.1810204 42.5827474,12.1810204 L45.7166834,12.1810204 C45.7490413,12.1810204 45.7791929,12.1682243 45.8016228,12.1448384 C45.8244204,12.1214892 45.8365547,12.0913375 45.8358508,12.0589429 C45.8207434,11.5034533 45.4978998,11.0270936 44.9945139,10.8145611 C44.7632285,10.7173403 44.5091454,10.6698698 44.2168212,10.6698698 Z" id="形状" fill="#16221F" fill-rule="nonzero"></path>
                                                <path d="M62.9108614,8.9957898 L60.2494243,8.9957898 C60.079913,8.9957898 59.9423919,9.13327409 59.9423919,9.30285889 L59.9423919,17.1301976 C59.9423919,17.2997824 60.079913,17.4372667 60.2494243,17.4372667 L62.9108614,17.4372667 C63.0803726,17.4372667 63.2178937,17.2997824 63.2178937,17.1301976 L63.2178937,9.30285889 C63.2178937,9.13327409 63.0803726,8.9957898 62.9108614,8.9957898 Z" id="路径" fill="#16221F" fill-rule="nonzero"></path>
                                                <path d="M61.574995,7.77236709 C60.9032009,7.74901793 60.4696786,7.52681477 60.170368,7.05405853 C59.9037831,6.63230274 59.8497307,6.03996936 60.032847,5.54459936 C60.216331,5.04849395 60.610509,4.71233951 61.1425758,4.59772637 C61.2962758,4.56444921 61.4451957,4.54815995 61.5860261,4.54815995 C62.0206515,4.54815995 62.3957089,4.70671365 62.7009027,5.01878351 C63.1134659,5.44127471 63.2451038,5.9996323 63.0807403,6.63443542 C62.9343944,7.19915428 62.5615432,7.56288647 61.9702761,7.71504213 C61.8632744,7.74265666 61.752228,7.75324651 61.6632438,7.76247587 C61.6305182,7.76600582 61.5999988,7.76883714 61.574995,7.77236709 Z" id="路径" fill="#16221F" fill-rule="nonzero"></path>
                                            </g>
                                        </g>
                                    </g>
                                </g>
                            </g>
                        </g>
                    </g>
                </g>
            </g>
        </g>
    </g>
</svg>