<?xml version="1.0" encoding="UTF-8"?>
<svg width="154px" height="35px" viewBox="0 0 154 35" version="1.1" xmlns="http://www.w3.org/2000/svg" xmlns:xlink="http://www.w3.org/1999/xlink">
    <title>HyperPay</title>
    <defs>
        <rect id="path-1" x="0" y="0" width="153" height="34"></rect>
    </defs>
    <g id="首页" stroke="none" stroke-width="1" fill="none" fill-rule="evenodd">
        <g id="鼠标经过" transform="translate(-610.000000, -1587.000000)">
            <g id="编组-32" transform="translate(0.000000, 878.000000)">
                <g id="编组-9备份" transform="translate(420.000000, 130.000000)">
                    <g id="编组-16" transform="translate(0.000000, 286.000000)">
                        <g id="编组-14" transform="translate(0.000000, 120.000000)">
                            <g id="编组-49" transform="translate(0.000000, 160.279555)">
                                <g id="HyperPay" transform="translate(186.000000, 0.000000)">
                                    <g transform="translate(4.349265, 12.935484)">
                                        <mask id="mask-2" fill="white">
                                            <use xlink:href="#path-1"></use>
                                        </mask>
                                        <g id="矩形"></g>
                                        <g id="HyperPay-Logo" mask="url(#mask-2)">
                                            <g transform="translate(14.000000, 6.000000)" id="编组">
                                                <g>
                                                    <ellipse id="椭圆形" fill="#2386E3" fill-rule="nonzero" cx="11.8087785" cy="11.8139102" rx="11.7151931" ry="11.5757265"></ellipse>
                                                    <path d="M6.25604358,7.05584106 L4.87778556,8.43730636 L6.6871037,9.78514574 L10.6942613,9.7879479 L9.47197894,11.3459493 L10.0703584,12.6937887 L13.280622,12.7049974 C13.280622,12.7049974 13.2891297,12.3967597 13.4791365,11.1694132 C13.7825801,9.21350492 17.1828504,9.09861633 17.1516553,11.2927083 C17.126132,12.9067529 15.8698186,13.100102 15.055909,13.1253215 C14.2419995,13.1505409 4.38433516,13.1197172 4.38433516,13.1197172 L2.87278882,14.4507436 L4.17164102,15.798583 L9.14301201,15.798583 L7.70519964,17.715261 L8.78852178,19.0631004 L11.9278873,19.0631004 L12.7900075,15.7229246 C12.7900075,15.7229246 14.7127625,15.6836944 15.5039847,15.6836944 C16.907766,15.6836944 20.6313314,14.7785964 20.6313314,10.9312295 C20.6313314,7.44814358 16.7858214,7.08386267 15.3565168,7.08386267 C13.9215403,7.07825834 6.25604358,7.05584106 6.25604358,7.05584106 Z" id="路径" fill="#2665A3" fill-rule="nonzero"></path>
                                                    <path d="M5.65766407,5.70800168 L4.88062148,8.43730636 L10.0958817,8.44010852 L9.47197894,11.3459493 L12.6822425,11.357158 C12.6822425,11.357158 12.6907502,11.0489203 12.880757,9.82157383 C13.1842006,7.86566555 16.5844709,7.75077695 16.5532758,9.94486891 C16.5277525,11.5589136 15.2714391,11.7522627 14.4575295,11.7774821 C13.64362,11.8027016 3.78595565,11.7718778 3.78595565,11.7718778 L2.87278882,14.4507436 L8.54179658,14.4507436 L7.70519964,17.715261 L11.3295077,17.715261 L12.191628,14.3750852 C12.191628,14.3750852 14.114383,14.335855 14.9056052,14.335855 C16.3093865,14.335855 20.0329519,13.430757 20.0329519,9.58339016 C20.0329519,6.1003042 16.1874419,5.73602329 14.7581372,5.73602329 C13.3203249,5.73041897 5.65766407,5.70800168 5.65766407,5.70800168 Z" id="路径" fill="#FFFFFF" fill-rule="nonzero"></path>
                                                </g>
                                                <g transform="translate(25.414564, 6.006025)">
                                                    <polygon id="路径" fill="#FFFFFF" fill-rule="nonzero" points="3.83793514 0 8.01179457 0 6.51413206 5.31506641 11.1274925 5.31506641 12.6167569 0 16.6786415 0 12.784719 13.9544653 8.96637946 13.9544653 10.2764842 8.54552236 5.55954718 8.54552236 3.98910107 13.9544653 0 13.9544653"></polygon>
                                                    <path d="M16.6786415,3.29396064 L20.5893603,3.29396064 L20.7825167,9.56435847 L24.4356935,3.29396064 L28.3940015,3.29396064 L22.0674272,13.1399486 C22.0674272,13.1399486 20.0126902,16.8232206 16.9109892,16.9474689 C15.4805115,16.9474689 14.8058636,16.6989723 14.0752282,16.1439965 C14.4951336,15.4785778 15.3013519,13.9572263 15.3013519,13.9572263 C15.3013519,13.9572263 16.143962,14.694433 17.4092769,14.2416169 C18.1651066,13.9572263 17.9047652,12.8224252 17.9047652,12.8224252 L16.6786415,3.29396064 Z" id="路径" fill="#FFFFFF" fill-rule="nonzero"></path>
                                                    <path d="M90.0473082,3.29396064 L93.9580269,3.29396064 L94.1511834,9.56435847 L97.8043601,3.29396064 L101.762668,3.29396064 L95.4360938,13.1399486 C95.4360938,13.1399486 93.3813569,16.8232206 90.2796558,16.9474689 C88.8491782,16.9474689 88.1745302,16.6989723 87.4438948,16.1439965 C87.8638002,15.4785778 88.6700185,13.9572263 88.6700185,13.9572263 C88.6700185,13.9572263 89.5126287,14.694433 90.7779435,14.2416169 C91.5337732,13.9572263 91.2734319,12.8224252 91.2734319,12.8224252 L90.0473082,3.29396064 Z" id="路径" fill="#2386E3" fill-rule="nonzero"></path>
                                                    <path d="M37.1728232,3.29396064 C35.2076661,2.57332047 33.5196465,3.47066934 32.6406445,4.59442624 C32.8282023,3.79647601 32.8757916,3.29396064 32.8757916,3.29396064 L29.4493637,3.29396064 L25.6870115,16.9447078 L29.4493637,16.9447078 L30.725876,12.1680507 C30.725876,12.1680507 31.7224515,13.8164116 33.4916528,13.9544653 C33.4916528,13.9544653 36.7193254,14.3686263 38.376552,11.4612159 C40.0365779,8.55656666 40.3165148,4.42876183 37.1728232,3.29396064 Z M35.4680074,9.38212762 C34.8829393,10.6715489 33.5364427,11.3314455 32.4614849,10.8565409 C31.3865272,10.3816362 30.9890167,8.95140016 31.5740849,7.66197886 C32.1591531,6.37255755 33.5056496,5.71266099 34.5806074,6.18756563 C35.6555651,6.66247026 36.0530756,8.09270632 35.4680074,9.38212762 Z" id="形状" fill="#FFFFFF" fill-rule="nonzero"></path>
                                                    <path d="M46.7746595,3.29948279 C42.6931792,3.1421016 40.1849445,6.39188506 40.1849445,9.6030135 C40.1849445,12.8141419 44.4147913,16.1743683 49.4312608,12.5187071 C48.5326633,11.3010737 47.7460406,10.525212 47.7460406,10.525212 C46.399544,11.8532884 43.1802695,11.7428454 43.3650278,9.37936655 L50.5510085,9.37936655 C50.5566073,9.38212762 52.8772843,3.56730691 46.7746595,3.29948279 Z M48.1043599,7.86353722 C46.0748172,7.86353722 43.6813566,7.86353722 43.6813566,7.86353722 C44.0900645,4.99754297 48.4962715,4.56681551 48.1043599,7.86353722 Z" id="形状" fill="#FFFFFF" fill-rule="nonzero"></path>
                                                    <path d="M53.3811707,3.29396064 L50.6573845,13.7059687 L54.1957872,13.7059687 C54.1957872,13.7059687 54.9544162,8.91550621 56.4688749,7.86353722 C57.986133,6.81156823 59.1366738,6.89440043 59.6965476,6.9496219 C59.9484908,5.59393483 60.6791262,3.08688013 60.6791262,3.08688013 C59.6965476,2.90741036 57.95534,3.29396064 56.5248623,5.12179127 C56.8047992,4.18026522 57.0315481,3.29396064 57.0315481,3.29396064 L53.3811707,3.29396064 Z" id="路径" fill="#FFFFFF" fill-rule="nonzero"></path>
                                                    <path d="M62.9354177,0.0552214692 L62.0480177,3.15866804 L67.9882791,3.16142911 L67.2772393,6.46643405 L70.9332155,6.47747834 C70.9332155,6.47747834 70.9416136,6.12958308 71.1599644,4.73247991 C71.5042868,2.5070547 75.3814131,2.38004532 75.3422219,4.87053359 C75.3142282,6.70388636 73.8809512,6.92477224 72.95436,6.95238298 C72.0277688,6.97999371 60.7966997,6.94686083 60.7966997,6.94686083 L59.7581337,9.99232486 L66.2162784,9.99232486 L65.2616935,13.7032076 L69.3879637,13.7032076 L70.3677429,9.90397051 C70.3677429,9.90397051 72.5596489,9.85979333 73.4582465,9.85979333 C75.0594856,9.85979333 79.2977305,8.82991293 79.2977305,4.45361149 C79.2977305,0.49423215 74.9167178,0.0773100569 73.2902843,0.0773100569 C71.6638508,0.0773100569 62.9354177,0.0552214692 62.9354177,0.0552214692 Z" id="路径" fill="#2386E3" fill-rule="nonzero"></path>
                                                    <path d="M86.5173036,3.57006799 C84.0594575,3.24702239 82.5226038,3.39059821 80.2831085,3.8185646 L80.5910391,6.22898173 C80.5910391,6.22898173 83.4156026,5.75959924 84.7285067,6.12129986 C85.7110853,6.39188506 85.2799825,7.75309428 85.2799825,7.75309428 C85.2799825,7.75309428 83.0348884,6.88059507 80.5350517,7.75309428 C78.6006876,8.42955728 76.6607248,11.1050375 78.7378567,13.4574721 C79.7764227,14.3989981 81.6883918,14.4735471 83.6227559,12.9880896 C83.5667685,13.3746398 83.3988064,14.0400586 83.3988064,14.0400586 L87.0771775,14.0400586 C87.0771775,14.0400586 88.6784166,8.50134519 88.8463788,7.75309428 C89.0143409,7.00484337 89.8877441,4.01460081 86.5173036,3.57006799 Z M84.1966266,11.0387717 C83.5975616,11.7842615 82.7829452,11.9085098 82.3350461,11.6572522 C81.758376,11.3342066 81.5008341,10.486557 81.9991218,9.80181079 C82.4162278,9.22474644 84.0118682,9.18609141 84.6949143,9.24683502 C85.0560329,9.34071152 84.776096,10.3181315 84.1966266,11.0387717 Z" id="形状" fill="#2386E3" fill-rule="nonzero"></path>
                                                </g>
                                            </g>
                                        </g>
                                    </g>
                                </g>
                            </g>
                        </g>
                    </g>
                </g>
            </g>
        </g>
    </g>
</svg>