<?xml version="1.0" encoding="UTF-8"?>
<svg width="154px" height="35px" viewBox="0 0 154 35" version="1.1" xmlns="http://www.w3.org/2000/svg" xmlns:xlink="http://www.w3.org/1999/xlink">
    <title>Heco</title>
    <defs>
        <rect id="path-1" x="0" y="0" width="153.15" height="34"></rect>
        <filter color-interpolation-filters="auto" id="filter-3">
            <feColorMatrix in="SourceGraphic" type="matrix" values="0 0 0 0 0.380392 0 0 0 0 0.380392 0 0 0 0 0.380392 0 0 0 1.000000 0"></feColorMatrix>
        </filter>
    </defs>
    <g id="首页" stroke="none" stroke-width="1" fill="none" fill-rule="evenodd">
        <g id="中文-跨链Curve" transform="translate(-792.000000, -3149.000000)">
            <g id="编组-32" transform="translate(0.000000, 2600.000000)">
                <g id="编组-9" transform="translate(420.000000, 120.000000)">
                    <g id="编组-16" transform="translate(0.000000, 286.120950)">
                        <g id="编组-14" transform="translate(0.000000, 130.000000)">
                            <g id="Heco" transform="translate(368.114349, 0.000000)">
                                <g transform="translate(4.000000, 13.000000)">
                                    <mask id="mask-2" fill="white">
                                        <use xlink:href="#path-1"></use>
                                    </mask>
                                    <g id="矩形"></g>
                                    <g filter="url(#filter-3)" id="heco">
                                        <g mask="url(#mask-2)">
                                            <g transform="translate(7.000000, 9.000000)" fill-rule="nonzero">
                                                <path d="M20.763333,4.18832492 L20.763333,8.85414012 L16.036308,8.85414012 L16.036308,4.78833483 C16.036308,4.45682179 15.7604794,4.18832492 15.4198971,4.18832492 L13.8240543,4.18832492 L13.8240543,15.306328 C13.8240543,15.6378473 14.0998828,15.9063004 14.4404651,15.9063004 L16.036308,15.9063004 L16.036308,10.7349995 L20.763333,10.7349995 L20.763333,15.3049529 C20.763333,15.6364722 21.0391615,15.9049253 21.3797438,15.9049253 L22.9755867,15.9049253 L22.9755867,4.78833483 C22.9755867,4.45682179 22.6997581,4.18832492 22.3591758,4.18832492 L20.763333,4.18832492 Z" id="路径" fill="#2D3338"></path>
                                                <path d="M30.0413103,6.95077939 L30.0413103,12.5029149 C30.0413103,13.0070692 29.7767324,13.4851595 29.3278312,13.7385493 C28.0753209,14.4426528 26.7792455,13.5632266 26.7792455,12.4029091 L26.7792455,7.55081429 C26.7792455,7.21929501 26.5034169,6.95077939 26.1628346,6.95077939 L24.5613664,6.95077939 L24.5613664,12.6001706 C24.5613664,14.4180263 26.0896429,15.9057379 27.9571265,15.9057379 L28.8648043,15.9057379 C30.732288,15.9057379 32.2605644,14.4180263 32.2605644,12.6001706 L32.2605644,7.55081429 C32.2605644,7.21929501 31.9847358,6.95077939 31.644216,6.95077939 L30.0413103,6.95077939 Z" id="路径" fill="#2D3338"></path>
                                                <path d="M54.5196719,15.9057379 L56.1155147,15.9057379 L56.1155147,8.04259291 C56.1155147,7.71107362 55.8396862,7.4426205 55.4991039,7.4426205 L53.903261,7.4426205 L53.903261,15.3057655 C53.903261,15.6372848 54.1790896,15.9057379 54.5196719,15.9057379 Z" id="路径" fill="#01943F"></path>
                                                <path d="M55.0092629,6.59082094 C55.6909275,6.59082094 56.2434597,6.05291465 56.2434597,5.3894073 C56.2434597,4.72589995 55.6909275,4.18801865 55.0092629,4.18801865 C54.3276607,4.18801865 53.7751286,4.72589995 53.7751286,5.3894073 C53.7751286,6.05291465 54.3276607,6.59082094 55.0092629,6.59082094 Z" id="路径" fill="#01943F"></path>
                                                <path d="M38.0490886,6.94527907 C35.7285161,6.94527907 33.8300932,8.56037303 33.8300932,10.819317 L33.8300932,12.041263 C33.8300932,14.300207 35.7285161,15.9057379 38.0490886,15.9057379 C40.3697236,15.9057379 42.2681466,14.300207 42.2681466,12.041263 L42.2681466,10.819317 C42.2681466,8.56037303 40.3697236,6.94527907 38.0490886,6.94527907 Z M40.0446422,12.1878341 C40.0446422,13.2563337 39.1467775,13.9673126 38.0490886,13.9673126 C36.9514623,13.9673126 36.0535975,13.2563337 36.0535975,12.1878341 L36.0535975,10.6631829 C36.0535975,9.5946207 36.9514623,8.88370434 38.0490886,8.88370434 C39.1467775,8.88370434 40.0446422,9.5946207 40.0446422,10.6631829 L40.0446422,12.1878341 Z" id="形状" fill="#2D3338"></path>
                                                <path d="M48.0899853,6.94527907 C47.3652556,6.94527907 46.6812783,7.10278823 46.083181,7.38911739 L46.083181,4.77810923 C46.083181,4.4465962 45.8073525,4.17809933 45.4668327,4.17809933 L43.8709898,4.17809933 L43.8709898,12.041263 C43.8709898,14.300207 45.7693503,15.9056754 48.0899853,15.9056754 C50.4105578,15.9056754 52.3089808,14.300207 52.3089808,12.041263 L52.3089808,10.819317 C52.3089808,8.56037303 50.4105578,6.94527907 48.0899853,6.94527907 Z M50.0854764,12.1878341 C50.0854764,13.2563337 49.1876742,13.9673126 48.0899853,13.9673126 C46.9922964,13.9673126 46.0944317,13.2563337 46.0944317,12.1878341 L46.0944317,10.6631204 C46.0944317,9.5946207 46.9922964,8.88364184 48.0899853,8.88364184 C49.1876742,8.88364184 50.0854764,9.5946207 50.0854764,10.6631204 L50.0854764,12.1878341 Z" id="形状" fill="#01943F"></path>
                                                <path d="M7.14916593,5.00165349 C7.14916593,2.66873651 5.98109797,0.661857256 5.09310881,0.00842305254 C5.08888356,0.00705316034 5.02556113,-0.0285638493 5.03118646,0.0645881326 C5.03118646,0.0659582123 5.02978012,0.0659582123 5.02978012,0.0673282921 C4.95660087,4.57287854 2.59237582,5.7934433 1.29205017,7.43868277 C-1.70826813,11.2346536 1.08236297,15.3963332 3.92365952,16.1648154 C5.51388329,16.5949655 3.5563569,15.4032086 3.30445475,12.8853121 C2.99907448,9.84282264 7.14916593,7.52087505 7.14916593,5.00165349 Z" id="路径" fill="#2D3338"></path>
                                                <path d="M8.52905871,6.53575524 C8.51074514,6.52337952 8.48543117,6.51519154 8.4671176,6.54394322 C8.41786474,7.11110121 7.82258011,8.32479682 7.06828622,9.43848662 C4.50986238,13.2166439 5.96780345,15.0386249 6.78826993,16.0166818 C7.2639226,16.5852149 6.78826993,16.0166818 7.97740161,15.435898 C8.07028202,15.3906454 10.2994117,14.1741996 10.5400507,11.4029134 C10.7750644,8.71931978 9.11871801,7.02753385 8.52905871,6.53575524 Z" id="路径" fill="#01943F"></path>
                                                <path d="M68.5221115,13.827617 L62.7742771,13.827617 L62.7742771,10.8481311 L67.2201608,10.8481311 C67.2682886,10.8481311 67.5551803,10.8536314 67.9027005,10.8645696 L67.9939558,10.8673197 L67.9939558,9.55905613 C67.9939558,9.36316973 67.9183264,9.18097163 67.7789433,9.04396366 C67.6395602,8.9070182 67.4639249,8.82482591 67.2595381,8.83713913 L62.7742771,8.83713913 L62.7742771,6.28092791 L69.0821441,6.28092791 L69.0821441,4.92474901 C69.0821441,4.52611332 68.7596253,4.20281951 68.3646023,4.20281951 L60.6355277,4.20281951 L60.6355277,4.29186219 C60.6355277,4.29186219 60.6312774,12.7495542 60.624277,15.1824458 C60.624277,15.375582 60.6974063,15.556405 60.8325391,15.693413 C60.9676095,15.830421 61.1491826,15.9057379 61.3419438,15.9057379 L69.2396533,15.9057379 L69.2396533,14.549534 C69.2396533,14.1509483 68.9171345,13.827617 68.5221115,13.827617 Z" id="路径" fill="#2D3338"></path>
                                                <path d="M80.1702892,7.24523402 C79.4258709,6.30005403 77.9351591,5.99728641 76.9119746,5.99728641 C74.7987267,5.99728641 73.2211349,7.48224781 73.2211349,9.72475327 C73.2211349,12.4398487 74.7630996,13.8069908 76.9982296,13.8069908 C78.1757981,13.8069908 79.4933748,13.3522143 80.1346621,12.693301 L80.2221672,12.693301 L80.2221672,14.2905814 C80.2221672,14.9673083 78.9033405,15.8138575 76.6869615,15.8138575 C73.533028,15.8138575 70.8297458,13.519349 70.8297458,10.0617104 C70.8297458,6.50275332 73.2730129,3.98903208 76.8950986,3.98903208 C78.8358365,3.98903208 80.2571692,4.66164621 80.2571692,5.18768306 L80.2571692,7.24385894 L80.1702892,7.24385894 L80.1702892,7.24523402 Z" id="路径" fill="#2D3338"></path>
                                                <path d="M87.1388196,4.20419459 C84.1142686,4.20419459 81.8335109,6.35080698 81.8335109,9.19878517 L81.8335109,10.9070721 C81.8335109,13.7467998 84.1142686,15.8879243 87.1388196,15.8879243 C90.1633706,15.8879243 92.4441283,13.7467998 92.4441283,10.9070721 L92.4441283,9.19878517 C92.4441283,6.35080698 90.1633706,4.20419459 87.1388196,4.20419459 Z M90.2671266,11.1125215 C90.2671266,12.7714305 88.9220483,13.8002404 87.1375695,13.8002404 C85.3530907,13.8002404 84.0073874,12.7714305 84.0073874,11.1125215 L84.0073874,8.98096 C84.0073874,7.32205099 85.3530907,6.27136486 87.1375695,6.27136486 C88.9220483,6.27136486 90.2671266,7.32205099 90.2671266,8.98096 L90.2671266,11.1125215 Z" id="形状" fill="#2D3338"></path>
                                                <path d="M123.001531,7.57412815 C122.335867,7.05634803 121.360811,6.79333273 120.105113,6.79333273 C119.63821,6.79333273 119.148182,6.82620964 118.647528,6.89196346 C118.246254,6.94396649 117.676221,7.01934587 117.282448,7.10697597 C117.121814,7.14260305 117.093687,7.26454764 117.093687,7.41111867 L117.093687,8.57962415 C117.093687,8.78788627 117.096813,8.97689726 117.321826,8.92345665 C117.743725,8.82345083 118.563148,8.64675305 118.785661,8.61112598 C119.136931,8.55499772 119.521329,8.52618354 119.923852,8.52618354 C120.552639,8.52618354 121.031416,8.63581492 121.34956,8.85088993 C121.646452,9.05358922 121.798336,9.4399242 121.798336,9.99883172 L121.798336,10.0659606 C121.68708,10.0563976 121.563322,10.046772 121.429565,10.0372089 C121.178925,10.0207705 120.858281,10.01252 120.465759,10.01252 C119.930727,10.01252 119.413197,10.0714609 118.926294,10.1879052 C118.43189,10.3056621 117.987489,10.4892352 117.606217,10.7330619 C117.217445,10.9810139 116.905551,11.2960947 116.679913,11.6687414 C116.4524,12.0454508 116.336768,12.4851639 116.336768,12.9769425 C116.336768,13.4769716 116.435524,13.9112468 116.63116,14.2701427 C116.828047,14.6317888 117.110563,14.9331813 117.471209,15.1646948 C117.825605,15.3948331 118.26188,15.5619679 118.76566,15.6646613 C119.255688,15.7632921 119.810095,15.8139825 120.41388,15.8139825 C120.852656,15.8139825 124.02034,15.7701675 124.02034,14.3030196 C124.02034,12.6029832 124.02034,10.0618354 124.02034,10.0618354 C124.01909,8.93714495 123.677195,8.10015875 123.001531,7.57412815 Z M121.798336,11.7385579 L121.798336,13.9975019 C121.625201,14.0303788 121.43394,14.0564428 121.225803,14.0742563 C120.717648,14.1208215 120.260122,14.1290095 119.731341,14.0824443 C119.524454,14.0646308 119.332568,14.0126277 119.162558,13.9304355 C118.998173,13.8509308 118.864415,13.7372367 118.751909,13.5838528 C118.644403,13.4385943 118.591274,13.2235193 118.591274,12.9454406 C118.591274,12.5112279 118.750034,12.2015849 119.076928,11.9961354 C119.424448,11.7769352 119.951979,11.6659912 120.644519,11.6659912 C120.831405,11.6659912 121.058293,11.6769293 121.327059,11.697493 C121.505819,11.7111813 121.662078,11.7248696 121.798336,11.7385579 Z" id="形状" fill="#2D3338"></path>
                                                <path d="M133.72278,6.83296003 C132.848979,6.83296003 131.878923,7.0370344 131.718913,7.47405983 L131.718913,7.26717279 C131.718913,6.95346704 131.458273,6.7000773 131.136379,6.7000773 L129.372527,6.7000773 L129.372527,15.2481371 C129.372527,15.5618429 129.633167,15.8152951 129.955686,15.8152951 L131.702037,15.8152951 L131.702037,10.9343861 C131.702037,9.35079401 132.643342,8.81651293 133.364009,8.81651293 C134.374068,8.81651293 135.19599,9.40010938 135.19599,10.8672572 L135.19599,15.246762 C135.19599,15.5604678 135.456631,15.81392 135.778524,15.81392 L137.508,15.81392 L137.508,10.7672514 C137.508,8.21654053 136.103543,6.83296003 133.72278,6.83296003 Z" id="路径" fill="#2D3338"></path>
                                                <path d="M126.213593,15.709789 L127.809311,15.709789 L127.809311,7.84670651 C127.809311,7.51518722 127.533045,7.2466716 127.193025,7.2466716 L125.596682,7.2466716 L125.596682,15.1098166 C125.596682,15.4413359 125.872948,15.709789 126.213593,15.709789 Z" id="路径" fill="#2D3338"></path>
                                                <path d="M126.702996,6.39318445 C127.384286,6.39318445 127.936818,5.85530315 127.936818,5.1917958 C127.936818,4.52828845 127.384286,3.99040716 126.702996,3.99040716 C126.021082,3.99040716 125.46855,4.52828845 125.46855,5.1917958 C125.46855,5.85530315 126.021082,6.39318445 126.702996,6.39318445 Z" id="路径" fill="#2D3338"></path>
                                                <path d="M105.029235,7.24523402 C104.284817,6.30005403 102.79473,5.99728641 101.771546,5.99728641 C99.6576729,5.99728641 98.0800811,7.48224781 98.0800811,9.72475327 C98.0800811,12.4398487 99.6226709,13.8069908 101.857176,13.8069908 C103.035369,13.8069908 104.352321,13.3522143 104.994233,12.693301 L105.081113,12.693301 L105.081113,14.2905814 C105.081113,14.9673083 103.762912,15.8138575 101.546533,15.8138575 C98.3925993,15.8138575 95.6893171,13.519349 95.6893171,10.0617104 C95.6893171,6.50275332 98.1319592,3.98903208 101.75467,3.98903208 C103.695408,3.98903208 105.116741,4.66164621 105.116741,5.18768306 L105.116741,7.24385894 L105.029235,7.24385894 L105.029235,7.24523402 Z" id="路径" fill="#2D3338"></path>
                                                <path d="M111.002083,6.98921912 C110.136408,6.98921912 109.176977,7.19060584 109.017592,7.6248186 L109.017592,4.60012388 C109.017592,4.29053087 108.758827,4.03847245 108.440684,4.03847245 L106.694332,4.03847245 L106.694332,15.2536999 C106.694332,15.563343 106.953097,15.8153576 107.271241,15.8153576 L109.000716,15.8153576 L109.000716,11.0508929 C109.000716,9.48236417 109.933896,8.95364591 110.645812,8.95364591 C111.646495,8.95364591 112.461543,9.53174204 112.461543,10.9851391 L112.461543,15.2523249 C112.461543,15.5619679 112.720308,15.8139825 113.038451,15.8139825 L114.751051,15.8139825 L114.751051,10.8865084 C114.751051,8.3604864 113.359095,6.98921912 111.002083,6.98921912 Z" id="路径" fill="#2D3338"></path>
                                            </g>
                                        </g>
                                    </g>
                                </g>
                            </g>
                        </g>
                    </g>
                </g>
            </g>
        </g>
    </g>
</svg>