<?xml version="1.0" encoding="UTF-8"?>
<svg width="154px" height="35px" viewBox="0 0 154 35" version="1.1" xmlns="http://www.w3.org/2000/svg" xmlns:xlink="http://www.w3.org/1999/xlink">
    <title>Imtoken</title>
    <defs>
        <rect id="path-1" x="0" y="0" width="153" height="34"></rect>
        <linearGradient x1="97.204%" y1="2.796%" x2="0%" y2="100%" id="linearGradient-3">
            <stop stop-color="#11C4D1" offset="0%"></stop>
            <stop stop-color="#0062AD" offset="100%"></stop>
        </linearGradient>
    </defs>
    <g id="首页" stroke="none" stroke-width="1" fill="none" fill-rule="evenodd">
        <g id="鼠标经过" transform="translate(-610.000000, -1507.000000)">
            <g id="编组-32" transform="translate(0.000000, 878.000000)">
                <g id="编组-9备份" transform="translate(420.000000, 130.000000)">
                    <g id="编组-16" transform="translate(0.000000, 286.000000)">
                        <g id="编组-14" transform="translate(0.000000, 120.000000)">
                            <g id="编组-27" transform="translate(0.000000, 79.879050)">
                                <g id="Imtoken" transform="translate(186.231831, 0.400505)">
                                    <g transform="translate(4.000000, 13.000000)">
                                        <mask id="mask-2" fill="white">
                                            <use xlink:href="#path-1"></use>
                                        </mask>
                                        <g id="矩形"></g>
                                        <g id="imToken" mask="url(#mask-2)">
                                            <g transform="translate(27.729751, 10.064994)">
                                                <path d="M21.5221409,0.522291808 C22.2337207,10.1605546 16.0382087,14.7161046 10.484108,15.201886 C5.32043168,15.6534828 0.459918914,12.4806106 0.0335107981,7.60570427 C-0.318230918,3.57821664 2.17094895,1.86358822 4.12666888,1.69266514 C6.1381637,1.51634448 7.82850305,2.90352025 7.97513707,4.58306446 C8.11637351,6.19783781 7.10882691,6.93280708 6.40804226,6.99397955 C5.85389163,7.04255769 5.15670536,6.70610909 5.0937337,5.98373416 C5.03975799,5.36301348 5.27545192,5.27845154 5.21787783,4.61904827 C5.11532398,3.44507655 4.09158466,3.30833809 3.53113687,3.35691623 C2.8528421,3.41628951 1.62219589,4.20793327 1.79491816,6.17984591 C1.96854003,8.16885086 3.87568182,9.74044364 6.37565683,9.52184201 C9.07354278,9.28614807 10.9518975,7.18559332 11.093134,4.2394191 C11.0918557,4.08337411 11.1247082,3.92893631 11.1893907,3.78692272 L11.1902902,3.78332434 C11.2193581,3.72161549 11.253353,3.66235015 11.2919445,3.60610409 C11.3495186,3.51974295 11.4232854,3.42438587 11.5186425,3.32003282 C11.5195421,3.31733404 11.5195421,3.31733404 11.5213413,3.31733404 C11.5906101,3.23906926 11.6742725,3.15450731 11.7687299,3.0636482 C12.9471996,1.95174855 17.1914897,-0.670571404 21.2054834,0.159754949 C21.3796963,0.197103077 21.5085612,0.344638763 21.5221409,0.522291808" id="路径" fill="url(#linearGradient-3)" fill-rule="nonzero"></path>
                                                <g id="编组" stroke-width="1" fill="none" fill-rule="evenodd" transform="translate(29.750738, 0.904620)">
                                                    <rect id="矩形" fill="#FFFFFF" fill-rule="nonzero" x="0.205107702" y="3.74771353" width="1.96291669" height="9.29191864" rx="0.071"></rect>
                                                    <path d="M28.2319956,0.465990304 L28.2319956,1.91074017 C28.2310217,1.94481386 28.2031115,1.97192656 28.1690239,1.97191264 L24.4482983,1.97191264 C24.413862,1.97140669 24.3854073,1.99865907 24.384427,2.03308511 L24.384427,12.9811585 C24.3839566,12.9978619 24.3768665,13.0136934 24.3647181,13.0251669 C24.3525697,13.0366404 24.3363592,13.042815 24.3196562,13.0423574 L22.4017192,13.0423574 C22.3676206,13.0428493 22.3393056,13.0161295 22.337848,12.9820581 L22.337848,2.03308511 C22.3368677,1.99865907 22.308413,1.97140669 22.2739767,1.97191264 L18.217702,1.97191264 C18.1836144,1.97192656 18.1557043,1.94481386 18.1547304,1.91074017 L18.1547304,0.465990304 C18.1557043,0.43191661 18.1836144,0.404721447 18.217702,0.404721447 L28.1627268,0.404721447 C28.1807187,0.403918237 28.1987106,0.409315808 28.2113049,0.421010545 C28.2243257,0.432348349 28.2318593,0.44872564 28.2319956,0.465990304 Z M18.7295717,7.1139987 L18.7493628,7.11759708 L18.7493628,12.9811585 C18.7483889,13.0152322 18.7204787,13.0423449 18.6863911,13.042331 L16.8952971,13.042331 C16.8785941,13.042815 16.8623836,13.0366404 16.8502351,13.0251669 C16.8380867,13.0136934 16.8309967,12.9978619 16.8305263,12.9811585 L16.8305263,8.48408216 C16.8305263,8.29336798 16.8341246,8.10175421 16.8341246,7.91373882 C16.8341246,7.81658254 16.8341246,7.72302464 16.8305263,7.62856714 C16.8305263,7.3559898 16.8125344,7.08341246 16.7765506,6.81173472 C16.6416113,5.83477435 16.2430906,5.12589335 14.8262282,5.14478485 C14.4162344,5.15800778 14.0149362,5.26641681 13.6540557,5.46144235 C13.2339447,5.70613224 12.7679544,6.04617922 12.5061722,6.52026588 C12.5478205,6.83281332 12.5691557,7.14773275 12.5700435,7.46304163 L12.5700435,7.47293718 C12.5700435,7.5251137 12.5736419,7.57729022 12.5736419,7.62586836 L12.5736419,13.1098006 C12.5726616,13.1442266 12.5442069,13.171479 12.5097706,13.17098 L10.7618572,13.17098 C10.7274209,13.171479 10.6989662,13.1442266 10.6979859,13.1098006 L10.6979859,8.47868459 C10.6979859,7.45764406 10.7519616,6.39432255 10.2463891,5.73581888 C9.94052676,5.3408966 9.50602229,5.15557999 8.65770403,5.15557999 C8.31135989,5.15557999 7.85976311,5.27792493 7.51341896,5.44345045 C7.27592583,5.55410065 7.05462542,5.69353791 6.85491529,5.85906342 C6.56974362,6.11095007 6.36193713,6.43570393 6.36193713,6.80543755 L6.36193713,12.9838573 C6.3609632,13.017931 6.33305307,13.0450437 6.29896547,13.0450297 L4.51506822,13.0450297 C4.48098061,13.0450437 4.45307049,13.017931 4.45209656,12.9838573 L4.45209656,3.86915888 C4.45307049,3.83508518 4.48098061,3.80797249 4.51506822,3.80798641 L5.2662302,3.80798641 C5.57029337,3.80798641 5.83747314,3.99870058 5.92293468,4.27757509 L6.03628367,4.64640912 C6.03628367,4.67159778 6.05247639,4.69318807 6.07586586,4.70218402 C6.10015493,4.71117997 6.12714279,4.7057824 6.14513469,4.68958968 C6.93947724,3.9402269 8.07656555,3.58308761 9.17946924,3.58308761 C10.3237543,3.58308761 11.0641211,3.92763257 11.5454046,4.46559048 L11.4950272,4.40081963 C11.6425608,4.56814434 11.771203,4.74896297 11.8782548,4.94147634 C11.8886446,4.96053449 11.9077806,4.97322747 11.9293792,4.97538733 C11.9509777,4.97754718 11.9722482,4.96889485 11.9862062,4.95227148 C12.7103803,4.08326253 14.1398371,3.58398721 15.2904193,3.58398721 C17.9118397,3.58398721 18.7358689,5.36698486 18.7358689,7.11040032 L18.7286721,7.1139987 L18.7295717,7.1139987 Z M48.031186,13.0576241 L46.084462,13.0576241 C46.0643901,13.0576241 46.0454512,13.0483232 46.0331851,13.0324354 C45.2991154,12.0590734 44.7539607,11.1180969 44.5128692,10.8212304 L44.468789,10.7672547 C44.0684692,10.2706782 43.2453396,9.22534859 42.115448,9.02833725 C42.0950629,9.02524635 42.0744095,9.03190872 42.0596731,9.04632915 L41.2275476,9.90454296 C41.2161187,9.91565064 41.2096353,9.93088673 41.2095557,9.94682393 L41.2095557,12.9802589 C41.2080981,13.0143303 41.1797831,13.0410501 41.1456844,13.0405318 L39.3338997,13.0405318 C39.3001487,13.0405628 39.2723745,13.0139789 39.2709281,12.9802589 L39.2709281,0.258183817 C39.271902,0.224110123 39.2998121,0.19701134 39.3338997,0.19701134 L41.1456844,0.19701134 C41.1816682,0.19701134 41.2095557,0.2239992 41.2095557,0.258183817 L41.2095557,7.58448698 C41.2104553,7.60877605 41.2257484,7.62946674 41.2491379,7.63846269 C41.2725274,7.64745864 41.2986156,7.64386026 41.3175071,7.62766755 L45.3027138,3.63256535 C45.3148662,3.6210549 45.3309553,3.61461928 45.3476935,3.61457344 L47.4851317,3.61457344 C47.5103204,3.61547304 47.5319106,3.62986656 47.5418062,3.65235644 C47.5513266,3.67432954 47.546715,3.69987102 47.5301114,3.71712729 L43.4594433,7.77430156 C43.4456015,7.78822773 43.4395398,7.80809652 43.4432505,7.82737768 C43.4468489,7.84536958 43.4594433,7.86246189 43.4774352,7.87055825 C44.6505073,8.40941576 45.4646409,9.41786196 45.8433705,9.88655105 L45.8856515,9.93962717 C46.2095057,10.3390474 47.2890199,11.9070418 48.0869609,12.966765 C48.098113,12.9853083 48.098113,13.0084945 48.0869609,13.0270378 C48.0753395,13.0457471 48.0550072,13.0572688 48.0329852,13.0576241 L48.031186,13.0576241 Z" id="形状" fill="#FFFFFF" fill-rule="nonzero"></path>
                                                    <ellipse id="椭圆形" fill="#FFFFFF" fill-rule="nonzero" cx="1.18656605" cy="1.13348993" rx="1.18656605" ry="1.13348993"></ellipse>
                                                    <path d="M32.6643011,3.34919286 C29.833275,3.34919286 27.9792094,5.15108201 27.9792094,8.22499875 C27.9792094,11.3106102 29.8413714,13.1017042 32.6643011,13.1017042 C35.4863312,13.1017042 37.3475936,11.3097106 37.3475936,8.22589835 C37.3475936,5.15647958 35.4791344,3.34919286 32.6643011,3.34919286 Z M32.6643011,11.5741916 C30.7517617,11.5741916 29.8341746,10.3210555 29.8341746,8.13324004 C29.8341746,5.95801889 30.7517617,4.87490629 32.6643011,4.87490629 C34.5768404,4.87490629 35.4881303,6.04797841 35.4881303,8.22319956 C35.4881303,10.3993203 34.5705433,11.5741916 32.6643011,11.5741916 L32.6643011,11.5741916 Z M53.6518567,11.695637 C52.6281173,11.833275 51.6106752,11.4077665 51.0214404,10.5963317 C50.706582,10.1915138 50.5401569,9.72192513 50.4277075,9.10570243 C50.425332,9.08974296 50.4295541,9.07350398 50.4394023,9.06072267 C50.4495779,9.04762716 50.464389,9.03893367 50.4807836,9.0364336 L55.6516568,8.33924734 C57.0694188,8.13953721 57.662252,6.91518817 57.1269929,5.73401969 C56.6386655,4.7485316 55.7952666,3.98452275 54.7664551,3.59568194 C53.3630866,3.05232645 51.4748363,3.36988355 50.4681893,4.17142286 C49.1250937,5.24194113 48.6663002,6.52926183 48.5952321,7.8975461 C48.5862362,8.05047729 48.5826378,8.20340847 48.5826378,8.35633965 C48.5826378,8.67299715 48.6096257,8.98875506 48.6654006,9.30091459 C49.0198411,11.3519916 50.526663,13.2357439 53.0509271,13.2447763 C55.9080414,13.2537358 57.2574342,11.5948823 57.4886301,10.3516418 C57.4912657,10.3326469 57.4845645,10.3135486 57.4706382,10.3003648 C57.4563131,10.2864804 57.4364533,10.2798604 57.4166625,10.2823729 L55.635464,10.5459543 C55.6168858,10.54949 55.600602,10.560563 55.5904843,10.5765406 C55.1011045,11.2557349 54.5316608,11.5660953 53.6518567,11.695637 L53.6518567,11.695637 Z M50.980059,5.88065371 C51.4805808,5.26859169 52.213269,4.89246969 53.0023489,4.84252087 C53.8074866,4.77775001 54.4596931,4.88660103 55.0318357,5.42725773 C55.2369434,5.6197711 55.4105652,5.84107152 55.5482033,6.08216303 C55.7551102,6.43840272 55.535609,6.95656954 55.0669199,7.0204408 L50.3566395,7.65195662 C50.3371284,7.65494513 50.3173079,7.64899897 50.3026638,7.63576391 C50.2892825,7.62297714 50.2826295,7.60468155 50.2846719,7.58628617 C50.3656355,6.8899995 50.5833375,6.37723025 50.980059,5.88065371 L50.980059,5.88065371 Z M67.4804338,7.28582138 L67.4804338,12.9793593 C67.4794599,13.013433 67.4515497,13.0405582 67.4174621,13.0405582 L65.6416613,13.0405582 C65.6249582,13.0410158 65.6087477,13.0348413 65.5965993,13.0233678 C65.5844509,13.0118943 65.5773608,12.9960627 65.5768904,12.9793593 L65.5768904,8.24658903 C65.5768904,8.24658903 65.5993803,7.44774851 65.5319106,6.7028837 C65.4833325,6.17931931 65.3016143,5.67194762 64.8842021,5.34179619 C64.2904693,4.87040832 63.4502474,4.97476136 63.4502474,4.97476136 C62.4076166,5.08271278 61.508921,5.70793143 60.9475736,6.33854765 L60.9151882,6.37543106 L60.9475736,6.36193713 L60.9475736,12.9775601 C60.9465933,13.0119861 60.9181386,13.0392385 60.8837023,13.0387326 L59.1025039,13.0387326 C59.0858009,13.0392166 59.0695903,13.0330421 59.0574419,13.0215686 C59.0452935,13.0100951 59.0382034,12.9942635 59.037733,12.9775601 L59.037733,3.68744065 C59.0387133,3.65301461 59.067168,3.62576223 59.1016043,3.62626818 L60.5634464,3.62626818 C60.5994303,3.62626818 60.6282173,3.65325603 60.6282173,3.68744065 L60.6282173,4.59783098 C60.6282173,4.62212005 60.64441,4.64281074 60.6686991,4.65180669 C60.6920886,4.66080264 60.7181768,4.65630466 60.7361687,4.63921235 C61.4909291,3.85566495 62.6307162,3.38427708 63.8253786,3.38427708 C64.8149333,3.38607627 67.4795342,3.42565845 67.4795342,7.28582138 L67.4804338,7.28582138 Z" id="形状" fill="#FFFFFF" fill-rule="nonzero"></path>
                                                </g>
                                            </g>
                                        </g>
                                    </g>
                                </g>
                            </g>
                        </g>
                    </g>
                </g>
            </g>
        </g>
    </g>
</svg>