<?xml version="1.0" encoding="UTF-8"?>
<svg width="154px" height="35px" viewBox="0 0 154 35" version="1.1" xmlns="http://www.w3.org/2000/svg" xmlns:xlink="http://www.w3.org/1999/xlink">
    <title>BitKeep</title>
    <defs>
        <rect id="path-1" x="0" y="0" width="153" height="34"></rect>
        <polygon id="path-3" points="0.401751574 0.471467839 8.13262296 0.471467839 8.13262296 11.7674704 0.401751574 11.7674704"></polygon>
        <polygon id="path-5" points="6.25586382e-05 0.548496034 22.2377817 0.548496034 22.2377817 25.7598052 6.25586382e-05 25.7598052"></polygon>
    </defs>
    <g id="首页" stroke="none" stroke-width="1" fill="none" fill-rule="evenodd">
        <g id="鼠标经过" transform="translate(-972.000000, -1507.000000)">
            <g id="编组-32" transform="translate(0.000000, 878.000000)">
                <g id="编组-9备份" transform="translate(420.000000, 130.000000)">
                    <g id="编组-16" transform="translate(0.000000, 286.000000)">
                        <g id="编组-14" transform="translate(0.000000, 120.000000)">
                            <g id="编组-27" transform="translate(0.000000, 79.879050)">
                                <g id="BitKeep" transform="translate(548.799116, 0.400505)">
                                    <g transform="translate(4.000000, 13.000000)">
                                        <mask id="mask-2" fill="white">
                                            <use xlink:href="#path-1"></use>
                                        </mask>
                                        <g id="矩形"></g>
                                        <g id="编组-23" mask="url(#mask-2)">
                                            <g transform="translate(37.396650, 4.298516)">
                                                <path d="M33.2093782,12.0571114 C34.1264878,11.7272599 34.8240166,11.0260897 34.8240166,9.87192335 C34.8240166,8.52487238 33.7567663,7.41217309 31.7455061,7.41217309 L28.1827916,7.41217309 C28.1477588,7.41217309 28.1189818,7.44044608 28.1189818,7.47563025 L28.1189818,16.8999607 C28.1189818,16.9351449 28.1477588,16.9634179 28.1827916,16.9634179 L31.9231726,16.9634179 C33.8662439,16.9634179 35.0435975,15.8500903 35.0435975,14.3930888 C35.0435975,13.2527448 34.2222025,12.2361737 33.2093782,12.0571114 L33.2093782,12.0571114 Z M29.6791942,8.69011231 L31.6085026,8.69011231 C32.621327,8.69011231 33.236904,9.19902615 33.236904,10.064808 C33.236904,10.9444122 32.621327,11.425053 31.6085026,11.425053 L29.6791942,11.425053 L29.6791942,8.69011231 Z M31.7867948,15.6854787 L29.6791942,15.6854787 L29.6791942,12.7029922 L31.7317432,12.7029922 C32.7714677,12.7029922 33.483385,13.2803895 33.483385,14.2291055 C33.483385,15.1489201 32.8402822,15.6854787 31.7867948,15.6854787 L31.7867948,15.6854787 Z" id="Fill-1" fill="#4C63DB"></path>
                                                <polygon id="Fill-3" fill="#4C63DB" points="36.739437 16.9631666 38.2990239 16.9631666 38.2990239 9.39103118 36.739437 9.39103118"></polygon>
                                                <path d="M37.5328682,6.38133983 C36.9723428,6.38133983 36.5338068,6.82114191 36.5338068,7.38471688 C36.5338068,7.94829184 36.9723428,8.38809393 37.5328682,8.38809393 C38.0802563,8.38809393 38.5181668,7.94829184 38.5181668,7.38471688 C38.5181668,6.82114191 38.0802563,6.38133983 37.5328682,6.38133983" id="Fill-5" fill="#4C63DB"></path>
                                                <path d="M42.1080942,7.50842692 L40.6611129,7.50842692 C40.6260801,7.50842692 40.5979287,7.53669991 40.5979287,7.57188408 L40.5979287,9.3273227 C40.5979287,9.36250687 40.5691517,9.39140815 40.5341189,9.39140815 L39.7715291,9.39140815 C39.7364963,9.39140815 39.7083449,9.41968114 39.7083449,9.45486531 L39.7083449,10.6052619 C39.7083449,10.6404461 39.7364963,10.6693474 39.7715291,10.6693474 L40.5341189,10.6693474 C40.5691517,10.6693474 40.5979287,10.6976204 40.5979287,10.7328045 L40.5979287,14.8606613 C40.5979287,16.3993403 41.4324609,16.9635435 42.7730926,16.9635435 L43.9416879,16.9635435 C43.9760952,16.9635435 44.0042466,16.9346423 44.0042466,16.8994581 L44.0042466,15.7214168 C44.0042466,15.6868609 43.9760952,15.6579596 43.9416879,15.6579596 L43.0470994,15.6579596 C42.3902337,15.6579596 42.1712785,15.4248645 42.1712785,14.8606613 L42.1712785,10.7328045 C42.1712785,10.6976204 42.1994298,10.6693474 42.2344627,10.6693474 L43.9416879,10.6693474 C43.9760952,10.6693474 44.0042466,10.6404461 44.0042466,10.6052619 L44.0042466,9.45486531 C44.0042466,9.41968114 43.9760952,9.39140815 43.9416879,9.39140815 L42.2344627,9.39140815 C42.1994298,9.39140815 42.1712785,9.36250687 42.1712785,9.3273227 L42.1712785,7.57188408 C42.1712785,7.53669991 42.1431271,7.50842692 42.1080942,7.50842692" id="Fill-7" fill="#4C63DB"></path>
                                                <path d="M52.5133474,7.41179612 L50.7254215,7.41179612 C50.7060283,7.41179612 50.6885119,7.41996387 50.6766258,7.43441451 L47.0006802,11.7689782 L47.0006802,7.47588157 C47.0006802,7.44006911 46.9731544,7.41179612 46.937496,7.41179612 L45.5049032,7.41179612 C45.4692447,7.41179612 45.4410934,7.44006911 45.4410934,7.47588157 L45.4410934,16.8995838 C45.4410934,16.9347679 45.4692447,16.9636692 45.5049032,16.9636692 L46.937496,16.9636692 C46.9731544,16.9636692 47.0006802,16.9347679 47.0006802,16.8995838 L47.0006802,12.6887929 L50.6628629,16.9410508 C50.6753746,16.9548732 50.692891,16.9636692 50.711033,16.9636692 L52.5796596,16.9636692 C52.6347112,16.9636692 52.6634881,16.8983272 52.6284553,16.8574884 L48.5202295,12.1943297 L52.5615176,7.51734862 C52.597176,7.47650986 52.5677734,7.41179612 52.5133474,7.41179612" id="Fill-9" fill="#4C63DB"></path>
                                                <path d="M56.2003033,9.26750962 C53.9700879,9.26750962 52.4374012,10.7929946 52.4374012,13.1698107 C52.4374012,15.5478835 54.0382768,17.0871908 56.2003033,17.0871908 C58.0076224,17.0871908 59.1862271,16.0737611 59.634147,14.7945653 C59.6485354,14.7530982 59.6166305,14.709118 59.5734651,14.709118 L58.0176317,14.709118 C57.9938595,14.709118 57.9732151,14.7229404 57.9619546,14.7443022 C57.6710569,15.3185581 57.1393085,15.7677845 56.2003033,15.7677845 C55.0511011,15.7677845 54.1615173,15.0119532 54.0520397,13.7610304 L59.7580131,13.7610304 C59.7886668,13.7610304 59.8161926,13.7371554 59.8211973,13.7063693 C59.8556045,13.4644781 59.8674907,13.2338962 59.8674907,12.9913767 C59.8674907,10.7653499 58.3491925,9.26750962 56.2003033,9.26750962 L56.2003033,9.26750962 Z M54.0658026,12.4969135 C54.2303318,11.3012801 55.0780013,10.5862876 56.13274,10.5862876 C57.2950795,10.5862876 58.2121891,11.3289248 58.2397149,12.4969135 L54.0658026,12.4969135 Z" id="Fill-11" fill="#4C63DB"></path>
                                                <path d="M64.6426541,9.26750962 C62.4124386,9.26750962 60.8791264,10.7929946 60.8791264,13.1698107 C60.8791264,15.5478835 62.4806275,17.0871908 64.6426541,17.0871908 C66.4499731,17.0871908 67.6285779,16.0737611 68.0758721,14.7945653 C68.0902606,14.7530982 68.0589813,14.709118 68.0151903,14.709118 L66.4599825,14.709118 C66.4362102,14.709118 66.4149403,14.7229404 66.4036797,14.7443022 C66.1127821,15.3185581 65.5816592,15.7677845 64.6426541,15.7677845 C63.4928263,15.7677845 62.6038681,15.0119532 62.4937649,13.7610304 L68.1997382,13.7610304 C68.2310176,13.7610304 68.2585434,13.7371554 68.2635481,13.7063693 C68.2979553,13.4644781 68.3092159,13.2338962 68.3092159,12.9913767 C68.3092159,10.7653499 66.7909177,9.26750962 64.6426541,9.26750962 L64.6426541,9.26750962 Z M62.5081533,12.4969135 C62.672057,11.3012801 63.5203521,10.5862876 64.5744652,10.5862876 C65.7368047,10.5862876 66.6539143,11.3289248 66.6814401,12.4969135 L62.5081533,12.4969135 Z" id="Fill-13" fill="#4C63DB"></path>
                                                <g id="编组" stroke-width="1" fill="none" transform="translate(69.440088, 8.796042)">
                                                    <mask id="mask-4" fill="white">
                                                        <use xlink:href="#path-3"></use>
                                                    </mask>
                                                    <g id="Clip-16"></g>
                                                    <path d="M4.58880123,0.471467839 C3.35702164,0.471467839 2.43991201,1.07588157 1.96133842,1.70794 L1.96133842,0.658697872 C1.96133842,0.623513705 1.93318704,0.594612424 1.89752861,0.594612424 L0.464935799,0.594612424 C0.429902961,0.594612424 0.401751574,0.623513705 0.401751574,0.658697872 L0.401751574,11.7040132 C0.401751574,11.7391974 0.429902961,11.7674704 0.464935799,11.7674704 L1.89752861,11.7674704 C1.93318704,11.7674704 1.96133842,11.7391974 1.96133842,11.7040132 L1.96133842,7.06787089 C2.45430049,7.65846226 3.34388433,8.29052069 4.58880123,8.29052069 C6.57316123,8.29052069 8.13274808,6.6833582 8.13274808,4.34675253 C8.13274808,2.01077515 6.57316123,0.471467839 4.58880123,0.471467839 M4.24660548,6.93027566 C3.08364039,6.93027566 1.96133842,6.00920443 1.96133842,4.37376895 C1.96133842,2.75215582 3.08364039,1.83234116 4.24660548,1.83234116 C5.42333346,1.83234116 6.54563543,2.71131705 6.54563543,4.34675253 C6.54563543,5.98218802 5.42333346,6.93027566 4.24660548,6.93027566" id="Fill-15" fill="#4C63DB" mask="url(#mask-4)"></path>
                                                </g>
                                                <path d="M10.9647151,16.0419069 C11.0604298,16.0971963 11.17804,16.0971963 11.2737547,16.0419069 L13.5302448,14.7331815 C13.6259595,14.6778921 13.6853902,14.575481 13.6853902,14.4642739 L13.6853902,11.8474515 C13.6853902,11.7362444 13.6259595,11.6338333 13.5302448,11.5785439 L11.2737547,10.2698186 C11.17804,10.2145292 11.0604298,10.2145292 10.9647151,10.2698186 L8.70822499,11.5785439 C8.61251028,11.6338333 8.55307957,11.7362444 8.55307957,11.8474515 L8.55307957,14.4642739 C8.55307957,14.575481 8.61251028,14.6778921 8.70822499,14.7331815 L10.9647151,16.0419069 Z" id="Fill-17" fill="#4C63DB"></path>
                                                <g id="编组" stroke-width="1" fill="none" transform="translate(0.000000, 0.000000)">
                                                    <mask id="mask-6" fill="white">
                                                        <use xlink:href="#path-5"></use>
                                                    </mask>
                                                    <g id="Clip-20"></g>
                                                    <path d="M21.3112882,6.17054897 L12.0469795,0.798052305 C11.4733168,0.465059295 10.7664042,0.465059295 10.1921159,0.798052305 L8.55307957,1.74865311 L8.55307957,1.81273855 L8.55307957,4.22788031 L8.55307957,6.7077358 L8.55245398,6.7077358 L8.55307957,9.18821959 L10.9647151,7.78964894 C11.0604298,7.73435954 11.17804,7.73435954 11.2737547,7.78964894 L15.6691247,10.3379879 C15.7648394,10.3939056 15.8236445,10.4963167 15.8236445,10.6068955 L15.8236445,15.7042017 C15.8236445,15.8154088 15.7648394,15.9171915 15.6691247,15.9731092 L11.2737547,18.5214482 C11.17804,18.5773659 11.0604298,18.5773659 10.9647151,18.5214482 L6.56997074,15.9731092 C6.47425602,15.9171915 6.41482532,15.8154088 6.41482532,15.7042017 L6.41482532,2.988895 L0.927807163,6.17054897 C0.353518864,6.50354198 6.25586382e-05,7.11800832 6.25586382e-05,7.78399435 L6.25586382e-05,18.5271028 C6.25586382e-05,19.1930888 0.353518864,19.8081835 0.927807163,20.1405482 L10.1927415,25.5105317 C10.7664042,25.8428964 11.4726912,25.8428964 12.0463539,25.5105317 L21.3106627,20.1405482 C21.8849509,19.8081835 22.2377817,19.1930888 22.2377817,18.5271028 L22.2377817,7.78336606 C22.2377817,7.11800832 21.8849509,6.50354198 21.3112882,6.17054897 L21.3112882,6.17054897 Z M11.4282746,23.3913139 C11.2368451,23.5018927 11.0016247,23.5018927 10.8101952,23.3913139 L2.44798207,18.5421817 C2.25655264,18.4309746 2.13831681,18.2261525 2.13831681,18.0043666 L2.13831681,8.30673054 C2.13831681,8.08494463 2.25655264,7.88012252 2.44798207,7.76891542 L4.27719665,6.70836409 L4.27719665,16.5856907 C4.27719665,16.9180554 4.45361201,17.2259169 4.74013057,17.3924134 L13.2568636,22.3307626 L11.4282746,23.3913139 Z M20.100153,18.0037383 C20.100153,18.2255242 19.9825428,18.4303463 19.7911133,18.5415534 L15.6272104,20.9566952 C15.4833255,21.0402576 15.3069101,21.0402576 15.1636509,20.9566952 L13.2568636,19.8509071 L17.4983392,17.3924134 C17.7848578,17.2259169 17.9618987,16.9180554 17.9618987,16.5856907 L17.9618987,9.72603471 C17.9618987,9.3930417 17.7848578,9.08580853 17.4983392,8.91931202 L11.547136,5.4681222 C11.2831385,5.31481976 10.9565824,5.31481976 10.6919594,5.46749391 L10.6919594,2.98826671 L10.8101952,2.91978324 C11.0016247,2.80857614 11.2368451,2.80857614 11.4282746,2.91978324 L19.7911133,7.76891542 C19.9825428,7.88012252 20.100153,8.08494463 20.100153,8.30673054 L20.100153,18.0037383 Z" id="Fill-19" fill="#4C63DB" mask="url(#mask-6)"></path>
                                                </g>
                                                <polygon id="Fill-21" fill="#4C63DB" points="28.1227979 18.6121103 28.4531075 18.6121103 28.9010273 20.2544569 29.3846056 18.6121103 29.7149152 18.6121103 30.1872329 20.2575984 30.6282713 18.6121103 30.947946 18.6121103 30.339876 20.567973 30.0064385 20.567973 29.5372487 19.0160999 29.0680589 20.567973 28.7346214 20.567973"></polygon>
                                                <path d="M33.767151,18.5801932 C34.1293655,18.5801932 34.3783489,18.7661667 34.4922056,18.9691039 L34.4922056,18.6122359 L34.8193873,18.6122359 L34.8193873,20.5680986 L34.4922056,20.5680986 L34.4922056,20.2043195 C34.375221,20.4147962 34.1224841,20.6001414 33.7633975,20.6001414 C33.2447864,20.6001414 32.8431599,20.1904971 32.8431599,19.5835703 C32.8431599,18.9728736 33.2447864,18.5801932 33.767151,18.5801932 M33.8315864,18.8622948 C33.4756278,18.8622948 33.1734695,19.1230346 33.1734695,19.5835703 C33.1734695,20.0434776 33.4756278,20.3148983 33.8315864,20.3148983 C34.1862939,20.3148983 34.4922056,20.0472473 34.4922056,19.5867117 C34.4922056,19.1330873 34.1862939,18.8622948 33.8315864,18.8622948" id="Fill-23" fill="#4C63DB"></path>
                                                <polygon id="Fill-25" fill="#4C63DB" points="37.0622396 20.5682871 37.3856678 20.5682871 37.3856678 17.9269614 37.0622396 17.9269614"></polygon>
                                                <polygon id="Fill-27" fill="#4C63DB" points="39.6321485 20.5682871 39.9555766 20.5682871 39.9555766 17.9269614 39.6321485 17.9269614"></polygon>
                                                <path d="M43.044034,20.600644 C42.4891389,20.600644 42.0812566,20.2073353 42.0812566,19.586586 C42.0812566,18.9689782 42.4760016,18.5800675 43.044034,18.5800675 C43.6089385,18.5800675 43.9786601,18.9802874 43.9786601,19.5149611 C43.9786601,19.586586 43.9749066,19.6437603 43.9686507,19.7116155 L42.4115662,19.7116155 C42.4359641,20.1080657 42.7137244,20.3260818 43.044034,20.3260818 C43.3355573,20.3260818 43.5201053,20.1752925 43.5914221,19.9648158 L43.9398737,19.9648158 C43.8397799,20.3216838 43.5269867,20.600644 43.044034,20.600644 M42.4153197,19.4471059 L43.6445969,19.4471059 C43.6483505,19.0657347 43.3643342,18.855258 43.0302711,18.855258 C42.7137244,18.855258 42.4503525,19.0657347 42.4153197,19.4471059" id="Fill-29" fill="#4C63DB"></path>
                                                <path d="M46.1719659,18.8802011 L45.9198546,18.8802011 L45.9198546,18.6119218 L46.1719659,18.6119218 L46.1719659,18.1199717 L46.4960197,18.1199717 L46.4960197,18.6119218 L47.0033702,18.6119218 L47.0033702,18.8802011 L46.4960197,18.8802011 L46.4960197,20.0331108 C46.4960197,20.2259954 46.5667109,20.2932223 46.7656474,20.2932223 L47.0033702,20.2932223 L47.0033702,20.5684128 L46.7124726,20.5684128 C46.3671489,20.5684128 46.1719659,20.425163 46.1719659,20.0331108 L46.1719659,18.8802011 Z" id="Fill-31" fill="#4C63DB"></path>
                                            </g>
                                        </g>
                                    </g>
                                </g>
                            </g>
                        </g>
                    </g>
                </g>
            </g>
        </g>
    </g>
</svg>