<?xml version="1.0" encoding="UTF-8"?>
<svg width="154px" height="35px" viewBox="0 0 154 35" version="1.1" xmlns="http://www.w3.org/2000/svg" xmlns:xlink="http://www.w3.org/1999/xlink">
    <title>coinmarketcap</title>
    <defs>
        <rect id="path-1" x="0" y="0" width="153.15185" height="34"></rect>
    </defs>
    <g id="首页" stroke="none" stroke-width="1" fill="none" fill-rule="evenodd">
        <g id="中文-跨链Curve" transform="translate(-424.000000, -3148.000000)">
            <g id="编组-32" transform="translate(0.000000, 2600.000000)">
                <g id="编组-9" transform="translate(420.000000, 120.000000)">
                    <g id="编组-16" transform="translate(0.000000, 286.120950)">
                        <g id="编组-14" transform="translate(0.000000, 130.000000)">
                            <g id="coinmarketcap" transform="translate(0.000000, 0.005129)">
                                <g transform="translate(4.285310, 12.843321)">
                                    <mask id="mask-2" fill="white">
                                        <use xlink:href="#path-1"></use>
                                    </mask>
                                    <g id="矩形"></g>
                                    <path d="M29.5233474,18.9293617 C29.1256213,19.1833324 28.6572501,19.2147978 28.3012436,19.0119583 C27.849004,18.7540544 27.6003556,18.1500312 27.6003556,17.3100174 L27.6003556,14.7967186 C27.6003556,13.5830532 27.1253093,12.7194404 26.3309697,12.4862593 C24.9848198,12.0901324 23.9724261,13.7538654 23.5919441,14.3786783 L21.2178252,18.2669026 L21.2178252,13.5145036 C21.1911247,12.421081 20.8395682,11.7670502 20.1720559,11.5698295 C19.7303853,11.4394729 19.0695481,11.4917279 18.4276237,12.4840118 L13.108663,21.11115 C12.3965811,19.7456586 12.025373,18.2251817 12.0272856,16.6818331 C12.0272856,11.4849853 16.1502941,7.25738418 21.2178252,7.25738418 C26.2853563,7.25738418 30.4078012,11.4849853 30.4078012,16.6818331 C30.4078012,16.6908233 30.4100263,16.6986896 30.4105825,16.7071178 C30.4105825,16.716108 30.4089137,16.7239743 30.40947,16.7329644 C30.4573084,17.7392953 30.1346774,18.5399774 29.5233474,18.9299236 L29.5233474,18.9293617 Z M32.498531,16.7036968 L32.498531,16.7031336 L32.498531,16.6772282 L32.4979723,16.6513228 C32.4694817,10.3078749 27.4210559,5.15832875 21.2179222,5.15832875 C14.9985878,5.15832875 9.93787197,10.3371593 9.93787197,16.7031336 C9.93787197,23.0685448 14.9985878,28.2479384 21.2184808,28.2479384 C24.0725703,28.2479384 26.7964969,27.1542794 28.8874848,25.1691361 C29.3031126,24.7749232 29.3276928,24.1109562 28.9422315,23.6863326 C28.7589572,23.4825935 28.5020401,23.361808 28.2294145,23.3512131 C27.9567888,23.3406182 27.69141,23.4411059 27.4931204,23.6300165 C25.7982526,25.2479652 23.552676,26.1494755 21.2184808,26.1490366 C18.493437,26.1490366 16.0415679,24.9331715 14.3505659,23.0049075 L19.1677149,15.2073774 L19.1677149,18.8020354 C19.1677149,20.5286877 19.8319374,21.0867805 20.388901,21.2500972 C20.9464233,21.413414 21.7983487,21.301908 22.6927306,19.8376889 L25.3423581,15.5075423 C25.4272713,15.3678784 25.5054808,15.2473619 25.5769867,15.143177 L25.5769867,17.3327478 C25.5769867,18.9467679 26.2183049,20.2375334 27.3361427,20.8733424 C28.3439285,21.4466405 29.610923,21.3948296 30.643289,20.7381837 C31.8946416,19.9413106 32.5689196,18.4731493 32.498531,16.7036968 L32.498531,16.7036968 Z M48.3048786,12.7973281 C48.5791824,12.9665854 48.8167239,13.3429678 48.8167239,13.6820562 C48.8167239,14.2276958 48.3597394,14.6792399 47.8478941,14.6792399 C47.7200742,14.6792399 47.5922542,14.6419459 47.4825327,14.6040782 C46.8790643,14.1525341 46.1115792,13.8513135 45.3073317,13.8513135 C43.4070001,13.8513135 42.0909073,15.4320046 42.0909073,17.3890781 C42.0909073,19.3467253 43.4070001,20.9084826 45.3073317,20.9084826 C46.2574975,20.9084826 47.0985074,20.5131663 47.7381726,19.9112988 C47.9034286,19.7907922 48.1013678,19.7250608 48.3048786,19.7231077 C48.8167239,19.7231077 49.2188476,20.136784 49.2188476,20.6640635 C49.2188476,21.0025782 49.017503,21.3037988 48.7618631,21.4730561 C47.8478941,22.2636885 46.6053261,22.7903943 45.3259957,22.7903943 C42.4019735,22.7903943 40.0254278,20.343909 40.0254278,17.3328502 C40.0254278,14.3217914 42.4014079,11.8753061 45.3259957,11.8753061 C46.4226454,11.8753061 47.4638687,12.2138207 48.3048786,12.7973281 L48.3048786,12.7973281 Z M53.4711962,14.8139837 C55.4707503,14.8139837 57.1586193,16.4912926 57.1586193,18.5551972 C57.1586193,20.6196638 55.4707503,22.3705832 53.4711962,22.3705832 C51.3796694,22.3705832 49.6367303,20.6196638 49.6367303,18.5551972 C49.6367303,16.4912926 51.3796694,14.8139837 53.4711962,14.8139837 Z M53.4522118,20.6913389 C54.3248038,20.6913389 55.0692057,19.861956 55.0692057,18.7375691 C55.0692057,17.613744 54.3248038,16.9130391 53.4522118,16.9130391 C52.5076535,16.9130391 51.7261439,17.5952009 51.7261439,18.7375691 C51.7261439,19.861956 52.5076535,20.6913389 53.4522118,20.6913389 Z M58.4122675,21.2935374 L58.4122675,15.8910295 C58.4122675,15.3052779 58.8745474,14.8139837 59.4478202,14.8139837 C60.021093,14.8139837 60.5016811,15.3052779 60.5016811,15.8910295 L60.5016811,21.2935374 C60.5016811,21.8792891 60.021093,22.3705832 59.4478202,22.3705832 C58.8745474,22.3705832 58.4122675,21.8792891 58.4122675,21.2935374 L58.4122675,21.2935374 Z M58.4122675,13.1539363 C58.4122675,12.4477229 58.9625205,11.8753061 59.6468096,11.8753061 C60.3493229,11.8753061 60.9195638,12.4477229 60.9195638,13.1539363 C60.9195638,13.840371 60.3493229,14.3941726 59.6468096,14.3941726 C58.9625205,14.3941726 58.4122675,13.840371 58.4122675,13.1539363 Z M64.6118119,18.4148024 L64.6118119,21.3068343 C64.6118119,21.8853544 64.147152,22.3705832 63.592326,22.3705832 C63.0386064,22.3705832 62.5910947,21.8853544 62.5910947,21.3068343 L62.5910947,15.7281252 C62.5910947,15.2804405 62.9489934,14.9072751 63.3782506,14.9072751 C63.8069546,14.9072751 64.147152,15.2804405 64.147152,15.7281252 C64.9691575,14.9448191 65.6838486,14.8139837 66.363137,14.8139837 C68.3833011,14.8139837 69.2772182,16.3811647 69.2772182,18.1537003 L69.2772182,21.3068343 C69.2772182,21.8853544 68.8125583,22.3705832 68.2582855,22.3705832 C67.7040126,22.3705832 67.2570541,21.8853544 67.2570541,21.3068343 L67.2570541,18.4148024 C67.2570541,17.5006609 67.1497398,16.735558 65.8807759,16.735558 C64.9868588,16.735558 64.6112587,17.5006609 64.6112587,18.4148024 L64.6118119,18.4148024 Z M75.9818143,19.5436922 C75.7430918,19.5436922 75.5782596,19.4327122 75.4492358,19.2845511 L73.0244977,16.67962 L73.0244977,21.3171185 C73.0244977,21.8900456 72.5470528,22.3705832 71.9775292,22.3705832 C71.4080056,22.3705832 70.9487491,21.8900456 70.9487491,21.3171185 L70.9487491,12.1345109 C71.0095879,11.976015 71.1641839,11.8723621 71.3352521,11.8753061 C71.5182726,11.8753061 71.6649164,12.023531 71.7757519,12.1345109 L75.6328248,16.4396328 C75.7430918,16.5692034 75.8897356,16.6430022 75.9636259,16.6430022 C76.0369478,16.6430022 76.1835916,16.5692034 76.2938586,16.4401962 L80.1514999,12.1345109 C80.2617669,12.023531 80.4084107,11.8753061 80.5919997,11.8753061 C80.7755886,11.8753061 80.9228008,11.9863499 80.9779343,12.1345109 L80.9779343,21.3171185 C80.9779343,21.8900456 80.5186778,22.3705832 79.9491542,22.3705832 C79.3796306,22.3705832 78.9021857,21.8900456 78.9021857,21.3171185 L78.9021857,16.67962 L76.4780159,19.2845511 C76.3489921,19.4327122 76.1835916,19.5436922 75.9818143,19.5436922 L75.9818143,19.5436922 Z M85.9565438,20.6913389 C86.8831105,20.6913389 87.6640578,19.8700178 87.6640578,18.7565601 C87.6640578,17.6436588 86.8651189,16.9130391 85.9565438,16.9130391 C85.0479686,16.9130391 84.3209961,17.6614652 84.3209961,18.7565601 C84.3209961,19.833292 85.0479686,20.6913389 85.9565438,20.6913389 Z M88.1581429,21.4675898 L88.1206725,21.2276532 C87.7175824,22.0199498 86.4328036,22.3705832 85.6073204,22.3705832 C83.6622686,22.3705832 82.2315825,20.6196638 82.2315825,18.5551972 C82.2315825,16.4912926 83.6991712,14.8139837 85.7174605,14.8139837 C86.0660483,14.8139837 87.2219519,14.9061374 88.1206725,15.9569138 L88.1575752,15.7169771 C88.1575752,15.274752 88.506163,14.9061374 88.9467234,14.9061374 C89.3867162,14.9061374 89.7534714,15.274752 89.7534714,15.7169771 L89.7534714,21.4675898 C89.7534714,21.909815 89.3867162,22.2784296 88.9461557,22.2784296 C88.506163,22.2784296 88.1570074,21.909815 88.1570074,21.4675898 L88.1581429,21.4675898 Z M95.1235171,16.735558 L94.9125938,16.735558 C93.6617699,16.8106462 93.4154202,17.556977 93.4154202,18.4148024 L93.4154202,21.3068343 C93.4154202,21.8853544 92.9576023,22.3705832 92.4114909,22.3705832 C91.8653796,22.3705832 91.4250023,21.8853544 91.4250023,21.3068343 L91.4250023,15.7281252 C91.4250023,15.2804405 91.7770861,14.9072751 92.2000227,14.9072751 C92.6229592,14.9072751 92.9576023,15.2804405 92.9576023,15.7281252 C93.6971963,15.0005664 94.2961747,14.8515278 94.9125938,14.8139837 L95.1060764,14.8139837 C95.58188,14.8139837 96.0217122,15.2428964 96.0217122,15.7844413 C96.0217122,16.2878733 95.5993207,16.735558 95.1235171,16.735558 L95.1235171,16.735558 Z M102.981781,20.8371348 C103.071811,20.9847334 103.125718,21.1509227 103.125718,21.3357027 C103.125718,21.871452 102.640554,22.3705832 102.119821,22.3705832 C101.76081,22.3705832 101.455151,22.0934133 101.221738,21.7976527 L98.8876119,19.0445437 L98.8876119,21.317112 C98.8876119,21.8900426 98.4202309,22.3705832 97.863375,22.3705832 C97.3065191,22.3705832 96.8574777,21.8900426 96.8574777,21.317112 L96.8574777,12.9287773 C96.8574777,12.3552834 97.3065191,11.8753061 97.863375,11.8753061 C98.4202309,11.8753061 98.8870561,12.3552834 98.8870561,12.9287773 L98.8870561,18.1578252 L101.221738,15.5337242 C101.455151,15.2565543 101.742471,14.9793843 102.102037,14.9793843 C102.604986,14.9793843 103.071811,15.4599249 103.071811,15.9956742 C103.071811,16.1618635 103.035688,16.3280528 102.945657,16.4762148 L101.09614,18.5268218 L102.981781,20.8365714 L102.981781,20.8371348 Z M107.086996,16.9130391 C106.530507,16.9130391 105.633015,17.233079 105.633015,18.1724724 L108.558194,18.1724724 C108.558194,17.2129623 107.625158,16.9130391 107.086441,16.9130391 L107.086996,16.9130391 Z M109.839843,19.2188159 L105.636289,19.2188159 C105.636289,20.4538996 106.82919,20.6382069 107.361451,20.6382069 C107.747723,20.6382069 108.298162,20.5645964 108.720221,20.3797272 C108.8486,20.2881354 109.069002,20.213963 109.252482,20.213963 C109.711465,20.213963 110.096601,20.6016826 110.096601,21.0624509 C110.096601,21.3754362 109.894944,21.6518971 109.638186,21.7991182 C108.995724,22.2598865 108.169215,22.3705832 107.380196,22.3705832 C105.287508,22.3705832 103.543601,21.2467582 103.543601,18.6473509 C103.543601,16.6019893 104.608123,14.8139837 107.086516,14.8139837 C109.08718,14.8139837 110.610684,16.1041348 110.647607,18.4079762 C110.647607,18.8502013 110.280649,19.2188159 109.839843,19.2188159 L109.839843,19.2188159 Z M115.583779,22.3705832 L115.016587,22.3705832 C113.442941,22.3705832 112.528755,21.692676 112.528755,19.2569006 L112.528755,16.7474153 L111.998357,16.7474153 C111.504186,16.7474153 111.06549,16.3079483 111.06549,15.8137573 C111.06549,15.2821529 111.504186,14.8611133 111.998357,14.8611133 L112.528755,14.8611133 L112.528755,12.9195289 C112.528755,12.3516281 112.986131,11.8753061 113.553323,11.8753061 C114.119949,11.8753061 114.596005,12.3516281 114.596005,12.9195289 L114.596005,14.8611133 L115.455283,14.8611133 C115.949454,14.8611133 116.388716,15.2821529 116.388716,15.8137573 C116.388716,16.3079483 115.949454,16.7474153 115.455283,16.7474153 L114.596005,16.7474153 L114.596005,18.8537301 C114.596005,20.245841 114.669026,20.5390052 115.291126,20.5390052 L115.583779,20.5390052 C116.077383,20.5390052 116.497966,20.9421757 116.497966,21.4547942 C116.497966,21.9495437 116.077383,22.3705832 115.583779,22.3705832 Z M125.613691,12.7973281 C125.887446,12.9665854 126.125568,13.3429678 126.125568,13.6820562 C126.125568,14.2276958 125.668555,14.6792399 125.156679,14.6792399 C125.028851,14.6792399 124.900457,14.6419459 124.791295,14.6040782 C124.187789,14.1525341 123.420257,13.8513135 122.61596,13.8513135 C120.715511,13.8513135 119.398772,15.4320046 119.398772,17.3890781 C119.398772,19.3467253 120.714946,20.9084826 122.61596,20.9084826 C123.566184,20.9084826 124.407246,20.5131663 125.04695,19.9112988 C125.212216,19.7907922 125.410168,19.7250608 125.613691,19.7231077 C126.125568,19.7231077 126.527151,20.136784 126.527151,20.6640635 C126.527151,21.0025782 126.326359,21.3037988 126.070704,21.4730561 C125.156679,22.2636885 123.913468,22.7903943 122.634059,22.7903943 C119.709857,22.7903943 117.333731,20.343909 117.333731,17.3328502 C117.333731,14.3217914 119.709292,11.8753061 122.634059,11.8753061 C123.731342,11.8753061 124.77263,12.2138207 125.613691,12.7973281 L125.613691,12.7973281 Z M130.669995,20.6913389 C131.596562,20.6913389 132.377509,19.8700178 132.377509,18.7565601 C132.377509,17.6436588 131.578008,16.9130391 130.669433,16.9130391 C129.76142,16.9130391 129.034447,17.6614652 129.034447,18.7565601 C129.034447,19.833292 129.76142,20.6913389 130.669433,20.6913389 L130.669995,20.6913389 Z M132.870579,21.4675898 L132.834247,21.2276532 C132.430619,22.0199498 131.146505,22.3705832 130.320517,22.3705832 C128.376179,22.3705832 126.945034,20.6196638 126.945034,18.5551972 C126.945034,16.4912926 128.413079,14.8139837 130.430648,14.8139837 C130.77921,14.8139837 131.935026,14.9061374 132.834247,15.9569138 L132.870579,15.7169771 C132.870579,15.274752 133.21914,14.9061374 133.659668,14.9061374 C134.099627,14.9061374 134.466922,15.274752 134.466922,15.7169771 L134.466922,21.4675898 C134.466922,21.909815 134.099627,22.2784296 133.659668,22.2784296 C133.21914,22.2784296 132.870579,21.909815 132.870579,21.4675898 Z M139.935943,20.6913389 C140.844518,20.6913389 141.570929,19.833292 141.570929,18.7565601 C141.570929,17.6614652 140.844518,16.9130391 139.935943,16.9130391 C139.027368,16.9130391 138.227867,17.6431024 138.227867,18.7565601 C138.227867,19.8700178 139.009376,20.6913389 139.935943,20.6913389 Z M138.211656,22.1032489 L138.211656,24.6902656 C138.211656,25.2552207 137.734797,25.7290719 137.165972,25.7290719 C136.597714,25.7290719 136.138453,25.2552207 136.138453,24.6902656 L136.138453,16.1265016 C136.138453,15.6893142 136.505749,15.3248987 136.946276,15.3248987 C137.386235,15.3248987 137.735365,15.6893142 137.735365,16.1992736 C138.505152,15.4160025 139.459438,15.2337948 140.174727,15.2337948 C142.192864,15.2337948 143.660342,16.8919964 143.660342,18.9323898 C143.660342,20.9733387 142.229764,22.7043123 140.284859,22.7043123 C139.679702,22.7043123 138.780481,22.5221045 138.211656,22.1032489 L138.211656,22.1032489 Z" id="形状" fill="#616161" mask="url(#mask-2)"></path>
                                </g>
                            </g>
                        </g>
                    </g>
                </g>
            </g>
        </g>
    </g>
</svg>