<?xml version="1.0" encoding="UTF-8"?>
<svg width="154px" height="35px" viewBox="0 0 154 35" version="1.1" xmlns="http://www.w3.org/2000/svg" xmlns:xlink="http://www.w3.org/1999/xlink">
    <title>HyperPay</title>
    <defs>
        <rect id="path-1" x="0" y="0" width="153" height="34"></rect>
    </defs>
    <g id="首页" stroke="none" stroke-width="1" fill="none" fill-rule="evenodd">
        <g id="中文-跨链Curve" transform="translate(-610.000000, -3309.000000)">
            <g id="编组-32" transform="translate(0.000000, 2600.000000)">
                <g id="编组-9" transform="translate(420.000000, 120.000000)">
                    <g id="编组-16" transform="translate(0.000000, 286.120950)">
                        <g id="编组-14" transform="translate(0.000000, 130.000000)">
                            <g id="编组-49" transform="translate(5.000000, 160.279555)">
                                <g id="HyperPay" transform="translate(181.000000, 0.000000)">
                                    <g transform="translate(4.349265, 12.935484)">
                                        <mask id="mask-2" fill="white">
                                            <use xlink:href="#path-1"></use>
                                        </mask>
                                        <g id="矩形"></g>
                                        <g id="HyperPay-Logo" mask="url(#mask-2)">
                                            <g transform="translate(14.387149, 5.654985)" id="编组">
                                                <g>
                                                    <ellipse id="椭圆形" fill="#616161" fill-rule="nonzero" cx="11.7151931" cy="11.5757265" rx="11.7151931" ry="11.5757265"></ellipse>
                                                    <path d="M6.16245816,6.81765738 L4.78420014,8.19912269 L6.59351827,9.54696206 L10.6006758,9.54976423 L9.37839352,11.1077657 L9.97677303,12.455605 L13.1870365,12.4668137 C13.1870365,12.4668137 13.1955443,12.158576 13.3855511,10.9312295 C13.6889947,8.97532125 17.089265,8.86043265 17.0580699,11.0545246 C17.0325466,12.6685693 15.7762332,12.8619184 14.9623236,12.8871378 C14.1484141,12.9123573 4.29074974,12.8815335 4.29074974,12.8815335 L2.7792034,14.2125599 L4.0780556,15.5603993 L9.04942659,15.5603993 L7.61161421,17.4770773 L8.69493636,18.8249167 L11.8343018,18.8249167 L12.6964221,15.4847409 C12.6964221,15.4847409 14.6191771,15.4455107 15.4103993,15.4455107 C16.8141806,15.4455107 20.537746,14.5404127 20.537746,10.6930459 C20.537746,7.2099599 16.6922359,6.84567899 15.2629313,6.84567899 C13.8279549,6.84007467 6.16245816,6.81765738 6.16245816,6.81765738 Z" id="路径" fill="#444444" fill-rule="nonzero"></path>
                                                    <path d="M5.56407865,5.46981801 L4.78703606,8.19912269 L10.0022963,8.20192485 L9.37839352,11.1077657 L12.588657,11.1189743 C12.588657,11.1189743 12.5971648,10.8107366 12.7871716,9.58339016 C13.0906152,7.62748187 16.4908855,7.51259328 16.4596904,9.70668523 C16.4341671,11.3207299 15.1778537,11.514079 14.3639441,11.5392984 C13.5500345,11.5645179 3.69237023,11.5336941 3.69237023,11.5336941 L2.7792034,14.2125599 L8.44821116,14.2125599 L7.61161421,17.4770773 L11.2359223,17.4770773 L12.0980426,14.1369016 C12.0980426,14.1369016 14.0207976,14.0976713 14.8120198,14.0976713 C16.2158011,14.0976713 19.9393664,13.1925733 19.9393664,9.34520648 C19.9393664,5.86212053 16.0938564,5.49783962 14.6645518,5.49783962 C13.2267395,5.49223529 5.56407865,5.46981801 5.56407865,5.46981801 Z" id="路径" fill="#FFFFFF" fill-rule="nonzero"></path>
                                                </g>
                                                <g transform="translate(25.320979, 5.767841)">
                                                    <polygon id="路径" fill="#616161" fill-rule="nonzero" points="3.83793514 0 8.01179457 0 6.51413206 5.31506641 11.1274925 5.31506641 12.6167569 0 16.6786415 0 12.784719 13.9544653 8.96637946 13.9544653 10.2764842 8.54552236 5.55954718 8.54552236 3.98910107 13.9544653 0 13.9544653"></polygon>
                                                    <path d="M16.6786415,3.29396064 L20.5893603,3.29396064 L20.7825167,9.56435847 L24.4356935,3.29396064 L28.3940015,3.29396064 L22.0674272,13.1399486 C22.0674272,13.1399486 20.0126902,16.8232206 16.9109892,16.9474689 C15.4805115,16.9474689 14.8058636,16.6989723 14.0752282,16.1439965 C14.4951336,15.4785778 15.3013519,13.9572263 15.3013519,13.9572263 C15.3013519,13.9572263 16.143962,14.694433 17.4092769,14.2416169 C18.1651066,13.9572263 17.9047652,12.8224252 17.9047652,12.8224252 L16.6786415,3.29396064 Z" id="路径" fill="#616161" fill-rule="nonzero"></path>
                                                    <path d="M90.0473082,3.29396064 L93.9580269,3.29396064 L94.1511834,9.56435847 L97.8043601,3.29396064 L101.762668,3.29396064 L95.4360938,13.1399486 C95.4360938,13.1399486 93.3813569,16.8232206 90.2796558,16.9474689 C88.8491782,16.9474689 88.1745302,16.6989723 87.4438948,16.1439965 C87.8638002,15.4785778 88.6700185,13.9572263 88.6700185,13.9572263 C88.6700185,13.9572263 89.5126287,14.694433 90.7779435,14.2416169 C91.5337732,13.9572263 91.2734319,12.8224252 91.2734319,12.8224252 L90.0473082,3.29396064 Z" id="路径" fill="#929292" fill-rule="nonzero"></path>
                                                    <path d="M37.1728232,3.29396064 C35.2076661,2.57332047 33.5196465,3.47066934 32.6406445,4.59442624 C32.8282023,3.79647601 32.8757916,3.29396064 32.8757916,3.29396064 L29.4493637,3.29396064 L25.6870115,16.9447078 L29.4493637,16.9447078 L30.725876,12.1680507 C30.725876,12.1680507 31.7224515,13.8164116 33.4916528,13.9544653 C33.4916528,13.9544653 36.7193254,14.3686263 38.376552,11.4612159 C40.0365779,8.55656666 40.3165148,4.42876183 37.1728232,3.29396064 Z M35.4680074,9.38212762 C34.8829393,10.6715489 33.5364427,11.3314455 32.4614849,10.8565409 C31.3865272,10.3816362 30.9890167,8.95140016 31.5740849,7.66197886 C32.1591531,6.37255755 33.5056496,5.71266099 34.5806074,6.18756563 C35.6555651,6.66247026 36.0530756,8.09270632 35.4680074,9.38212762 Z" id="形状" fill="#616161" fill-rule="nonzero"></path>
                                                    <path d="M46.7746595,3.29948279 C42.6931792,3.1421016 40.1849445,6.39188506 40.1849445,9.6030135 C40.1849445,12.8141419 44.4147913,16.1743683 49.4312608,12.5187071 C48.5326633,11.3010737 47.7460406,10.525212 47.7460406,10.525212 C46.399544,11.8532884 43.1802695,11.7428454 43.3650278,9.37936655 L50.5510085,9.37936655 C50.5566073,9.38212762 52.8772843,3.56730691 46.7746595,3.29948279 Z M48.1043599,7.86353722 C46.0748172,7.86353722 43.6813566,7.86353722 43.6813566,7.86353722 C44.0900645,4.99754297 48.4962715,4.56681551 48.1043599,7.86353722 Z" id="形状" fill="#616161" fill-rule="nonzero"></path>
                                                    <path d="M53.3811707,3.29396064 L50.6573845,13.7059687 L54.1957872,13.7059687 C54.1957872,13.7059687 54.9544162,8.91550621 56.4688749,7.86353722 C57.986133,6.81156823 59.1366738,6.89440043 59.6965476,6.9496219 C59.9484908,5.59393483 60.6791262,3.08688013 60.6791262,3.08688013 C59.6965476,2.90741036 57.95534,3.29396064 56.5248623,5.12179127 C56.8047992,4.18026522 57.0315481,3.29396064 57.0315481,3.29396064 L53.3811707,3.29396064 Z" id="路径" fill="#616161" fill-rule="nonzero"></path>
                                                    <path d="M62.9354177,0.0552214692 L62.0480177,3.15866804 L67.9882791,3.16142911 L67.2772393,6.46643405 L70.9332155,6.47747834 C70.9332155,6.47747834 70.9416136,6.12958308 71.1599644,4.73247991 C71.5042868,2.5070547 75.3814131,2.38004532 75.3422219,4.87053359 C75.3142282,6.70388636 73.8809512,6.92477224 72.95436,6.95238298 C72.0277688,6.97999371 60.7966997,6.94686083 60.7966997,6.94686083 L59.7581337,9.99232486 L66.2162784,9.99232486 L65.2616935,13.7032076 L69.3879637,13.7032076 L70.3677429,9.90397051 C70.3677429,9.90397051 72.5596489,9.85979333 73.4582465,9.85979333 C75.0594856,9.85979333 79.2977305,8.82991293 79.2977305,4.45361149 C79.2977305,0.49423215 74.9167178,0.0773100569 73.2902843,0.0773100569 C71.6638508,0.0773100569 62.9354177,0.0552214692 62.9354177,0.0552214692 Z" id="路径" fill="#929292" fill-rule="nonzero"></path>
                                                    <path d="M86.5173036,3.57006799 C84.0594575,3.24702239 82.5226038,3.39059821 80.2831085,3.8185646 L80.5910391,6.22898173 C80.5910391,6.22898173 83.4156026,5.75959924 84.7285067,6.12129986 C85.7110853,6.39188506 85.2799825,7.75309428 85.2799825,7.75309428 C85.2799825,7.75309428 83.0348884,6.88059507 80.5350517,7.75309428 C78.6006876,8.42955728 76.6607248,11.1050375 78.7378567,13.4574721 C79.7764227,14.3989981 81.6883918,14.4735471 83.6227559,12.9880896 C83.5667685,13.3746398 83.3988064,14.0400586 83.3988064,14.0400586 L87.0771775,14.0400586 C87.0771775,14.0400586 88.6784166,8.50134519 88.8463788,7.75309428 C89.0143409,7.00484337 89.8877441,4.01460081 86.5173036,3.57006799 Z M84.1966266,11.0387717 C83.5975616,11.7842615 82.7829452,11.9085098 82.3350461,11.6572522 C81.758376,11.3342066 81.5008341,10.486557 81.9991218,9.80181079 C82.4162278,9.22474644 84.0118682,9.18609141 84.6949143,9.24683502 C85.0560329,9.34071152 84.776096,10.3181315 84.1966266,11.0387717 Z" id="形状" fill="#929292" fill-rule="nonzero"></path>
                                                </g>
                                            </g>
                                        </g>
                                    </g>
                                </g>
                            </g>
                        </g>
                    </g>
                </g>
            </g>
        </g>
    </g>
</svg>