<?xml version="1.0" encoding="UTF-8"?>
<svg width="154px" height="35px" viewBox="0 0 154 35" version="1.1" xmlns="http://www.w3.org/2000/svg" xmlns:xlink="http://www.w3.org/1999/xlink">
    <title>coinwind</title>
    <defs>
        <rect id="path-1" x="0" y="0" width="153" height="34"></rect>
        <linearGradient x1="0.00263157895%" y1="50.1192986%" x2="100.002632%" y2="49.880841%" id="linearGradient-3">
            <stop stop-color="#54B1F9" offset="0.05736451%"></stop>
            <stop stop-color="#2762E9" offset="100%"></stop>
        </linearGradient>
    </defs>
    <g id="首页" stroke="none" stroke-width="1" fill="none" fill-rule="evenodd">
        <g id="中文-跨链Curve" transform="translate(-1347.000000, -3229.000000)">
            <g id="编组-32" transform="translate(0.000000, 2600.000000)">
                <g id="编组-9" transform="translate(420.000000, 120.000000)">
                    <g id="编组-16" transform="translate(0.000000, 286.120950)">
                        <g id="编组-14" transform="translate(0.000000, 130.000000)">
                            <g id="编组-27" transform="translate(0.000000, 80.279555)">
                                <g id="coinwind" transform="translate(923.563766, 0.000000)">
                                    <g transform="translate(4.000000, 13.000000)">
                                        <mask id="mask-2" fill="white">
                                            <use xlink:href="#path-1"></use>
                                        </mask>
                                        <g id="矩形"></g>
                                        <g mask="url(#mask-2)">
                                            <g transform="translate(21.841400, 4.298516)">
                                                <g id="编组-30" stroke-width="1" fill="none" fill-rule="evenodd" transform="translate(75.685941, 16.432605)">
                                                    <path d="M2.51886651,0 L20.2708781,0 C21.662252,0 22.7897446,1.12749263 22.7897446,2.51886651 L22.7897446,2.51886651 C22.7897446,3.91024039 21.662252,5.03773302 20.2708781,5.03773302 L2.51886651,5.03773302 C1.12749263,5.03773302 0,3.91024039 0,2.51886651 L0,2.51886651 C0,1.12749263 1.12749263,0 2.51886651,0 Z" id="矩形" fill="url(#linearGradient-3)" fill-rule="nonzero"></path>
                                                    <path d="M4.19811085,4.31805687 L4.19811085,3.23854266 L3.23854266,3.23854266 L3.23854266,4.31805687 L4.19811085,4.31805687 Z M6.00929582,4.31805687 L6.00929582,3.4664401 L8.04837823,3.4664401 C8.43220551,3.4664401 8.70808136,3.35848868 8.86401119,3.14258584 C9.03193563,2.9506722 9.10390324,2.61482333 9.10390324,2.15902844 C9.10390324,1.83517417 9.05592483,1.59528212 8.97196262,1.41536309 C8.899995,1.22344945 8.76805438,1.07951422 8.58813534,0.983557399 C8.48018392,0.935578989 8.34824329,0.899595182 8.18031886,0.875605977 C8.01239442,0.83962217 7.83247539,0.827627568 7.64056175,0.851616772 L4.917787,0.851616772 L4.917787,4.31805687 L6.00929582,4.31805687 Z M7.53261033,2.63881253 L5.99730121,2.63881253 L5.99730121,1.67924434 L7.53261033,1.67924434 C7.65255635,1.67924434 7.74851317,1.71522815 7.82048078,1.78719576 C7.8924484,1.85916338 7.92843221,1.9791094 7.92843221,2.12304463 C7.92843221,2.29096906 7.8924484,2.41091509 7.82048078,2.49487731 C7.76050777,2.59083412 7.66455095,2.63881253 7.53261033,2.63881253 Z M10.8071368,4.31805687 L10.8071368,3.43045629 L12.4144135,3.43045629 C12.5823379,3.41846169 12.702284,3.43045629 12.7742516,3.4784347 C12.8702084,3.52641311 12.9061922,3.63436454 12.9061922,3.80228897 L12.9061922,4.31805687 L14.0216902,4.31805687 L14.0216902,3.62236993 C13.997701,3.4424509 13.9497226,3.29851567 13.8537658,3.16657504 C13.7458144,3.05862362 13.6018792,2.986656 13.4459493,2.9506722 C13.6498576,2.90269379 13.7937928,2.79474237 13.877755,2.62681793 C13.9617172,2.4588935 14.0096956,2.25498526 14.0096956,1.991104 C14.0096956,1.54730371 13.9017442,1.23544405 13.6858414,1.05552501 C13.4459493,0.899595182 13.0741166,0.827627568 12.5703433,0.83962217 L9.71562797,0.83962217 L9.71562797,4.31805687 L10.8071368,4.31805687 L10.8071368,4.31805687 Z M12.5823379,2.63881253 L10.9150882,2.63881253 L10.9150882,1.79919036 L12.5823379,1.79919036 C12.7262732,1.79919036 12.82223,1.82317957 12.8702084,1.88315258 C12.9181868,1.9551202 12.9541706,2.06307162 12.9541706,2.19501224 C12.9541706,2.35094208 12.9301814,2.4708881 12.8702084,2.53086111 C12.82223,2.60282873 12.7262732,2.63881253 12.5823379,2.63881253 Z M17.6920386,4.31805687 C18.0038982,4.31805687 18.2677795,4.29406767 18.4836823,4.25808386 C18.6995852,4.23409466 18.8914988,4.18611625 19.0594233,4.09015943 C19.1913639,3.98220801 19.2753261,3.83827278 19.3352991,3.65835374 C19.4072667,3.4784347 19.4432505,3.26253186 19.4432505,3.01064521 L19.4432505,2.03908241 C19.4432505,1.76320656 19.4072667,1.54730371 19.3352991,1.39137388 C19.2753261,1.21145485 19.1913639,1.07951422 19.0594233,0.983557399 C18.915488,0.875605977 18.735569,0.803638363 18.5196662,0.767654555 C18.2797741,0.707681543 18.0158928,0.695686941 17.7040332,0.707681543 L16.3966215,0.707681543 C16.0727673,0.683692338 15.7968914,0.707681543 15.5809886,0.767654555 C15.3410965,0.803638363 15.1491829,0.875605977 15.0052476,0.983557399 C14.8613124,1.07951422 14.7653556,1.21145485 14.7053826,1.39137388 C14.6454096,1.57129292 14.633415,1.81118497 14.6454096,2.09905543 L14.6454096,3.04662902 C14.6214204,3.29851567 14.6574042,3.50242391 14.7293718,3.67034834 C14.7893448,3.85026738 14.873307,3.99420261 15.0052476,4.10215403 C15.1731721,4.19811085 15.3650857,4.25808386 15.5809886,4.29406767 C15.8208806,4.31805687 16.0847619,4.31805687 16.3966215,4.31805687 L17.6920386,4.31805687 L17.6920386,4.31805687 Z M17.4041681,3.4784347 L16.744465,3.4784347 C16.4326053,3.4784347 16.1927133,3.43045629 16.0367834,3.34649408 C15.8808536,3.23854266 15.808886,3.07061822 15.8328752,2.83072617 L15.8328752,2.36293668 C15.8208806,2.06307162 15.8808536,1.88315258 16.0127942,1.78719576 C16.1567295,1.70323354 16.3966215,1.66724974 16.744465,1.67924434 L17.4041681,1.67924434 C17.740017,1.66724974 17.9679144,1.69123894 18.1118497,1.78719576 C18.2677795,1.87115798 18.3517417,2.05107702 18.3517417,2.33894747 L18.3517417,2.80673697 C18.3517417,3.08261282 18.2677795,3.26253186 18.1118497,3.35848868 C17.979909,3.43045629 17.740017,3.4784347 17.4041681,3.4784347 Z" id="_x2E_PRO" fill="#FFFFFF" fill-rule="nonzero"></path>
                                                    <path d="M2.51886651,0 L20.2708781,0 C21.662252,0 22.7897446,1.12749263 22.7897446,2.51886651 L22.7897446,2.51886651 C22.7897446,3.91024039 21.662252,5.03773302 20.2708781,5.03773302 L2.51886651,5.03773302 C1.12749263,5.03773302 0,3.91024039 0,2.51886651 L0,2.51886651 C0,1.12749263 1.12749263,0 2.51886651,0 Z" id="矩形备份" fill="#616161" fill-rule="nonzero"></path>
                                                    <path d="M4.79784097,4.19811085 L4.79784097,2.87870458 L3.59838073,2.87870458 L3.59838073,4.19811085 L4.79784097,4.19811085 Z M6.83692338,5.03773302 L6.83692338,3.64635914 C6.88490179,3.87425658 7.02883702,4.03018642 7.25673447,4.10215403 C7.49662652,4.17412165 7.83247539,4.21010545 8.27627568,4.21010545 C8.84002199,4.21010545 9.25983308,4.11414863 9.53570893,3.9342296 C9.81158479,3.76630516 9.95552002,3.49042931 9.95552002,3.09460743 L9.95552002,2.03908241 C9.95552002,1.61927133 9.81158479,1.33140087 9.53570893,1.17547104 C9.28382228,1.0075466 8.84002199,0.947573592 8.24029187,0.971562797 C7.77250237,0.947573592 7.4246589,0.983557399 7.18476685,1.07951422 C6.94487481,1.17547104 6.83692338,1.34339547 6.83692338,1.59528212 L6.83692338,1.0075466 L5.63746314,1.0075466 L5.63746314,5.03773302 L6.83692338,5.03773302 Z M8.13234045,3.35848868 L7.59258334,3.35848868 C7.30471288,3.35848868 7.10080464,3.31051027 6.98085861,3.21455345 C6.86091259,3.11859663 6.81293418,2.9626668 6.83692338,2.75875856 L6.83692338,2.37493128 C6.81293418,2.15902844 6.86091259,2.01509321 6.98085861,1.91913639 C7.10080464,1.82317957 7.30471288,1.78719576 7.59258334,1.81118497 L8.13234045,1.81118497 C8.3722325,1.78719576 8.55215153,1.82317957 8.67209756,1.91913639 C8.81603279,2.01509321 8.8880004,2.17102304 8.8880004,2.37493128 L8.8880004,2.79474237 C8.8880004,2.986656 8.82802739,3.11859663 8.70808136,3.21455345 C8.57614074,3.31051027 8.3842271,3.35848868 8.13234045,3.35848868 Z M11.7187266,4.19811085 L11.7187266,2.49487731 C11.7187266,2.29096906 11.7786996,2.13503923 11.8986456,2.03908241 C12.0425808,1.94312559 12.2224999,1.89514718 12.4623919,1.89514718 C12.6782948,1.89514718 12.8342246,1.94312559 12.9541706,2.03908241 C13.0741166,2.13503923 13.1340897,2.26697986 13.1340897,2.4588935 L13.1340897,2.49487731 L14.1176471,2.49487731 L14.1176471,2.32695287 L14.1176471,2.32695287 C14.1416363,2.27897446 14.1536309,2.23099605 14.1536309,2.18301764 C14.1536309,1.73921735 14.0456794,1.42735769 13.8417712,1.24743865 C13.6498576,1.04353041 13.3499925,0.947573592 12.9301814,0.971562797 C12.6303164,0.947573592 12.3784297,0.995552002 12.1865161,1.11549803 C11.9946024,1.21145485 11.8506672,1.36738468 11.7307212,1.60727673 L11.7307212,1.01954121 L10.5552501,1.01954121 L10.5552501,4.19811085 L11.7187266,4.19811085 Z M17.5720926,4.19811085 C18.1118497,4.19811085 18.5196662,4.10215403 18.8075366,3.92223499 C19.0714179,3.76630516 19.1913639,3.4664401 19.1913639,3.02263981 L19.1913639,2.15902844 C19.1913639,1.72722275 19.0594233,1.41536309 18.8075366,1.23544405 C18.5436554,1.03153581 18.1358389,0.935578989 17.5720926,0.959568194 L16.3726323,0.959568194 C15.7609076,0.935578989 15.3410965,1.03153581 15.1012045,1.23544405 C14.8373232,1.41536309 14.7293718,1.72722275 14.753361,2.15902844 L14.753361,3.05862362 C14.7293718,3.4664401 14.8613124,3.75431056 15.1371883,3.92223499 C15.4010695,4.10215403 15.808886,4.19811085 16.3726323,4.19811085 L17.5720926,4.19811085 Z M17.2362437,3.35848868 L16.7204758,3.35848868 C16.4445999,3.35848868 16.2526863,3.31051027 16.1327403,3.21455345 C16.0007996,3.11859663 15.9408266,2.986656 15.9648158,2.79474237 L15.9648158,2.37493128 C15.9408266,2.14703383 15.988805,1.9791094 16.0967565,1.89514718 C16.2167025,1.79919036 16.4206107,1.76320656 16.7204758,1.78719576 L17.2362437,1.78719576 C17.4881303,1.76320656 17.6680494,1.79919036 17.7879954,1.89514718 C17.919936,1.991104 17.9919036,2.13503923 17.9919036,2.33894747 L17.9919036,2.78274776 C17.9919036,2.9626668 17.919936,3.10660203 17.7879954,3.20255885 C17.6680494,3.31051027 17.4881303,3.35848868 17.2362437,3.35848868 Z" id="_x2E_pro" fill="#FFFFFF" fill-rule="nonzero"></path>
                                                </g>
                                                <path d="M37.0873107,13.4339547 C37.8189815,13.4339547 38.4187116,13.3859763 38.8984957,13.3020141 C39.4142636,13.2540357 39.8460693,13.1340897 40.1939127,12.9181868 C40.457794,12.6543056 40.6497076,12.3544405 40.7696537,12.006597 C40.9375781,11.6587536 41.0335349,11.2509371 41.0335349,10.771153 L41.0335349,10.1234444 L41.0335349,10.1234444 L38.4546954,10.1234444 L38.4546954,10.1954121 C38.4546954,10.6751962 38.286771,10.9990504 37.9389275,11.1669749 C37.6390624,11.3348993 37.1472837,11.4308561 36.4515968,11.4308561 L34.9042931,11.4308561 C34.1246439,11.4308561 33.5968814,11.3229047 33.2850217,11.1070018 C32.9371783,10.8431206 32.793243,10.4113149 32.8292268,9.81158479 L32.8292268,8.63611375 C32.7812484,7.904443 32.9131891,7.4246589 33.2130541,7.20875606 C33.5129192,6.99285322 34.0766655,6.908891 34.8922985,6.94487481 L37.0273377,6.94487481 C37.411165,6.94487481 37.71103,7.00484782 37.9269329,7.13678845 C38.1428357,7.30471288 38.2747764,7.56859413 38.3107602,7.9164376 L38.3107602,7.97641062 L40.8895997,7.97641062 L40.8895997,7.52061572 L40.8895997,7.52061572 C40.8895997,7.00484782 40.8296267,6.54905293 40.697686,6.16522565 C40.5657454,5.81738218 40.397821,5.56549553 40.1819181,5.38557649 C39.8340747,5.12169524 39.402269,4.9537708 38.8865011,4.86980859 C38.4187116,4.78584637 37.8069869,4.76185716 37.0753161,4.80983557 L34.1726223,4.80983557 C32.7572592,4.76185716 31.737718,4.97776001 31.1379879,5.45754411 C30.4902794,5.9373282 30.1904143,6.81293418 30.2383927,8.10835124 L30.2383927,10.3753311 C30.1904143,10.9390774 30.2623819,11.4068669 30.4303064,11.8026888 C30.562247,12.2344945 30.8141336,12.6063272 31.2099555,12.9061922 C31.557799,13.1220951 31.9656155,13.2780249 32.433405,13.3619871 C32.9011945,13.4099655 33.48893,13.4219601 34.1726223,13.4219601 L37.0873107,13.4219601 L37.0873107,13.4339547 Z M47.1627768,13.4339547 C48.1583288,13.4339547 48.9139887,13.2660303 49.4297566,12.9181868 C49.9095407,12.6183218 50.1374382,12.0545754 50.1374382,11.2269479 L50.1374382,9.59568194 C50.1374382,8.76805438 49.8975461,8.19231346 49.4297566,7.84446999 C48.9499725,7.44864811 48.2063072,7.28072367 47.1627768,7.32870208 L44.9677645,7.32870208 C43.8522665,7.28072367 43.0726173,7.46064271 42.6408116,7.84446999 C42.1610275,8.19231346 41.9451247,8.78004898 41.9931031,9.59568194 L41.9931031,11.2869209 C41.9451247,12.06657 42.1850167,12.6063272 42.7007846,12.9061922 C43.1805687,13.2540357 43.9242341,13.4219601 44.9677645,13.4219601 L47.1627768,13.4219601 L47.1627768,13.4339547 Z M46.551052,11.7547104 L45.5794892,11.7547104 C45.0637213,11.7547104 44.6918887,11.6707482 44.4759858,11.5028237 C44.2121046,11.3348993 44.1041531,11.0830126 44.1521315,10.7351692 L44.1521315,9.96751462 C44.1041531,9.54770353 44.20011,9.24783847 44.4160128,9.07991404 C44.6319156,8.9119896 45.0157429,8.85201659 45.5794892,8.8880004 L46.551052,8.8880004 C47.0308361,8.84002199 47.3786796,8.9119896 47.5945824,9.07991404 C47.8584637,9.24783847 47.9784097,9.52371433 47.9784097,9.90754161 L47.9784097,10.7351692 C47.9784097,11.071018 47.8464691,11.3348993 47.5945824,11.5028237 C47.3786796,11.6707482 47.0308361,11.7547104 46.551052,11.7547104 Z M53.1360888,6.71697736 L53.1360888,4.917787 L50.9770603,4.917787 L50.9770603,6.71697736 L53.1360888,6.71697736 Z M53.1360888,13.3140087 L53.1360888,7.31670748 L50.9770603,7.31670748 L50.9770603,13.3140087 L53.1360888,13.3140087 Z M56.1827178,13.3140087 L56.1827178,10.4592933 C56.1347394,9.94352541 56.2426908,9.57169274 56.506572,9.35578989 C56.7704533,9.09190864 57.2262482,8.98395722 57.8739567,9.03193563 C58.5696437,8.98395722 59.0254386,9.07991404 59.2413414,9.29581688 C59.5052226,9.51171973 59.6251687,9.8595632 59.6251687,10.3393473 L59.6251687,13.3140087 L61.7722025,13.3140087 L61.7722025,9.47573592 C61.7722025,8.74406517 61.5083213,8.19231346 60.9925534,7.84446999 C60.5127693,7.49662652 59.8050877,7.32870208 58.8455195,7.32870208 C58.197811,7.28072367 57.6580539,7.32870208 57.2262482,7.46064271 C56.7464641,7.59258334 56.3986206,7.86845919 56.1827178,8.30026488 L56.1827178,7.3886751 L53.9757109,7.3886751 L53.9757109,13.3140087 L56.1827178,13.3140087 Z M68.153331,13.3140087 L70.1684242,7.56859413 L72.1235444,13.3140087 L75.0502274,13.3140087 L77.8449698,4.917787 L75.302114,4.917787 L73.4189615,10.9270828 L71.3438952,4.917787 L69.0049478,4.917787 L66.7979409,10.9270828 L65.0347344,4.917787 L62.4918787,4.917787 L65.1546804,13.3140087 L68.153331,13.3140087 Z M80.8436204,6.71697736 L80.8436204,4.917787 L78.6845919,4.917787 L78.6845919,6.71697736 L80.8436204,6.71697736 Z M80.8436204,13.3140087 L80.8436204,7.31670748 L78.6845919,7.31670748 L78.6845919,13.3140087 L80.8436204,13.3140087 Z M83.8902494,13.3140087 L83.8902494,10.4592933 C83.842271,9.94352541 83.9502224,9.57169274 84.2141037,9.35578989 C84.4779849,9.09190864 84.9337798,8.98395722 85.5814883,9.03193563 C86.2771753,8.98395722 86.7329702,9.07991404 86.948873,9.29581688 C87.2127543,9.51171973 87.3327003,9.8595632 87.3327003,10.3393473 L87.3327003,13.3140087 L89.4797341,13.3140087 L89.4797341,9.47573592 C89.4797341,8.74406517 89.2158529,8.19231346 88.700085,7.84446999 C88.2203009,7.49662652 87.5126193,7.32870208 86.5530511,7.32870208 C85.9053426,7.28072367 85.3655855,7.32870208 84.9337798,7.46064271 C84.4539957,7.59258334 84.1061522,7.86845919 83.8902494,8.30026488 L83.8902494,7.3886751 L81.6832425,7.3886751 L81.6832425,13.3140087 L83.8902494,13.3140087 Z M93.5219151,13.4339547 C94.3975211,13.4339547 95.0452296,13.3739817 95.4770353,13.2420411 C95.908841,13.0741166 96.1487331,12.762257 96.1967115,12.3304513 L96.1967115,13.3739817 L98.3557399,13.3739817 L98.3557399,4.917787 L96.1967115,4.917787 L96.1967115,8.49217852 C96.0647709,8.01239442 95.788895,7.71252936 95.3450947,7.58058874 C94.913289,7.4126643 94.2775751,7.34069669 93.4499475,7.3886751 C92.3224549,7.34069669 91.5188165,7.49662652 91.0390324,7.84446999 C90.5112699,8.14433505 90.2713779,8.68409216 90.3193563,9.46374132 L90.3193563,11.4788345 C90.2713779,12.2105053 90.5112699,12.7382678 91.0390324,13.0381328 C91.5188165,13.3020141 92.3464441,13.4339547 93.5219151,13.4339547 Z M94.9492728,11.7547104 L93.97771,11.7547104 C93.4619421,11.7547104 93.0901095,11.6707482 92.8742066,11.5028237 C92.6583038,11.3348993 92.5743415,11.0830126 92.6103254,10.7351692 L92.6103254,9.96751462 C92.5623469,9.58368734 92.6583038,9.33180069 92.8742066,9.19986006 C93.0901095,9.03193563 93.4619421,8.95996801 93.97771,9.00794642 L94.9492728,9.00794642 C95.4290569,8.95996801 95.7769004,9.03193563 95.9928032,9.19986006 C96.2087061,9.3677845 96.3166575,9.64366035 96.3166575,10.0274876 L96.3166575,10.7351692 C96.3166575,11.071018 96.1847169,11.3348993 95.9208356,11.5028237 C95.7049328,11.6707482 95.3810785,11.7547104 94.9492728,11.7547104 Z" id="CoinWind" fill="#616161" fill-rule="nonzero"></path>
                                                <path d="M34.4964766,21.7102304 C34.9522715,21.7102304 35.3241042,21.6862412 35.6239692,21.6262682 C35.9478235,21.602279 36.2117047,21.5183168 36.4276076,21.3863761 C36.5835374,21.2184517 36.7034834,21.0385327 36.7874456,20.8226298 C36.8953971,20.606727 36.9433755,20.3548403 36.9433755,20.0549753 L36.9433755,19.6471588 L36.9433755,19.6471588 L35.3360988,19.6471588 L35.3360988,19.6831426 C35.3360988,19.9830076 35.2281473,20.1869159 35.0122445,20.2948673 C34.8203309,20.4028187 34.5204658,20.4627917 34.0886601,20.4627917 L33.1290919,20.4627917 C32.6493078,20.4627917 32.3134589,20.3908241 32.1215453,20.2588835 C31.9056425,20.0909591 31.8096856,19.8270778 31.8456694,19.4432505 L31.8456694,18.7115798 C31.8216802,18.2557849 31.8936479,17.9559198 32.0855615,17.8239792 C32.2774751,17.6920386 32.6253186,17.6320656 33.1290919,17.6560548 L34.4604928,17.6560548 C34.7003848,17.6560548 34.8922985,17.6920386 35.0242391,17.7760008 C35.1561797,17.8839522 35.2401419,18.0398821 35.2641311,18.2677795 L35.2641311,18.3037633 L36.8714079,18.3037633 L36.8714079,18.0158928 L36.8714079,18.0158928 C36.8714079,17.6920386 36.8354241,17.4041681 36.7514618,17.1642761 C36.6674996,16.9483732 36.5595482,16.7924434 36.4276076,16.6724974 C36.2117047,16.5165675 35.9478235,16.4086161 35.6239692,16.3486431 C35.3241042,16.3006647 34.9522715,16.2766755 34.4964766,16.3126593 L32.6852916,16.3126593 C31.797691,16.2886701 31.1739717,16.4206107 30.802139,16.7204758 C30.4063172,17.0203408 30.2144035,17.5720926 30.2383927,18.3757309 L30.2383927,19.791094 C30.2144035,20.1389375 30.2503873,20.4388025 30.3583387,20.6786946 C30.442301,20.9425758 30.5982308,21.1824679 30.8381228,21.3623869 C31.0540257,21.4943276 31.3059123,21.5902844 31.6057774,21.6502574 C31.9056425,21.6742466 32.2654805,21.6862412 32.6852916,21.6862412 L34.4964766,21.6862412 L34.4964766,21.7102304 Z M40.8176321,21.7102304 C41.4413514,21.7102304 41.9211355,21.602279 42.2449898,21.3863761 C42.5448548,21.1944625 42.7007846,20.846619 42.7007846,20.3308511 L42.7007846,19.3113099 C42.7007846,18.795542 42.5448548,18.4237093 42.2449898,18.2078065 C41.9451247,17.9679144 41.4653406,17.859963 40.8176321,17.8839522 L39.4262582,17.8839522 C38.7185766,17.859963 38.2267979,17.9679144 37.9509221,18.2078065 C37.651057,18.4237093 37.5191164,18.795542 37.5431056,19.3113099 L37.5431056,20.3668349 C37.5191164,20.8586136 37.6630516,21.1944625 37.9989005,21.3863761 C38.2987656,21.602279 38.7785497,21.7102304 39.4262582,21.7102304 L40.8176321,21.7102304 Z M40.4937778,20.6307162 L39.8820531,20.6307162 C39.5581988,20.6307162 39.3303014,20.5827378 39.1983607,20.4747863 C39.0304363,20.3668349 38.9704633,20.2109051 38.9944525,19.9950022 L38.9944525,19.5152182 C38.9704633,19.2513369 39.0184417,19.0594233 39.1623769,18.9634664 C39.3063122,18.8675096 39.5462042,18.8195312 39.8940477,18.8435204 L40.5057724,18.8435204 C40.8056375,18.8195312 41.0215403,18.855515 41.1534809,18.9634664 C41.3214054,19.0714179 41.393373,19.2393423 41.393373,19.4792343 L41.393373,19.9950022 C41.393373,20.2109051 41.3094108,20.3668349 41.1534809,20.4747863 C40.9975511,20.5827378 40.7816483,20.6307162 40.4937778,20.6307162 Z M44.499975,17.5121195 L44.499975,16.4326053 L43.1805687,16.4326053 L43.1805687,17.5121195 L44.499975,17.5121195 Z M44.499975,21.5902844 L44.499975,17.8719576 L43.1805687,17.8719576 L43.1805687,21.5902844 L44.499975,21.5902844 Z M46.491079,21.5902844 L46.491079,19.8150832 C46.4670898,19.4912289 46.5270628,19.2633315 46.6949873,19.1313909 C46.8629117,18.975461 47.1507821,18.9034934 47.5585986,18.9274826 C47.9904043,18.9034934 48.2782748,18.9514718 48.42221,19.0834125 C48.5901344,19.2153531 48.6740967,19.4312559 48.6740967,19.731121 L48.6740967,21.5902844 L50.0174921,21.5902844 L50.0174921,19.2153531 C50.0174921,18.7595582 49.8495677,18.4237093 49.5257134,18.2078065 C49.2258484,17.9919036 48.7700535,17.8839522 48.1703234,17.8839522 C47.7625069,17.859963 47.4146634,17.8839522 47.1507821,17.9679144 C46.8509171,18.0518767 46.6350142,18.2198011 46.491079,18.4956769 L46.491079,17.9319306 L45.0997051,17.9319306 L45.0997051,21.5902844 L46.491079,21.5902844 Z M53.9157379,21.7102304 L55.1751712,18.0998551 L56.3986206,21.7102304 L58.2337948,21.7102304 L59.9850067,16.4326053 L58.4017192,16.4326053 L57.2262482,20.2109051 L55.9068419,16.4326053 L54.4435004,16.4326053 L53.0641211,20.2109051 L51.9606177,16.4326053 L50.3773302,16.4326053 L52.0445799,21.7102304 L53.9157379,21.7102304 Z M61.8921485,17.5121195 L61.8921485,16.4326053 L60.5727423,16.4326053 L60.5727423,17.5121195 L61.8921485,17.5121195 Z M61.8921485,21.5902844 L61.8921485,17.8719576 L60.5727423,17.8719576 L60.5727423,21.5902844 L61.8921485,21.5902844 Z M63.7633065,21.5902844 L63.7633065,19.8150832 C63.7393173,19.4912289 63.7992903,19.2633315 63.9672148,19.1313909 C64.1351392,18.975461 64.4230096,18.9034934 64.8308261,18.9274826 C65.2626318,18.9034934 65.5505023,18.9514718 65.6944375,19.0834125 C65.8623619,19.2153531 65.9343296,19.4312559 65.9343296,19.731121 L65.9343296,21.5902844 L67.2897196,21.5902844 L67.2897196,19.2153531 C67.2897196,18.7595582 67.1217952,18.4237093 66.7979409,18.2078065 C66.4980759,17.9919036 66.042281,17.8839522 65.4425509,17.8839522 C65.0347344,17.859963 64.6868909,17.8839522 64.4230096,17.9679144 C64.1231446,18.0518767 63.9072417,18.2198011 63.7633065,18.4956769 L63.7633065,17.9319306 L62.3719326,17.9319306 L62.3719326,21.5902844 L63.7633065,21.5902844 Z M69.7726023,21.7102304 C70.3123594,21.7102304 70.7321705,21.6742466 70.9960518,21.5902844 C71.2719276,21.482333 71.4158629,21.2904193 71.4518467,21.0265381 L71.4518467,21.6742466 L72.8072367,21.6742466 L72.8072367,16.4326053 L71.4518467,16.4326053 L71.4518467,18.6516068 C71.3678845,18.3517417 71.1879654,18.1718227 70.9240842,18.0878605 C70.6482083,17.979909 70.2523864,17.9439252 69.7366185,17.9679144 C69.028937,17.9439252 68.5251637,18.0398821 68.2252986,18.2557849 C67.9014444,18.4476985 67.7455145,18.7835474 67.7695037,19.2633315 L67.7695037,20.5107702 C67.7455145,20.966565 67.8894497,21.2904193 68.2252986,21.482333 C68.5251637,21.6262682 69.0409316,21.7102304 69.7726023,21.7102304 Z M70.6482083,20.6307162 L70.0484782,20.6307162 C69.7246239,20.6307162 69.5087211,20.5827378 69.3647858,20.4747863 C69.2208506,20.3668349 69.1728722,20.2109051 69.208856,20.0069969 L69.208856,19.5392074 C69.1848668,19.3113099 69.2328452,19.1553801 69.3647858,19.0714179 C69.4967265,18.9634664 69.7246239,18.9274826 70.0484782,18.9514718 L70.6482083,18.9514718 C70.9360788,18.9274826 71.1519816,18.9634664 71.2839222,19.0714179 C71.4158629,19.1793693 71.4878305,19.3472937 71.4878305,19.5751912 L71.4878305,20.0069969 C71.4878305,20.2109051 71.4038683,20.3668349 71.2479384,20.4747863 C71.1159978,20.5827378 70.9120896,20.6307162 70.6482083,20.6307162 Z" id="CoinWind备份-10" fill="#616161" fill-rule="nonzero"></path>
                                                <ellipse id="椭圆形" fill="#FFFFFF" fill-rule="evenodd" cx="13.1940627" cy="13.1940627" rx="12.2344945" ry="12.3544405"></ellipse>
                                                <path d="M13.1940627,0 C20.4867809,0 26.3881253,5.9013444 26.3881253,13.1940627 C26.3881253,20.4867809 20.4867809,26.3881253 13.1940627,26.3881253 C5.9013444,26.3881253 0,20.4867809 0,13.1940627 C0,5.9013444 5.9013444,0 13.1940627,0 Z M13.1940627,1.55929832 C6.76495577,1.55929832 1.55929832,6.76495577 1.55929832,13.1940627 C1.55929832,19.6231696 6.76495577,24.828827 13.1940627,24.828827 C19.6231696,24.828827 24.828827,19.6231696 24.828827,13.1940627 C24.828827,6.76495577 19.6231696,1.55929832 13.1940627,1.55929832 Z M13.1940627,2.27897446 C19.2273477,2.27897446 24.1091509,7.16077765 24.1091509,13.1940627 C24.1091509,19.2273477 19.2273477,24.1091509 13.1940627,24.1091509 C7.16077765,24.1091509 2.27897446,19.2273477 2.27897446,13.1940627 C2.27897446,7.16077765 7.16077765,2.27897446 13.1940627,2.27897446 Z M13.1820681,6.83692338 L10.0994552,12.9901544 L8.97196262,10.6032285 L6.35713929,11.8386726 L10.015493,19.5871858 L13.1820681,13.2660303 L16.3486431,19.5871858 L20.0069969,11.8386726 L17.3921735,10.6032285 L16.2646809,12.9901544 L13.1820681,6.83692338 Z" id="形状结合" fill="#616161" fill-rule="nonzero"></path>
                                            </g>
                                        </g>
                                    </g>
                                </g>
                            </g>
                        </g>
                    </g>
                </g>
            </g>
        </g>
    </g>
</svg>