<?xml version="1.0" encoding="UTF-8"?>
<svg width="153px" height="35px" viewBox="0 0 153 35" version="1.1" xmlns="http://www.w3.org/2000/svg" xmlns:xlink="http://www.w3.org/1999/xlink">
    <title>PolyNetwork</title>
    <defs>
        <rect id="path-1" x="0" y="0" width="153" height="34"></rect>
        <filter color-interpolation-filters="auto" id="filter-3">
            <feColorMatrix in="SourceGraphic" type="matrix" values="0 0 0 0 0.380392 0 0 0 0 0.380392 0 0 0 0 0.380392 0 0 0 1.000000 0"></feColorMatrix>
        </filter>
    </defs>
    <g id="首页" stroke="none" stroke-width="1" fill="none" fill-rule="evenodd">
        <g id="中文-跨链Curve" transform="translate(-429.000000, -3309.000000)">
            <g id="编组-32" transform="translate(0.000000, 2600.000000)">
                <g id="编组-9" transform="translate(420.000000, 120.000000)">
                    <g id="编组-16" transform="translate(0.000000, 286.120950)">
                        <g id="编组-14" transform="translate(0.000000, 130.000000)">
                            <g id="编组-49" transform="translate(5.000000, 160.279555)">
                                <g id="PolyNetwork" transform="translate(4.000000, 13.000000)">
                                    <mask id="mask-2" fill="white">
                                        <use xlink:href="#path-1"></use>
                                    </mask>
                                    <g id="矩形"></g>
                                    <g mask="url(#mask-2)">
                                        <g transform="translate(20.000000, 4.000000)">
                                            <polygon id="Fill-1" fill="#505050" points="8.2260073 24.1476734 10.7267969 25.5917943 11.1997958 25.8644227 11.1997958 19.9442539 8.2260073 18.2275046"></polygon>
                                            <polygon id="Fill-2" fill="#505050" points="0 19.3982703 5.12699244 22.35877 5.12699244 9.42646521 0 6.4663808"></polygon>
                                            <polygon id="Fill-3" fill="#616161" points="17.271644 9.42611223 17.271644 16.4386635 11.199692 19.9448353 11.199692 25.8647965 22.3988441 19.3979173 22.3988441 6.46685837"></polygon>
                                            <polygon id="Fill-4" fill="#929292" points="11.1994013 0 0.00045680315 6.46687913 5.12765688 9.42613299 11.1998166 5.91996118 17.271561 9.42613299 22.3989687 6.46687913 11.2000242 0"></polygon>
                                            <g filter="url(#filter-3)" fill="none" id="PolyNetwork" stroke-width="1">
                                                <g transform="translate(28.497221, 8.306461)">
                                                    <path d="M4.14920011,4.39530281 C5.21383695,4.39530281 5.74601262,3.93621564 5.74601262,3.0168993 C5.74601262,2.54410804 5.61382521,2.19351162 5.35030689,1.96568105 C5.08593207,1.73842149 4.68622931,1.6247917 4.14920011,1.6247917 L2.12898818,1.6247917 L2.12898818,4.39530281 L4.14920011,4.39530281 Z M0,0 L4.42213999,0 C5.4682192,0 6.28304182,0.264374823 6.86546584,0.791982461 C7.44760435,1.3201611 7.73881636,2.05704168 7.73881636,3.00319521 C7.73881636,3.94963423 7.44760435,4.68680031 6.86546584,5.21440795 C6.28304182,5.74230109 5.4682192,6.00610491 4.42213999,6.00610491 L2.12898818,6.00610491 L2.12898818,9.62312935 L0,9.62312935 L0,0 Z" id="Fill-5" fill="#000000"></path>
                                                    <path d="M13.6106497,6.23824656 C13.6106497,5.59187011 13.4810318,5.10994278 13.2220815,4.79132259 C12.9622747,4.47270239 12.5916932,4.31367779 12.1094803,4.31367779 C11.1082249,4.31367779 10.6080255,4.95491521 10.6080255,6.23824656 C10.6080255,7.52100691 11.1082249,8.16252983 12.1094803,8.16252983 C13.1101647,8.16252983 13.6106497,7.52100691 13.6106497,6.23824656 M10.2391569,9.30225369 C9.70269875,9.01589521 9.28843539,8.61105342 8.99750889,8.08772831 C8.70572587,7.56468871 8.56097638,6.94771895 8.56097638,6.23824656 C8.56097638,5.52848867 8.70572587,4.91180442 8.99750889,4.38847931 C9.28843539,3.8651542 9.70269875,3.46288193 10.2391569,3.18052048 C10.7761862,2.89873004 11.400008,2.75740656 12.1094803,2.75740656 C12.8189527,2.75740656 13.4422035,2.89873004 13.9795182,3.18052048 C14.5165474,3.46288193 14.9302398,3.8651542 15.2214518,4.38847931 C15.5123783,4.91180442 15.6582698,5.52848867 15.6582698,6.23824656 C15.6582698,6.94771895 15.5123783,7.56468871 15.2214518,8.08772831 C14.9302398,8.61105342 14.5165474,9.01589521 13.9795182,9.30225369 C13.4422035,9.58889766 12.8189527,9.73250515 12.1094803,9.73250515 C11.400008,9.73250515 10.7761862,9.58889766 10.2391569,9.30225369" id="Fill-7" fill="#000000"></path>
                                                    <polygon id="Fill-9" fill="#000000" points="17.037073 9.62307225 19.0981117 9.62307225 19.0981117 0.000228401575 17.037073 0.000228401575"></polygon>
                                                    <polygon id="Fill-11" fill="#000000" points="25.5905692 2.93487459 27.6107812 2.93487459 23.5709283 12.0797881 21.4824814 12.0797881 22.7652418 9.25474616 20.0081493 2.93487459 22.151127 2.93487459 23.8435827 7.19370745"></polygon>
                                                    <path d="M40.6109135,4.55255729 C40.3785149,4.80265701 40.2354784,5.16467351 40.180662,5.63746477 L42.8152742,5.63746477 C42.7875805,5.15525194 42.6668131,4.79123694 42.4532577,4.54570524 C42.2394167,4.29988805 41.9370701,4.1771222 41.5456469,4.1771222 C41.1542237,4.1771222 40.8427411,4.30217206 40.6109135,4.55255729 L40.6109135,4.55255729 Z M44.5482711,6.66127483 L40.180662,6.66127483 C40.2440434,7.19830403 40.4199126,7.58715771 40.7062711,7.82840688 C40.9929151,8.06937054 41.4000409,8.18985237 41.9276485,8.18985237 C42.2733914,8.18985237 42.6168503,8.13332298 42.9583106,8.01940769 C43.2992,7.90577791 43.6109681,7.7444693 43.8933296,7.53491085 L44.4394949,8.91331436 C44.1117386,9.16826761 43.7134633,9.36840449 43.2452401,9.513725 C42.7761604,9.6596165 42.3053676,9.73270501 41.8320054,9.73270501 C40.7037016,9.73270501 39.814363,9.42093686 39.163704,8.79740056 C38.5127595,8.17443526 38.1881438,7.32535241 38.1881438,6.2515795 C38.1881438,5.5695153 38.3291817,4.96396563 38.6109722,4.43664349 C38.8927626,3.90875035 39.2844713,3.49677101 39.7846708,3.20127647 C40.2848702,2.90549643 40.8541611,2.75732091 41.491116,2.75732091 C42.428419,2.75732091 43.1721516,3.06223701 43.7225994,3.67206922 C44.2727617,4.28190142 44.5482711,5.10985713 44.5482711,6.15622185 L44.5482711,6.66127483 Z" id="Fill-12" fill="#000000"></path>
                                                    <path d="M50.3835031,8.17623392 L50.2741558,9.67797428 C50.009781,9.71423303 49.7465482,9.73250515 49.4824589,9.73250515 C48.4632168,9.73250515 47.7194842,9.50952812 47.2509755,9.06328854 C46.7821813,8.61790547 46.5480696,7.93983829 46.5480696,7.02965802 L46.5480696,4.46356633 L45.2787279,4.46356633 L45.2787279,2.92157019 L46.5480696,2.92157019 L46.5480696,0.955603639 L48.6088229,0.955603639 L48.6088229,2.92157019 L50.2878599,2.92157019 L50.2878599,4.46356633 L48.6088229,4.46356633 L48.6088229,7.01623943 C48.6088229,7.81678695 48.9822594,8.21734621 49.7279906,8.21734621 C49.937549,8.21734621 50.155958,8.20364211 50.3835031,8.17623392" id="Fill-13" fill="#000000"></path>
                                                    <polygon id="Fill-14" fill="#000000" points="60.8235678 2.92151309 62.8300756 2.92151309 60.1138099 9.6231008 58.3668233 9.6231008 56.8922057 5.84219823 55.4595568 9.6231008 53.7259888 9.6231008 50.9957335 2.92151309 53.0978845 2.92151309 54.6812784 7.16635636 56.2643868 2.92151309 57.6570654 2.92151309 59.2538779 7.20718314"></polygon>
                                                    <path d="M68.2284896,6.23824656 C68.2284896,5.59187011 68.0988717,5.10994278 67.8393504,4.79132259 C67.5801146,4.47270239 67.208962,4.31367779 66.7273202,4.31367779 C65.7257793,4.31367779 65.2252944,4.95491521 65.2252944,6.23824656 C65.2252944,7.52100691 65.7257793,8.16252983 66.7273202,8.16252983 C67.7280046,8.16252983 68.2284896,7.52100691 68.2284896,6.23824656 M64.8569968,9.30225369 C64.3202531,9.01589521 63.9059898,8.61105342 63.6147778,8.08772831 C63.3235658,7.56468871 63.1782453,6.94771895 63.1782453,6.23824656 C63.1782453,5.52848867 63.3235658,4.91180442 63.6147778,4.38847931 C63.9059898,3.8651542 64.3202531,3.46288193 64.8569968,3.18052048 C65.394026,2.89873004 66.0172768,2.75740656 66.7273202,2.75740656 C67.4367926,2.75740656 68.0600434,2.89873004 68.5967871,3.18052048 C69.1338163,3.46288193 69.5475087,3.8651542 69.8392917,4.38847931 C70.1302182,4.91180442 70.2758242,5.52848867 70.2758242,6.23824656 C70.2758242,6.94771895 70.1302182,7.56468871 69.8392917,8.08772831 C69.5475087,8.61105342 69.1338163,9.01589521 68.5967871,9.30225369 C68.0600434,9.58889766 67.4367926,9.73250515 66.7273202,9.73250515 C66.0172768,9.73250515 65.394026,9.58889766 64.8569968,9.30225369" id="Fill-15" fill="#000000"></path>
                                                    <path d="M76.4302759,4.44994788 L75.2702814,4.57299923 C74.696708,4.62753011 74.2921517,4.78912422 74.0557561,5.05749607 C73.8185039,5.32558242 73.7003061,5.68303088 73.7003061,6.12898496 L73.7003061,9.62295805 L71.6395529,9.62295805 L71.6395529,2.92137034 L73.6180815,2.92137034 L73.6180815,4.05395665 C73.9549739,3.28053182 74.6513132,2.8577034 75.7070994,2.7846149 L76.3072246,2.74378812 L76.4302759,4.44994788 Z" id="Fill-16" fill="#000000"></path>
                                                    <polygon id="Fill-17" fill="#000000" points="84.5115804 9.6229866 81.986601 9.6229866 79.4207948 6.63406649 79.4207948 9.6229866 77.3594706 9.6229866 77.3594706 0.000142750984 79.4207948 0.000142750984 79.4207948 5.78755315 81.8909579 2.93481749 84.3482733 2.93481749 81.5360789 6.12901351"></polygon>
                                                    <polygon id="Fill-18" fill="#000000" points="34.875236 0.000142750984 36.8680398 0.000142750984 36.8680398 9.6229866 35.2849313 9.6229866 30.4936373 3.49440134 30.4936373 9.6229866 28.5145377 9.6229866 28.5145377 0.000142750984 30.0842275 0.000142750984 34.875236 6.10160532"></polygon>
                                                </g>
                                            </g>
                                        </g>
                                    </g>
                                </g>
                            </g>
                        </g>
                    </g>
                </g>
            </g>
        </g>
    </g>
</svg>