<?xml version="1.0" encoding="UTF-8"?>
<svg width="154px" height="35px" viewBox="0 0 154 35" version="1.1" xmlns="http://www.w3.org/2000/svg" xmlns:xlink="http://www.w3.org/1999/xlink">
    <title>Bsc</title>
    <defs>
        <rect id="path-1" x="0" y="0" width="153.15" height="34"></rect>
        <filter color-interpolation-filters="auto" id="filter-3">
            <feColorMatrix in="SourceGraphic" type="matrix" values="0 0 0 0 0.380392 0 0 0 0 0.380392 0 0 0 0 0.380392 0 0 0 1.000000 0"></feColorMatrix>
        </filter>
    </defs>
    <g id="首页" stroke="none" stroke-width="1" fill="none" fill-rule="evenodd">
        <g id="中文-跨链Curve" transform="translate(-973.000000, -3149.000000)">
            <g id="编组-32" transform="translate(0.000000, 2600.000000)">
                <g id="编组-9" transform="translate(420.000000, 120.000000)">
                    <g id="编组-16" transform="translate(0.000000, 286.120950)">
                        <g id="编组-14" transform="translate(0.000000, 130.000000)">
                            <g id="Bsc" transform="translate(549.202859, 0.000000)">
                                <g transform="translate(4.000000, 13.000000)">
                                    <mask id="mask-2" fill="white">
                                        <use xlink:href="#path-1"></use>
                                    </mask>
                                    <g id="矩形"></g>
                                    <g filter="url(#filter-3)" id="编组-28">
                                        <g mask="url(#mask-2)">
                                            <g transform="translate(26.843157, 3.649258)" fill="#F0B90B" fill-rule="nonzero">
                                                <path d="M34.035582,13.2943215 L29.1953727,13.2943215 L29.1953727,3.50905922 L33.9312672,3.50905922 C36.0175643,3.50905922 37.2904142,4.51164757 37.2904142,6.03558186 L37.2904142,6.05563363 C37.2904142,7.15848081 36.6851794,7.78008559 35.9549754,8.16106916 C37.1233018,8.60220803 37.8535058,9.24386458 37.8535058,10.5672812 L37.8535058,10.587333 C37.8535058,12.4120438 36.3513718,13.2943215 34.035582,13.2943215 Z M35.0580763,6.39651367 C35.0580763,5.75485712 34.536502,5.39392532 33.5976683,5.39392532 L31.3859847,5.39392532 L31.3859847,7.45925732 L33.4514188,7.45925732 C34.4319785,7.45925732 35.0580763,7.15848081 35.0580763,6.41656543 L35.0580763,6.39651367 Z M35.6213765,10.32666 C35.6213765,9.66495168 35.1204565,9.26391634 33.9729931,9.26391634 L31.3859847,9.26391634 L31.3859847,11.4094554 L34.0566536,11.4094554 C35.0372133,11.4094554 35.6420308,11.0685754 35.6420308,10.3467118 L35.6420308,10.32666 L35.6213765,10.32666 Z M40.315545,13.2943215 L40.315545,3.50905922 L42.5476743,3.50905922 L42.5476743,13.2943215 L40.315545,13.2943215 Z M52.6872869,13.2943215 L47.7634171,7.07827374 L47.7634171,13.2943215 L45.5519422,13.2943215 L45.5519422,3.50905922 L47.6175849,3.50905922 L52.3949967,9.54464108 L52.3949967,3.50905922 L54.6066803,3.50905922 L54.6066803,13.2943215 L52.6872869,13.2943215 Z M64.6624238,13.2943215 L63.7235901,11.1086789 L59.425818,11.1086789 L58.4869843,13.2943215 L56.2129204,13.2943215 L60.5732814,3.42885215 L62.6389242,3.42885215 L66.9990766,13.2943215 L64.6624238,13.2943215 Z M61.574704,6.03558186 L60.2186109,9.20376104 L62.9307972,9.20376104 L61.574704,6.03558186 Z M75.7825961,13.2943215 L70.8587262,7.07827374 L70.8587262,13.2943215 L68.6474599,13.2943215 L68.6474599,3.50905922 L70.7126854,3.50905922 L75.4903058,9.54464108 L75.4903058,3.50905922 L77.7017808,3.50905922 L77.7017808,13.2943215 L75.7825961,13.2943215 Z M85.0666183,13.4747874 C82.0623504,13.4747874 79.8508755,11.2490413 79.8508755,8.4417939 L79.8508755,8.42174213 C79.8508755,5.63454652 82.0414874,3.36869685 85.1709331,3.36869685 C87.0903265,3.36869685 88.2375813,3.99030163 89.176415,4.87257938 L87.7577329,6.45666897 C86.96494,5.77490889 86.1721471,5.35382178 85.1498615,5.35382178 C83.4390979,5.35382178 82.1873196,6.71734194 82.1873196,8.40169036 L82.1873196,8.42174213 C82.1873196,10.1060906 83.3973719,11.4896625 85.1498615,11.4896625 C86.3181879,11.4896625 87.0277376,11.0485236 87.8203218,10.3467118 L89.2392125,11.7302837 C88.196064,12.7930273 87.0486005,13.4747874 85.0666183,13.4747874 Z M91.0540824,13.2943215 L91.0540824,3.50905922 L98.7318644,3.50905922 L98.7318644,5.43402885 L93.2864203,5.43402885 L93.2864203,7.41915378 L98.0849037,7.41915378 L98.0849037,9.34412341 L93.2864203,9.34412341 L93.2864203,11.4094554 L98.8151077,11.4094554 L98.8151077,13.334425 L91.0540824,13.334425 L91.0540824,13.2943215 Z" id="形状"></path>
                                                <path d="M30.1981091,18.2385416 C30.1981091,17.7620866 30.6331806,17.3870049 31.3790175,17.3870049 C32.0419837,17.3870049 32.694591,17.6404385 33.3471984,18.1168935 L34.0308822,17.1741208 C33.2954041,16.5962924 32.4563376,16.2820348 31.3997352,16.2820348 C29.9598556,16.2820348 28.9239709,17.1132967 28.9239709,18.3500523 C28.9239709,19.6679066 29.794114,20.1139496 31.3375822,20.4788939 C32.6842322,20.7830141 32.9742799,21.0566801 32.9742799,21.5736845 C32.9742799,22.1211009 32.4770553,22.4759078 31.6897829,22.4759078 C30.7885633,22.4759078 30.0945206,22.1413756 29.4004779,21.5534098 L28.6339232,22.4454958 C29.5040663,23.2057964 30.5503098,23.580878 31.6587064,23.580878 C33.1814568,23.580878 34.248418,22.7901654 34.248418,21.4520364 C34.248418,20.2660097 33.4507868,19.7287307 31.9176776,19.3637864 C30.5295921,19.0393915 30.1981091,18.7960953 30.1981091,18.2385416 Z" id="路径"></path>
                                                <polygon id="路径" points="40.9042057 18.346577 40.9042057 23.580878 42.1087107 23.580878 42.1087107 16.2820348 40.8258639 16.2820348 38.7400138 19.7333655 36.6541637 16.2820348 35.3713169 16.2820348 35.3713169 23.580878 36.5562365 23.580878 36.5562365 18.367431 38.7008429 21.7874373 38.7400138 21.7874373"></polygon>
                                                <path d="M46.8894914,16.2820348 L45.749672,16.2820348 L42.6701601,23.580878 L43.9299605,23.580878 L44.6498464,21.8312159 L47.9593218,21.8312159 L48.6692093,23.580878 L49.9690033,23.580878 L46.8894914,16.2820348 Z M47.5093931,20.7027787 L45.0997751,20.7027787 L46.2995849,17.8039302 L47.5093931,20.7027787 Z" id="形状"></path>
                                                <path d="M57.2678465,23.580878 L55.3027733,20.8177715 C56.3217002,20.536243 57.0391078,19.8063543 57.0391078,18.5968245 C57.0391078,17.1683282 56.0097838,16.2820348 54.3358326,16.2820348 L51.0919023,16.2820348 L51.0919023,23.580878 L52.3707594,23.580878 L52.3707594,21.0366946 L53.9719301,21.0366946 L55.7602507,23.580878 L57.2678465,23.580878 Z M55.7394563,18.6698134 C55.7394563,19.420556 55.1572124,19.9001972 54.2422577,19.9001972 L52.3707594,19.9001972 L52.3707594,17.4498566 L54.2318604,17.4498566 C55.1780068,17.4498566 55.7394563,17.8669359 55.7394563,18.6698134 Z" id="形状"></path>
                                                <polygon id="路径" points="61.2493931 17.4707106 63.4437907 17.4707106 63.4437907 16.2820348 57.829296 16.2820348 57.829296 17.4707106 60.0236936 17.4707106 60.0236936 23.580878 61.2493931 23.580878"></polygon>
                                                <path d="M73.5498813,22.3307927 L72.7875382,21.524286 C72.2085434,22.0888407 71.6777982,22.4416873 70.8479057,22.4416873 C69.5548174,22.4416873 68.6187758,21.312578 68.6187758,19.921396 C68.6187758,18.5301721 69.5548174,17.4212254 70.8479057,17.4212254 C71.6198987,17.4212254 72.1988935,17.7740721 72.7392886,18.2983014 L73.5016317,17.3809001 C72.8550876,16.7356948 72.1023943,16.2820348 70.8575556,16.2820348 C68.8117741,16.2820348 67.373937,17.9252921 67.373937,19.9415587 C67.373937,21.977946 68.8407238,23.580878 70.809306,23.580878 C72.0734446,23.580878 72.8454376,23.096974 73.5498813,22.3307927 Z" id="路径"></path>
                                                <polygon id="路径" points="79.6580644 20.504962 79.6580644 23.580878 80.8487245 23.580878 80.8487245 16.2820348 79.6580644 16.2820348 79.6580644 19.3162862 76.4248898 19.3162862 76.4248898 16.2820348 75.2342297 16.2820348 75.2342297 23.580878 76.4248898 23.580878 76.4248898 20.504962"></polygon>
                                                <path d="M86.1909547,16.2820348 L85.0511353,16.2820348 L81.9716234,23.580878 L83.2314237,23.580878 L83.9513096,21.8312159 L87.2607851,21.8312159 L87.9706726,23.580878 L89.2704666,23.580878 L86.1909547,16.2820348 Z M86.8108564,20.7027787 L84.4012383,20.7027787 L85.6010482,17.8039302 L86.8108564,20.7027787 Z" id="形状"></path>
                                                <polygon id="路径" points="89.8319161 16.2820348 89.8319161 23.580878 90.954815 23.580878 90.954815 16.2820348"></polygon>
                                                <polygon id="路径" points="98.1514928 21.3286501 94.3548058 16.2820348 93.2006129 16.2820348 93.2006129 23.580878 94.4256773 23.580878 94.4256773 18.3882849 98.3337338 23.580878 99.3765571 23.580878 99.3765571 16.2820348 98.1514928 16.2820348"></polygon>
                                                <polygon id="路径" points="11.5306848 3.01991763 7.11029671 5.61449475 4.4915958 4.10453594 11.5097142 0 18.5278327 4.10453594 15.951031 5.61449475"></polygon>
                                                <polygon id="路径" points="15.943316 7.86029266 18.5278327 9.33215405 18.5278327 12.2758768 14.0942099 14.8049908 14.0942099 19.8632187 11.5096932 21.3350801 8.92515555 19.8632187 8.92515555 14.8049908 4.4915958 12.2758768 4.4915958 9.33215405 7.07611248 7.86029266 11.5096932 10.3894066"></polygon>
                                                <polygon id="路径" points="18.5278327 14.0362369 18.5278327 17.0306341 15.7205853 18.5278327 15.7205853 15.5334355"></polygon>
                                                <polygon id="路径" points="15.7205853 20.6892677 20.3176961 18.2049265 20.3395054 18.2049265 20.3395054 13.2362441 23.0194285 11.790439 23.0194285 19.6507316 15.7205853 23.580878"></polygon>
                                                <polygon id="路径" points="19.9313948 7.86029266 17.4049337 6.45666897 19.9313948 5.05304528 22.457979 6.45666897 22.457979 9.26391634 19.9313948 10.66754"></polygon>
                                                <polygon id="路径" points="8.98319161 24.8909267 8.98319161 21.8965295 11.5097348 23.3937281 14.0362369 21.8965295 14.0362369 24.8909267 11.5097348 26.3881253"></polygon>
                                                <polygon id="路径" points="7.29884318 18.5278327 4.4915958 17.0306341 4.4915958 14.0362369 7.29884318 15.5334355"></polygon>
                                                <polygon id="路径" points="11.5097348 8.42174213 8.98319161 6.7373937 11.5097348 5.05304528 14.0362369 6.7373937"></polygon>
                                                <polygon id="路径" points="5.05304528 6.45666897 2.52649135 7.86029266 2.52649135 10.66754 0 9.26391634 0 6.45666897 2.52649135 5.05304528"></polygon>
                                                <polygon id="路径" points="0 11.790439 2.67982954 13.2362441 2.70163892 13.2362441 2.70163892 18.2049265 7.29884318 20.6892677 7.29884318 23.580878 0 19.6507316"></polygon>
                                            </g>
                                        </g>
                                    </g>
                                </g>
                            </g>
                        </g>
                    </g>
                </g>
            </g>
        </g>
    </g>
</svg>