<?xml version="1.0" encoding="UTF-8"?>
<svg width="154px" height="34px" viewBox="0 0 154 34" version="1.1" xmlns="http://www.w3.org/2000/svg" xmlns:xlink="http://www.w3.org/1999/xlink">
    <title>Heco</title>
    <defs>
        <rect id="path-1" x="0" y="0" width="153" height="34"></rect>
    </defs>
    <g id="首页" stroke="none" stroke-width="1" fill="none" fill-rule="evenodd">
        <g id="鼠标经过" transform="translate(-792.000000, -1427.000000)">
            <g id="编组-32" transform="translate(0.000000, 878.000000)">
                <g id="编组-9备份" transform="translate(420.000000, 130.000000)">
                    <g id="编组-16" transform="translate(0.000000, 286.000000)">
                        <g id="编组-14" transform="translate(0.000000, 120.000000)">
                            <g id="Heco" transform="translate(368.114349, 0.000000)">
                                <g transform="translate(4.000000, 13.000000)">
                                    <mask id="mask-2" fill="white">
                                        <use xlink:href="#path-1"></use>
                                    </mask>
                                    <g id="矩形"></g>
                                    <g id="heco" mask="url(#mask-2)" fill-rule="nonzero">
                                        <g transform="translate(7.000001, 9.000610)">
                                            <path d="M20.7633324,4.18771454 L20.7633324,8.85352974 L16.0363074,8.85352974 L16.0363074,4.78772445 C16.0363074,4.45621141 15.7604788,4.18771454 15.4198965,4.18771454 L13.8240537,4.18771454 L13.8240537,15.3057176 C13.8240537,15.6372369 14.0998822,15.90569 14.4404645,15.90569 L16.0363074,15.90569 L16.0363074,10.7343892 L20.7633324,10.7343892 L20.7633324,15.3043425 C20.7633324,15.6358618 21.0391609,15.9043149 21.3797433,15.9043149 L22.9755861,15.9043149 L22.9755861,4.78772445 C22.9755861,4.45621141 22.6997576,4.18771454 22.3591752,4.18771454 L20.7633324,4.18771454 Z" id="路径" fill="#FFFFFF"></path>
                                            <path d="M30.0413097,6.95016901 L30.0413097,12.5023045 C30.0413097,13.0064589 29.7767318,13.4845492 29.3278307,13.7379389 C28.0753203,14.4420424 26.7792449,13.5626162 26.7792449,12.4022987 L26.7792449,7.55020392 C26.7792449,7.21868463 26.5034163,6.95016901 26.162834,6.95016901 L24.5613659,6.95016901 L24.5613659,12.5995602 C24.5613659,14.4174159 26.0896423,15.9051275 27.9571259,15.9051275 L28.8648037,15.9051275 C30.7322874,15.9051275 32.2605638,14.4174159 32.2605638,12.5995602 L32.2605638,7.55020392 C32.2605638,7.21868463 31.9847352,6.95016901 31.6442154,6.95016901 L30.0413097,6.95016901 Z" id="路径" fill="#FFFFFF"></path>
                                            <path d="M54.5196713,15.9051275 L56.1155141,15.9051275 L56.1155141,8.04198253 C56.1155141,7.71046324 55.8396856,7.44201012 55.4991033,7.44201012 L53.9032604,7.44201012 L53.9032604,15.3051551 C53.9032604,15.6366744 54.179089,15.9051275 54.5196713,15.9051275 Z" id="路径" fill="#01943F"></path>
                                            <path d="M55.0092623,6.59021057 C55.6909269,6.59021057 56.2434591,6.05230427 56.2434591,5.38879692 C56.2434591,4.72528957 55.6909269,4.18740827 55.0092623,4.18740827 C54.3276601,4.18740827 53.775128,4.72528957 53.775128,5.38879692 C53.775128,6.05230427 54.3276601,6.59021057 55.0092623,6.59021057 Z" id="路径" fill="#01943F"></path>
                                            <path d="M38.0490881,6.94466869 C35.7285155,6.94466869 33.8300926,8.55976265 33.8300926,10.8187066 L33.8300926,12.0406527 C33.8300926,14.2995966 35.7285155,15.9051275 38.0490881,15.9051275 C40.3697231,15.9051275 42.268146,14.2995966 42.268146,12.0406527 L42.268146,10.8187066 C42.268146,8.55976265 40.3697231,6.94466869 38.0490881,6.94466869 Z M40.0446417,12.1872237 C40.0446417,13.2557234 39.1467769,13.9667022 38.0490881,13.9667022 C36.9514617,13.9667022 36.053597,13.2557234 36.053597,12.1872237 L36.053597,10.6625725 C36.053597,9.59401032 36.9514617,8.88309396 38.0490881,8.88309396 C39.1467769,8.88309396 40.0446417,9.59401032 40.0446417,10.6625725 L40.0446417,12.1872237 Z" id="形状" fill="#FFFFFF"></path>
                                            <path d="M48.0899847,6.94466869 C47.3652551,6.94466869 46.6812778,7.10217785 46.0831805,7.38850701 L46.0831805,4.77749885 C46.0831805,4.44598582 45.8073519,4.17748895 45.4668321,4.17748895 L43.8709893,4.17748895 L43.8709893,12.0406527 C43.8709893,14.2995966 45.7693497,15.905065 48.0899847,15.905065 C50.4105572,15.905065 52.3089802,14.2995966 52.3089802,12.0406527 L52.3089802,10.8187066 C52.3089802,8.55976265 50.4105572,6.94466869 48.0899847,6.94466869 Z M50.0854758,12.1872237 C50.0854758,13.2557234 49.1876736,13.9667022 48.0899847,13.9667022 C46.9922959,13.9667022 46.0944311,13.2557234 46.0944311,12.1872237 L46.0944311,10.66251 C46.0944311,9.59401032 46.9922959,8.88303146 48.0899847,8.88303146 C49.1876736,8.88303146 50.0854758,9.59401032 50.0854758,10.66251 L50.0854758,12.1872237 Z" id="形状" fill="#01943F"></path>
                                            <path d="M7.14916535,5.00104311 C7.14916535,2.66812613 5.98109739,0.661246878 5.09310823,0.00781267463 C5.08888298,0.00644278243 5.02556055,-0.0291742272 5.03118587,0.0639777547 C5.03118587,0.0653478344 5.02977954,0.0653478344 5.02977954,0.0667179141 C4.95660029,4.57226816 2.59237524,5.79283293 1.29204959,7.43807239 C-1.70826872,11.2340432 1.08236239,15.3957229 3.92365894,16.1642051 C5.51388271,16.5943551 3.55635632,15.4025983 3.30445417,12.8847018 C2.9990739,9.84221226 7.14916535,7.52026467 7.14916535,5.00104311 Z" id="路径" fill="#FFFFFF"></path>
                                            <path d="M8.52905813,6.53514486 C8.51074456,6.52276914 8.48543059,6.51458117 8.46711702,6.54333284 C8.41786416,7.11049083 7.82257952,8.32418645 7.06828564,9.43787624 C4.50986179,13.2160335 5.96780287,15.0380145 6.78826935,16.0160714 C7.26392202,16.5846045 6.78826935,16.0160714 7.97740103,15.4352877 C8.07028143,15.390035 10.2994111,14.1735893 10.5400501,11.402303 C10.7750638,8.7187094 9.11871743,7.02692347 8.52905813,6.53514486 Z" id="路径" fill="#01943F"></path>
                                            <path d="M68.5221109,13.8270066 L62.7742765,13.8270066 L62.7742765,10.8475207 L67.2201602,10.8475207 C67.268288,10.8475207 67.5551797,10.8530211 67.9026999,10.8639592 L67.9939552,10.8667094 L67.9939552,9.55844575 C67.9939552,9.36255936 67.9183258,9.18036126 67.7789427,9.04335329 C67.6395596,8.90640782 67.4639244,8.82421554 67.2595375,8.83652875 L62.7742765,8.83652875 L62.7742765,6.28031754 L69.0821435,6.28031754 L69.0821435,4.92413864 C69.0821435,4.52550294 68.7596247,4.20220914 68.3646018,4.20220914 L60.6355271,4.20220914 L60.6355271,4.29125182 C60.6355271,4.29125182 60.6312769,12.7489439 60.6242764,15.1818354 C60.6242764,15.3749716 60.6974057,15.5557947 60.8325386,15.6928026 C60.9676089,15.8298106 61.149182,15.9051275 61.3419432,15.9051275 L69.2396527,15.9051275 L69.2396527,14.5489236 C69.2396527,14.1503379 68.9171339,13.8270066 68.5221109,13.8270066 Z" id="路径" fill="#FFFFFF"></path>
                                            <path d="M80.1702886,7.24462364 C79.4258703,6.29944365 77.9351586,5.99667603 76.911974,5.99667603 C74.7987261,5.99667603 73.2211343,7.48163743 73.2211343,9.72414289 C73.2211343,12.4392384 74.763099,13.8063804 76.9982291,13.8063804 C78.1757976,13.8063804 79.4933742,13.3516039 80.1346615,12.6926906 L80.2221666,12.6926906 L80.2221666,14.289971 C80.2221666,14.9666979 78.9033399,15.8132471 76.6869609,15.8132471 C73.5330275,15.8132471 70.8297452,13.5187387 70.8297452,10.0611 C70.8297452,6.50214294 73.2730123,3.9884217 76.8950981,3.9884217 C78.835836,3.9884217 80.2571687,4.66103583 80.2571687,5.18707268 L80.2571687,7.24324856 L80.1702886,7.24324856 L80.1702886,7.24462364 Z" id="路径" fill="#FFFFFF"></path>
                                            <path d="M87.138819,4.20358422 C84.1142681,4.20358422 81.8335104,6.3501966 81.8335104,9.19817479 L81.8335104,10.9064617 C81.8335104,13.7461894 84.1142681,15.887314 87.138819,15.887314 C90.16337,15.887314 92.4441277,13.7461894 92.4441277,10.9064617 L92.4441277,9.19817479 C92.4441277,6.3501966 90.16337,4.20358422 87.138819,4.20358422 Z M90.267126,11.1119111 C90.267126,12.7708201 88.9220478,13.79963 87.1375689,13.79963 C85.3530901,13.79963 84.0073868,12.7708201 84.0073868,11.1119111 L84.0073868,8.98034962 C84.0073868,7.32144061 85.3530901,6.27075448 87.1375689,6.27075448 C88.9220478,6.27075448 90.267126,7.32144061 90.267126,8.98034962 L90.267126,11.1119111 Z" id="形状" fill="#FFFFFF"></path>
                                            <path d="M123.00153,7.57351777 C122.335867,7.05573765 121.36081,6.79272235 120.105112,6.79272235 C119.63821,6.79272235 119.148181,6.82559926 118.647527,6.89135309 C118.246254,6.94335611 117.676221,7.0187355 117.282448,7.10636559 C117.121813,7.14199267 117.093687,7.26393726 117.093687,7.41050829 L117.093687,8.57901377 C117.093687,8.78727589 117.096812,8.97628688 117.321825,8.92284627 C117.743725,8.82284046 118.563147,8.64614268 118.78566,8.6105156 C119.136931,8.55438734 119.521328,8.52557316 119.923851,8.52557316 C120.552638,8.52557316 121.031416,8.63520454 121.349559,8.85027955 C121.646452,9.05297885 121.798335,9.43931382 121.798335,9.99822134 L121.798335,10.0653502 C121.687079,10.0557872 121.563322,10.0461616 121.429564,10.0365986 C121.178924,10.0201601 120.858281,10.0119096 120.465758,10.0119096 C119.930727,10.0119096 119.413197,10.0708506 118.926293,10.1872948 C118.43189,10.3050517 117.987489,10.4886249 117.606217,10.7324516 C117.217444,10.9804035 116.905551,11.2954843 116.679913,11.668131 C116.452399,12.0448404 116.336768,12.4845535 116.336768,12.9763321 C116.336768,13.4763612 116.435523,13.9106365 116.63116,14.2695323 C116.828046,14.6311784 117.110563,14.9325709 117.471209,15.1640844 C117.825604,15.3942228 118.26188,15.5613575 118.765659,15.664051 C119.255688,15.7626817 119.810095,15.8133722 120.41388,15.8133722 C120.852655,15.8133722 124.02034,15.7695571 124.02034,14.3024092 C124.02034,12.6023728 124.02034,10.061225 124.02034,10.061225 C124.01909,8.93653457 123.677195,8.09954838 123.00153,7.57351777 Z M121.798335,11.7379476 L121.798335,13.9968915 C121.6252,14.0297684 121.433939,14.0558324 121.225802,14.0736459 C120.717648,14.1202111 120.260121,14.1283991 119.73134,14.0818339 C119.524453,14.0640204 119.332567,14.0120174 119.162557,13.9298251 C118.998173,13.8503204 118.864415,13.7366263 118.751908,13.5832424 C118.644402,13.437984 118.591274,13.2229089 118.591274,12.9448303 C118.591274,12.5106175 118.750033,12.2009745 119.076927,11.995525 C119.424447,11.7763248 119.951978,11.6653808 120.644518,11.6653808 C120.831404,11.6653808 121.058292,11.676319 121.327058,11.6968827 C121.505818,11.710571 121.662078,11.7242593 121.798335,11.7379476 Z" id="形状" fill="#FFFFFF"></path>
                                            <path d="M133.722779,6.83234965 C132.848978,6.83234965 131.878922,7.03642403 131.718913,7.47344945 L131.718913,7.26656241 C131.718913,6.95285666 131.458272,6.69946692 131.136379,6.69946692 L129.372526,6.69946692 L129.372526,15.2475267 C129.372526,15.5612325 129.633166,15.8146847 129.955685,15.8146847 L131.702037,15.8146847 L131.702037,10.9337758 C131.702037,9.35018364 132.643341,8.81590255 133.364008,8.81590255 C134.374067,8.81590255 135.19599,9.39949901 135.19599,10.8666469 L135.19599,15.2461517 C135.19599,15.5598574 135.45663,15.8133097 135.778524,15.8133097 L137.507999,15.8133097 L137.507999,10.766641 C137.507999,8.21593015 136.103543,6.83234965 133.722779,6.83234965 Z" id="路径" fill="#FFFFFF"></path>
                                            <path d="M126.213592,15.7091786 L127.80931,15.7091786 L127.80931,7.84609613 C127.80931,7.51457684 127.533044,7.24606122 127.193024,7.24606122 L125.596681,7.24606122 L125.596681,15.1092062 C125.596681,15.4407255 125.872948,15.7091786 126.213592,15.7091786 Z" id="路径" fill="#FFFFFF"></path>
                                            <path d="M126.702996,6.39257407 C127.384285,6.39257407 127.936818,5.85469277 127.936818,5.19118542 C127.936818,4.52767807 127.384285,3.98979678 126.702996,3.98979678 C126.021081,3.98979678 125.468549,4.52767807 125.468549,5.19118542 C125.468549,5.85469277 126.021081,6.39257407 126.702996,6.39257407 Z" id="路径" fill="#FFFFFF"></path>
                                            <path d="M105.029235,7.24462364 C104.284817,6.29944365 102.79473,5.99667603 101.771545,5.99667603 C99.6576723,5.99667603 98.0800806,7.48163743 98.0800806,9.72414289 C98.0800806,12.4392384 99.6226703,13.8063804 101.857175,13.8063804 C103.035369,13.8063804 104.35232,13.3516039 104.994233,12.6926906 L105.081113,12.6926906 L105.081113,14.289971 C105.081113,14.9666979 103.762911,15.8132471 101.546532,15.8132471 C98.3925987,15.8132471 95.6893165,13.5187387 95.6893165,10.0611 C95.6893165,6.50214294 98.1319586,3.9884217 101.754669,3.9884217 C103.695407,3.9884217 105.11674,4.66103583 105.11674,5.18707268 L105.11674,7.24324856 L105.029235,7.24324856 L105.029235,7.24462364 Z" id="路径" fill="#FFFFFF"></path>
                                            <path d="M111.002082,6.98860874 C110.136407,6.98860874 109.176976,7.18999546 109.017592,7.62420822 L109.017592,4.5995135 C109.017592,4.28992049 108.758827,4.03786207 108.440683,4.03786207 L106.694332,4.03786207 L106.694332,15.2530896 C106.694332,15.5627326 106.953097,15.8147472 107.27124,15.8147472 L109.000716,15.8147472 L109.000716,11.0502825 C109.000716,9.48175379 109.933895,8.95303553 110.645812,8.95303553 C111.646495,8.95303553 112.461542,9.53113166 112.461542,10.9845287 L112.461542,15.2517145 C112.461542,15.5613575 112.720307,15.8133722 113.038451,15.8133722 L114.75105,15.8133722 L114.75105,10.885898 C114.75105,8.35987602 113.359094,6.98860874 111.002082,6.98860874 Z" id="路径" fill="#FFFFFF"></path>
                                        </g>
                                    </g>
                                </g>
                            </g>
                        </g>
                    </g>
                </g>
            </g>
        </g>
    </g>
</svg>