<?xml version="1.0" encoding="UTF-8"?>
<svg width="28px" height="28px" viewBox="0 0 28 28" version="1.1" xmlns="http://www.w3.org/2000/svg" xmlns:xlink="http://www.w3.org/1999/xlink">
    <title>Polygon</title>
    <g id="页面-1" stroke="none" stroke-width="1" fill="none" fill-rule="evenodd">
        <g id="GameFi" transform="translate(-1870.000000, -547.000000)" fill-rule="nonzero">
            <g id="Polygon" transform="translate(1870.000000, 547.000000)">
                <path d="M14,0 C21.7348416,0 28,6.26515837 28,14 C28,21.7348416 21.7348416,28 14,28 C6.26515837,28 0,21.7348416 0,14 C0,6.26515837 6.26515837,0 14,0 Z" id="路径" fill="#FFFFFF"></path>
                <path d="M18.5830177,10.7138508 C18.2508781,10.51812 17.8191585,10.51812 17.4538943,10.7138508 L14.8634392,12.2144578 L13.1032987,13.1931322 L10.5129123,14.6937049 C10.1808071,14.8894288 9.74907376,14.8894288 9.38376145,14.6937049 L7.32472282,13.5192929 C6.99261759,13.323569 6.76014737,12.9647648 6.76014737,12.5732964 L6.76014737,10.2571434 C6.76014737,9.86568188 6.95941051,9.5068433 7.32472282,9.31111254 L9.3505475,8.16935094 C9.68265272,7.97362018 10.1143861,7.97362018 10.4796984,8.16935094 L12.5055437,9.31111254 C12.8376145,9.5068433 13.0701054,9.86568188 13.0701054,10.2571434 L13.0701054,11.7577504 L14.8302459,10.7464737 L14.8302459,9.24587354 C14.8302459,8.85440515 14.6310171,8.49556657 14.2656842,8.29983582 L10.5129123,6.14679817 C10.1808071,5.95106728 9.74907376,5.95106728 9.38376145,6.14679817 L5.56457544,8.29983582 C5.19926176,8.49556657 5,8.85440515 5,9.24587354 L5,13.58458 C5,13.9760278 5.19926176,14.3349007 5.56457544,14.5306246 L9.38376145,16.6836561 C9.7158598,16.87938 10.1476,16.87938 10.5129123,16.6836561 L13.1032987,15.2156582 L14.8634392,14.2043952 L17.4538943,12.7364042 C17.7859652,12.5406735 18.2176848,12.5406735 18.5830177,12.7364042 L20.6088424,13.8781658 C20.9409133,14.0738897 21.1734041,14.4327627 21.1734041,14.8242104 L21.1734041,17.1403222 C21.1734041,17.5318387 20.9741753,17.8906429 20.6088424,18.0863668 L18.5830177,19.2607789 C18.2508781,19.4565027 17.8191585,19.4565027 17.4538943,19.2607789 L15.4280696,18.1190104 C15.0959301,17.9232865 14.8634392,17.5644135 14.8634392,17.1729658 L14.8634392,15.6723931 L13.1032987,16.6836561 L13.1032987,18.1842288 C13.1032987,18.5756765 13.3025962,18.9345495 13.6678604,19.1302734 L17.4870877,21.2833048 C17.8191585,21.4790287 18.2508781,21.4790287 18.6162111,21.2833048 L22.4354383,19.1302734 C22.7675092,18.9345495 23,18.5756765 23,18.1842288 L23,13.8455223 C23,13.4540745 22.8007025,13.0952703 22.4354383,12.8995464 L18.5830177,10.7138508 Z" id="路径" fill="#8247E5"></path>
            </g>
        </g>
    </g>
</svg>