<?xml version="1.0" encoding="UTF-8"?>
<svg width="11px" height="11px" viewBox="0 0 11 11" version="1.1" xmlns="http://www.w3.org/2000/svg" xmlns:xlink="http://www.w3.org/1999/xlink">
    <!-- Generator: Sketch 60.1 (88133) - https://sketch.com -->
    <title>刷新</title>
    <desc>Created with Sketch.</desc>
    <g id="2.0" stroke="none" stroke-width="1" fill="none" fill-rule="evenodd">
        <g id="logo切图" transform="translate(-491.000000, -148.000000)" fill-rule="nonzero">
            <g id="编组-4" transform="translate(455.000000, 142.000000)">
                <g id="刷新" transform="translate(34.000000, 4.000000)">
                    <rect id="矩形" fill="#000000" opacity="0" x="0" y="0" width="14" height="14"></rect>
                    <path d="M4.84125,4.03437837 L5.46609375,4.47187837 C5.61109375,4.57344087 5.64640625,4.77328462 5.54484375,4.91828462 C5.50514725,4.97487592 5.44827579,5.01717339 5.38265625,5.03890962 L3.211875,5.75453462 C3.04375,5.81000337 2.86265625,5.71859712 2.8071875,5.55047212 C2.79744947,5.52094271 2.79208021,5.49014843 2.79125,5.45906587 L2.728125,3.17937837 C2.723125,3.00250337 2.86265625,2.85500337 3.03953125,2.85015962 C3.10828125,2.84828462 3.1759375,2.86859712 3.23234375,2.90797212 L3.74921875,3.26984712 C4.68358623,2.44999927 5.88459912,1.99857796 7.12765625,2 C9.9596875,2 12.2553125,4.29578462 12.2553125,7.12765962 C12.2553125,9.95953462 9.9596875,12.2551596 7.12765625,12.2551596 C4.295625,12.2551596 2,9.95953462 2,7.12750337 L3.281875,7.12750337 C3.281875,9.25140962 5.00375,10.9732846 7.12765625,10.9732846 C9.2515625,10.9732846 10.9734375,9.25140962 10.9734375,7.12750337 C10.9734375,5.00359712 9.2515625,3.28172212 7.12765625,3.28172212 C6.30448202,3.28064026 5.50281871,3.54453776 4.84125,4.03437837 Z" id="路径" fill="#FFD400"></path>
                </g>
            </g>
        </g>
    </g>
</svg>