<?xml version="1.0" encoding="UTF-8"?>
<svg width="180px" height="180px" viewBox="0 0 180 180" version="1.1" xmlns="http://www.w3.org/2000/svg" xmlns:xlink="http://www.w3.org/1999/xlink">
    <title>回购销毁</title>
    <g id="首页" stroke="none" stroke-width="1" fill="none" fill-rule="evenodd">
        <g id="中文-跨链Curve" transform="translate(-1170.000000, -2184.000000)">
            <g id="编组-10" transform="translate(570.000000, 1994.000000)">
                <g id="编组-7" transform="translate(0.000000, 190.000000)">
                    <g id="编组-6备份-2" transform="translate(600.000000, 0.000000)">
                        <g id="编组" transform="translate(23.400000, 17.397000)">
                            <polyline id="Stroke-5" stroke="#3B3C3E" stroke-width="6" stroke-linecap="round" stroke-linejoin="round" points="113.22666 48.35214 104.70546 50.72994 86.87106 37.85004 95.3297392 14.0518403"></polyline>
                            <polyline id="Stroke-7" stroke="#3B3C3E" stroke-width="6" stroke-linecap="round" stroke-linejoin="round" points="116.20746 67.92939 101.93796 77.63229 105.08706 96.66279 124.84026 102.45519"></polyline>
                            <line x1="38.9529" y1="64.67607" x2="5.4306" y2="55.48707" id="Stroke-9" stroke="#3B3C3E" stroke-width="6" stroke-linecap="round" stroke-linejoin="round"></line>
                            <polyline id="Stroke-11" stroke="#3B3C3E" stroke-width="6" stroke-linecap="round" stroke-linejoin="round" points="35.3727 85.34313 24.0777 102.43503 43.101 108.67653 55.1232 135.57753"></polyline>
                            <path d="M86.27634,68.93658 L66.51324,35.84268 L66.51324,14.23728 C71.28234,12.89988 76.31154,12.18348 81.50814,12.18348 C112.10724,12.18348 136.91214,36.98928 136.91214,67.58748 C136.91214,90.02628 123.57234,109.34928 104.39064,118.06038 L82.31364,84.39318" id="Stroke-1" stroke="#886E00" stroke-width="6" stroke-linecap="round" stroke-linejoin="round"></path>
                            <path d="M40.0239,26.19189 C16.9074,32.85729 0,54.17019 0,79.43229 C0,110.03139 24.8049,134.83629 55.404,134.83629 C63.4149,134.83629 71.0298,133.13619 77.9049,130.07619 L56.0727,96.33339 L60.5313,80.51409 L40.3191,46.69299" id="Stroke-3" stroke="#886E00" stroke-width="6" stroke-linecap="round" stroke-linejoin="round"></path>
                            <path d="M71.9505,69.8778 C71.9505,71.3556 70.7526,72.5535 69.2757,72.5535 C67.7979,72.5535 66.6,71.3556 66.6,69.8778 C66.6,68.4 67.7979,67.203 69.2757,67.203 C70.7526,67.203 71.9505,68.4 71.9505,69.8778" id="Fill-3" fill="#886E00"></path>
                            <line x1="52.2" y1="0.603" x2="51.72084" y2="5.5152" id="Stroke-13" stroke="#886E00" stroke-width="6" stroke-linecap="round" stroke-linejoin="round"></line>
                            <line x1="32.4" y1="6.903" x2="39.60036" y2="11.4939" id="Stroke-15" stroke="#3B3C3E" stroke-width="6" stroke-linecap="round" stroke-linejoin="round"></line>
                            <line x1="52.37379" y1="31.53294" x2="54.30519" y2="31.53294" id="Stroke-19" stroke="#3B3C3E" stroke-width="6" stroke-linecap="round" stroke-linejoin="round"></line>
                            <line x1="61.42347" y1="52.19172" x2="60.25077" y2="54.86742" id="Stroke-21" stroke="#3B3C3E" stroke-width="6" stroke-linecap="round" stroke-linejoin="round"></line>
                            <line x1="77.93685" y1="100.79172" x2="78.08625" y2="102.87252" id="Stroke-23" stroke="#3B3C3E" stroke-width="6" stroke-linecap="round" stroke-linejoin="round"></line>
                            <line x1="85.81401" y1="118.77498" x2="89.52921" y2="118.06038" id="Stroke-25" stroke="#3B3C3E" stroke-width="6" stroke-linecap="round" stroke-linejoin="round"></line>
                            <line x1="101.93751" y1="132.10974" x2="108" y2="136.503" id="Stroke-29" stroke="#3B3C3E" stroke-width="6" stroke-linecap="round" stroke-linejoin="round"></line>
                            <line x1="89.47206" y1="139.35942" x2="89.47206" y2="142.55442" id="Stroke-31" stroke="#886E00" stroke-width="6" stroke-linecap="round" stroke-linejoin="round"></line>
                        </g>
                    </g>
                </g>
            </g>
        </g>
    </g>
</svg>