<?xml version="1.0" encoding="UTF-8"?>
<svg width="180px" height="180px" viewBox="0 0 180 180" version="1.1" xmlns="http://www.w3.org/2000/svg" xmlns:xlink="http://www.w3.org/1999/xlink">
    <title>社区治理</title>
    <g id="首页" stroke="none" stroke-width="1" fill="none" fill-rule="evenodd">
        <g id="中文-跨链Curve" transform="translate(-570.000000, -2184.000000)">
            <g id="编组-10" transform="translate(570.000000, 1994.000000)">
                <g id="编组-7" transform="translate(0.000000, 190.000000)">
                    <g id="编组" transform="translate(18.000000, 22.500000)">
                        <path d="M19.6236798,40.7533152 C19.6236798,46.1725123 15.2305697,50.5646879 9.81230718,50.5646879 C4.3931101,50.5646879 0,46.1725123 0,40.7533152 C0,35.3350527 4.3931101,30.9419426 9.81230718,30.9419426 C15.2305697,30.9419426 19.6236798,35.3350527 19.6236798,40.7533152 Z" id="Stroke-1" stroke="#886E00" stroke-width="6"></path>
                        <path d="M81.811653,21.0533797 C81.811653,26.4716423 77.4194774,30.8647524 72.0002804,30.8647524 C66.5820178,30.8647524 62.1889077,26.4716423 62.1889077,21.0533797 C62.1889077,15.6341827 66.5820178,11.2410726 72.0002804,11.2410726 C77.4194774,11.2410726 81.811653,15.6341827 81.811653,21.0533797 Z" id="Stroke-3" stroke="#3B3C3E" stroke-width="6"></path>
                        <path d="M81.811653,113.954155 C81.811653,119.372417 77.4185429,123.765527 71.9993458,123.765527 C66.5810833,123.765527 62.1879732,119.372417 62.1879732,113.954155 C62.1879732,108.534958 66.5810833,104.141848 71.9993458,104.141848 C77.4185429,104.141848 81.811653,108.534958 81.811653,113.954155 Z" id="Stroke-5" stroke="#3B3C3E" stroke-width="6"></path>
                        <path d="M144,94.2528175 C144,99.6720145 139.60689,104.065125 134.188627,104.065125 C128.76943,104.065125 124.37632,99.6720145 124.37632,94.2528175 C124.37632,88.8345549 128.76943,84.4414448 134.188627,84.4414448 C139.60689,84.4414448 144,88.8345549 144,94.2528175 Z" id="Stroke-7" stroke="#886E00" stroke-width="6"></path>
                        <path d="M129.504699,102.87606 C117.619659,122.155842 96.3110657,135.006226 71.9999065,135.006226 C39.8902994,135.006226 13.0176609,112.587441 6.17988451,82.5486975" id="Stroke-9" stroke="#886E00" stroke-width="6" stroke-linecap="round"></path>
                        <path d="M14.4962354,32.1301662 C26.3812756,12.8513189 47.6898688,0 72.0000935,0 C109.281254,0 139.504094,30.2219061 139.504094,67.5040009 C139.504094,73.5287575 138.714437,79.3694165 137.233246,84.9287894" id="Stroke-11" stroke="#886E00" stroke-width="6"></path>
                        <path d="M62.4083296,114.130216 C40.7203272,109.692249 24.4057311,90.5031144 24.4057311,67.5030663 C24.4057311,44.5908618 40.597907,25.4596664 62.1625546,20.9273149" id="Stroke-13" stroke="#3B3C3E" stroke-width="6"></path>
                        <path d="M108.726064,37.2292952 C115.516181,45.4557466 119.594362,56.0035096 119.594362,67.5035336 C119.594362,90.4166726 103.403121,109.546934 81.8375388,114.079285" id="Stroke-15" stroke="#3B3C3E" stroke-width="6" stroke-linecap="round"></path>
                        <path d="M98.749938,67.5035336 C98.749938,82.2771302 86.7742507,94.253752 71.9997196,94.253752 C57.2261231,94.253752 45.2504358,82.2771302 45.2504358,67.5035336 C45.2504358,52.729937 57.2261231,40.7533152 71.9997196,40.7533152 C86.7742507,40.7533152 98.749938,52.729937 98.749938,67.5035336 Z" id="Stroke-17" stroke="#886E00" stroke-width="6"></path>
                        <path d="M83.7002804,67.5035336 C83.7002804,73.9654218 78.4621686,79.2035336 72.0002804,79.2035336 C65.5383922,79.2035336 60.3002804,73.9654218 60.3002804,67.5035336 C60.3002804,61.0416454 65.5383922,55.8035336 72.0002804,55.8035336 C78.4621686,55.8035336 83.7002804,61.0416454 83.7002804,67.5035336 Z" id="Stroke-19" stroke="#3B3C3E" stroke-width="6"></path>
                        <path d="M101.128722,28.2419694 C101.128722,29.7904449 99.8736808,31.0454858 98.3252053,31.0454858 C96.7767298,31.0454858 95.521689,29.7904449 95.521689,28.2419694 C95.521689,26.6934939 96.7767298,25.4384531 98.3252053,25.4384531 C99.8736808,25.4384531 101.128722,26.6934939 101.128722,28.2419694" id="Fill-21" fill="#3B3C3E"></path>
                        <path d="M7.14064956,69.6139272 C7.14064956,71.1624028 5.88560875,72.4174436 4.33713322,72.4174436 C2.7886577,72.4174436 1.53361689,71.1624028 1.53361689,69.6139272 C1.53361689,68.0654517 2.7886577,66.8104109 4.33713322,66.8104109 C5.88560875,66.8104109 7.14064956,68.0654517 7.14064956,69.6139272" id="Fill-23" fill="#886E00"></path>
                    </g>
                </g>
            </g>
        </g>
    </g>
</svg>