<?xml version="1.0" encoding="UTF-8"?>
<svg width="180px" height="180px" viewBox="0 0 180 180" version="1.1" xmlns="http://www.w3.org/2000/svg" xmlns:xlink="http://www.w3.org/1999/xlink">
    <title>质押挖矿</title>
    <g id="首页" stroke="none" stroke-width="1" fill="none" fill-rule="evenodd">
        <g id="中文-跨链Curve" transform="translate(-870.000000, -2184.000000)">
            <g id="编组-10" transform="translate(570.000000, 1994.000000)">
                <g id="编组-7" transform="translate(0.000000, 190.000000)">
                    <g id="编组-6备份" transform="translate(300.000000, 0.000000)">
                        <g id="编组" transform="translate(20.700000, 13.500000)">
                            <line x1="51.01344" y1="24.3521796" x2="51.01344" y2="44.8388796" id="Stroke-21" stroke="#3B3C3E" stroke-width="6" stroke-linecap="round" stroke-linejoin="round"></line>
                            <line x1="86.73489" y1="22.4466996" x2="86.73489" y2="43.9710996" id="Stroke-23" stroke="#3B3C3E" stroke-width="6" stroke-linecap="round" stroke-linejoin="round"></line>
                            <path d="M70.50276,22.4466996 L83.97666,4.75719963 C87.41106,0.247299635 93.79026,-0.751700365 98.43966,2.49099963 C101.86506,4.87959963 103.44006,8.92779963 102.84246,12.7914996" id="Stroke-15" stroke="#886E00" stroke-width="6" stroke-linecap="round" stroke-linejoin="round"></path>
                            <path d="M62.3099865,11.517744 L55.97505,3.83379963 C52.74225,-0.228800365 46.96515,-1.19990037 42.58125,1.58199963 C37.85805,4.57989963 36.44775,10.8312996 39.42495,15.5670996 C42.11685,19.8483996 46.81935,22.4466996 51.87735,22.4466996 L61.98165,22.4466996" id="Stroke-17" stroke="#886E00" stroke-width="6" stroke-linecap="round" stroke-linejoin="round"></path>
                            <line x1="81.44343" y1="55.4641896" x2="81.44343" y2="88.4878896" id="Stroke-11" stroke="#3B3C3E" stroke-width="6" stroke-linecap="round" stroke-linejoin="round"></line>
                            <path d="M28.33506,44.8390596 L28.33506,84.8098596 C28.33506,88.4467596 29.80476,91.7407596 32.18256,94.1302596" id="Stroke-13" stroke="#886E00" stroke-width="6" stroke-linecap="round" stroke-linejoin="round"></path>
                            <path d="M106.535589,93.2268926 C109.164489,90.8112926 109.58202,88.6605996 109.58202,84.8094996 L109.58202,46.1274996" id="Stroke-19" stroke="#886E00" stroke-width="6" stroke-linecap="round" stroke-linejoin="round"></path>
                            <path d="M17.22393,138.47686 C17.22393,139.95466 16.02603,141.15256 14.54913,141.15256 C13.07133,141.15256 11.87343,139.95466 11.87343,138.47686 C11.87343,136.99906 13.07133,135.80206 14.54913,135.80206 C16.02603,135.80206 17.22393,136.99906 17.22393,138.47686" id="Fill-3" fill="#886E00"></path>
                            <path d="M20.40156,106.55629 C22.58856,101.06809 32.05296,90.8764896 43.49736,90.8764896 L87.07176,90.8764896 C92.28816,90.8764896 96.55596,95.1442896 96.55596,100.36069 C96.55596,105.57709 92.28816,109.84489 87.07176,109.84489 L62.27316,109.84489" id="Stroke-5" stroke="#886E00" stroke-width="6" stroke-linecap="round"></path>
                            <path d="M0,98.7529296 L10.3275,96.1717296 C14.1561,95.2141296 18.0432,97.5181296 19.0395,101.33863 L29.5434,141.58393 C30.5469,145.42783 28.2465,149.35903 24.4035,150.36703 L13.2273,153.29743" id="Stroke-1" stroke="#3B3C3E" stroke-width="6" stroke-linecap="round" stroke-linejoin="round"></path>
                            <path d="M39.38508,134.12536 L82.99908,134.12536 C88.67088,134.12536 94.11408,131.89426 98.15238,127.91446 L135.79128,90.8245596 C139.60998,87.0616596 139.47678,80.8606596 135.50058,77.2651596 C131.78808,73.9090596 126.08928,74.0809596 122.58648,77.6539596 L106.535589,93.2268926" id="Stroke-7" stroke="#886E00" stroke-width="6" stroke-linecap="round"></path>
                            <path d="M72.92196,44.8390596 L112.00086,44.8390596 C115.97706,44.8390596 119.20086,41.6152596 119.20086,37.6390596 L119.20086,29.6470596 C119.20086,25.6699596 115.97706,22.4470596 112.00086,22.4470596 L28.83006,22.4470596 C24.85386,22.4470596 21.63006,25.6699596 21.63006,29.6470596 L21.63006,37.6390596 C21.63006,41.6152596 24.85386,44.8390596 28.83006,44.8390596 C40.8114208,44.8390596 49.7974413,44.8390596 55.7881217,44.8390596" id="路径" stroke="#886E00" stroke-width="6" stroke-linecap="round" stroke-linejoin="round"></path>
                            <line x1="58.5" y1="56.7" x2="58.47876" y2="79.5673596" id="路径" stroke="#3B3C3E" stroke-width="6" stroke-linecap="round" stroke-linejoin="round"></line>
                        </g>
                    </g>
                </g>
            </g>
        </g>
    </g>
</svg>