<?xml version="1.0" encoding="UTF-8"?>
<svg width="18px" height="18px" viewBox="0 0 18 18" version="1.1" xmlns="http://www.w3.org/2000/svg" xmlns:xlink="http://www.w3.org/1999/xlink">
    <!-- Generator: Sketch 60.1 (88133) - https://sketch.com -->
    <title>ic_success</title>
    <desc>Created with Sketch.</desc>
    <g id="2.0" stroke="none" stroke-width="1" fill="none" fill-rule="evenodd">
        <g id="pool备份-3" transform="translate(-926.000000, -963.000000)" fill-rule="nonzero">
            <g id="编组-27" transform="translate(465.000000, 790.000000)">
                <g id="编组-21" transform="translate(30.000000, 156.000000)">
                    <g id="编组-12">
                        <g id="ic_success" transform="translate(430.000000, 16.000000)">
                            <rect id="矩形" fill="#000000" opacity="0" x="0" y="0" width="20" height="20"></rect>
                            <path d="M10,1.3125 C5.1875,1.3125 1.25,5.25 1.25,10.0625 C1.25,14.875 5.1875,18.8125 10,18.8125 C14.8125,18.8125 18.75,14.875 18.75,10.0625 C18.75,5.25 14.8125,1.3125 10,1.3125 Z M14.5,7.9375 L9,13.0625 L8.8125,13.1875 C8.6875,13.25 8.625,13.25 8.5625,13.25 C8.5,13.25 8.375,13.1875 8.3125,13.1875 L8.125,13.0625 L5.5,10.4375 C5.25,10.1875 5.25,9.8125 5.5,9.5625 C5.75,9.3125 6.125,9.3125 6.375,9.5625 L8.5625,11.75 L13.625,7.0625 C13.875,6.875 14.25,6.875 14.5,7.125 C14.75,7.375 14.75,7.75 14.5,7.9375 L14.5,7.9375 Z" id="形状" fill="#FFD400"></path>
                        </g>
                    </g>
                </g>
            </g>
        </g>
    </g>
</svg>