<?xml version="1.0" encoding="UTF-8"?>
<svg width="23px" height="23px" viewBox="0 0 23 23" version="1.1" xmlns="http://www.w3.org/2000/svg" xmlns:xlink="http://www.w3.org/1999/xlink">
    <!-- Generator: Sketch 60.1 (88133) - https://sketch.com -->
    <title>ic_con_pre</title>
    <desc>Created with Sketch.</desc>
    <g id="2.0" stroke="none" stroke-width="1" fill="none" fill-rule="evenodd">
        <g id="pool" transform="translate(-345.000000, -1016.000000)">
            <g id="ic_con_pre" transform="translate(345.000000, 1016.000000)">
                <path d="M23,0 L23,0.041 L0.042,23 L0,23 L0,4 C-2.705415e-16,1.790861 1.790861,4.05812251e-16 4,0 L23,0 Z" id="形状结合" fill="#FFD400" opacity="0.200000003"></path>
                <g id="链接" fill-rule="nonzero">
                    <rect id="矩形" fill="#000000" opacity="0" x="0" y="0" width="16" height="16"></rect>
                    <path d="M7.17568,9.87264 C6.99648,9.87264 6.82624,9.80096 6.7008,9.67552 L6.33344,9.30816 C5.8048,8.77952 5.50912,8.07168 5.50912,7.31904 C5.50912,6.5664 5.8048,5.86752 6.33344,5.32992 L9.30816,2.3552 C9.8368,1.82656 10.54464,1.53088 11.29728,1.53088 C12.04992,1.53088 12.7488,1.82656 13.2864,2.3552 L13.65376,2.72256 C14.1824,3.2512 14.47808,3.95904 14.47808,4.71168 C14.47808,5.46432 14.1824,6.1632 13.65376,6.7008 L12.50688,7.84768 C12.38144,7.97312 12.2112,8.0448 12.032,8.0448 C11.8528,8.0448 11.6736,7.97312 11.54816,7.84768 C11.28832,7.57888 11.28832,7.1488 11.54816,6.88896 L12.69504,5.74208 C12.9728,5.46432 13.11616,5.10592 13.11616,4.72064 C13.11616,4.33536 12.96384,3.968 12.69504,3.6992 L12.32768,3.33184 C12.04992,3.05408 11.69152,2.91072 11.30624,2.91072 C10.92096,2.91072 10.5536,3.06304 10.2848,3.33184 L7.29216,6.28864 C7.0144,6.5664 6.87104,6.9248 6.87104,7.31008 C6.87104,7.69536 7.02336,8.06272 7.29216,8.33152 L7.65952,8.69888 C7.92832,8.96768 7.92832,9.39776 7.65952,9.6576 C7.54304,9.77408 7.3728,9.84576 7.20256,9.85472 L7.17568,9.87264 L7.17568,9.87264 Z" id="路径" fill="#FFD400"></path>
                    <path d="M4.71168,14.46016 C3.95904,14.46016 3.26016,14.16448 2.72256,13.63584 L2.3552,13.26848 C1.82656,12.73984 1.53088,12.032 1.53088,11.27936 C1.53088,10.52672 1.82656,9.82784 2.3552,9.29024 L3.66336,8 C3.7888,7.87456 3.968,7.80288 4.13824,7.80288 C4.31744,7.80288 4.49664,7.87456 4.62208,8 C4.74752,8.12544 4.8192,8.30464 4.8192,8.48384 C4.8192,8.66304 4.74752,8.83328 4.62208,8.96768 L3.32288,10.26688 C2.7584,10.83136 2.7584,11.75424 3.32288,12.31872 L3.69024,12.68608 C3.95904,12.95488 4.3264,13.1072 4.71168,13.1072 L4.72064,13.1072 C5.09696,13.1072 5.47328,12.95488 5.74208,12.68608 L8.7168,9.71136 C9.28128,9.14688 9.28128,8.224 8.7168,7.65952 L8.34944,7.29216 C8.0896,7.02336 8.0896,6.59328 8.34944,6.33344 C8.47488,6.208 8.65408,6.13632 8.82432,6.13632 C9.00352,6.13632 9.17376,6.208 9.30816,6.33344 L9.67552,6.7008 C10.76864,7.79392 10.76864,9.57696 9.67552,10.67008 L6.7008,13.6448 C6.1632,14.17344 5.46432,14.46016 4.71168,14.46016 Z" id="路径" fill="#FFD400"></path>
                </g>
            </g>
        </g>
    </g>
</svg>