<?xml version="1.0" encoding="UTF-8"?>
<svg width="20px" height="20px" viewBox="0 0 20 20" version="1.1" xmlns="http://www.w3.org/2000/svg" xmlns:xlink="http://www.w3.org/1999/xlink">
    <title>Telegram icon 2</title>
    <defs>
        <filter color-interpolation-filters="auto" id="filter-1">
            <feColorMatrix in="SourceGraphic" type="matrix" values="0 0 0 0 0.411765 0 0 0 0 0.411765 0 0 0 0 0.411765 0 0 0 1.000000 0"></feColorMatrix>
        </filter>
    </defs>
    <g id="首页" stroke="none" stroke-width="1" fill="none" fill-rule="evenodd">
        <g id="英文-跨链Curve" transform="translate(-516.000000, -3572.000000)">
            <g id="Telegram-icon-2" transform="translate(0.000000, 3478.000000)" filter="url(#filter-1)">
                <g transform="translate(516.000000, 94.000000)">
                    <path d="M10,0 C4.47580645,0 0,4.47580645 0,10 C0,15.5241935 4.47580645,20 10,20 C15.5241935,20 20,15.5241935 20,10 C20,4.47580645 15.5241935,0 10,0 Z M14.9112903,6.85080645 L13.2701613,14.5846774 C13.1491935,15.1330645 12.8225806,15.266129 12.3669355,15.0080645 L9.86693548,13.1653226 L8.66129032,14.3266129 C8.52822581,14.4596774 8.41532258,14.5725806 8.15725806,14.5725806 L8.33467742,12.0282258 L12.9677419,7.84274194 C13.1693548,7.66532258 12.9233871,7.56451613 12.6572581,7.74193548 L6.93145161,11.3467742 L4.46370968,10.5766129 C3.92741935,10.4072581 3.91532258,10.0403226 4.5766129,9.78225806 L14.2177419,6.06451613 C14.6653226,5.90322581 15.0564516,6.1733871 14.9112903,6.85080645 Z" id="Telegram-icon" fill="#8491B3" fill-rule="nonzero"></path>
                </g>
            </g>
        </g>
    </g>
</svg>