<?xml version="1.0" encoding="UTF-8"?>
<svg width="30px" height="30px" viewBox="0 0 30 30" version="1.1" xmlns="http://www.w3.org/2000/svg" xmlns:xlink="http://www.w3.org/1999/xlink">
    <title>telegram</title>
    <g id="首页" stroke="none" stroke-width="1" fill="none" fill-rule="evenodd">
        <g id="选择语言" transform="translate(-16.000000, -762.000000)">
            <g id="编组-32" transform="translate(0.000000, 44.000000)">
                <g id="编组-27" transform="translate(0.000000, 698.000000)">
                    <g id="telegram" transform="translate(16.000000, 20.000000)">
                        <rect id="矩形" x="0" y="0" width="30" height="30"></rect>
                        <path d="M22.0405542,23.3469003 L25.4346139,7.24071547 C25.5726859,6.55867816 25.4923531,6.07114778 25.1911052,5.77559828 C24.8898573,5.48004878 24.4932142,5.42700143 24.001176,5.61393018 L4.04852336,13.3537906 C3.60167231,13.5230369 3.29791401,13.7175439 3.13724846,13.9347854 C2.97658291,14.1520269 2.95649972,14.3566381 3.07950928,14.551145 C3.20251884,14.7431259 3.44853796,14.8946897 3.81756664,15.0033105 L8.92120816,16.6073612 L20.7702923,9.09989865 C21.0941337,8.88265714 21.3401529,8.83718799 21.5083496,8.96096513 C21.6162968,9.03674705 21.5836616,9.152946 21.4154648,9.30956197 L11.8307608,18.0244832 L11.4642425,23.3241657 C11.8182088,23.3241657 12.1646439,23.1549194 12.5035478,22.8139007 L14.9988846,20.3964574 L20.1728173,24.2310227 C21.1568937,24.7892829 21.7794727,24.4937334 22.0405542,23.3469003 L22.0405542,23.3469003 Z" id="路径" fill="#989CA3" fill-rule="nonzero"></path>
                    </g>
                </g>
            </g>
        </g>
    </g>
</svg>