<?xml version="1.0" encoding="UTF-8"?>
<svg width="28px" height="28px" viewBox="0 0 28 28" version="1.1" xmlns="http://www.w3.org/2000/svg" xmlns:xlink="http://www.w3.org/1999/xlink">
    <title>TRON</title>
    <g id="页面-1" stroke="none" stroke-width="1" fill="none" fill-rule="evenodd">
        <g id="GameFi" transform="translate(-1955.000000, -546.000000)" fill-rule="nonzero">
            <g id="TRON" transform="translate(1955.000000, 546.000000)">
                <path d="M14.0004974,0 C6.26814452,0 0,6.26764716 0,13.9997513 C0,21.7314825 6.26814452,27.9995026 14.0004974,27.9995026 C21.7321042,27.9995026 28,21.7314825 28,13.9997513 C28,6.26764716 21.7321042,0 14.0004974,0 Z" id="路径" fill="#FFFFFF"></path>
                <path d="M6.56998472,7.82052307 L12.2040967,22.7473118 L13.0822111,14.4058556 L6.56998472,7.82052307 Z M13.4846627,14.5521729 L12.551745,22.9669456 L21.5699847,12.2838859 L13.4846627,14.5521729 Z M6.80771097,7.43637429 L13.3017398,13.9667983 L18.4052804,9.44852708 L6.80771097,7.43637429 Z M18.7163231,9.72285896 L13.7040862,14.1497213 L21.5699847,11.9179347 L18.7163231,9.72285896 Z" id="形状" fill="#3E5BF2"></path>
            </g>
        </g>
    </g>
</svg>