<?xml version="1.0" encoding="UTF-8"?>
<svg width="20px" height="20px" viewBox="0 0 20 20" version="1.1" xmlns="http://www.w3.org/2000/svg" xmlns:xlink="http://www.w3.org/1999/xlink">
    <title>Twitter icon</title>
    <defs>
        <filter color-interpolation-filters="auto" id="filter-1">
            <feColorMatrix in="SourceGraphic" type="matrix" values="0 0 0 0 0.411765 0 0 0 0 0.411765 0 0 0 0 0.411765 0 0 0 1.000000 0"></feColorMatrix>
        </filter>
    </defs>
    <g id="首页" stroke="none" stroke-width="1" fill="none" fill-rule="evenodd">
        <g id="英文-跨链Curve" transform="translate(-476.000000, -3572.000000)">
            <g id="Twitter-icon" transform="translate(0.000000, 3478.000000)" filter="url(#filter-1)">
                <g transform="translate(476.000000, 94.000000)">
                    <path d="M10,0 C4.4771525,0 0,4.4771525 0,10 C0,15.5228475 4.4771525,20 10,20 C15.5228475,20 20,15.5228475 20,10 C20,7.3478351 18.9464316,4.80429597 17.0710678,2.92893219 C15.195704,1.0535684 12.6521649,0 10,0 Z M15.2355932,7.62711865 C15.3220339,10.8966102 13.0711864,15.3033898 7.90169492,15.3033898 C6.48474576,15.3033898 4.99322035,14.8983051 4.04745764,14.1169492 C5.37475342,14.3104383 6.72319974,13.9494224 7.77627119,13.1186441 C6.69856013,13.0441077 5.77100014,12.3297261 5.42372881,11.3067797 C5.65932203,11.3576271 6.23050848,11.4322034 6.54237289,11.3067797 C5.88305086,11.0457627 4.50847459,10.4457627 4.55254236,8.68644068 C4.9,8.97118645 5.61016947,8.9983051 5.61016949,8.99830508 C5.04745764,8.67118643 3.98135594,7.04915254 4.9322034,5.62542373 C5.36779662,6.1 7.35084746,8.24745764 10.1525424,8.24915254 C9.88135592,7.55593221 10.279661,5.12881355 12.638983,5.12881355 C13.5830508,5.12881355 14.1101695,5.4677966 14.5033898,5.94067797 C15.07901,5.77885753 15.6402481,5.56966878 16.1813559,5.31525424 C16.1813559,5.31525424 15.9542373,6.07457627 15.0627119,6.75084746 C15.3847458,6.66779662 16.3576271,6.45084746 16.4932203,6.31355932 C16.1774862,6.83992764 15.7477335,7.2887934 15.2355932,7.62711865 Z" fill="#8491B3" fill-rule="nonzero"></path>
                </g>
            </g>
        </g>
    </g>
</svg>