<?xml version="1.0" encoding="UTF-8"?>
<svg width="30px" height="30px" viewBox="0 0 30 30" version="1.1" xmlns="http://www.w3.org/2000/svg" xmlns:xlink="http://www.w3.org/1999/xlink">
    <title>wechat</title>
    <g id="首页" stroke="none" stroke-width="1" fill="none" fill-rule="evenodd">
        <g id="选择语言" transform="translate(-116.000000, -762.000000)">
            <g id="编组-32" transform="translate(0.000000, 44.000000)">
                <g id="编组-27" transform="translate(0.000000, 698.000000)">
                    <g id="编组-13" transform="translate(16.000000, 20.000000)">
                        <g id="wechat" transform="translate(100.000000, 0.000000)">
                            <rect id="矩形" x="0" y="0" width="30" height="30"></rect>
                            <path d="M20.15,11.1598732 C20.45557,11.1614126 20.7608236,11.1797737 21.064375,11.2148732 C20.24625,7.36487322 16.155625,4.50487322 11.4875,4.50487322 C6.27625,4.50487322 2,8.08674822 2,12.6311232 C2,15.2573732 3.423125,17.4436232 5.795,19.0867482 L4.84625,21.9604982 L8.1875,20.3173732 C9.27503211,20.5897009 10.3878424,20.7486738 11.508125,20.7917482 C11.80375,20.7917482 12.099375,20.7917482 12.395,20.7573732 C12.2023412,20.1054829 12.1028146,19.429628 12.099375,18.7498732 C12.099375,14.5767482 15.660625,11.1873732 20.16375,11.1873732 L20.15,11.1598732 Z M15.0625,8.56799822 C15.3850378,8.54738831 15.7007688,8.66703624 15.9286431,8.89622771 C16.1565174,9.12541918 16.2743436,9.44183454 16.251875,9.76424822 C16.2720577,10.0860639 16.1534901,10.4011217 15.926143,10.629783 C15.6987959,10.8584443 15.3844267,10.9788258 15.0625,10.9604982 C14.3425825,11.0125197 13.7119097,10.482389 13.639375,9.76424822 C13.7084255,9.04427143 14.3413729,8.51222867 15.0625,8.56799822 L15.0625,8.56799822 Z M8.42125,10.9536232 C7.70574881,10.9882463 7.08353678,10.467742 6.99125,9.75737322 C7.06379442,9.03636143 7.69875987,8.50518841 8.42125,8.56112322 C8.73688666,8.55445074 9.04069558,8.6812279 9.25796668,8.91027876 C9.47523777,9.13932961 9.58581277,9.44940296 9.5625,9.76424822 C9.58249748,10.084804 9.46483682,10.3986739 9.23904554,10.6270906 C9.01325425,10.8555074 8.70076556,10.9767886 8.38,10.9604982 L8.42125,10.9536232 Z M28.8125,18.6123732 C28.8125,14.8173732 25.0175,11.6754982 20.748125,11.6754982 C16.23125,11.6754982 12.676875,14.7898732 12.676875,18.6123732 C12.676875,22.4348732 16.238125,25.5423732 20.748125,25.5423732 C21.7126827,25.5010311 22.6685473,25.3417203 23.594375,25.0679982 L26.2,26.5048732 L25.5125,24.1123732 C27.416875,22.6686232 28.84,20.7642482 28.84,18.6123732 L28.8125,18.6123732 Z M18.135625,17.4161232 C17.6078479,17.4161232 17.18,16.9882753 17.18,16.4604982 C17.18,15.9327211 17.6078479,15.5048732 18.135625,15.5048732 C18.7267182,15.4445174 19.256623,15.8702791 19.325,16.4604982 C19.2601764,17.0526727 18.7278624,17.4803702 18.135625,17.4161232 L18.135625,17.4161232 Z M23.35375,17.4161232 C22.8259729,17.4161232 22.398125,16.9882753 22.398125,16.4604982 C22.398125,15.9327211 22.8259729,15.5048732 23.35375,15.5048732 C23.9448432,15.4445174 24.474748,15.8702791 24.543125,16.4604982 C24.474748,17.0507173 23.9448432,17.476479 23.35375,17.4161232 L23.35375,17.4161232 Z" id="形状" fill="#989CA3" fill-rule="nonzero"></path>
                        </g>
                    </g>
                </g>
            </g>
        </g>
    </g>
</svg>