<?xml version="1.0" encoding="UTF-8"?>
<svg width="30px" height="30px" viewBox="0 0 30 30" version="1.1" xmlns="http://www.w3.org/2000/svg" xmlns:xlink="http://www.w3.org/1999/xlink">
    <title>weibo</title>
    <g id="首页" stroke="none" stroke-width="1" fill="none" fill-rule="evenodd">
        <g id="选择语言" transform="translate(-66.000000, -762.000000)">
            <g id="编组-32" transform="translate(0.000000, 44.000000)">
                <g id="编组-27" transform="translate(0.000000, 698.000000)">
                    <g id="编组-13" transform="translate(16.000000, 20.000000)">
                        <g id="weibo" transform="translate(50.000000, 0.000000)">
                            <rect id="矩形" x="0" y="0" width="30" height="30"></rect>
                            <path d="M21.2899958,14.7751474 C20.9770072,14.7136197 20.7736984,14.6173155 20.6800693,14.4942602 C20.5864403,14.3685297 20.5703896,14.2534998 20.6319173,14.1491702 L20.7255463,13.9940135 C20.7469472,13.9726126 20.7683482,13.9431863 20.7897491,13.9003845 C20.81115,13.8575826 20.8539519,13.7693038 20.9154795,13.6328729 C20.9770072,13.496442 21.0251593,13.3626862 21.0572607,13.2262553 C21.0893621,13.0898244 21.1161132,12.9239672 21.134839,12.7260086 C21.1535649,12.52805 21.1482146,12.3407919 21.1187883,12.1615592 C21.0893621,11.9850015 21.0251593,11.7897181 20.9315302,11.5837341 C20.8379012,11.3750751 20.7068205,11.187817 20.5409633,11.0192847 C20.2493757,10.7276971 19.8668341,10.5377638 19.3986889,10.4548352 C18.9278685,10.3719067 18.4597232,10.3665564 17.9889028,10.4387845 C17.5180824,10.5110127 17.0766883,10.6046417 16.6593702,10.7196717 C16.2420521,10.8347017 15.8969622,10.9443814 15.6267755,11.048711 L15.2201579,11.2359691 C15.0114988,11.2974967 14.8376163,11.3402986 14.7038605,11.3616995 C14.5674296,11.3831004 14.4631001,11.3777502 14.390872,11.3456488 C14.3186438,11.3135474 14.2597913,11.2841212 14.2196645,11.2520198 C14.1795378,11.2199184 14.1634871,11.1476903 14.1715125,11.0326603 C14.1795378,10.9176303 14.1929134,10.818651 14.2036138,10.7357224 C14.2143143,10.6527938 14.2410655,10.5217131 14.2811922,10.3451555 C14.3213189,10.1685978 14.3534203,10.0268167 14.3748213,9.92248719 C14.3748213,9.6710263 14.3587706,9.43829122 14.3266692,9.21893171 C14.2945678,8.99957221 14.2276899,8.75346155 14.1233604,8.48327485 C14.0190309,8.21308815 13.8665492,7.99372865 13.6685907,7.82519635 C13.4706321,7.65666405 13.2191712,7.52290826 12.9168831,7.41857874 C12.614595,7.31424922 12.2240281,7.28214783 11.7425073,7.32494968 C11.2609864,7.36507642 10.720613,7.49080687 10.1133617,7.69946591 C9.38305506,7.9509268 8.64204797,8.32009279 7.89034041,8.80963899 C7.13863286,9.29918519 6.48590459,9.81013232 5.93483072,10.3424804 C5.38108174,10.8748284 4.87548484,11.3911258 4.41536491,11.8913725 C3.95524498,12.3916191 3.60212969,12.7982367 3.3506688,13.1139004 L3.00557885,13.6141471 C2.31807407,14.512986 1.80445183,15.4091498 1.47273746,16.3079887 C1.13834798,17.2041526 0.980516144,17.883632 1.00191707,18.3410768 L1.00191707,18.9991553 C1.12764752,19.9996486 1.43528584,20.8984876 1.92483204,21.692997 C2.41437825,22.4875064 3.00022862,23.1295342 3.67703293,23.6190804 C4.35383725,24.1086266 5.15369689,24.5259447 6.07126163,24.8710346 C6.98882637,25.2161246 7.8716146,25.4649103 8.71695122,25.6227422 C9.56228783,25.780574 10.4557765,25.8875786 11.3947422,25.9517814 C12.938284,26.0775119 14.5406784,25.9571317 16.1992503,25.5933159 C17.8578221,25.226825 19.4040391,24.5954977 20.832551,23.6993339 C22.2637379,22.8004949 23.2695815,21.7277735 23.8527568,20.4731441 C24.2085472,19.7428375 24.390455,19.0526576 24.4011555,18.4052796 C24.411856,17.7579015 24.3021762,17.2309037 24.0721163,16.8242861 C23.8420563,16.4176685 23.5451184,16.0565279 23.1786276,15.7435393 C22.8121367,15.4305507 22.4697219,15.2004908 22.1460328,15.0533594 C21.8223438,14.906228 21.5361064,14.812599 21.2846455,14.7724722 L21.2899958,14.7751474 L21.2899958,14.7751474 Z M11.7425073,24.5125691 C9.48738458,24.6168986 7.57467674,24.1781796 5.9990335,23.1964121 C4.42339026,22.2146446 3.63690619,20.9733908 3.63690619,19.4699757 C3.63690619,17.9879615 4.42071514,16.7092561 5.98565792,15.6338596 C7.5506007,14.558463 9.47133389,13.9699375 11.7451824,13.865608 C14.0190309,13.7612784 15.939764,14.1357947 17.5047068,14.9918317 C19.0696496,15.8478688 19.8534585,17.0168945 19.8534585,18.4989086 C19.8534585,20.0023238 19.056274,21.3532573 17.4592299,22.5543843 C15.8595106,23.7555113 13.9548281,24.4055645 11.7425073,24.5125691 Z M10.835643,15.8398435 C10.2310668,15.9013711 9.68801827,16.0431523 9.20649742,16.2625118 C8.72497656,16.4818713 8.35046034,16.7333322 8.08027364,17.0142193 C7.81008694,17.2951065 7.58002697,17.5973946 7.39009375,17.9210836 C7.20283564,18.2447726 7.07175496,18.5631114 6.99952683,18.8761 C6.9272987,19.1890885 6.87914662,19.4753259 6.85774569,19.7374873 C6.83634476,19.9969735 6.8256443,20.2002823 6.8256443,20.3474137 L6.85774569,20.5988746 L6.85774569,20.724605 C6.85774569,20.7861327 6.87914662,20.9118631 6.92194847,21.0991213 C6.96475033,21.2863794 7.02092776,21.4602619 7.09315589,21.6154186 C7.16538402,21.7732505 7.28576423,21.9444579 7.45162141,22.131716 C7.6174786,22.3189741 7.81811229,22.4768059 8.04549713,22.6025364 C9.4231818,23.2713153 10.7072374,23.4746241 11.897664,23.2124628 C13.0880905,22.9503014 14.0484571,22.3510755 14.7787638,21.4121098 C15.0703514,21.0563194 15.2656348,20.6202755 15.3565888,20.0959528 C15.4502178,19.5743052 15.4288169,19.0473074 15.292386,18.5149593 C15.1559551,17.9826113 14.92322,17.4984153 14.5888305,17.0596963 C14.254441,16.6209773 13.7595446,16.2812376 13.1014661,16.0431523 C12.4460627,15.8023919 11.6890049,15.7328388 10.835643,15.8398435 L10.835643,15.8398435 Z M9.70674408,21.7571998 C9.58101364,21.7786007 9.46063342,21.7839509 9.34827856,21.7732505 C9.23324858,21.76255 9.12891906,21.7411491 9.03529,21.7090477 C8.94166095,21.6769463 8.84535678,21.6394947 8.75440284,21.5993679 C8.66077378,21.5592412 8.58319542,21.5003886 8.51899264,21.4281605 C8.45478986,21.3532573 8.39861243,21.2810291 8.34778523,21.208801 C8.29695803,21.1365729 8.25415617,21.0536443 8.22205478,20.9573401 C8.18995339,20.8637111 8.1739027,20.7620567 8.1739027,20.6604023 C8.1739027,20.4303423 8.23543036,20.2056326 8.36116081,19.9862731 C8.48689125,19.7669136 8.65809867,19.5796554 8.87745817,19.4218236 C9.09681767,19.2639918 9.34292833,19.175713 9.61311503,19.154312 C9.80037314,19.1329111 9.98228102,19.1382613 10.1615138,19.1703627 C10.3380714,19.2024641 10.490553,19.2532913 10.6162835,19.3255194 C10.7420139,19.3977476 10.8516937,19.4806762 10.9453227,19.5769803 C11.0389518,19.6706094 11.1085048,19.7802891 11.1486315,19.9060196 C11.1887583,20.03175 11.2101592,20.1655058 11.2128343,20.3126372 C11.2128343,20.5426972 11.1459564,20.7620567 11.0095255,20.9707157 C10.8730946,21.1793747 10.6911867,21.3559324 10.4611268,21.5030638 C10.2310668,21.6501951 9.9796059,21.7331237 9.70674408,21.7571998 L9.70674408,21.7571998 Z M12.3684844,19.5020771 C12.221353,19.6064066 12.0715465,19.6545587 11.9137147,19.6438582 C11.7585579,19.6331578 11.6488782,19.5662799 11.5846754,19.4405494 L11.5204726,19.314819 C11.4990717,19.2720171 11.4883712,19.2318904 11.4883712,19.1890885 L11.4883712,19.0660332 C11.4883712,19.0045055 11.4990717,18.9510032 11.5204726,18.9108765 L11.5846754,18.785146 C11.6060763,18.7423442 11.6355026,18.7129179 11.6783045,18.691517 L11.7719335,18.5657865 C11.9377907,18.4400561 12.1009728,18.3892289 12.2561295,18.4106298 C12.4112862,18.4320307 12.520966,18.5149593 12.5851688,18.6620907 C12.6466964,18.7450193 12.6734476,18.8386484 12.6627471,18.9429779 C12.6520466,19.0473074 12.6199453,19.1462867 12.5691181,19.2399157 C12.520966,19.3308697 12.451413,19.4191485 12.3684844,19.5020771 L12.3684844,19.5020771 Z M23.4835908,12.9587437 C23.6093212,12.9587437 23.7243512,12.9266423 23.8286807,12.8651146 C23.9330102,12.803587 24.0159388,12.7233335 24.0801416,12.6297044 C24.1416693,12.5360754 24.1844711,12.4370961 24.2058721,12.3327666 C24.227273,12.3113657 24.2379734,12.2819394 24.2379734,12.2391375 C24.4894343,9.85828441 23.6547982,8.50200066 21.734065,8.16761118 C21.1696156,8.06328166 20.647968,8.0525812 20.1691222,8.13550979 C20.0219908,8.13550979 19.8989355,8.17296141 19.794606,8.24518954 C19.6902765,8.31741767 19.6019977,8.41104672 19.5270944,8.52607671 C19.4521912,8.64110669 19.4174147,8.7614869 19.4174147,8.88454223 C19.4174147,9.09320127 19.4896428,9.26975892 19.6367742,9.41689029 C19.7839055,9.56134655 19.9604632,9.63624979 20.1691222,9.63624979 C21.7982678,9.25905845 22.6730307,9.78338116 22.7987611,11.2011926 C22.841563,11.556983 22.820162,11.8886973 22.7345583,12.204361 C22.7345583,12.4130201 22.8067865,12.5895777 22.9539178,12.7367091 C23.095699,12.8838404 23.2722566,12.9560686 23.4835908,12.9587437 L23.4835908,12.9587437 Z M22.9512427,4.13086135 C22.033678,3.92220231 20.8004496,3.96232905 19.2569077,4.25659179 C19.2355068,4.25659179 19.2141059,4.26729226 19.1927049,4.28869318 L19.1606035,4.35289596 L19.1285021,4.38499735 C18.8984422,4.44652502 18.7111841,4.5776057 18.5640527,4.77556427 C18.4169213,4.97352284 18.3446932,5.18753211 18.3446932,5.41759208 C18.3446932,5.73058063 18.4490227,5.99274199 18.6576818,6.19872591 C18.8663408,6.40738494 19.1178017,6.51171446 19.4093893,6.51171446 L19.5030184,6.51171446 C19.5244193,6.51171446 19.5698963,6.501014 19.6447995,6.47961307 C19.7197028,6.45821215 19.7972811,6.44216145 19.8802097,6.43146099 C19.9631383,6.42076052 20.0514171,6.3993596 20.1477213,6.36725821 C20.2413503,6.33515682 20.3269541,6.30573054 20.3991822,6.27362915 C20.4714103,6.24152776 20.6131915,6.22547707 20.8218505,6.22547707 C21.0305095,6.22547707 21.2873206,6.24152776 21.5896087,6.27362915 C21.8918968,6.30573054 22.2262863,6.3833089 22.5927772,6.50903935 C22.9592681,6.63476979 23.3230838,6.78992651 23.6895747,6.97985974 C24.0560656,7.16979296 24.4198813,7.4292792 24.7863722,7.76099357 C25.1528631,8.09538305 25.4712019,8.48059974 25.7413886,8.91931874 C26.2844371,10.149872 26.3887666,11.3402986 26.0543771,12.4879233 C26.0543771,12.5093242 26.0490269,12.5307252 26.0383264,12.5521261 C26.027626,12.573527 26.0115753,12.6243542 25.9901743,12.7072828 C25.9687734,12.7902114 25.9473725,12.8677898 25.9259716,12.942693 C25.9045706,13.0149211 25.8831697,13.1112253 25.8617688,13.2235802 C25.8403678,13.3386101 25.8296674,13.4375894 25.8296674,13.520518 C25.8296674,13.7077761 25.8804946,13.865608 25.9848241,13.9913384 C26.0891536,14.1170689 26.2202343,14.2053477 26.375391,14.25885 C26.5305477,14.3123523 26.7151307,14.3364284 26.9237898,14.3364284 C27.506965,14.3364284 27.852055,13.9806379 27.9563845,13.2717322 C28.2078454,12.458497 28.3469514,11.6800383 28.3790528,10.9390312 C28.4111542,10.1980241 28.3576519,9.54529585 28.2238961,8.98352152 C28.0874652,8.41907207 27.8841564,7.89207425 27.6139697,7.40252804 C27.343783,6.91298184 27.0307944,6.49566377 26.675004,6.15057382 C26.3192136,5.80548388 25.9232964,5.49249532 25.4845774,5.21160815 C25.0458584,4.93072099 24.6231901,4.70601126 24.2165725,4.53747896 C23.8099549,4.37162177 23.3872866,4.23519086 22.9512427,4.13086135 Z" id="形状" fill="#989CA3" fill-rule="nonzero"></path>
                        </g>
                    </g>
                </g>
            </g>
        </g>
    </g>
</svg>